<svg width="668" height="668" viewBox="0 0 668 668" fill="none" xmlns="http://www.w3.org/2000/svg">
<path fill-rule="evenodd" clip-rule="evenodd" d="M175.669 13.594C218.959 3.97335 271.477 0.666687 334 0.666687C396.523 0.666687 449.04 3.97335 492.33 13.594C536 23.299 572.293 39.8667 600.213 67.786C628.133 95.7053 644.7 132.001 654.407 175.669C664.027 218.959 667.333 271.477 667.333 334C667.333 396.523 664.027 449.04 654.407 492.33C644.7 536 628.133 572.293 600.213 600.213C572.293 628.133 536 644.7 492.33 654.407C449.04 664.027 396.523 667.333 334 667.333C271.477 667.333 218.959 664.027 175.669 654.407C132.001 644.7 95.7053 628.133 67.786 600.213C39.8667 572.293 23.299 536 13.594 492.33C3.97335 449.04 0.666687 396.523 0.666687 334C0.666687 271.477 3.97335 218.959 13.594 175.669C23.299 132.001 39.8667 95.7053 67.786 67.786C95.7053 39.8667 132.001 23.299 175.669 13.594ZM457.57 243.763C470.587 256.781 470.587 277.887 457.57 290.903L334.81 413.663C315.953 432.52 285.38 432.52 266.523 413.663L210.43 357.57C197.412 344.553 197.412 323.447 210.43 310.43C223.447 297.413 244.553 297.413 257.57 310.43L300.667 353.527L410.43 243.763C423.447 230.746 444.553 230.746 457.57 243.763Z" fill="url(#paint0_linear_460_5)"/>
<defs>
<linearGradient id="paint0_linear_460_5" x1="0.666687" y1="334.9" x2="667.333" y2="333.1" gradientUnits="userSpaceOnUse">
<stop stop-color="#F16BFA"/>
<stop offset="1" stop-color="#E58F51"/>
</linearGradient>
</defs>
</svg>
