<svg width="878" height="639" viewBox="0 0 878 639" fill="none" xmlns="http://www.w3.org/2000/svg">
<path d="M143.2 638.617C166.2 522.117 269.6 426.217 387.4 412.017C447.5 404.817 508 416.917 567.6 427.117C627.2 437.317 689 445.717 747.8 431.317C806.6 416.917 862.3 374.617 875.4 315.517C882.4 283.917 872.5 244.717 842.4 232.817C808.8 219.517 774 246.517 739.1 255.517C680.9 270.517 621.4 233.917 581 189.517C540.5 145.117 510 91.2172 462.8 53.9172C396.3 1.31723 303.8 -10.4828 221.3 8.5172C138.8 27.5172 64.9 74.2172 0 128.717L143.2 638.617Z" fill="url(#paint0_linear_103_4)"/>
<defs>
<linearGradient id="paint0_linear_103_4" x1="4.52048e-06" y1="319" x2="878" y2="319" gradientUnits="userSpaceOnUse">
<stop stop-color="#F169FA"/>
<stop offset="1" stop-color="#E58F51"/>
</linearGradient>
</defs>
</svg>
