<svg width="842" height="564" viewBox="0 0 842 564" fill="none" xmlns="http://www.w3.org/2000/svg">
<path d="M841.846 532C814.346 482.5 782.846 434.5 741.146 396.2C699.446 357.9 646.646 329.7 590.246 325.6C533.846 321.5 474.146 344.1 441.146 390.1C422.946 415.4 413.746 445.8 402.146 474.7C390.546 503.6 375.346 532.7 349.546 550.1C323.746 567.5 284.946 569 264.046 545.9C241.246 520.6 248.046 478.6 226.846 451.9C203.046 421.9 157.346 425.4 119.546 431.7C81.7464 438 36.1464 441.8 12.0464 412.1C-7.25358 388.3 -2.15363 350.6 18.7464 328.2C39.6464 305.8 72.4463 297.5 102.946 300.4C133.446 303.3 162.146 315.9 189.246 330.1C223.846 348.2 264.246 369.7 299.446 353C318.946 343.8 331.746 324.4 339.546 304.3C347.346 284.2 351.146 262.8 358.146 242.4C380.546 177.3 438.346 125.7 505.546 110.7C556.646 99.3 612.246 107.6 659.746 85.7C698.046 68.1 725.346 33.4 751.046 0L841.846 532Z" fill="url(#paint0_linear_103_6)"/>
<defs>
<linearGradient id="paint0_linear_103_6" x1="9.99998" y1="385" x2="604" y2="177" gradientUnits="userSpaceOnUse">
<stop stop-color="#F169FA"/>
<stop offset="1" stop-color="#E58F51"/>
</linearGradient>
</defs>
</svg>
