<svg width="381" height="317" viewBox="0 0 381 317" fill="none" xmlns="http://www.w3.org/2000/svg">
<path d="M103.496 160.557C117.501 160.557 128.854 149.204 128.854 135.199C128.854 121.194 117.501 109.841 103.496 109.841C89.4912 109.841 78.138 121.194 78.138 135.199C78.138 149.204 89.4912 160.557 103.496 160.557Z" fill="url(#paint0_linear_134_253)"/>
<path d="M223.415 174.931C237.42 174.931 248.773 163.578 248.773 149.573C248.773 135.568 237.42 124.215 223.415 124.215C209.41 124.215 198.057 135.568 198.057 149.573C198.057 163.578 209.41 174.931 223.415 174.931Z" fill="url(#paint1_linear_134_253)"/>
<path opacity="0.21" d="M225.445 100.823C239.45 100.823 250.803 89.4698 250.803 75.465C250.803 61.4602 239.45 50.107 225.445 50.107C211.44 50.107 200.087 61.4602 200.087 75.465C200.087 89.4698 211.44 100.823 225.445 100.823Z" fill="url(#paint2_linear_134_253)"/>
<path opacity="0.21" d="M34.921 170.166C41.9234 170.166 47.6 164.489 47.6 157.487C47.6 150.485 41.9234 144.808 34.921 144.808C27.9186 144.808 22.242 150.485 22.242 157.487C22.242 164.489 27.9186 170.166 34.921 170.166Z" fill="url(#paint3_linear_134_253)"/>
<path d="M86.314 265.711C100.319 265.711 111.672 254.358 111.672 240.353C111.672 226.348 100.319 214.995 86.314 214.995C72.3092 214.995 60.956 226.348 60.956 240.353C60.956 254.358 72.3092 265.711 86.314 265.711Z" fill="url(#paint4_linear_134_253)"/>
<g opacity="0.3">
<path d="M172.486 109.84C169.523 109.84 166.561 108.71 164.301 106.449C159.78 101.929 159.78 94.599 164.301 90.078L250.522 3.857C255.042 -0.664002 262.372 -0.664002 266.893 3.857C271.414 8.378 271.414 15.707 266.893 20.228L180.672 106.449C178.411 108.71 175.448 109.84 172.486 109.84Z" fill="url(#paint5_linear_134_253)"/>
</g>
<g opacity="0.3">
<path d="M65.5 273.811C62.537 273.811 59.575 272.681 57.315 270.42C52.794 265.9 52.794 258.57 57.315 254.049L143.536 167.828C148.056 163.307 155.386 163.307 159.907 167.828C164.428 172.349 164.428 179.678 159.907 184.199L73.686 270.42C71.425 272.68 68.462 273.811 65.5 273.811Z" fill="url(#paint6_linear_134_253)"/>
</g>
<g opacity="0.3">
<path d="M112.024 281.733C110.063 281.733 108.103 280.985 106.607 279.489C103.615 276.497 103.615 271.646 106.607 268.655L163.668 211.594C166.66 208.602 171.511 208.602 174.502 211.594C177.494 214.586 177.494 219.436 174.502 222.428L117.441 279.489C115.945 280.985 113.985 281.733 112.024 281.733Z" fill="url(#paint7_linear_134_253)"/>
</g>
<g opacity="0.3">
<path d="M72.791 137.269C70.83 137.269 68.87 136.521 67.374 135.025C64.382 132.033 64.382 127.182 67.374 124.191L124.435 67.13C127.427 64.138 132.278 64.138 135.269 67.13C138.261 70.122 138.261 74.972 135.269 77.964L78.208 135.025C76.712 136.521 74.752 137.269 72.791 137.269Z" fill="url(#paint8_linear_134_253)"/>
</g>
<path d="M106.093 127.955C103.13 127.955 100.168 126.825 97.908 124.564C93.387 120.043 93.387 112.714 97.908 108.193L145.827 60.332C150.347 55.811 157.677 55.811 162.198 60.332C166.719 64.853 166.719 72.182 162.198 76.703L114.279 124.564C112.018 126.825 109.056 127.955 106.093 127.955Z" fill="url(#paint9_linear_134_253)"/>
<path d="M108.622 247.504C103.371 247.504 98.12 245.501 94.114 241.494C86.101 233.481 86.101 220.491 94.114 212.478L246.935 59.657C254.947 51.644 267.939 51.644 275.951 59.657C283.964 67.67 283.964 80.66 275.951 88.673L123.13 241.494C119.124 245.501 113.873 247.504 108.622 247.504Z" fill="url(#paint10_linear_134_253)"/>
<path d="M147.341 109.062C145.604 109.062 143.868 108.399 142.542 107.074C139.892 104.424 139.892 100.127 142.542 97.478L228.763 11.257C231.414 8.60699 235.71 8.60699 238.36 11.257C241.01 13.907 241.01 18.204 238.36 20.853L152.139 107.074C150.814 108.399 149.078 109.062 147.341 109.062Z" fill="url(#paint11_linear_134_253)"/>
<path d="M150.268 174.259C147.305 174.259 144.343 173.129 142.083 170.868C137.562 166.348 137.562 159.018 142.083 154.497L228.304 68.276C232.824 63.755 240.154 63.755 244.675 68.276C249.196 72.797 249.196 80.126 244.675 84.647L158.454 170.868C156.193 173.129 153.23 174.259 150.268 174.259Z" fill="url(#paint12_linear_134_253)"/>
<g opacity="0.3">
<path d="M251.391 227.216C248.428 227.216 245.466 226.086 243.206 223.825C238.685 219.305 238.685 211.975 243.206 207.454L329.427 121.233C333.947 116.712 341.277 116.712 345.798 121.233C350.319 125.754 350.319 133.083 345.798 137.604L259.577 223.825C257.316 226.085 254.353 227.216 251.391 227.216Z" fill="url(#paint13_linear_134_253)"/>
</g>
<g opacity="0.3">
<path d="M237.021 295.075C234.058 295.075 231.096 293.945 228.836 291.684C224.315 287.164 224.315 279.834 228.836 275.313L315.057 189.092C319.577 184.571 326.907 184.571 331.428 189.092C335.949 193.613 335.949 200.942 331.428 205.463L245.207 291.684C242.946 293.944 239.983 295.075 237.021 295.075Z" fill="url(#paint14_linear_134_253)"/>
</g>
<path d="M227.707 149.541C224.744 149.541 221.782 148.411 219.522 146.15C215.001 141.63 215.001 134.3 219.522 129.779L305.743 43.558C310.263 39.037 317.593 39.037 322.114 43.558C326.635 48.079 326.635 55.408 322.114 59.929L235.893 146.15C233.632 148.41 230.669 149.541 227.707 149.541Z" fill="url(#paint15_linear_134_253)"/>
<path d="M282.393 168.538C279.43 168.538 276.468 167.408 274.208 165.147C269.687 160.627 269.687 153.297 274.208 148.776L360.429 62.555C364.949 58.034 372.279 58.034 376.8 62.555C381.321 67.076 381.321 74.405 376.8 78.926L290.579 165.147C288.318 167.407 285.356 168.538 282.393 168.538Z" fill="url(#paint16_linear_134_253)"/>
<path d="M211.474 223.49C208.511 223.49 205.549 222.36 203.289 220.099C198.768 215.579 198.768 208.249 203.289 203.728L289.51 117.507C294.03 112.986 301.36 112.986 305.881 117.507C310.402 122.028 310.402 129.357 305.881 133.878L219.66 220.099C217.399 222.36 214.437 223.49 211.474 223.49Z" fill="url(#paint17_linear_134_253)"/>
<path d="M60.385 227.693C57.422 227.693 54.46 226.563 52.2 224.302C47.679 219.782 47.679 212.452 52.2 207.931L138.421 121.71C142.941 117.189 150.271 117.189 154.792 121.71C159.313 126.231 159.313 133.56 154.792 138.081L68.571 224.302C66.311 226.562 63.348 227.693 60.385 227.693Z" fill="url(#paint18_linear_134_253)"/>
<path d="M154.526 256.488C151.563 256.488 148.601 255.358 146.341 253.097C141.82 248.577 141.82 241.247 146.341 236.726L232.562 150.505C237.082 145.984 244.412 145.984 248.933 150.505C253.454 155.026 253.454 162.355 248.933 166.876L162.712 253.097C160.451 255.358 157.488 256.488 154.526 256.488Z" fill="url(#paint19_linear_134_253)"/>
<path d="M134.035 294.542C132.298 294.542 130.562 293.879 129.236 292.554C126.586 289.904 126.586 285.607 129.236 282.958L215.457 196.737C218.108 194.087 222.404 194.087 225.054 196.737C227.704 199.387 227.704 203.684 225.054 206.334L138.833 292.555C137.508 293.88 135.772 294.542 134.035 294.542Z" fill="url(#paint20_linear_134_253)"/>
<path d="M153.546 218.7C151.809 218.7 150.073 218.037 148.747 216.713C146.097 214.063 146.097 209.766 148.747 207.116L234.968 120.895C237.619 118.246 241.915 118.246 244.565 120.895C247.215 123.545 247.215 127.842 244.565 130.492L158.345 216.713C157.019 218.037 155.283 218.7 153.546 218.7Z" fill="url(#paint21_linear_134_253)"/>
<path d="M243.94 247.839C242.203 247.839 240.467 247.176 239.141 245.852C236.491 243.202 236.491 238.905 239.141 236.255L325.362 150.034C328.013 147.385 332.309 147.385 334.959 150.034C337.609 152.684 337.609 156.981 334.959 159.631L248.738 245.852C247.413 247.177 245.677 247.839 243.94 247.839Z" fill="url(#paint22_linear_134_253)"/>
<path d="M166.299 316.295C164.562 316.295 162.826 315.632 161.5 314.308C158.85 311.658 158.85 307.361 161.5 304.711L247.721 218.49C250.372 215.841 254.667 215.841 257.318 218.49C259.968 221.14 259.968 225.437 257.318 228.087L171.097 314.308C169.772 315.632 168.036 316.295 166.299 316.295Z" fill="url(#paint23_linear_134_253)"/>
<path d="M43.823 272.322C42.086 272.322 40.35 271.659 39.024 270.335C36.374 267.685 36.374 263.388 39.024 260.738L125.245 174.517C127.896 171.868 132.192 171.868 134.842 174.517C137.492 177.167 137.492 181.464 134.842 184.114L48.621 270.335C47.296 271.659 45.56 272.322 43.823 272.322Z" fill="url(#paint24_linear_134_253)"/>
<path d="M29.028 187.234C27.291 187.234 25.555 186.571 24.229 185.247C21.579 182.597 21.579 178.3 24.229 175.65L110.45 89.429C113.101 86.78 117.397 86.78 120.047 89.429C122.697 92.079 122.697 96.376 120.047 99.026L33.826 185.247C32.501 186.571 30.765 187.234 29.028 187.234Z" fill="url(#paint25_linear_134_253)"/>
<path d="M88.397 187.432C85.434 187.432 82.472 186.302 80.212 184.041C75.691 179.521 75.691 172.191 80.212 167.67L166.433 81.449C170.953 76.929 178.283 76.929 182.804 81.449C187.325 85.969 187.325 93.299 182.804 97.82L96.583 184.041C94.322 186.301 91.359 187.432 88.397 187.432Z" fill="url(#paint26_linear_134_253)"/>
<g opacity="0.3">
<path d="M186.459 235.199C183.496 235.199 180.534 234.069 178.274 231.808C173.753 227.288 173.753 219.958 178.274 215.437L264.495 129.216C269.015 124.695 276.345 124.695 280.866 129.216C285.387 133.737 285.387 141.066 280.866 145.587L194.645 231.809C192.385 234.069 189.422 235.199 186.459 235.199Z" fill="url(#paint27_linear_134_253)"/>
</g>
<path d="M166.235 50.387C172.226 50.387 177.082 45.5306 177.082 39.54C177.082 33.5494 172.226 28.693 166.235 28.693C160.244 28.693 155.388 33.5494 155.388 39.54C155.388 45.5306 160.244 50.387 166.235 50.387Z" fill="url(#paint28_linear_134_253)"/>
<path d="M185.032 160.387C191.023 160.387 195.879 155.531 195.879 149.54C195.879 143.549 191.023 138.693 185.032 138.693C179.041 138.693 174.185 143.549 174.185 149.54C174.185 155.531 179.041 160.387 185.032 160.387Z" fill="url(#paint29_linear_134_253)"/>
<path d="M124.854 249.699C130.845 249.699 135.701 244.843 135.701 238.852C135.701 232.861 130.845 228.005 124.854 228.005C118.863 228.005 114.007 232.861 114.007 238.852C114.007 244.843 118.863 249.699 124.854 249.699Z" fill="url(#paint30_linear_134_253)"/>
<path d="M288.597 196.549C294.588 196.549 299.444 191.693 299.444 185.702C299.444 179.711 294.588 174.855 288.597 174.855C282.606 174.855 277.75 179.711 277.75 185.702C277.75 191.693 282.606 196.549 288.597 196.549Z" fill="url(#paint31_linear_134_253)"/>
<path d="M287.05 45.57C293.041 45.57 297.897 40.7136 297.897 34.723C297.897 28.7324 293.041 23.876 287.05 23.876C281.059 23.876 276.203 28.7324 276.203 34.723C276.203 40.7136 281.059 45.57 287.05 45.57Z" fill="url(#paint32_linear_134_253)"/>
<path d="M209.511 262.083C215.502 262.083 220.358 257.227 220.358 251.236C220.358 245.245 215.502 240.389 209.511 240.389C203.52 240.389 198.664 245.245 198.664 251.236C198.664 257.227 203.52 262.083 209.511 262.083Z" fill="url(#paint33_linear_134_253)"/>
<path d="M11.395 229.547C17.3856 229.547 22.242 224.691 22.242 218.7C22.242 212.709 17.3856 207.853 11.395 207.853C5.40437 207.853 0.548004 212.709 0.548004 218.7C0.548004 224.691 5.40437 229.547 11.395 229.547Z" fill="url(#paint34_linear_134_253)"/>
<defs>
<linearGradient id="paint0_linear_134_253" x1="85.565" y1="153.13" x2="121.427" y2="117.268" gradientUnits="userSpaceOnUse">
<stop stop-color="#E58F51" stop-opacity="0"/>
<stop offset="1" stop-color="#F16BFA"/>
</linearGradient>
<linearGradient id="paint1_linear_134_253" x1="205.484" y1="167.504" x2="241.346" y2="131.642" gradientUnits="userSpaceOnUse">
<stop stop-color="#E58F51" stop-opacity="0"/>
<stop offset="1" stop-color="#F16BFA"/>
</linearGradient>
<linearGradient id="paint2_linear_134_253" x1="207.514" y1="93.3958" x2="243.376" y2="57.5342" gradientUnits="userSpaceOnUse">
<stop stop-color="#E58F51" stop-opacity="0"/>
<stop offset="1" stop-color="#F16BFA"/>
</linearGradient>
<linearGradient id="paint3_linear_134_253" x1="25.9555" y1="166.452" x2="43.8863" y2="148.522" gradientUnits="userSpaceOnUse">
<stop stop-color="#E58F51" stop-opacity="0"/>
<stop offset="1" stop-color="#F16BFA"/>
</linearGradient>
<linearGradient id="paint4_linear_134_253" x1="68.383" y1="258.284" x2="104.245" y2="222.422" gradientUnits="userSpaceOnUse">
<stop stop-color="#E58F51" stop-opacity="0"/>
<stop offset="1" stop-color="#F16BFA"/>
</linearGradient>
<linearGradient id="paint5_linear_134_253" x1="176.927" y1="93.8225" x2="254.266" y2="16.4839" gradientUnits="userSpaceOnUse">
<stop stop-color="#E58F51" stop-opacity="0"/>
<stop offset="1" stop-color="#F16BFA"/>
</linearGradient>
<linearGradient id="paint6_linear_134_253" x1="69.9412" y1="257.794" x2="147.28" y2="180.455" gradientUnits="userSpaceOnUse">
<stop stop-color="#E58F51" stop-opacity="0"/>
<stop offset="1" stop-color="#F16BFA"/>
</linearGradient>
<linearGradient id="paint7_linear_134_253" x1="114.963" y1="271.133" x2="166.145" y2="219.95" gradientUnits="userSpaceOnUse">
<stop stop-color="#E58F51" stop-opacity="0"/>
<stop offset="1" stop-color="#F16BFA"/>
</linearGradient>
<linearGradient id="paint8_linear_134_253" x1="75.73" y1="126.669" x2="126.912" y2="75.4863" gradientUnits="userSpaceOnUse">
<stop stop-color="#E58F51" stop-opacity="0"/>
<stop offset="1" stop-color="#F16BFA"/>
</linearGradient>
<linearGradient id="paint9_linear_134_253" x1="104.925" y1="117.555" x2="155.139" y2="67.3002" gradientUnits="userSpaceOnUse">
<stop stop-color="#E58F51" stop-opacity="0"/>
<stop offset="1" stop-color="#F16BFA"/>
</linearGradient>
<linearGradient id="paint10_linear_134_253" x1="116.493" y1="219.114" x2="253.571" y2="82.0371" gradientUnits="userSpaceOnUse">
<stop stop-color="#E58F51" stop-opacity="0"/>
<stop offset="1" stop-color="#F16BFA"/>
</linearGradient>
<linearGradient id="paint11_linear_134_253" x1="155.169" y1="94.4477" x2="225.732" y2="23.8835" gradientUnits="userSpaceOnUse">
<stop stop-color="#E58F51" stop-opacity="0"/>
<stop offset="1" stop-color="#F16BFA"/>
</linearGradient>
<linearGradient id="paint12_linear_134_253" x1="154.709" y1="158.242" x2="232.048" y2="80.9029" gradientUnits="userSpaceOnUse">
<stop stop-color="#E58F51" stop-opacity="0"/>
<stop offset="1" stop-color="#F16BFA"/>
</linearGradient>
<linearGradient id="paint13_linear_134_253" x1="255.832" y1="211.199" x2="333.171" y2="133.86" gradientUnits="userSpaceOnUse">
<stop stop-color="#E58F51" stop-opacity="0"/>
<stop offset="1" stop-color="#F16BFA"/>
</linearGradient>
<linearGradient id="paint14_linear_134_253" x1="241.462" y1="279.058" x2="318.801" y2="201.719" gradientUnits="userSpaceOnUse">
<stop stop-color="#E58F51" stop-opacity="0"/>
<stop offset="1" stop-color="#F16BFA"/>
</linearGradient>
<linearGradient id="paint15_linear_134_253" x1="232.148" y1="133.524" x2="309.487" y2="56.1849" gradientUnits="userSpaceOnUse">
<stop stop-color="#E58F51" stop-opacity="0"/>
<stop offset="1" stop-color="#F16BFA"/>
</linearGradient>
<linearGradient id="paint16_linear_134_253" x1="286.834" y1="152.521" x2="364.173" y2="75.1818" gradientUnits="userSpaceOnUse">
<stop stop-color="#E58F51" stop-opacity="0"/>
<stop offset="1" stop-color="#F16BFA"/>
</linearGradient>
<linearGradient id="paint17_linear_134_253" x1="215.915" y1="207.473" x2="293.254" y2="130.134" gradientUnits="userSpaceOnUse">
<stop stop-color="#E58F51" stop-opacity="0"/>
<stop offset="1" stop-color="#F16BFA"/>
</linearGradient>
<linearGradient id="paint18_linear_134_253" x1="64.8262" y1="211.676" x2="142.165" y2="134.337" gradientUnits="userSpaceOnUse">
<stop stop-color="#E58F51" stop-opacity="0"/>
<stop offset="1" stop-color="#F16BFA"/>
</linearGradient>
<linearGradient id="paint19_linear_134_253" x1="158.967" y1="240.471" x2="236.306" y2="163.132" gradientUnits="userSpaceOnUse">
<stop stop-color="#E58F51" stop-opacity="0"/>
<stop offset="1" stop-color="#F16BFA"/>
</linearGradient>
<linearGradient id="paint20_linear_134_253" x1="141.863" y1="279.928" x2="212.426" y2="209.363" gradientUnits="userSpaceOnUse">
<stop stop-color="#E58F51" stop-opacity="0"/>
<stop offset="1" stop-color="#F16BFA"/>
</linearGradient>
<linearGradient id="paint21_linear_134_253" x1="161.374" y1="204.086" x2="231.937" y2="133.522" gradientUnits="userSpaceOnUse">
<stop stop-color="#E58F51" stop-opacity="0"/>
<stop offset="1" stop-color="#F16BFA"/>
</linearGradient>
<linearGradient id="paint22_linear_134_253" x1="251.768" y1="233.225" x2="322.331" y2="162.661" gradientUnits="userSpaceOnUse">
<stop stop-color="#E58F51" stop-opacity="0"/>
<stop offset="1" stop-color="#F16BFA"/>
</linearGradient>
<linearGradient id="paint23_linear_134_253" x1="174.127" y1="301.681" x2="244.69" y2="231.117" gradientUnits="userSpaceOnUse">
<stop stop-color="#E58F51" stop-opacity="0"/>
<stop offset="1" stop-color="#F16BFA"/>
</linearGradient>
<linearGradient id="paint24_linear_134_253" x1="51.6505" y1="257.708" x2="122.214" y2="187.144" gradientUnits="userSpaceOnUse">
<stop stop-color="#E58F51" stop-opacity="0"/>
<stop offset="1" stop-color="#F16BFA"/>
</linearGradient>
<linearGradient id="paint25_linear_134_253" x1="36.8555" y1="172.62" x2="107.419" y2="102.056" gradientUnits="userSpaceOnUse">
<stop stop-color="#E58F51" stop-opacity="0"/>
<stop offset="1" stop-color="#F16BFA"/>
</linearGradient>
<linearGradient id="paint26_linear_134_253" x1="92.8382" y1="171.415" x2="170.177" y2="94.076" gradientUnits="userSpaceOnUse">
<stop stop-color="#E58F51" stop-opacity="0"/>
<stop offset="1" stop-color="#F16BFA"/>
</linearGradient>
<linearGradient id="paint27_linear_134_253" x1="190.9" y1="219.182" x2="268.239" y2="141.843" gradientUnits="userSpaceOnUse">
<stop stop-color="#E58F51" stop-opacity="0"/>
<stop offset="1" stop-color="#F16BFA"/>
</linearGradient>
<linearGradient id="paint28_linear_134_253" x1="158.565" y1="47.21" x2="173.905" y2="31.87" gradientUnits="userSpaceOnUse">
<stop stop-color="#E58F51" stop-opacity="0"/>
<stop offset="1" stop-color="#F16BFA"/>
</linearGradient>
<linearGradient id="paint29_linear_134_253" x1="177.362" y1="157.21" x2="192.702" y2="141.87" gradientUnits="userSpaceOnUse">
<stop stop-color="#E58F51" stop-opacity="0"/>
<stop offset="1" stop-color="#F16BFA"/>
</linearGradient>
<linearGradient id="paint30_linear_134_253" x1="117.184" y1="246.522" x2="132.524" y2="231.182" gradientUnits="userSpaceOnUse">
<stop stop-color="#E58F51" stop-opacity="0"/>
<stop offset="1" stop-color="#F16BFA"/>
</linearGradient>
<linearGradient id="paint31_linear_134_253" x1="280.927" y1="193.372" x2="296.267" y2="178.032" gradientUnits="userSpaceOnUse">
<stop stop-color="#E58F51" stop-opacity="0"/>
<stop offset="1" stop-color="#F16BFA"/>
</linearGradient>
<linearGradient id="paint32_linear_134_253" x1="279.38" y1="42.393" x2="294.72" y2="27.053" gradientUnits="userSpaceOnUse">
<stop stop-color="#E58F51" stop-opacity="0"/>
<stop offset="1" stop-color="#F16BFA"/>
</linearGradient>
<linearGradient id="paint33_linear_134_253" x1="201.841" y1="258.906" x2="217.181" y2="243.566" gradientUnits="userSpaceOnUse">
<stop stop-color="#E58F51" stop-opacity="0"/>
<stop offset="1" stop-color="#F16BFA"/>
</linearGradient>
<linearGradient id="paint34_linear_134_253" x1="3.72494" y1="226.37" x2="19.0649" y2="211.03" gradientUnits="userSpaceOnUse">
<stop stop-color="#E58F51" stop-opacity="0"/>
<stop offset="1" stop-color="#F16BFA"/>
</linearGradient>
</defs>
</svg>
