<svg width="5216" height="6004" viewBox="0 0 5216 6004" fill="none" xmlns="http://www.w3.org/2000/svg">
<path d="M4468.03 150.9C4423.01 793.383 4316.07 1438.88 4173.53 1927.04C4086.85 2223.76 3987.21 2465.9 3877.39 2646.63C3847.01 2696.66 3815.84 2741.95 3783.96 2782.48C3765.78 2805.56 3747.37 2827.09 3728.72 2847.04C3705.98 2835.42 3683.01 2822.25 3659.87 2807.51C3678.07 2784.37 3696.08 2759.64 3713.77 2733.38C3727.11 2713.66 3740.27 2693.09 3753.3 2671.66C3863.13 2490.93 3962.77 2248.79 4049.44 1952.07C4191.98 1463.91 4298.92 818.447 4343.94 175.93L4468.03 150.9Z" fill="#E58F51"/>
<path d="M4717.44 100.565C4672.42 743.048 4565.47 1388.55 4422.94 1876.7C4336.3 2173.43 4236.66 2415.57 4126.83 2596.3C4061.69 2703.48 3992.9 2789.06 3921.07 2852.43C3902.04 2869.23 3882.81 2884.45 3863.37 2898.1C3841.35 2892.75 3819.1 2885.82 3796.68 2877.32C3815.74 2860.52 3834.56 2842.11 3853.15 2822.19C3904.65 2767.05 3954.37 2700.09 4002.13 2621.46C4111.95 2440.73 4211.59 2198.59 4298.24 1901.87C4440.77 1413.72 4547.71 768.215 4592.73 125.732L4717.44 100.565Z" fill="#E58F51"/>
<path d="M4966.88 50.196C4921.86 692.713 4814.92 1338.21 4672.38 1826.37C4585.74 2123.09 4486.1 2365.23 4376.27 2545.96C4276.46 2710.2 4168.11 2823.66 4053.28 2884.42C4033.43 2894.91 4013.41 2903.82 3993.18 2911.16C3971.95 2912.19 3950.52 2911.57 3928.89 2909.41C3948.74 2898.92 3968.35 2886.82 3987.8 2873.17C4080.75 2807.92 4169.07 2706.87 4251.57 2571.13C4361.39 2390.4 4461.03 2148.26 4547.68 1851.53C4690.21 1363.38 4797.16 717.88 4842.18 75.3632L4966.88 50.196Z" fill="#E58F51"/>
<path d="M5215.71 0C5170.69 642.517 5063.74 1287.98 4921.21 1776.14C4834.56 2072.86 4734.92 2315 4625.1 2495.73C4503.72 2695.53 4369.69 2820.13 4226.75 2866.18C4211.39 2871.11 4195.92 2875.16 4180.36 2878.31L4056.27 2903.34C4071.87 2900.19 4087.33 2896.14 4102.66 2891.21C4245.61 2845.16 4379.6 2720.52 4501.01 2520.76C4610.84 2340.03 4710.48 2097.89 4797.12 1801.17C4939.66 1313.01 5046.6 667.513 5091.62 25.03L5215.71 0Z" fill="#E58F51"/>
<path d="M3369.86 3037C3364.89 3038.82 3359.99 3040.53 3354.98 3042.14C3339.62 3047.08 3324.16 3051.12 3308.56 3054.28C3301.6 3055.68 3294.64 3056.88 3287.61 3057.95C3070.43 3090.38 2829.76 2951.18 2569.86 2642.93C2533.35 2599.59 2496.45 2552.96 2459.18 2502.97C2465.11 2444.47 2472.04 2390.74 2480.03 2341.68C2506.19 2374.22 2533.24 2409.74 2561.36 2448.24C2568.66 2458.26 2575.97 2468.17 2583.27 2477.94C2868.85 2860.96 3132.8 3048.42 3369.86 3037Z" fill="#E88777"/>
<path d="M3618.93 2986.7C3613.89 2988.55 3608.85 2990.26 3603.77 2991.91C3588.41 2996.88 3572.95 3000.89 3557.38 3004.05C3550.42 3005.45 3543.43 3006.69 3536.4 3007.75C3522.44 3009.81 3508.39 3011.21 3494.26 3011.86H3494.23C3473.14 3012.86 3451.85 3012.31 3430.35 3010.15C3203.98 2987.52 2954.47 2790.95 2686.06 2423.08C2657.78 2384.33 2630.52 2348.6 2604.25 2315.89C2570.69 2274.06 2538.66 2237.1 2508.01 2204.8C2518.6 2163.45 2530.36 2127 2543.43 2095.32C2571.75 2118.67 2601.34 2146.55 2632.23 2179.15C2687.06 2236.86 2746.21 2309.38 2810.77 2397.91C3053.53 2730.64 3280.85 2923.23 3489.56 2973.74C3511.47 2979.02 3533.18 2982.75 3554.67 2984.95C3576.31 2987.11 3597.74 2987.73 3618.93 2986.7Z" fill="#E88777"/>
<path d="M3931.53 2928.55L3806.83 2953.71C3799.87 2955.12 3792.87 2956.35 3785.84 2957.38C3771.92 2959.47 3757.9 2960.84 3743.77 2961.5C3722.55 2962.52 3701.08 2961.94 3679.41 2959.75C3657.81 2957.55 3635.97 2953.82 3613.96 2948.43C3592.05 2943.15 3569.9 2936.26 3547.58 2927.79C3357.42 2855.86 3152.65 2670.33 2935.51 2372.74C2834.22 2233.88 2746.31 2134.41 2667.72 2069.81C2659.25 2062.85 2650.88 2056.3 2642.62 2050.16C2623.39 2035.83 2604.7 2023.73 2586.56 2013.92C2602.2 1991.5 2619.17 1973.74 2637.51 1960.54C2660.79 1965.34 2685.28 1974.7 2710.85 1988.51C2729.13 1998.39 2747.99 2010.56 2767.36 2025C2852.26 2088.26 2948.06 2193.76 3060.21 2347.58C3251.71 2610.05 3433.6 2785.33 3604.36 2872.38C3627.09 2884.01 3649.65 2894.05 3671.97 2902.52C3694.43 2911.02 3716.65 2917.95 3738.7 2923.27C3760.71 2928.61 3782.55 2932.39 3804.15 2934.58C3825.82 2936.74 3847.25 2937.36 3868.51 2936.33C3882.64 2935.64 3896.66 2934.27 3910.58 2932.21C3917.58 2931.19 3924.57 2929.95 3931.53 2928.55Z" fill="#E88777"/>
<path d="M4180.32 2878.35L4056.24 2903.38C4049.28 2904.78 4042.28 2906.02 4035.29 2907.05C4021.33 2909.1 4007.31 2910.51 3993.18 2911.16C3971.96 2912.19 3950.53 2911.57 3928.89 2909.41C3907.29 2907.22 3885.41 2903.45 3863.37 2898.1C3841.35 2892.75 3819.1 2885.82 3796.68 2877.32C3774.22 2868.82 3751.59 2858.74 3728.72 2847.04C3705.99 2835.42 3683.01 2822.25 3659.87 2807.51C3509.45 2711.64 3350.8 2549.74 3184.95 2322.41C3072.76 2168.59 2976.96 2063.09 2892.07 1999.83C2821.57 1947.3 2758.34 1924.94 2703.48 1933.14C2701.05 1933.48 2698.61 1933.93 2696.21 1934.41L2820.3 1909.38C2822.7 1908.86 2825.14 1908.45 2827.57 1908.08C2882.43 1899.88 2945.66 1922.24 3016.15 1974.76C3101.05 2038.06 3196.85 2143.56 3309.04 2297.34C3449.31 2489.59 3584.44 2635.08 3713.77 2733.38C3737.36 2751.31 3760.74 2767.67 3783.96 2782.48C3807.2 2797.29 3830.28 2810.53 3853.15 2822.19C3875.99 2833.84 3898.65 2843.92 3921.07 2852.43C3943.53 2860.93 3965.75 2867.82 3987.8 2873.17C4009.84 2878.49 4031.65 2882.26 4053.29 2884.42C4074.96 2886.58 4096.39 2887.16 4117.61 2886.1C4131.63 2885.45 4145.55 2884.07 4159.37 2882.02C4166.4 2880.95 4173.36 2879.75 4180.32 2878.35Z" fill="#E88777"/>
<path d="M2072.62 2060.24C2065.15 2061.75 2057.81 2063.84 2050.64 2066.55C2037.96 2071.32 2025.82 2077.83 2014.23 2086.17C1920.56 2153.4 1862.37 2338.39 1832.54 2660.55C1803.5 2973.67 1803.84 3375.66 1804.22 3801.24C1804.63 4274.27 1805.04 4763.45 1764.07 5157.76C1743.46 5356.01 1713.63 5516.1 1674.1 5639.26C1662.23 5676.19 1649.51 5709.83 1635.87 5740.17C1607.37 5718.09 1578.74 5692.82 1550.01 5664.33C1562.22 5626.34 1573.46 5584.81 1583.85 5539.76C1607.06 5438.78 1625.72 5319.94 1639.98 5182.82C1680.95 4788.48 1680.54 4299.33 1680.13 3826.27C1679.75 3400.69 1679.41 2998.7 1708.42 2685.62C1741.99 2323.54 1811.32 2134.79 1926.56 2091.58C1933.72 2088.91 1941.06 2086.82 1948.54 2085.31L1952.17 2084.59L2072.62 2060.24Z" fill="#EA7F9C"/>
<path d="M2322.07 2009.91C2314.56 2011.42 2307.25 2013.51 2300.09 2016.22C2287.3 2021.02 2275.06 2027.6 2263.4 2036.04C2245.06 2049.24 2228.08 2066.96 2212.41 2089.39C2196.81 2111.67 2182.51 2138.62 2169.45 2170.34C2128.72 2269.19 2100.09 2414.33 2081.95 2610.22C2052.94 2923.33 2053.28 3325.32 2053.66 3750.9C2054.04 4223.93 2054.48 4713.12 2013.51 5107.42C1980.63 5423.93 1924.19 5643.07 1842.38 5770.17C1827.5 5793.25 1811.83 5813.27 1795.27 5830.31C1772.54 5822.36 1749.74 5812.24 1726.9 5799.97C1723.88 5798.36 1720.9 5796.71 1717.88 5795C1732.93 5771.61 1747.09 5745.11 1760.4 5715.45C1819.54 5583.96 1861.96 5390.64 1888.77 5132.59C1929.78 4738.28 1929.33 4249.1 1928.96 3776.07C1928.55 3350.49 1928.24 2948.5 1957.24 2635.39C1981.25 2376.34 2023.56 2206 2087.91 2114.25C2103.52 2091.99 2120.42 2074.34 2138.69 2061.2C2150.35 2052.77 2162.59 2046.19 2175.38 2041.39C2182.51 2038.68 2189.85 2036.58 2197.33 2035.08L2322.07 2009.91Z" fill="#EA7F9C"/>
<path d="M2571.51 1959.58C2564 1961.08 2556.7 1963.18 2549.53 1965.85C2536.71 1970.65 2524.47 1977.23 2512.81 1985.7C2494.46 1998.9 2477.49 2016.66 2461.82 2039.09C2446.12 2061.48 2431.79 2088.57 2418.69 2120.49C2405.66 2152.17 2393.86 2188.62 2383.27 2229.93C2372.85 2270.53 2363.59 2315.86 2355.43 2366.06C2345.96 2424.11 2337.97 2488.63 2331.39 2559.88C2302.38 2873 2302.73 3274.95 2303.1 3700.53C2303.48 4173.6 2303.93 4662.78 2262.95 5057.09C2217.9 5490.52 2128.75 5741.34 1990.57 5823.32C1988.75 5824.42 1986.94 5825.44 1985.12 5826.47C1966.67 5836.69 1948.16 5845.43 1929.54 5852.57C1908.49 5853.05 1887.37 5851.64 1866.18 5848.28C1884.93 5837.14 1902.8 5822.84 1919.7 5805.42C2027.6 5694.57 2099.37 5456.51 2138.21 5082.26C2179.22 4687.95 2178.78 4198.77 2178.4 3725.73C2177.99 3300.12 2177.68 2898.17 2206.69 2585.05C2219.03 2451.88 2236.21 2342.16 2258.74 2254.48C2269.26 2213.41 2280.99 2177.17 2293.98 2145.66C2307.08 2113.73 2321.41 2086.65 2337.12 2064.26C2352.75 2041.83 2369.73 2024.1 2388.07 2010.87C2399.76 2002.44 2412 1995.82 2424.83 1991.02C2431.96 1988.34 2439.29 1986.25 2446.77 1984.74L2571.51 1959.58Z" fill="#EA7F9C"/>
<path d="M2820.3 1909.38C2812.82 1910.89 2805.49 1912.98 2798.32 1915.65C2785.6 1920.42 2773.46 1926.93 2761.87 1935.3C2743.53 1948.47 2726.56 1966.16 2710.85 1988.51C2695.18 2010.87 2680.82 2037.92 2667.72 2069.81C2654.66 2101.46 2642.86 2137.87 2632.23 2179.15C2621.77 2219.92 2612.45 2265.46 2604.25 2315.89C2596.2 2365.16 2589.23 2419.13 2583.27 2477.94C2582.21 2488.36 2581.18 2498.96 2580.18 2509.69C2576.21 2552.51 2572.81 2596.95 2569.86 2642.93C2551.28 2933.14 2551.59 3282.94 2551.9 3650.34C2552.31 4123.4 2552.72 4612.55 2511.74 5006.89C2466.11 5445.98 2375.21 5697.65 2233.91 5776.24C2195.13 5797.81 2155.91 5812.59 2116.3 5820.57L1992.22 5845.61C2031.82 5837.62 2071.05 5822.84 2109.82 5801.31C2251.12 5722.72 2342.02 5471.05 2387.66 5031.92C2428.63 4637.62 2428.22 4148.43 2427.81 3675.37C2427.43 3249.79 2427.09 2847.83 2456.1 2534.72C2457.09 2523.99 2458.12 2513.39 2459.18 2502.97C2465.11 2444.47 2472.04 2390.74 2480.03 2341.68C2488.22 2291.21 2497.55 2245.6 2508.01 2204.8C2518.6 2163.45 2530.36 2127 2543.43 2095.32C2556.52 2063.4 2570.86 2036.31 2586.56 2013.92C2602.2 1991.5 2619.17 1973.74 2637.51 1960.54C2649.2 1952.07 2661.44 1945.48 2674.23 1940.68C2681.4 1938.01 2688.74 1935.92 2696.21 1934.41L2820.3 1909.38Z" fill="#EA7F9C"/>
<path d="M1368.63 5971.48L1244.54 5996.51C1238.54 5997.71 1232.51 5998.77 1226.47 5999.69C1145.21 6011.83 1062.44 5995.55 979.222 5950.83C853.044 5883.08 723.196 5749.6 593.28 5554.19C488.257 5396.2 383.268 5197.98 281.193 4964.96C114.075 4583.51 9.29197 4231.65 0 4199.97L124.087 4174.94C133.379 4206.59 238.162 4558.45 405.281 4939.9C507.355 5172.91 612.378 5371.17 717.367 5529.13C847.283 5724.57 977.131 5858.02 1103.31 5925.8C1171.47 5962.39 1239.33 5979.94 1306.33 5978.4C1321.14 5978.09 1335.85 5976.82 1350.56 5974.63C1356.59 5973.74 1362.63 5972.68 1368.63 5971.48Z" fill="#F16BFA"/>
<path d="M1618.07 5921.14L1493.37 5946.31C1487.33 5947.51 1481.3 5948.57 1475.26 5949.46C1460.48 5951.69 1445.64 5952.93 1430.72 5953.23C1409.77 5953.71 1388.72 5952.31 1367.6 5949.02C1321.35 5941.85 1274.78 5925.74 1228.01 5900.64C1101.87 5832.85 972.022 5699.4 842.072 5503.96C737.083 5346 632.06 5147.75 529.985 4914.73C362.867 4533.28 258.118 4181.42 248.792 4149.77L373.531 4124.6C382.823 4156.25 487.571 4508.11 654.724 4889.56C756.798 5122.58 861.787 5320.83 966.776 5478.8C1096.73 5674.24 1226.57 5807.68 1352.72 5875.47C1375.69 5887.78 1398.6 5897.96 1421.47 5905.95C1445.06 5914.22 1468.58 5920.15 1492 5923.78H1492.03C1513.25 5927.14 1534.41 5928.55 1555.46 5928.07C1570.34 5927.76 1585.22 5926.52 1600 5924.3C1606.04 5923.4 1612.04 5922.34 1618.07 5921.14Z" fill="#F16BFA"/>
<path d="M1804.8 5877.73C1784.26 5885.69 1763.55 5891.76 1742.78 5895.94C1736.78 5897.17 1730.74 5898.24 1724.71 5899.13C1709.93 5901.36 1695.08 5902.59 1680.17 5902.9C1659.11 5903.38 1637.99 5901.97 1616.77 5898.61C1593.21 5894.98 1569.55 5888.98 1545.83 5880.65C1523.09 5872.66 1500.29 5862.54 1477.46 5850.3C1474.58 5848.76 1471.7 5847.18 1468.82 5845.57C1345.35 5776.41 1218.52 5644.61 1091.52 5453.63C986.526 5295.66 881.503 5097.41 779.429 4864.39C612.311 4482.94 507.562 4131.08 498.235 4099.44L622.974 4074.27C632.266 4105.92 737.015 4457.78 904.167 4839.23C1006.24 5072.25 1111.23 5270.5 1216.22 5428.46C1315.28 5577.41 1414.23 5690.35 1511.57 5765.65C1538.9 5786.8 1566.09 5804.97 1593.14 5820.16C1596.16 5821.88 1599.14 5823.52 1602.16 5825.14C1625 5837.41 1647.8 5847.53 1670.57 5855.48C1694.26 5863.81 1717.92 5869.81 1741.47 5873.45C1762.66 5876.81 1783.78 5878.21 1804.8 5877.73Z" fill="#F16BFA"/>
<path d="M2116.31 5820.58L1992.22 5845.61C1986.22 5846.84 1980.18 5847.9 1974.15 5848.79C1959.34 5851.02 1944.46 5852.26 1929.54 5852.57C1908.49 5853.05 1887.37 5851.64 1866.18 5848.28C1842.62 5844.65 1818.96 5838.64 1795.27 5830.31C1772.54 5822.36 1749.74 5812.24 1726.9 5799.97C1723.88 5798.36 1720.9 5796.71 1717.88 5795C1690.69 5779.74 1663.36 5761.46 1635.87 5740.17C1607.37 5718.09 1578.74 5692.82 1550.01 5664.33C1480.71 5595.65 1410.84 5508.45 1340.96 5403.29C1235.93 5245.33 1130.95 5047.08 1028.87 4814.06C861.719 4432.61 756.97 4080.75 747.678 4049.1L871.765 4024.04C881.057 4055.72 985.84 4407.58 1152.96 4789.03C1255.03 5022.05 1360.02 5220.27 1465.04 5378.26C1504.68 5437.89 1544.32 5491.76 1583.85 5539.76C1614.02 5576.38 1644.13 5609.57 1674.1 5639.26C1703 5667.93 1731.77 5693.33 1760.4 5715.45C1787.86 5736.71 1815.23 5754.98 1842.38 5770.17C1845.26 5771.78 1848.11 5773.36 1850.99 5774.9C1873.93 5787.25 1896.86 5797.4 1919.7 5805.42C1943.39 5813.72 1967.02 5819.68 1990.57 5823.32C2011.76 5826.61 2032.88 5828.05 2053.9 5827.54C2068.75 5827.23 2083.49 5825.99 2098.24 5823.76C2104.27 5822.84 2110.3 5821.78 2116.31 5820.58Z" fill="#F16BFA"/>
</svg>
