<svg width="480" height="480" viewBox="0 0 480 480" fill="none" xmlns="http://www.w3.org/2000/svg">
<circle cx="240" cy="240" r="150" stroke="url(#paint0_linear_450_9)" stroke-width="20"/>
<path d="M319 240C319 252.467 316.049 264.757 310.39 275.865C304.73 286.973 296.521 296.584 286.435 303.912L284.113 300.717C293.695 293.755 301.493 284.625 306.87 274.072C312.247 263.519 315.05 251.844 315.05 240H319Z" fill="#FF6A13" fill-opacity="0.5"/>
<mask id="path-3-inside-1_450_9" fill="white">
<path d="M293.795 235.294C294.487 243.212 293.423 251.186 290.679 258.646C287.934 266.106 283.576 272.868 277.916 278.449C272.256 284.031 265.434 288.294 257.937 290.934C250.439 293.574 242.451 294.527 234.543 293.724L235.634 282.979C241.961 283.621 248.351 282.859 254.349 280.747C260.347 278.635 265.805 275.225 270.333 270.76C274.861 266.294 278.347 260.885 280.543 254.917C282.739 248.949 283.59 242.57 283.036 236.235L293.795 235.294Z"/>
</mask>
<path d="M293.795 235.294C294.487 243.212 293.423 251.186 290.679 258.646C287.934 266.106 283.576 272.868 277.916 278.449C272.256 284.031 265.434 288.294 257.937 290.934C250.439 293.574 242.451 294.527 234.543 293.724L235.634 282.979C241.961 283.621 248.351 282.859 254.349 280.747C260.347 278.635 265.805 275.225 270.333 270.76C274.861 266.294 278.347 260.885 280.543 254.917C282.739 248.949 283.59 242.57 283.036 236.235L293.795 235.294Z" stroke="#E58F51" stroke-width="28" mask="url(#path-3-inside-1_450_9)"/>
<mask id="path-4-inside-2_450_9" fill="white">
<path d="M232.485 293.474C218.884 291.563 206.522 284.541 197.916 273.837C189.31 263.133 185.105 249.551 186.159 235.857L196.927 236.686C196.084 247.641 199.448 258.506 206.333 267.069C213.218 275.632 223.107 281.25 233.988 282.78L232.485 293.474Z"/>
</mask>
<path d="M232.485 293.474C218.884 291.563 206.522 284.541 197.916 273.837C189.31 263.133 185.105 249.551 186.159 235.857L196.927 236.686C196.084 247.641 199.448 258.506 206.333 267.069C213.218 275.632 223.107 281.25 233.988 282.78L232.485 293.474Z" stroke="#E58F51" stroke-width="28" mask="url(#path-4-inside-2_450_9)"/>
<mask id="path-5-inside-3_450_9" fill="white">
<path d="M186.403 233.419C187.616 223.534 191.54 214.178 197.739 206.384C203.939 198.59 212.173 192.663 221.531 189.257C230.889 185.85 241.007 185.099 250.766 187.084C260.525 189.07 269.545 193.715 276.828 200.507L269.462 208.406C263.636 202.972 256.42 199.256 248.613 197.667C240.806 196.079 232.711 196.68 225.225 199.405C217.738 202.13 211.151 206.872 206.191 213.107C201.232 219.342 198.093 226.828 197.122 234.735L186.403 233.419Z"/>
</mask>
<path d="M186.403 233.419C187.616 223.534 191.54 214.178 197.739 206.384C203.939 198.59 212.173 192.663 221.531 189.257C230.889 185.85 241.007 185.099 250.766 187.084C260.525 189.07 269.545 193.715 276.828 200.507L269.462 208.406C263.636 202.972 256.42 199.256 248.613 197.667C240.806 196.079 232.711 196.68 225.225 199.405C217.738 202.13 211.151 206.872 206.191 213.107C201.232 219.342 198.093 226.828 197.122 234.735L186.403 233.419Z" stroke="#E58F51" stroke-width="28" mask="url(#path-5-inside-3_450_9)"/>
<mask id="path-6-inside-4_450_9" fill="white">
<path d="M278.844 202.488C286.766 210.692 291.887 221.192 293.474 232.485L282.78 233.988C281.51 224.954 277.413 216.553 271.075 209.991L278.844 202.488Z"/>
</mask>
<path d="M278.844 202.488C286.766 210.692 291.887 221.192 293.474 232.485L282.78 233.988C281.51 224.954 277.413 216.553 271.075 209.991L278.844 202.488Z" stroke="#E58F51" stroke-width="28" mask="url(#path-6-inside-4_450_9)"/>
<circle cx="240" cy="240" r="74.5" stroke="#FF6A13"/>
<circle cx="240" cy="240" r="87" stroke="#E58F51" stroke-width="5" stroke-linecap="round" stroke-linejoin="round" stroke-dasharray="1 40"/>
<circle cx="240" cy="240" r="214" stroke="#FF6A13" stroke-opacity="0.5" stroke-width="2" stroke-linecap="round" stroke-linejoin="round" stroke-dasharray="1 60"/>
<circle cx="240" cy="240" r="189" stroke="#E58F51" stroke-linecap="round" stroke-linejoin="round"/>
<path d="M89.0892 366.629C81.127 357.14 74.0775 346.921 68.0343 336.108L74.913 332.264C80.7144 342.644 87.4819 352.455 95.1257 361.564L89.0892 366.629Z" fill="#E58F51"/>
<circle cx="240" cy="240" r="240" stroke="url(#paint1_linear_450_9)" stroke-linecap="round" stroke-linejoin="round"/>
<defs>
<linearGradient id="paint0_linear_450_9" x1="240" y1="80" x2="240" y2="400" gradientUnits="userSpaceOnUse">
<stop stop-color="#F16BFA"/>
<stop offset="1" stop-color="#E58F51"/>
</linearGradient>
<linearGradient id="paint1_linear_450_9" x1="240" y1="0" x2="240" y2="480" gradientUnits="userSpaceOnUse">
<stop stop-color="#F16BFA"/>
<stop offset="1" stop-color="#E58F51"/>
</linearGradient>
</defs>
</svg>
