<svg width="441" height="202" viewBox="0 0 441 202" fill="none" xmlns="http://www.w3.org/2000/svg">
<circle cx="12.1378" cy="11.8292" r="11.2316" fill="#0C0C0C"/>
<circle cx="12.1368" cy="71.4725" r="11.2316" fill="#0C0C0C"/>
<circle cx="12.1368" cy="131.116" r="11.2316" fill="#0C0C0C"/>
<circle cx="12.1368" cy="190.759" r="11.2316" fill="#0C0C0C"/>
<circle cx="71.7801" cy="11.8292" r="11.2316" fill="#0C0C0C"/>
<circle cx="71.7801" cy="71.4725" r="11.2316" fill="#0C0C0C"/>
<circle cx="71.7801" cy="131.116" r="11.2316" fill="#0C0C0C"/>
<circle cx="71.7801" cy="190.759" r="11.2316" fill="#0C0C0C"/>
<circle cx="131.424" cy="11.8292" r="11.2316" fill="#0C0C0C"/>
<circle cx="131.424" cy="71.4725" r="11.2316" fill="#0C0C0C"/>
<circle cx="131.424" cy="131.116" r="11.2316" fill="#0C0C0C"/>
<circle cx="131.424" cy="190.759" r="11.2316" fill="#0C0C0C"/>
<circle cx="191.067" cy="11.8292" r="11.2316" fill="#0C0C0C"/>
<circle cx="191.067" cy="71.4725" r="11.2316" fill="#0C0C0C"/>
<circle cx="191.067" cy="131.116" r="11.2316" fill="#0C0C0C"/>
<circle cx="191.067" cy="190.759" r="11.2316" fill="#0C0C0C"/>
<circle cx="250.711" cy="11.8292" r="11.2316" fill="#0C0C0C"/>
<circle cx="250.711" cy="71.4725" r="11.2316" fill="#0C0C0C"/>
<circle cx="250.711" cy="131.116" r="11.2316" fill="#0C0C0C"/>
<circle cx="250.711" cy="190.759" r="11.2316" fill="#0C0C0C"/>
<circle cx="310.354" cy="11.8292" r="11.2316" fill="#0C0C0C"/>
<circle cx="310.354" cy="71.4725" r="11.2316" fill="#0C0C0C"/>
<circle cx="310.354" cy="131.116" r="11.2316" fill="#0C0C0C"/>
<circle cx="310.354" cy="190.759" r="11.2316" fill="#0C0C0C"/>
<circle cx="369.997" cy="11.8292" r="11.2316" fill="#0C0C0C"/>
<circle cx="369.997" cy="71.4725" r="11.2316" fill="#0C0C0C"/>
<circle cx="369.997" cy="131.116" r="11.2316" fill="#0C0C0C"/>
<circle cx="369.997" cy="190.759" r="11.2316" fill="#0C0C0C"/>
<circle cx="429.641" cy="11.8292" r="11.2316" fill="#0C0C0C"/>
<circle cx="429.641" cy="71.4725" r="11.2316" fill="#0C0C0C"/>
<circle cx="429.641" cy="131.116" r="11.2316" fill="#0C0C0C"/>
<circle cx="429.641" cy="190.759" r="11.2316" fill="#0C0C0C"/>
</svg>
