<svg width="734" height="734" viewBox="0 0 734 734" fill="none" xmlns="http://www.w3.org/2000/svg">
<path d="M267 33.667V100.334M467 33.667V100.334M267 633.667V700.334M467 633.667V700.334M633.667 267H700.334M633.667 433.667H700.334M33.667 267H100.334M33.667 433.667H100.334M260.334 633.667H473.667C529.674 633.667 557.674 633.667 579.067 622.767C597.884 613.18 613.18 597.884 622.767 579.067C633.667 557.674 633.667 529.674 633.667 473.667V260.334C633.667 204.328 633.667 176.326 622.767 154.935C613.18 136.118 597.884 120.82 579.067 111.233C557.674 100.334 529.674 100.334 473.667 100.334H260.334C204.328 100.334 176.326 100.334 154.935 111.233C136.118 120.82 120.82 136.118 111.233 154.935C100.334 176.326 100.334 204.328 100.334 260.334V473.667C100.334 529.674 100.334 557.674 111.233 579.067C120.82 597.884 136.118 613.18 154.935 622.767C176.326 633.667 204.328 633.667 260.334 633.667ZM320.334 467H413.667C432.337 467 441.67 467 448.8 463.367C455.074 460.17 460.17 455.074 463.367 448.8C467 441.67 467 432.337 467 413.667V320.334C467 301.664 467 292.331 463.367 285.201C460.17 278.929 455.074 273.829 448.8 270.633C441.67 267 432.337 267 413.667 267H320.334C301.664 267 292.331 267 285.201 270.633C278.929 273.829 273.829 278.929 270.633 285.201C267 292.331 267 301.664 267 320.334V413.667C267 432.337 267 441.67 270.633 448.8C273.829 455.074 278.929 460.17 285.201 463.367C292.331 467 301.664 467 320.334 467Z" stroke="url(#paint0_linear_461_21)" stroke-width="66.6667" stroke-linecap="round" stroke-linejoin="round"/>
<defs>
<linearGradient id="paint0_linear_461_21" x1="367" y1="33.667" x2="367" y2="700.334" gradientUnits="userSpaceOnUse">
<stop stop-color="#F16BFA"/>
<stop offset="1" stop-color="#E58F51"/>
</linearGradient>
</defs>
</svg>
