<svg xmlns="http://www.w3.org/2000/svg" version="1.1" xmlns:xlink="http://www.w3.org/1999/xlink" xmlns:svgjs="http://svgjs.dev/svgjs" viewBox="0 0 800 800" opacity="1"><defs><symbol id="bbburst-shape-10" viewBox="0 0 145 145"><circle cx="72.5" cy="72.5" r="61.5" fill="none" stroke-width="22"></circle></symbol><symbol id="bbburst-shape-11" viewBox="0 0 194 167"><path d="M10.398 161 97 11l86.603 150H10.397Z" stroke-width="11"></path></symbol><symbol id="bbburst-shape-13" viewBox="0 0 159 159"><path stroke-width="22" d="M11 11h137v137H11z"></path></symbol></defs><use xlink:href="#bbburst-shape-10" width="15.123996114819809" opacity="0.8581683138162575" transform="matrix(0.9110354893400131,0.41232794855915694,-0.41232794855915694,0.9110354893400131,510.77765637008133,75.35862463868187)" fill="none" stroke="#e58f51"></use><use xlink:href="#bbburst-shape-11" width="21.610516696377708" opacity="0.7617336402853362" transform="matrix(0.740301530057534,0.6722749769212552,-0.6722749769212552,0.740301530057534,554.4875777728041,84.99412807064948)" fill="none" stroke="#e58f51"></use><use xlink:href="#bbburst-shape-13" width="38.906600286560106" opacity="0.08405151065774064" transform="matrix(0.8416597885910899,-0.5400081483355615,0.5400081483355615,0.8416597885910899,-34.2413601834717,-285.5198471174785)" fill="none" stroke="#e58f51"></use><use xlink:href="#bbburst-shape-10" width="12.631665866496526" opacity="0.9370349394908541" transform="matrix(0.883969245161465,-0.4675450498173087,0.4675450498173087,0.883969245161465,183.01316702663843,63.79314266106098)" fill="none" stroke="#e58f51"></use><use xlink:href="#bbburst-shape-11" width="19.468046334042725" opacity="0.6958124668152198" transform="matrix(0.7836169538523398,0.6212442914306577,-0.6212442914306577,0.7836169538523398,522.5352227446836,11.772518392275174)" fill="none" stroke="#e58f51"></use><use xlink:href="#bbburst-shape-11" width="15.614982129816157" opacity="0.8885506126814329" transform="matrix(0.8961402814252012,-0.4437708823336219,0.4437708823336219,0.8961402814252012,237.84051638455747,89.68281066674757)" fill="none" stroke="#f16bfa"></use><use xlink:href="#bbburst-shape-10" width="13.292955590405176" opacity="0.9612797335511087" transform="matrix(0.8565811017215919,0.5160124186232574,-0.5160124186232574,0.8565811017215919,615.141667999636,44.17181876542617)" fill="none" stroke="#e58f51"></use><use xlink:href="#bbburst-shape-10" width="15.583733587871418" opacity="0.8702214638313768" transform="matrix(0.961476737435493,0.2748863098999293,-0.2748863098999293,0.961476737435493,490.35275468367297,70.39838398867397)" fill="none" stroke="#e58f51"></use><use xlink:href="#bbburst-shape-11" width="18.50802154061484" opacity="0.6839768882072808" transform="matrix(0.9412691852482991,0.3376571055109062,-0.3376571055109062,0.9412691852482991,546.108862811099,-120.69949448682507)" fill="none" stroke="#e58f51"></use><use xlink:href="#bbburst-shape-11" width="29.515388184257244" opacity="0.05999176303261533" transform="matrix(0.9521205754752192,0.305722766173436,-0.305722766173436,0.9521205754752192,874.8530707084776,-196.93476364555693)" fill="none" stroke="#f16bfa"></use><use xlink:href="#bbburst-shape-13" width="15.49945645258961" opacity="0.817439561293486" transform="matrix(0.9999413561767398,0.010829783350662618,-0.010829783350662618,0.9999413561767398,457.3782139494548,55.192393592958865)" fill="none" stroke="#e58f51"></use><use xlink:href="#bbburst-shape-11" width="57.192818132155466" opacity="-0.0766538992229675" transform="matrix(0.8159671831141896,-0.5780982235578092,0.5780982235578092,0.8159671831141896,-197.8269806317694,431.8935539849811)" fill="none" stroke="#e58f51"></use><use xlink:href="#bbburst-shape-11" width="35.26404182045837" opacity="0.4952245106346842" transform="matrix(0.8285723540912072,0.5598820000998024,-0.5598820000998024,0.8285723540912072,832.0876359863582,104.09327727425904)" fill="none" stroke="#f16bfa"></use><use xlink:href="#bbburst-shape-13" width="29.71088504823466" opacity="0.5378672469658281" transform="matrix(0.7938126078912213,0.6081624318822547,-0.6081624318822547,0.7938126078912213,441.2900287380187,157.5705041147005)" fill="none" stroke="#e58f51"></use><use xlink:href="#bbburst-shape-13" width="30.96745663425785" opacity="0.558466416405867" transform="matrix(0.9959275790994057,-0.09015684771106963,0.09015684771106963,0.9959275790994057,188.31464822688966,-114.5042358785305)" fill="none" stroke="#e58f51"></use><use xlink:href="#bbburst-shape-11" width="21.574038058578548" opacity="0.7092192328253646" transform="matrix(0.7321556169776842,-0.6811373962190203,0.6811373962190203,0.7321556169776842,183.30251087635298,0.06279847310258901)" fill="none" stroke="#e58f51"></use><use xlink:href="#bbburst-shape-11" width="11.937645684859307" opacity="0.8253189978801756" transform="matrix(0.8027563771228193,0.5963071347792561,-0.5963071347792561,0.8027563771228193,709.7966802219139,95.38867968028592)" fill="none" stroke="#f16bfa"></use><use xlink:href="#bbburst-shape-11" width="24.626084368772666" opacity="0.5564408543436482" transform="matrix(0.7573647154378444,0.6529921039413515,-0.6529921039413515,0.7573647154378444,733.1073582245763,-93.64130801361165)" fill="none" stroke="#e58f51"></use><use xlink:href="#bbburst-shape-13" width="32.94467089823162" opacity="0.06601732294392604" transform="matrix(0.8842228854387694,-0.46706518695610033,0.46706518695610033,0.8842228854387694,414.1937123262397,-306.78440559096464)" fill="none" stroke="#f16bfa"></use><use xlink:href="#bbburst-shape-11" width="33.33658202493306" opacity="0.2042522680322265" transform="matrix(0.9737239555169467,-0.2277315490932937,0.2277315490932937,0.9737239555169467,520.0404972607631,-262.67535989612054)" fill="none" stroke="#e58f51"></use><use xlink:href="#bbburst-shape-11" width="32.06161008546333" opacity="0.2914340285880632" transform="matrix(0.9736739772975741,0.2279451379905329,-0.2279451379905329,0.9736739772975741,407.5937319843869,317.9781117161153)" fill="none" stroke="#e58f51"></use><use xlink:href="#bbburst-shape-13" width="13.407319235202642" opacity="0.9362071352713583" transform="matrix(0.7943304767031382,0.6074858794906802,-0.6074858794906802,0.7943304767031382,620.1601665900597,55.44669752330026)" fill="none" stroke="#f16bfa"></use><use xlink:href="#bbburst-shape-10" width="35.262096200486866" opacity="0.3755183741459056" transform="matrix(0.9762330595569774,-0.21672335690465633,0.21672335690465633,0.9762330595569774,474.7212430632875,230.2710789230951)" fill="none" stroke="#f16bfa"></use><use xlink:href="#bbburst-shape-11" width="38.68588274487335" opacity="0.38321287637172097" transform="matrix(0.9113249190094913,0.41168785747498576,-0.41168785747498576,0.9113249190094913,679.8648782409551,-216.7719386844006)" fill="none" stroke="#e58f51"></use><use xlink:href="#bbburst-shape-11" width="28.151305700792634" opacity="0.1785381191242118" transform="matrix(0.9585891574800017,0.28479260376944554,-0.28479260376944554,0.9585891574800017,130.96360439422133,20.53752432921607)" fill="none" stroke="#e58f51"></use><use xlink:href="#bbburst-shape-11" width="13.84806246882553" opacity="0.8070966594819685" transform="matrix(0.8184207460356747,-0.5746194240176795,0.5746194240176795,0.8184207460356747,194.92269775764436,157.721284289852)" fill="none" stroke="#e58f51"></use><use xlink:href="#bbburst-shape-10" width="28.758971731904854" opacity="0.5124438526878001" transform="matrix(0.9150408490783153,-0.40336118370269064,0.40336118370269064,0.9150408490783153,376.9648499716328,-118.94294737956446)" fill="none" stroke="#e58f51"></use><use xlink:href="#bbburst-shape-11" width="45.1604928719208" opacity="0.20269816032708732" transform="matrix(0.9288383557088481,0.3704852344751183,-0.3704852344751183,0.9288383557088481,643.3270095307055,-319.9950993225111)" fill="none" stroke="#f16bfa"></use><use xlink:href="#bbburst-shape-10" width="26.07871747301582" opacity="0.48335233203747063" transform="matrix(0.7100007749565886,0.7042008943199686,-0.7042008943199686,0.7100007749565886,614.525201189303,-118.3496537675615)" fill="none" stroke="#f16bfa"></use><use xlink:href="#bbburst-shape-11" width="33.93871734718927" opacity="0.19061319466515836" transform="matrix(0.8629580962758672,0.5052754932429745,-0.5052754932429745,0.8629580962758672,514.7451245662819,-310.9801933731278)" fill="none" stroke="#e58f51"></use><use xlink:href="#bbburst-shape-11" width="24.48261478593174" opacity="0.5868603964894208" transform="matrix(0.789673385433638,0.6135274601334296,-0.6135274601334296,0.789673385433638,642.172436497502,262.17938216275695)" fill="none" stroke="#f16bfa"></use><use xlink:href="#bbburst-shape-13" width="29.226041566901213" opacity="0.38773604990306454" transform="matrix(0.9313290259974879,0.3641788644808625,-0.3641788644808625,0.9313290259974879,556.9483327610578,-252.24590134984527)" fill="none" stroke="#f16bfa"></use><use xlink:href="#bbburst-shape-10" width="30.62388171048181" opacity="0.29437280829431556" transform="matrix(0.8119936891898882,0.5836662134437758,-0.5836662134437758,0.8119936891898882,735.6677734555351,362.3830917386154)" fill="none" stroke="#f16bfa"></use><use xlink:href="#bbburst-shape-11" width="26.55475392903696" opacity="0.48336030419719966" transform="matrix(0.9999258345925844,-0.012178888057763394,0.012178888057763394,0.9999258345925844,159.76219266613455,-68.91535534154889)" fill="none" stroke="#f16bfa"></use><use xlink:href="#bbburst-shape-13" width="17.86748688229171" opacity="0.75384743387879" transform="matrix(0.9787897819880373,-0.20486718301331308,0.20486718301331308,0.9787897819880373,217.6684887038977,72.53759961022422)" fill="none" stroke="#f16bfa"></use><use xlink:href="#bbburst-shape-11" width="33.401829083982044" opacity="0.37527182746376153" transform="matrix(0.999260163059319,0.03845941396671696,-0.03845941396671696,0.999260163059319,618.998099066782,-175.43818364639526)" fill="none" stroke="#f16bfa"></use><use xlink:href="#bbburst-shape-10" width="49.67472405848109" opacity="-0.06578605033502871" transform="matrix(0.7459186636514552,-0.6660370464294214,0.6660370464294214,0.7459186636514552,454.3068149899408,-220.8386401370135)" fill="none" stroke="#e58f51"></use><use xlink:href="#bbburst-shape-13" width="22.954947633571585" opacity="0.7133753209337907" transform="matrix(0.9921567643548553,0.12499981977948674,-0.12499981977948674,0.9921567643548553,461.84114790232525,128.57481636204557)" fill="none" stroke="#f16bfa"></use><use xlink:href="#bbburst-shape-11" width="39.45711250445222" opacity="0.23492340600631167" transform="matrix(0.7461833625468987,0.6657404820635467,-0.6657404820635467,0.7461833625468987,975.9124456932643,-28.419375719714992)" fill="none" stroke="#e58f51"></use><use xlink:href="#bbburst-shape-11" width="25.986133317492282" opacity="0.6367634466018663" transform="matrix(0.9555654944989921,0.294778875978074,-0.294778875978074,0.9555654944989921,463.6979185637147,-144.37209525467503)" fill="none" stroke="#e58f51"></use><use xlink:href="#bbburst-shape-10" width="34.22685544492844" opacity="0.5119599045379826" transform="matrix(0.9700610873069835,0.24286104441180573,-0.24286104441180573,0.9700610873069835,342.00384517548224,178.2274054131684)" fill="none" stroke="#e58f51"></use><use xlink:href="#bbburst-shape-10" width="46.04686425456491" opacity="0.15240917562446754" transform="matrix(0.8132596416073617,0.5819009841310337,-0.5819009841310337,0.8132596416073617,858.2324252262024,354.29424210880444)" fill="none" stroke="#e58f51"></use><use xlink:href="#bbburst-shape-11" width="12.2329173233551" opacity="0.8768042508765377" transform="matrix(0.9807731343362023,-0.19515137448745212,0.19515137448745212,0.9807731343362023,369.58928717024867,-5.122958965720443)" fill="none" stroke="#f16bfa"></use><use xlink:href="#bbburst-shape-11" width="11.662356807216192" opacity="0.8967070690432747" transform="matrix(0.9363890396227409,-0.35096376803653245,0.35096376803653245,0.9363890396227409,285.48907003099964,-6.933593221243996)" fill="none" stroke="#f16bfa"></use><use xlink:href="#bbburst-shape-13" width="16.32302947690235" opacity="0.7275846081421146" transform="matrix(0.9541267785225557,0.29940288994291625,-0.29940288994291625,0.9541267785225557,619.1413899462547,75.4264290071398)" fill="none" stroke="#e58f51"></use><use xlink:href="#bbburst-shape-10" width="29.651347001607572" opacity="0.6037891385163519" transform="matrix(0.7097185316093054,-0.7044853482439016,0.7044853482439016,0.7097185316093054,264.3359637285012,211.6991186535936)" fill="none" stroke="#e58f51"></use><use xlink:href="#bbburst-shape-11" width="42.23987542816516" opacity="0.06523206525620395" transform="matrix(0.7545248962566871,0.6562714232151478,-0.6562714232151478,0.7545248962566871,291.3817275397183,308.70310210698375)" fill="none" stroke="#e58f51"></use><use xlink:href="#bbburst-shape-13" width="22.651491810241062" opacity="0.6897803380950714" transform="matrix(0.9691272599389322,0.24656105540668286,-0.24656105540668286,0.9691272599389322,622.1533508974486,-27.809653506326356)" fill="none" stroke="#e58f51"></use><use xlink:href="#bbburst-shape-13" width="14.780647360670777" opacity="0.7547793407127618" transform="matrix(0.8501127346065108,-0.5266007391371951,0.5266007391371951,0.8501127346065108,273.2254949858403,0.20517028989257824)" fill="none" stroke="#f16bfa"></use><use xlink:href="#bbburst-shape-13" width="35.69129278515617" opacity="0.18216258156504084" transform="matrix(0.9588168471326205,-0.28402509335384624,0.28402509335384624,0.9588168471326205,0.8369209635085326,-230.21687674224108)" fill="none" stroke="#e58f51"></use><use xlink:href="#bbburst-shape-13" width="36.69742242233022" opacity="0.4855006304694722" transform="matrix(0.8590007706807921,0.5119742922938664,-0.5119742922938664,0.8590007706807921,526.0044365126973,269.7873685722369)" fill="none" stroke="#f16bfa"></use><use xlink:href="#bbburst-shape-13" width="27.789335929010065" opacity="0.6403963747492871" transform="matrix(0.9925284951496898,0.12201305797287527,-0.12201305797287527,0.9925284951496898,313.0167215597437,107.60794712186822)" fill="none" stroke="#f16bfa"></use><use xlink:href="#bbburst-shape-10" width="33.21068853080379" opacity="0.5433340017087671" transform="matrix(0.9972010724207846,0.07476644409651428,-0.07476644409651428,0.9972010724207846,207.85005815658263,0.7967436548060505)" fill="none" stroke="#f16bfa"></use><use xlink:href="#bbburst-shape-11" width="20.272781696668144" opacity="0.6528851941505446" transform="matrix(0.98066132534206,0.19571245483707603,-0.19571245483707603,0.98066132534206,581.187885384767,-102.56420387719305)" fill="none" stroke="#f16bfa"></use><use xlink:href="#bbburst-shape-11" width="23.714314541321528" opacity="0.5473262171350399" transform="matrix(0.9087461445205443,0.4173493079172962,-0.4173493079172962,0.9087461445205443,695.4069418284496,180.07734708262018)" fill="none" stroke="#e58f51"></use><use xlink:href="#bbburst-shape-11" width="27.640900574800206" opacity="0.6426760213805953" transform="matrix(0.9687407236386733,-0.24807541265514357,0.24807541265514357,0.9687407236386733,446.21647905431604,40.05399750573315)" fill="none" stroke="#f16bfa"></use><use xlink:href="#bbburst-shape-11" width="38.43453201612131" opacity="0.07941762000035868" transform="matrix(0.9946841114425913,-0.10297338706511784,0.10297338706511784,0.9946841114425913,107.75982004413628,346.894559999031)" fill="none" stroke="#f16bfa"></use><use xlink:href="#bbburst-shape-11" width="28.722210379457618" opacity="0.18598688667837726" transform="matrix(0.9924380741397455,-0.12274636042585155,0.12274636042585155,0.9924380741397455,701.497726260177,-27.70816422423013)" fill="none" stroke="#f16bfa"></use><use xlink:href="#bbburst-shape-11" width="27.58686603518127" opacity="0.6175110303280273" transform="matrix(0.943153792656501,0.33235662081212974,-0.33235662081212974,0.943153792656501,593.3811173245822,173.5367580689379)" fill="none" stroke="#f16bfa"></use><use xlink:href="#bbburst-shape-13" width="24.929942125353634" opacity="0.5785401915410543" transform="matrix(0.7125788242658664,0.7015920603939838,-0.7015920603939838,0.7125788242658664,839.5535554689536,17.830605418210553)" fill="none" stroke="#f16bfa"></use><use xlink:href="#bbburst-shape-13" width="37.25347663204761" opacity="0.1984288558618159" transform="matrix(0.9931816827389256,-0.1165767775840288,0.1165767775840288,0.9931816827389256,361.6704184713977,-354.8111978293424)" fill="none" stroke="#f16bfa"></use><use xlink:href="#bbburst-shape-11" width="35.317213827879" opacity="0.21533620860106528" transform="matrix(0.7114786216692393,-0.7027077421714091,0.7027077421714091,0.7114786216692393,-156.20689456563926,363.94386847423937)" fill="none" stroke="#e58f51"></use><use xlink:href="#bbburst-shape-11" width="19.676314861913532" opacity="0.7591593050900122" transform="matrix(0.9997996958312804,-0.020014200350730156,0.020014200350730156,0.9997996958312804,356.167177891066,-105.19336221874846)" fill="none" stroke="#f16bfa"></use><use xlink:href="#bbburst-shape-13" width="30.73178792346077" opacity="0.3281241923712902" transform="matrix(0.9999561918383078,-0.009360256632666732,0.009360256632666732,0.9999561918383078,78.83973271335823,-13.150085393694212)" fill="none" stroke="#e58f51"></use><use xlink:href="#bbburst-shape-11" width="29.332472430475345" opacity="0.37764598386034176" transform="matrix(0.8272181910689451,-0.5618808275467515,0.5618808275467515,0.8272181910689451,442.337886288009,58.34826668031462)" fill="none" stroke="#e58f51"></use><use xlink:href="#bbburst-shape-13" width="28.059687770239787" opacity="0.15736201726882837" transform="matrix(0.9996118780097597,0.02785845189168539,-0.02785845189168539,0.9996118780097597,760.4943528676666,108.12115223595049)" fill="none" stroke="#e58f51"></use><use xlink:href="#bbburst-shape-13" width="15.893846507632047" opacity="0.842093952652073" transform="matrix(0.8991914493897458,-0.4375554105988957,0.4375554105988957,0.8991914493897458,183.28840620581835,-18.29555688977655)" fill="none" stroke="#f16bfa"></use><use xlink:href="#bbburst-shape-13" width="23.178923762849838" opacity="0.7074608737866692" transform="matrix(0.8302860242277501,0.5573375260756052,-0.5573375260756052,0.8302860242277501,696.5940843344035,163.37705624048027)" fill="none" stroke="#f16bfa"></use><use xlink:href="#bbburst-shape-11" width="17.328872562191886" opacity="0.8088772613967619" transform="matrix(0.9979627859535676,0.06379872923337863,-0.06379872923337863,0.9979627859535676,345.11533261387154,-47.34995336995377)" fill="none" stroke="#f16bfa"></use><use xlink:href="#bbburst-shape-10" width="30.948352457297972" opacity="0.439784855244406" transform="matrix(0.9323300110306092,-0.36160855981525675,0.36160855981525675,0.9323300110306092,476.29707171872064,-57.6409821313772)" fill="none" stroke="#f16bfa"></use><use xlink:href="#bbburst-shape-11" width="31.7884329181449" opacity="0.26529919717897366" transform="matrix(0.9530445902559815,0.3028300001383752,-0.3028300001383752,0.9530445902559815,326.56031383727174,-264.03467271571134)" fill="none" stroke="#e58f51"></use><use xlink:href="#bbburst-shape-10" width="14.22246036587261" opacity="0.801586282564188" transform="matrix(0.9839180544533435,-0.1786204414974595,0.1786204414974595,0.9839180544533435,408.06623307443306,-14.383567213668641)" fill="none" stroke="#f16bfa"></use><use xlink:href="#bbburst-shape-10" width="31.44821213099287" opacity="0.41040528204714877" transform="matrix(0.9591249401095164,-0.2829829487087809,0.2829829487087809,0.9591249401095164,11.058314759726755,70.25762936671686)" fill="none" stroke="#e58f51"></use><use xlink:href="#bbburst-shape-11" width="32.646025664339945" opacity="0.4353953620721923" transform="matrix(0.7153223350699435,-0.6987946457651801,0.6987946457651801,0.7153223350699435,329.90858515686097,249.62070349802286)" fill="none" stroke="#f16bfa"></use><use xlink:href="#bbburst-shape-11" width="40.21013146401164" opacity="0.0542680215803798" transform="matrix(0.9411300042397199,-0.3380448418771461,0.3380448418771461,0.9411300042397199,599.6930414412197,266.06941922564806)" fill="none" stroke="#e58f51"></use><use xlink:href="#bbburst-shape-11" width="26.96547333055774" opacity="0.5572890152850157" transform="matrix(0.9621351815846056,-0.27257272856461234,0.27257272856461234,0.9621351815846056,475.69116349068725,-5.363084637383054)" fill="none" stroke="#f16bfa"></use><use xlink:href="#bbburst-shape-11" width="34.75045905763291" opacity="0.3899081345159794" transform="matrix(0.7528707754582462,0.6581683640687229,-0.6581683640687229,0.7528707754582462,664.7285714382909,361.25008605614545)" fill="none" stroke="#e58f51"></use><use xlink:href="#bbburst-shape-10" width="16.03488742206445" opacity="0.8832132533381651" transform="matrix(0.9562633830637525,-0.29250699514963213,0.29250699514963213,0.9562633830637525,279.0733129817995,-32.58077450484683)" fill="none" stroke="#e58f51"></use><use xlink:href="#bbburst-shape-11" width="31.347575061089888" opacity="0.06888675716129167" transform="matrix(0.9939048395902558,0.11024141616955015,-0.11024141616955015,0.9939048395902558,72.87705588057102,-221.16239760377104)" fill="none" stroke="#f16bfa"></use><use xlink:href="#bbburst-shape-11" width="26.611245049461935" opacity="0.5383532670376638" transform="matrix(0.9878922292674063,-0.1551416879922171,0.1551416879922171,0.9878922292674063,212.5758511170421,-168.2864311412719)" fill="none" stroke="#f16bfa"></use><use xlink:href="#bbburst-shape-13" width="29.86765007433427" opacity="0.38221674097642433" transform="matrix(0.9436747370821743,-0.3308745843864245,0.3308745843864245,0.9436747370821743,17.67532805014909,174.59369137630438)" fill="none" stroke="#f16bfa"></use><use xlink:href="#bbburst-shape-11" width="14.317000221016798" opacity="0.8132737427741746" transform="matrix(0.7882130716725441,-0.6154024322705696,0.6154024322705696,0.7882130716725441,66.59584719318624,109.47687871721439)" fill="none" stroke="#e58f51"></use><use xlink:href="#bbburst-shape-11" width="28.462489620823035" opacity="0.19234562287517032" transform="matrix(0.9976110576911459,-0.06908094941699323,0.06908094941699323,0.9976110576911459,649.3487170067567,-215.89514714148456)" fill="none" stroke="#e58f51"></use><use xlink:href="#bbburst-shape-11" width="22.229673546422422" opacity="0.6455358887194853" transform="matrix(0.9969072734294931,-0.07858681939978118,0.07858681939978118,0.9969072734294931,201.30312924148012,-30.692569367155215)" fill="none" stroke="#e58f51"></use><use xlink:href="#bbburst-shape-11" width="29.994921846043162" opacity="0.5491457722818192" transform="matrix(0.7453118368264212,0.6667160309205308,-0.6667160309205308,0.7453118368264212,670.6523816137235,-110.7494206335954)" fill="none" stroke="#e58f51"></use><use xlink:href="#bbburst-shape-10" width="18.981437750283806" opacity="0.7691125618187351" transform="matrix(0.9685853803747834,-0.248681243611649,0.248681243611649,0.9685853803747834,276.8217991025152,117.80672819173884)" fill="none" stroke="#f16bfa"></use><use xlink:href="#bbburst-shape-13" width="22.033861970371785" opacity="0.701865872435638" transform="matrix(0.9995902285082978,-0.028624728308385437,0.028624728308385437,0.9995902285082978,296.48386259393095,-106.4285507822587)" fill="none" stroke="#f16bfa"></use><use xlink:href="#bbburst-shape-13" width="24.15289135726423" opacity="0.31335694348750365" transform="matrix(0.8929750542503765,-0.4501061569080533,0.4501061569080533,0.8929750542503765,511.61742174499364,111.50820935523319)" fill="none" stroke="#f16bfa"></use><use xlink:href="#bbburst-shape-11" width="15.71721980492403" opacity="0.8818305860208385" transform="matrix(0.9704307291837659,0.24137978344481187,-0.24137978344481187,0.9704307291837659,436.73253475620777,-0.1895227437011613)" fill="none" stroke="#e58f51"></use><use xlink:href="#bbburst-shape-10" width="30.643257769245164" opacity="0.4012269844338291" transform="matrix(0.9945525180427655,-0.10423669629643209,0.10423669629643209,0.9945525180427655,153.50468768834787,-187.7134223418459)" fill="none" stroke="#f16bfa"></use><use xlink:href="#bbburst-shape-13" width="15.094839275562132" opacity="0.7442886166178904" transform="matrix(0.8273568050085054,-0.5616767016764342,0.5616767016764342,0.8273568050085054,283.6184729577136,84.39601959058069)" fill="none" stroke="#e58f51"></use><use xlink:href="#bbburst-shape-13" width="39.095280614286345" opacity="0.179581817274709" transform="matrix(0.851959026215384,0.5236084583447204,-0.5236084583447204,0.851959026215384,239.17711674771675,-57.12327657368348)" fill="none" stroke="#e58f51"></use><use xlink:href="#bbburst-shape-11" width="19.974358356949924" opacity="0.7984198114358437" transform="matrix(0.9967631133910064,0.08039462533694444,-0.08039462533694444,0.9967631133910064,439.9530247002426,-88.72635619499766)" fill="none" stroke="#e58f51"></use><use xlink:href="#bbburst-shape-11" width="14.015641098584462" opacity="0.8224663032306425" transform="matrix(0.9744094293769571,-0.2247804794488903,0.2247804794488903,0.9744094293769571,353.6020109129659,-50.364264537995496)" fill="none" stroke="#f16bfa"></use><use xlink:href="#bbburst-shape-13" width="10.289467914902826" opacity="0.9572827763144692" transform="matrix(0.9442400642098762,0.3292578034624675,-0.3292578034624675,0.9442400642098762,531.5711713043115,39.242784904639166)" fill="none" stroke="#f16bfa"></use><use xlink:href="#bbburst-shape-10" width="36.29234364910158" opacity="0.19178177809423003" transform="matrix(0.9663856794341895,-0.2570967105672881,0.2570967105672881,0.9663856794341895,306.5098147352361,380.81422103916685)" fill="none" stroke="#e58f51"></use><use xlink:href="#bbburst-shape-11" width="25.215498678544126" opacity="0.6470352159557291" transform="matrix(0.9604539615122868,-0.278438840349824,0.278438840349824,0.9604539615122868,218.62147110542833,166.95956327484964)" fill="none" stroke="#e58f51"></use><use xlink:href="#bbburst-shape-11" width="26.982427892487824" opacity="0.6737032216551906" transform="matrix(0.9186306394276273,0.39511738547523895,-0.39511738547523895,0.9186306394276273,403.6942515554906,63.89271486799839)" fill="none" stroke="#e58f51"></use><use xlink:href="#bbburst-shape-11" width="33.742579366054294" opacity="-0.07709919003096521" transform="matrix(0.95838954936997,0.2854636082908396,-0.2854636082908396,0.95838954936997,832.6424790246372,362.17785977078734)" fill="none" stroke="#e58f51"></use><use xlink:href="#bbburst-shape-11" width="34.40829307886501" opacity="0.14888739409344087" transform="matrix(0.9911225056689167,0.13295179109951205,-0.13295179109951205,0.9911225056689167,309.2310193117826,362.17082301577926)" fill="none" stroke="#f16bfa"></use><use xlink:href="#bbburst-shape-11" width="33.59234855517376" opacity="0.1036561949489494" transform="matrix(0.8868590800791357,-0.4620400113422961,0.4620400113422961,0.8868590800791357,374.1564866972765,416.49451834853124)" fill="none" stroke="#f16bfa"></use><use xlink:href="#bbburst-shape-10" width="31.7441846344013" opacity="0.33419620557625584" transform="matrix(0.9951730936462742,0.09813518065660301,-0.09813518065660301,0.9951730936462742,155.45812503435704,-133.57806649255122)" fill="none" stroke="#e58f51"></use><use xlink:href="#bbburst-shape-13" width="41.098475548783995" opacity="0.33485816888772557" transform="matrix(0.9999903584795637,0.0043912353516389465,-0.0043912353516389465,0.9999903584795637,220.22928329370765,252.25227645822912)" fill="none" stroke="#f16bfa"></use><use xlink:href="#bbburst-shape-10" width="26.32653856920039" opacity="0.34008517755547396" transform="matrix(0.9567949581582625,-0.290763491592271,0.290763491592271,0.9567949581582625,174.6326352992597,-259.7469012130742)" fill="none" stroke="#f16bfa"></use><use xlink:href="#bbburst-shape-10" width="38.66501547738754" opacity="0.2607868430088738" transform="matrix(0.99995000152782,0.009999722221786078,-0.009999722221786078,0.99995000152782,663.0158726071894,181.96939517449925)" fill="none" stroke="#e58f51"></use><use xlink:href="#bbburst-shape-13" width="31.53712388326653" opacity="0.48009518543591023" transform="matrix(0.983592320195981,-0.18040550892776777,0.18040550892776777,0.983592320195981,392.41094094546725,229.23199371339996)" fill="none" stroke="#f16bfa"></use><use xlink:href="#bbburst-shape-11" width="16.398624833689027" opacity="0.7610860148725909" transform="matrix(0.7271048528180639,0.6865264255718213,-0.6865264255718213,0.7271048528180639,611.8694023461255,194.5799784940528)" fill="none" stroke="#f16bfa"></use><use xlink:href="#bbburst-shape-10" width="49.21548649945748" opacity="0.19741936077736655" transform="matrix(0.858702601054847,0.5124742363686592,-0.5124742363686592,0.858702601054847,241.72905274358365,159.5999772891222)" fill="none" stroke="#e58f51"></use><use xlink:href="#bbburst-shape-11" width="12.99569568897186" opacity="0.903510612511216" transform="matrix(0.9808623486604164,0.1947024729693271,-0.1947024729693271,0.9808623486604164,511.5066904392988,23.195837817198367)" fill="none" stroke="#f16bfa"></use><use xlink:href="#bbburst-shape-13" width="41.358832275085234" opacity="-0.0698537237118122" transform="matrix(0.990031088778132,0.14084900870359915,-0.14084900870359915,0.990031088778132,100.01223335774418,-343.86115133191976)" fill="none" stroke="#f16bfa"></use></svg>