<svg width="668" height="668" viewBox="0 0 668 668" fill="none" xmlns="http://www.w3.org/2000/svg">
<path d="M334 0.799805C333.9 0.799805 333.825 0.799805 333.725 0.799805C333.675 0.799805 333.65 0.799805 333.6 0.799805C333.475 0.799805 333.35 0.824809 333.2 0.824809C149.525 1.24981 0.799805 150.25 0.799805 334C0.799805 517.7 149.525 666.725 333.2 667.175C333.325 667.175 333.45 667.2 333.6 667.2C333.65 667.2 333.7 667.2 333.725 667.2C333.825 667.2 333.925 667.2 334 667.2C518 667.2 667.2 518 667.2 334C667.2 150 518 0.799805 334 0.799805ZM347.325 200.2C382.65 199.225 417.025 194.575 450.125 186.5C460.1 225.775 466.3 271.05 467.275 320.675H347.325V200.2ZM347.325 173.55V29.5748C383.25 39.5248 419.65 87.4248 442.85 160.875C412.075 168.3 380.125 172.625 347.325 173.55ZM320.675 29.2498V173.55C287.6 172.625 255.4 168.225 224.375 160.675C247.775 86.7748 284.5 38.6998 320.675 29.2748V29.2498ZM320.675 200.175V320.675H199.9C200.875 270.975 207.075 225.65 217.075 186.35C250.425 194.5 285.075 199.225 320.675 200.175ZM173.075 320.675H27.7998C30.7498 252.15 56.2748 189.375 97.1248 139.65C126.8 156 158.275 169.375 191.275 179.375C180.5 221.875 174.05 269.8 173.075 320.675ZM173.075 347.325C174.05 398.175 180.5 446.1 191.275 488.6C158.3 498.625 126.8 512 97.1248 528.35C56.2498 478.625 30.7248 415.85 27.7998 347.325H173.075ZM199.9 347.325H320.675V467.675C285.075 468.625 250.425 473.375 217.05 481.55C207.075 442.275 200.875 396.975 199.9 347.325ZM320.675 494.3V638.75C284.475 629.3 247.7 581.175 224.325 507.175C255.35 499.625 287.575 495.225 320.675 494.3ZM347.325 638.45V494.325C380.15 495.275 412.1 499.6 442.875 507.025C419.675 580.55 383.275 628.525 347.325 638.45ZM347.325 467.675V347.325H467.275C466.3 396.9 460.125 442.1 450.175 481.35C417.05 473.275 382.675 468.6 347.35 467.65L347.325 467.675ZM494.1 347.325H640.225C637.275 415.85 611.775 478.6 570.9 528.325C540.975 511.875 509.225 498.4 475.975 488.35C486.725 445.9 493.15 398.075 494.125 347.35L494.1 347.325ZM494.1 320.675C493.125 269.85 486.675 222.025 475.925 179.525C509.175 169.475 540.9 156.025 570.8 139.575C611.7 189.3 637.25 252.1 640.2 320.675H494.1ZM552.45 119.225C525.925 133.325 497.95 145 468.7 153.85C453.125 103.725 431.25 62.7998 405.375 35.9248C462.125 49.5498 512.8 78.8998 552.45 119.225ZM261.575 36.1748C235.85 62.9998 214.075 103.725 198.55 153.6C169.6 144.775 141.85 133.225 115.575 119.225C154.95 79.1748 205.25 49.8748 261.575 36.1748ZM115.475 548.675C141.775 534.65 169.55 523.075 198.525 514.25C214.05 564.175 235.825 604.975 261.575 631.8C205.2 618.075 154.875 588.8 115.475 548.675ZM405.375 632.05C431.275 605.175 453.15 564.25 468.75 514.025C498 522.9 526 534.525 552.525 548.7C512.875 589.05 462.175 618.475 405.375 632.05Z" fill="url(#paint0_linear_461_27)"/>
<defs>
<linearGradient id="paint0_linear_461_27" x1="334" y1="0.799805" x2="334" y2="667.2" gradientUnits="userSpaceOnUse">
<stop stop-color="#F16BFA"/>
<stop offset="1" stop-color="#E58F51"/>
</linearGradient>
</defs>
</svg>
