<svg width="1282" height="1085" viewBox="0 0 1282 1085" fill="none" xmlns="http://www.w3.org/2000/svg">
<rect opacity="0.52" width="106.119" height="1427.4" rx="53.0594" transform="matrix(-0.707107 0.707107 0.707107 0.707107 213.63 0)" fill="#FBBEFF"/>
<rect width="72.8153" height="1004.15" rx="36.4077" transform="matrix(-0.707107 0.707107 0.707107 0.707107 552.9 120.836)" fill="#F6A1FB"/>
<rect width="15.2118" height="424.639" rx="7.60588" transform="matrix(-0.707107 0.707107 0.707107 0.707107 572.922 264.135)" fill="#F6A1FB"/>
<rect width="15.2118" height="240.402" rx="7.60588" transform="matrix(-0.707107 0.707107 0.707107 0.707107 171.563 370.908)" fill="#F169FA"/>
<rect width="15.2118" height="124.005" rx="7.60588" transform="matrix(-0.707107 0.707107 0.707107 0.707107 529.731 733.537)" fill="#FBBEFF"/>
<rect width="42.8629" height="577.893" rx="21.4315" transform="matrix(-0.707107 0.707107 0.707107 0.707107 831.073 6.19678)" fill="#F6A1FB"/>
<rect width="139.909" height="761.613" rx="69.9545" transform="matrix(-0.707107 0.707107 0.707107 0.707107 742.992 36.4058)" fill="#FBBEFF"/>
<rect width="42.8629" height="733.716" rx="21.4315" transform="matrix(-0.707107 0.707107 0.707107 0.707107 42.9863 402.012)" fill="#FBBEFF"/>
<rect width="106.119" height="1049.88" rx="53.0594" transform="matrix(-0.707107 0.707107 0.707107 0.707107 75.0371 66.6147)" fill="#F169FA"/>
</svg>
