<svg width="667" height="666" viewBox="0 0 667 666" fill="none" xmlns="http://www.w3.org/2000/svg">
<path d="M66.4996 470.5C41.1671 496.988 24.7361 530.724 19.4996 567C16.3096 585.148 15.1358 603.594 15.9996 622V651H55.9996C70.755 650.955 85.478 649.616 99.9996 647C136.336 641.961 170.13 625.502 196.5 600C211.97 582.607 219.919 559.794 218.607 536.554C217.295 513.314 206.829 491.541 189.5 476C173.789 459.18 152.114 449.185 129.122 448.157C106.129 447.129 83.6487 455.15 66.4996 470.5ZM153.5 557C136.19 573.396 114.139 583.896 90.4996 587H79.4996V576C82.603 552.361 93.1038 530.309 109.5 513C112.884 510.259 117.147 508.838 121.5 509C125.951 509.179 130.323 510.244 134.358 512.132C138.393 514.021 142.011 516.696 145 520C151.001 523.807 155.259 529.827 156.85 536.754C158.442 543.68 157.238 550.955 153.5 557ZM665.5 45.9999C665.245 34.2778 660.475 23.1065 652.184 14.8158C643.893 6.52501 632.722 1.75479 621 1.49988C562.464 -3.27939 503.566 3.77572 447.816 22.2447C392.065 40.7136 340.604 70.2183 296.5 109L215 204L94.9996 179C86.8151 177.217 78.3137 177.519 70.2762 179.877C62.2386 182.236 54.9225 186.577 48.9996 192.5L14.9996 226.5C9.81041 231.791 5.86232 238.17 3.44103 245.174C1.01975 252.178 0.185835 259.634 0.999623 267C1.73673 274.459 4.14156 281.658 8.03621 288.062C11.9309 294.467 17.2157 299.914 23.4996 304L126.5 370L133 374L293 536.5L297 540.5L363 643.5C367.086 649.784 372.533 655.069 378.937 658.963C385.342 662.858 392.54 665.263 400 666H405.5C418.617 665.945 431.187 660.737 440.5 651.5L474.5 617.5C480.423 611.577 484.763 604.261 487.122 596.223C489.481 588.186 489.783 579.684 488 571.5L463 452L555 373C594.533 328.773 624.704 277 643.694 220.802C662.685 164.603 670.102 105.142 665.5 45.9999ZM88.4996 241.5L154.5 255.5L122.5 293L72.4996 259.5L88.4996 241.5ZM407.5 596.5L374 546.5L411.5 514.5L425.5 580.5L407.5 596.5ZM513 327L329 484L183 338L340 154C412.743 91.1424 506.997 58.8883 603 63.9999C607.902 159.973 575.674 254.152 513 327Z" fill="url(#paint0_linear_461_23)"/>
<defs>
<linearGradient id="paint0_linear_461_23" x1="333.761" y1="0.0488281" x2="333.761" y2="666" gradientUnits="userSpaceOnUse">
<stop stop-color="#F16BFA"/>
<stop offset="1" stop-color="#E58F51"/>
</linearGradient>
</defs>
</svg>
