<svg id="visual" preserveAspectRatio="none" viewBox="0 0 900 450" xmlns="http://www.w3.org/2000/svg" xmlns:xlink="http://www.w3.org/1999/xlink" version="1.1"><path d="M0 330L21.5 328.3C43 326.7 86 323.3 128.8 319.2C171.7 315 214.3 310 257.2 304.2C300 298.3 343 291.7 385.8 294.8C428.7 298 471.3 311 514.2 319.5C557 328 600 332 642.8 327.5C685.7 323 728.3 310 771.2 307.8C814 305.7 857 314.3 878.5 318.7L900 323L900 451L878.5 451C857 451 814 451 771.2 451C728.3 451 685.7 451 642.8 451C600 451 557 451 514.2 451C471.3 451 428.7 451 385.8 451C343 451 300 451 257.2 451C214.3 451 171.7 451 128.8 451C86 451 43 451 21.5 451L0 451Z" fill="#e58f51"></path><path d="M0 317L21.5 323.7C43 330.3 86 343.7 128.8 348.7C171.7 353.7 214.3 350.3 257.2 346C300 341.7 343 336.3 385.8 336.7C428.7 337 471.3 343 514.2 345.7C557 348.3 600 347.7 642.8 348.3C685.7 349 728.3 351 771.2 351.8C814 352.7 857 352.3 878.5 352.2L900 352L900 451L878.5 451C857 451 814 451 771.2 451C728.3 451 685.7 451 642.8 451C600 451 557 451 514.2 451C471.3 451 428.7 451 385.8 451C343 451 300 451 257.2 451C214.3 451 171.7 451 128.8 451C86 451 43 451 21.5 451L0 451Z" fill="#f97967"></path><path d="M0 344L21.5 348.7C43 353.3 86 362.7 128.8 360.5C171.7 358.3 214.3 344.7 257.2 341.5C300 338.3 343 345.7 385.8 353.3C428.7 361 471.3 369 514.2 367.8C557 366.7 600 356.3 642.8 348.7C685.7 341 728.3 336 771.2 338.3C814 340.7 857 350.3 878.5 355.2L900 360L900 451L878.5 451C857 451 814 451 771.2 451C728.3 451 685.7 451 642.8 451C600 451 557 451 514.2 451C471.3 451 428.7 451 385.8 451C343 451 300 451 257.2 451C214.3 451 171.7 451 128.8 451C86 451 43 451 21.5 451L0 451Z" fill="#ff668b"></path><path d="M0 400L21.5 395.5C43 391 86 382 128.8 377.3C171.7 372.7 214.3 372.3 257.2 373.2C300 374 343 376 385.8 374.8C428.7 373.7 471.3 369.3 514.2 373.3C557 377.3 600 389.7 642.8 395.8C685.7 402 728.3 402 771.2 397.2C814 392.3 857 382.7 878.5 377.8L900 373L900 451L878.5 451C857 451 814 451 771.2 451C728.3 451 685.7 451 642.8 451C600 451 557 451 514.2 451C471.3 451 428.7 451 385.8 451C343 451 300 451 257.2 451C214.3 451 171.7 451 128.8 451C86 451 43 451 21.5 451L0 451Z" fill="#ff5ebd"></path><path d="M0 398L21.5 399C43 400 86 402 128.8 402.7C171.7 403.3 214.3 402.7 257.2 405.3C300 408 343 414 385.8 415.3C428.7 416.7 471.3 413.3 514.2 413.2C557 413 600 416 642.8 416.8C685.7 417.7 728.3 416.3 771.2 415.5C814 414.7 857 414.3 878.5 414.2L900 414L900 451L878.5 451C857 451 814 451 771.2 451C728.3 451 685.7 451 642.8 451C600 451 557 451 514.2 451C471.3 451 428.7 451 385.8 451C343 451 300 451 257.2 451C214.3 451 171.7 451 128.8 451C86 451 43 451 21.5 451L0 451Z" fill="#f16bfa"></path></svg>