<svg id="visual" viewBox="0 0 540 960" width="540" height="960" xmlns="http://www.w3.org/2000/svg" xmlns:xlink="http://www.w3.org/1999/xlink" version="1.1"><rect x="0" y="0" width="540" height="960" fill="#ffffff"></rect><path d="M0 828L11.3 829.2C22.7 830.3 45.3 832.7 67.8 829.8C90.3 827 112.7 819 135.2 816.7C157.7 814.3 180.3 817.7 202.8 814.7C225.3 811.7 247.7 802.3 270.2 806.7C292.7 811 315.3 829 337.8 834.7C360.3 840.3 382.7 833.7 405.2 827.5C427.7 821.3 450.3 815.7 472.8 810.2C495.3 804.7 517.7 799.3 528.8 796.7L540 794L540 961L528.8 961C517.7 961 495.3 961 472.8 961C450.3 961 427.7 961 405.2 961C382.7 961 360.3 961 337.8 961C315.3 961 292.7 961 270.2 961C247.7 961 225.3 961 202.8 961C180.3 961 157.7 961 135.2 961C112.7 961 90.3 961 67.8 961C45.3 961 22.7 961 11.3 961L0 961Z" fill="#f169fa"></path><path d="M0 852L11.3 849C22.7 846 45.3 840 67.8 838.8C90.3 837.7 112.7 841.3 135.2 848.5C157.7 855.7 180.3 866.3 202.8 867C225.3 867.7 247.7 858.3 270.2 849.5C292.7 840.7 315.3 832.3 337.8 835.2C360.3 838 382.7 852 405.2 859.7C427.7 867.3 450.3 868.7 472.8 867.8C495.3 867 517.7 864 528.8 862.5L540 861L540 961L528.8 961C517.7 961 495.3 961 472.8 961C450.3 961 427.7 961 405.2 961C382.7 961 360.3 961 337.8 961C315.3 961 292.7 961 270.2 961C247.7 961 225.3 961 202.8 961C180.3 961 157.7 961 135.2 961C112.7 961 90.3 961 67.8 961C45.3 961 22.7 961 11.3 961L0 961Z" fill="#d252e9"></path><path d="M0 891L11.3 892C22.7 893 45.3 895 67.8 892.7C90.3 890.3 112.7 883.7 135.2 883.7C157.7 883.7 180.3 890.3 202.8 888.3C225.3 886.3 247.7 875.7 270.2 874.2C292.7 872.7 315.3 880.3 337.8 880.5C360.3 880.7 382.7 873.3 405.2 869.7C427.7 866 450.3 866 472.8 868.3C495.3 870.7 517.7 875.3 528.8 877.7L540 880L540 961L528.8 961C517.7 961 495.3 961 472.8 961C450.3 961 427.7 961 405.2 961C382.7 961 360.3 961 337.8 961C315.3 961 292.7 961 270.2 961C247.7 961 225.3 961 202.8 961C180.3 961 157.7 961 135.2 961C112.7 961 90.3 961 67.8 961C45.3 961 22.7 961 11.3 961L0 961Z" fill="#b43cd8"></path><path d="M0 925L11.3 926.7C22.7 928.3 45.3 931.7 67.8 933.7C90.3 935.7 112.7 936.3 135.2 934.7C157.7 933 180.3 929 202.8 922.8C225.3 916.7 247.7 908.3 270.2 910.8C292.7 913.3 315.3 926.7 337.8 930.7C360.3 934.7 382.7 929.3 405.2 928.7C427.7 928 450.3 932 472.8 932.5C495.3 933 517.7 930 528.8 928.5L540 927L540 961L528.8 961C517.7 961 495.3 961 472.8 961C450.3 961 427.7 961 405.2 961C382.7 961 360.3 961 337.8 961C315.3 961 292.7 961 270.2 961C247.7 961 225.3 961 202.8 961C180.3 961 157.7 961 135.2 961C112.7 961 90.3 961 67.8 961C45.3 961 22.7 961 11.3 961L0 961Z" fill="#9524c7"></path></svg>