<svg width="500" height="500" viewBox="0 0 500 500" fill="none" xmlns="http://www.w3.org/2000/svg">
<g opacity="0.41">
<path d="M479.208 298.478C479.636 291.107 479.444 283.703 478.614 276.371C474.711 241.921 457.037 209.436 431.024 186.515C421.743 178.338 411.184 171.012 405.144 160.218C394.973 142.04 395.744 121.149 383.12 103.2C370.482 85.2313 352.065 71.2183 331.296 64.0213C269.37 42.5633 182.671 77.5013 190.477 152.112C190.505 152.38 190.536 152.769 190.568 153.261C191.606 168.759 179.442 181.79 163.961 182.157C106.826 183.513 57.645 227.564 47.121 283.363C40.353 319.248 51.435 358.581 77.685 383.968C97.28 402.918 123.57 413.328 149.873 420.481C202.612 434.824 258.11 437.83 312.488 432.346C363.39 427.212 417.082 412.579 450.002 373.418C467.564 352.527 477.624 325.738 479.208 298.478Z" fill="#E1E2FE"/>
</g>
<g opacity="0.31">
<path d="M230.634 47.5046C231.804 40.257 226.878 33.4325 219.631 32.2615C212.383 31.0905 205.559 36.0166 204.388 43.2641C203.217 50.5117 208.143 57.3362 215.39 58.5072C222.638 59.6782 229.463 54.7521 230.634 47.5046Z" fill="#E1E2FE"/>
</g>
<g opacity="0.31">
<path d="M397.138 44.1391C400.926 44.1391 403.997 41.0683 403.997 37.2801C403.997 33.492 400.926 30.4211 397.138 30.4211C393.35 30.4211 390.279 33.492 390.279 37.2801C390.279 41.0683 393.35 44.1391 397.138 44.1391Z" fill="#E1E2FE"/>
</g>
<g opacity="0.31">
<path d="M163.943 77.3712C165.171 72.4459 162.174 67.4574 157.249 66.229C152.324 65.0006 147.335 67.9975 146.107 72.9228C144.878 77.8481 147.875 82.8366 152.8 84.065C157.726 85.2934 162.714 82.2965 163.943 77.3712Z" fill="#E1E2FE"/>
</g>
<g opacity="0.31">
<path d="M49.0339 429.402C60.5916 429.402 69.9609 420.033 69.9609 408.475C69.9609 396.917 60.5916 387.548 49.0339 387.548C37.4763 387.548 28.1069 396.917 28.1069 408.475C28.1069 420.033 37.4763 429.402 49.0339 429.402Z" fill="#E1E2FE"/>
</g>
<path opacity="0.47" d="M473.514 81.951C479.48 70.331 474.895 56.075 463.275 50.109C451.655 44.144 429.325 44.583 423.359 56.203C417.394 67.823 435.278 77.796 442.57 88.632C452.741 103.746 467.548 93.571 473.514 81.951Z" fill="#ECF1F7"/>
<path opacity="0.47" d="M422.703 439.102C431.111 444.53 442.326 442.115 447.754 433.707C453.182 425.299 454.538 408.242 446.13 402.814C437.722 397.386 428.766 410.266 419.952 415.005C407.659 421.615 414.295 433.674 422.703 439.102Z" fill="#E1E2FE"/>
<path opacity="0.47" d="M79.5359 28.6341C70.2879 20.0461 55.8299 20.5811 47.2419 29.8291C38.6539 39.0771 33.2219 59.9601 42.4699 68.5481C51.7179 77.1361 65.6709 63.1101 77.6569 59.1621C94.3749 53.6551 88.7839 37.2221 79.5359 28.6341Z" fill="#E1E2FE"/>
<path opacity="0.47" d="M28.561 128.463C20.316 146.361 18.065 166.995 22.021 186.285C26.671 208.963 40.79 226.386 35.891 250.579C32.907 265.315 32.16 278.966 30.647 293.547C27.54 323.487 46.979 349.868 71.095 364.113C90.682 375.683 113.645 380.024 136.164 379.716C156.432 379.438 176.664 375.695 196.304 370.663C215.231 365.813 233.736 359.423 253.575 361.439C270.075 363.116 284.935 370.249 300.301 375.568C336.986 388.267 381.425 390.058 414.971 370.726C436.5 358.32 451.569 338.171 458.252 316.509C463.593 299.197 464.271 283.008 460.268 265.334C456.157 247.188 449.218 228.895 451.373 209.987C452.875 196.811 458.901 184.094 457.797 170.879C457.063 162.098 453.197 153.86 448.469 146.425C431.207 119.276 402.303 101.099 371.729 91.0841C342.956 81.6591 313.283 74.8331 283.327 77.1011C221.391 81.7891 208.765 71.9521 145.469 58.4141C104.606 49.6741 58.897 80.8291 34.985 116.921C32.545 120.6 30.404 124.463 28.561 128.463Z" fill="#E1E2FE"/>
<path opacity="0.81" d="M71.1731 156.356C69.9031 170.648 74.7231 185.376 70.6931 199.53C65.8691 216.475 51.9061 229.168 46.2141 245.805C37.8031 270.389 38.2071 297.936 48.4211 321.892C53.3441 333.437 60.5351 344.167 70.3551 351.587C85.4941 363.026 105.33 365.535 123.985 364.084C151.749 361.925 181.045 349.905 208.96 353.183C224.364 354.992 229.068 371.664 237.024 382.662C246.022 395.101 258.276 404.87 271.823 411.374C296.775 423.352 326.721 424.486 352.223 413.625C379.45 402.029 403.181 373.712 401.621 341.687C400.899 326.872 394.969 312.157 397.714 297.599C401.16 279.33 414.925 262.682 424.9 247.797C435.916 231.358 442.585 211.754 443.893 191.754C443.908 191.527 443.922 191.3 443.936 191.074C445.981 156.571 424.219 125.103 391.385 114.305C391.385 114.305 321.526 91.3302 321.523 91.3292C250.638 68.0152 179.813 68.7862 114.636 103C100.532 110.404 77.5671 132.463 72.8371 147.674C71.9451 150.544 71.4321 153.441 71.1731 156.356Z" fill="#E1E2FE"/>
<path opacity="0.58" d="M467.651 386.079C470.136 386.079 472.151 384.064 472.151 381.579C472.151 379.094 470.136 377.079 467.651 377.079C465.166 377.079 463.151 379.094 463.151 381.579C463.151 384.064 465.166 386.079 467.651 386.079Z" fill="#3E479B"/>
<path opacity="0.58" d="M259.775 35.3611C262.26 35.3611 264.275 33.3464 264.275 30.8611C264.275 28.3758 262.26 26.3611 259.775 26.3611C257.29 26.3611 255.275 28.3758 255.275 30.8611C255.275 33.3464 257.29 35.3611 259.775 35.3611Z" fill="#3E479B"/>
<path opacity="0.58" d="M97.207 427.578C99.6923 427.578 101.707 425.563 101.707 423.078C101.707 420.593 99.6923 418.578 97.207 418.578C94.7217 418.578 92.707 420.593 92.707 423.078C92.707 425.563 94.7217 427.578 97.207 427.578Z" fill="#3E479B"/>
<path opacity="0.58" d="M381.238 445.501C383.171 445.501 384.738 443.934 384.738 442.001C384.738 440.068 383.171 438.501 381.238 438.501C379.305 438.501 377.738 440.068 377.738 442.001C377.738 443.934 379.305 445.501 381.238 445.501Z" fill="#EF929C"/>
<path opacity="0.58" d="M77.342 109C78.1705 109 78.842 108.328 78.842 107.5C78.842 106.672 78.1705 106 77.342 106C76.5136 106 75.842 106.672 75.842 107.5C75.842 108.328 76.5136 109 77.342 109Z" fill="#3E479B"/>
<path opacity="0.58" d="M396.863 62.7561C396.24 65.6751 393.368 67.5351 390.45 66.9121C387.531 66.2891 385.671 63.4171 386.294 60.4991C386.917 57.5801 389.789 55.7201 392.707 56.3431C395.625 56.9661 397.486 59.8371 396.863 62.7561Z" fill="#EF929C"/>
<path opacity="0.58" d="M108.072 37.9241C107.828 39.0691 106.702 39.7981 105.557 39.5541C104.412 39.3101 103.683 38.1841 103.927 37.0391C104.171 35.8941 105.297 35.1651 106.442 35.4091C107.587 35.6531 108.317 36.7791 108.072 37.9241Z" fill="#EF929C"/>
<path opacity="0.58" d="M445.83 29.02C445.622 29.993 444.665 30.613 443.692 30.405C442.719 30.197 442.099 29.24 442.307 28.267C442.515 27.294 443.472 26.674 444.445 26.882C445.418 27.09 446.038 28.047 445.83 29.02Z" fill="#3E479B"/>
<path opacity="0.58" d="M64.778 458.645C64.57 459.618 63.613 460.238 62.64 460.03C61.667 459.822 61.047 458.865 61.255 457.892C61.463 456.919 62.42 456.299 63.393 456.507C64.366 456.715 64.986 457.672 64.778 458.645Z" fill="#3E479B"/>
<g opacity="0.66">
<path d="M194.412 189.753L186.454 189.146C185.845 183.153 183.942 177.504 181.005 172.508L187.062 167.31C190.13 164.677 190.483 160.056 187.85 156.988C185.217 153.92 180.596 153.567 177.528 156.2L171.471 161.397C166.978 157.735 161.684 154.997 155.853 153.485L156.461 145.527C156.769 141.496 153.75 137.979 149.72 137.671C145.689 137.363 142.172 140.381 141.864 144.412L141.256 152.37C135.263 152.979 129.614 154.882 124.618 157.819L119.42 151.762C116.787 148.694 112.166 148.341 109.098 150.974C106.03 153.607 105.677 158.228 108.31 161.296L113.508 167.353C109.846 171.846 107.108 177.14 105.596 182.971L97.6379 182.363C93.6069 182.055 90.0899 185.074 89.7819 189.104C89.4739 193.135 92.4919 196.652 96.5229 196.96L104.481 197.568C105.09 203.561 106.993 209.21 109.93 214.206L103.873 219.404C100.805 222.037 100.452 226.658 103.085 229.726C105.718 232.794 110.339 233.147 113.407 230.514L119.464 225.316C123.957 228.978 129.251 231.716 135.082 233.228L134.474 241.186C134.166 245.217 137.184 248.734 141.215 249.042C145.246 249.35 148.763 246.332 149.071 242.301L149.678 234.343C155.671 233.734 161.32 231.831 166.316 228.894L171.514 234.951C174.147 238.019 178.768 238.372 181.836 235.739C184.904 233.106 185.257 228.485 182.624 225.417L177.427 219.36C181.089 214.868 183.827 209.573 185.339 203.742L193.297 204.35C197.328 204.658 200.845 201.64 201.153 197.609C201.462 193.578 198.443 190.061 194.412 189.753ZM143.198 223.092C126.776 221.838 114.479 207.509 115.733 191.087C116.987 174.665 131.316 162.368 147.738 163.622C164.16 164.876 176.457 179.205 175.203 195.627C173.949 212.049 159.62 224.346 143.198 223.092Z" fill="white"/>
<path d="M364.446 414.167C363.482 414.167 362.525 413.935 361.644 413.478C360.199 412.728 359.131 411.459 358.639 409.906L357.209 405.391C353.514 405.768 349.843 405.451 346.27 404.448L344.088 408.651C342.538 411.635 338.849 412.803 335.864 411.255C334.418 410.505 333.351 409.236 332.859 407.683C332.367 406.13 332.509 404.479 333.26 403.033L335.441 398.83C332.565 396.486 330.193 393.665 328.374 390.428L323.859 391.858C320.652 392.874 317.218 391.09 316.204 387.884C315.712 386.331 315.854 384.68 316.604 383.234C317.355 381.788 318.624 380.72 320.176 380.229L324.691 378.799C324.315 375.105 324.631 371.433 325.634 367.86L321.431 365.678C319.985 364.928 318.918 363.66 318.426 362.106C317.934 360.553 318.076 358.902 318.827 357.456C319.577 356.011 320.846 354.943 322.399 354.451C323.951 353.96 325.603 354.101 327.049 354.851L331.252 357.033C333.596 354.158 336.417 351.785 339.654 349.965L338.224 345.451C337.209 342.245 338.992 338.81 342.198 337.795C343.749 337.303 345.402 337.446 346.848 338.196C348.294 338.947 349.362 340.216 349.853 341.768L351.283 346.283C354.978 345.905 358.649 346.223 362.223 347.226L364.405 343.022C365.954 340.038 369.64 338.869 372.629 340.419C375.612 341.969 376.78 345.657 375.233 348.643L373.051 352.845C375.927 355.19 378.3 358.011 380.119 361.248L384.634 359.818C386.188 359.327 387.838 359.468 389.284 360.218C390.73 360.969 391.797 362.238 392.289 363.791C393.304 366.997 391.521 370.431 388.315 371.446L383.8 372.876C384.176 376.57 383.86 380.242 382.857 383.815L387.061 385.996C390.045 387.546 391.213 391.235 389.665 394.22C388.915 395.666 387.646 396.734 386.093 397.225C384.541 397.717 382.89 397.574 381.442 396.824L377.24 394.643C374.894 397.519 372.074 399.891 368.837 401.71L370.267 406.225C370.759 407.778 370.617 409.43 369.867 410.875C369.116 412.321 367.847 413.389 366.294 413.88C365.688 414.071 365.065 414.167 364.446 414.167ZM358.615 403.204L360.546 409.303C360.877 410.347 361.594 411.2 362.566 411.703C363.538 412.208 364.647 412.303 365.692 411.973C366.736 411.642 367.589 410.925 368.093 409.953C368.598 408.981 368.693 407.871 368.363 406.827L366.431 400.729L367.171 400.339C370.71 398.477 373.74 395.928 376.179 392.763L376.689 392.101L382.367 395.046C383.339 395.551 384.448 395.646 385.493 395.317C386.537 394.986 387.39 394.269 387.893 393.296C388.934 391.291 388.149 388.812 386.143 387.77L380.465 384.824L380.713 384.025C381.898 380.209 382.238 376.264 381.725 372.299L381.617 371.469L387.716 369.538C389.87 368.855 391.069 366.547 390.387 364.392C390.056 363.348 389.339 362.496 388.366 361.991C387.396 361.486 386.285 361.391 385.241 361.721L379.143 363.653L378.753 362.913C376.891 359.374 374.342 356.343 371.176 353.905L370.513 353.395L373.46 347.717C374.501 345.711 373.716 343.232 371.71 342.191C369.701 341.147 367.224 341.935 366.184 343.941L363.237 349.619L362.438 349.371C358.623 348.186 354.678 347.848 350.712 348.359L349.882 348.467L347.951 342.368C347.621 341.324 346.903 340.471 345.931 339.968C344.959 339.463 343.852 339.367 342.805 339.698C340.651 340.381 339.452 342.689 340.134 344.844L342.066 350.941L341.326 351.331C337.787 353.194 334.757 355.743 332.319 358.908L331.809 359.571L326.13 356.624C325.159 356.119 324.049 356.024 323.005 356.354C321.961 356.685 321.108 357.402 320.605 358.375C320.1 359.347 320.004 360.456 320.334 361.5C320.665 362.544 321.382 363.396 322.355 363.9L328.032 366.847L327.784 367.646C326.598 371.462 326.259 375.407 326.772 379.372L326.88 380.202L320.781 382.133C319.737 382.463 318.884 383.181 318.381 384.153C317.876 385.125 317.781 386.235 318.112 387.279C318.795 389.433 321.103 390.634 323.257 389.95L329.355 388.018L329.745 388.758C331.607 392.297 334.156 395.327 337.321 397.765L337.983 398.275L335.038 403.954C334.533 404.926 334.437 406.035 334.767 407.079C335.098 408.123 335.815 408.976 336.788 409.479C338.794 410.521 341.273 409.734 342.314 407.729L345.261 402.052L346.06 402.3C349.876 403.485 353.823 403.823 357.785 403.312L358.615 403.204ZM354.224 397.621C350.78 397.621 347.364 396.795 344.218 395.163C339.056 392.483 335.246 387.955 333.49 382.41C331.734 376.865 332.243 370.969 334.922 365.806C337.602 360.644 342.13 356.834 347.675 355.078C353.221 353.321 359.115 353.831 364.28 356.51C369.442 359.19 373.253 363.719 375.008 369.263C376.764 374.808 376.255 380.705 373.575 385.868C370.895 391.03 366.367 394.84 360.822 396.595C358.655 397.281 356.434 397.621 354.224 397.621ZM354.271 356.053C352.263 356.053 350.247 356.362 348.279 356.985C343.243 358.58 339.13 362.04 336.697 366.728C334.263 371.416 333.801 376.771 335.396 381.806C336.991 386.842 340.451 390.956 345.139 393.388C349.829 395.823 355.185 396.283 360.217 394.689C365.253 393.094 369.366 389.634 371.799 384.946C374.233 380.258 374.695 374.903 373.1 369.868C371.505 364.832 368.045 360.718 363.357 358.286C360.502 356.803 357.398 356.053 354.271 356.053Z" fill="white"/>
<path d="M416.959 376.837C416.585 376.837 416.206 376.81 415.825 376.754C411.54 376.131 408.559 372.138 409.182 367.854L410.137 361.278C405.296 359.55 400.916 356.943 397.095 353.515L391.77 357.489C390.088 358.744 388.021 359.269 385.945 358.967C383.869 358.666 382.035 357.574 380.78 355.893C378.19 352.422 378.906 347.492 382.377 344.902L387.702 340.928C385.502 336.288 384.248 331.348 383.97 326.217L377.395 325.261C373.11 324.639 370.129 320.646 370.753 316.361C371.054 314.285 372.145 312.451 373.827 311.196C375.509 309.942 377.577 309.418 379.652 309.718L386.229 310.673C387.956 305.832 390.563 301.452 393.992 297.631L390.017 292.307C388.763 290.625 388.238 288.556 388.539 286.481C388.841 284.405 389.932 282.571 391.614 281.316C393.295 280.061 395.363 279.537 397.439 279.837C399.515 280.139 401.349 281.231 402.604 282.912L406.579 288.236C411.218 286.037 416.159 284.783 421.289 284.505L422.245 277.93C422.868 273.644 426.872 270.661 431.145 271.287C433.221 271.588 435.055 272.68 436.31 274.361C437.565 276.042 438.089 278.111 437.788 280.186L436.833 286.763C441.674 288.49 446.054 291.097 449.875 294.526L455.2 290.551C458.668 287.962 463.599 288.676 466.191 292.149C468.781 295.619 468.064 300.549 464.593 303.139L459.269 307.114C461.468 311.752 462.722 316.692 463.001 321.824L469.577 322.78C473.862 323.403 476.842 327.396 476.22 331.68C475.597 335.966 471.595 338.95 467.32 338.322L460.744 337.367C459.016 342.209 456.409 346.589 452.981 350.409L456.955 355.734C459.545 359.203 458.829 364.133 455.359 366.725C453.677 367.979 451.608 368.503 449.532 368.202C447.456 367.9 445.622 366.808 444.367 365.127L440.393 359.803C435.754 362.002 430.814 363.256 425.682 363.534L424.726 370.11C424.159 374.016 420.794 376.836 416.959 376.837ZM397.233 350.916L397.844 351.487C401.8 355.189 406.416 357.936 411.562 359.654L412.355 359.919L411.161 368.141C410.697 371.334 412.919 374.311 416.112 374.776C419.306 375.239 422.283 373.019 422.747 369.825L423.941 361.601L424.777 361.574C430.199 361.392 435.406 360.071 440.252 357.648L441 357.274L445.97 363.933C446.905 365.186 448.272 365.999 449.82 366.224C451.369 366.452 452.909 366.058 454.163 365.122C456.749 363.191 457.283 359.517 455.352 356.931L450.383 350.272L450.954 349.661C454.655 345.706 457.403 341.091 459.121 335.943L459.386 335.15L467.608 336.344C470.806 336.805 473.777 334.586 474.243 331.393C474.706 328.2 472.485 325.223 469.292 324.758L461.068 323.564L461.041 322.728C460.859 317.305 459.538 312.099 457.115 307.254L456.741 306.506L463.399 301.535C465.986 299.605 466.52 295.931 464.589 293.344C463.654 292.091 462.287 291.278 460.739 291.053C459.192 290.826 457.65 291.22 456.396 292.155H456.397L449.738 297.125L449.127 296.554C445.171 292.851 440.555 290.104 435.409 288.387L434.616 288.122L435.81 279.899C436.035 278.352 435.643 276.81 434.708 275.557C433.772 274.304 432.405 273.49 430.858 273.265C427.655 272.799 424.688 275.023 424.223 278.216L423.029 286.439L422.193 286.466C416.772 286.648 411.566 287.969 406.719 290.392L405.971 290.766L401 284.108C400.065 282.854 398.698 282.041 397.151 281.816C395.605 281.593 394.062 281.983 392.809 282.919C391.555 283.854 390.742 285.221 390.517 286.768C390.292 288.316 390.683 289.858 391.619 291.111L396.589 297.769L396.018 298.38C392.315 302.336 389.568 306.952 387.851 312.098L387.586 312.891L379.363 311.697C377.818 311.475 376.274 311.865 375.021 312.8C373.768 313.735 372.954 315.102 372.729 316.649C372.265 319.843 374.487 322.82 377.68 323.284L385.903 324.478L385.93 325.314C386.112 330.735 387.433 335.941 389.857 340.789L390.231 341.537L383.571 346.507C382.319 347.442 381.505 348.809 381.28 350.357C381.055 351.904 381.447 353.446 382.383 354.7C383.318 355.952 384.685 356.766 386.232 356.991C387.778 357.215 389.321 356.824 390.575 355.888L397.233 350.916ZM423.521 352.929C414.697 352.929 405.979 348.916 400.307 341.319C390.77 328.538 393.408 310.381 406.188 300.842C412.379 296.223 420.002 294.287 427.642 295.4C435.288 296.51 442.042 300.532 446.663 306.723C451.283 312.914 453.216 320.533 452.105 328.177C450.995 335.823 446.974 342.577 440.783 347.198C435.602 351.064 429.537 352.929 423.521 352.929ZM423.429 297.094C417.668 297.094 412.084 298.938 407.384 302.446C395.488 311.324 393.033 328.226 401.911 340.123C410.79 352.019 427.69 354.471 439.588 345.595C445.35 341.294 449.093 335.007 450.126 327.891C451.16 320.775 449.36 313.682 445.06 307.919C440.759 302.156 434.472 298.413 427.356 297.38C426.043 297.189 424.731 297.094 423.429 297.094Z" fill="white"/>
</g>
<g opacity="0.81">
<path d="M287.661 380.863H267.119C266.566 380.863 266.119 380.416 266.119 379.863C266.119 379.31 266.566 378.863 267.119 378.863H287.661C288.214 378.863 288.661 379.31 288.661 379.863C288.661 380.416 288.214 380.863 287.661 380.863Z" fill="white"/>
<path d="M287.661 402.217H267.119C266.566 402.217 266.119 401.77 266.119 401.217C266.119 400.664 266.566 400.217 267.119 400.217H287.661C288.214 400.217 288.661 400.664 288.661 401.217C288.661 401.77 288.214 402.217 287.661 402.217Z" fill="white"/>
<path d="M303.168 423.781H176.298C174.803 423.781 173.587 422.565 173.587 421.07V355.221C173.587 353.726 174.803 352.509 176.298 352.509H303.168C304.663 352.509 305.88 353.726 305.88 355.221V421.07C305.88 422.565 304.663 423.781 303.168 423.781ZM176.298 354.51C175.906 354.51 175.587 354.829 175.587 355.222V421.071C175.587 421.463 175.906 421.782 176.298 421.782H303.168C303.56 421.782 303.88 421.463 303.88 421.071V355.222C303.88 354.829 303.561 354.51 303.168 354.51H176.298Z" fill="white"/>
<path opacity="0.66" d="M303.168 423.781H176.298C174.803 423.781 173.587 422.565 173.587 421.07V355.221C173.587 353.726 174.803 352.509 176.298 352.509H303.168C304.663 352.509 305.88 353.726 305.88 355.221V421.07C305.88 422.565 304.663 423.781 303.168 423.781ZM176.298 354.51C175.906 354.51 175.587 354.829 175.587 355.222V421.071C175.587 421.463 175.906 421.782 176.298 421.782H303.168C303.56 421.782 303.88 421.463 303.88 421.071V355.222C303.88 354.829 303.561 354.51 303.168 354.51H176.298Z" fill="white"/>
<path d="M287.661 370.501H189.772C189.22 370.501 188.772 370.054 188.772 369.501C188.772 368.948 189.22 368.501 189.772 368.501H287.661C288.214 368.501 288.661 368.948 288.661 369.501C288.661 370.054 288.214 370.501 287.661 370.501Z" fill="white"/>
<path d="M287.661 391.227H189.772C189.22 391.227 188.772 390.78 188.772 390.227C188.772 389.674 189.22 389.227 189.772 389.227H287.661C288.214 389.227 288.661 389.674 288.661 390.227C288.661 390.779 288.214 391.227 287.661 391.227Z" fill="white"/>
<path d="M242.548 380.863H189.772C189.22 380.863 188.772 380.416 188.772 379.863C188.772 379.31 189.22 378.863 189.772 378.863H242.548C243.1 378.863 243.548 379.31 243.548 379.863C243.548 380.416 243.1 380.863 242.548 380.863Z" fill="white"/>
<path d="M242.548 402.217H189.772C189.22 402.217 188.772 401.77 188.772 401.217C188.772 400.664 189.22 400.217 189.772 400.217H242.548C243.1 400.217 243.548 400.664 243.548 401.217C243.548 401.77 243.1 402.217 242.548 402.217Z" fill="white"/>
<path d="M225.364 412.109H189.772C189.22 412.109 188.772 411.662 188.772 411.109C188.772 410.556 189.22 410.109 189.772 410.109H225.364C225.916 410.109 226.364 410.556 226.364 411.109C226.364 411.662 225.916 412.109 225.364 412.109Z" fill="white"/>
</g>
<g opacity="0.81">
<path d="M91.118 316.838H68.03C67.478 316.838 67.03 316.391 67.03 315.838C67.03 315.285 67.478 314.838 68.03 314.838H91.118C91.67 314.838 92.118 315.285 92.118 315.838C92.118 316.391 91.67 316.838 91.118 316.838Z" fill="white"/>
<path d="M91.118 292.838H68.03C67.478 292.838 67.03 292.391 67.03 291.838C67.03 291.285 67.478 290.838 68.03 290.838H91.118C91.67 290.838 92.118 291.285 92.118 291.838C92.118 292.391 91.67 292.838 91.118 292.838Z" fill="white"/>
<path d="M193.407 346.458H50.389C48.894 346.458 47.678 345.241 47.678 343.746V269.312C47.678 267.817 48.894 266.6 50.389 266.6H193.407C194.902 266.6 196.119 267.817 196.119 269.312V343.746C196.118 345.241 194.902 346.458 193.407 346.458ZM50.389 268.601C49.997 268.601 49.678 268.92 49.678 269.313V343.747C49.678 344.14 49.997 344.459 50.389 344.459H193.407C193.799 344.459 194.119 344.14 194.119 343.747V269.313C194.119 268.92 193.8 268.601 193.407 268.601H50.389Z" fill="white"/>
<path opacity="0.66" d="M193.407 346.458H50.389C48.894 346.458 47.678 345.241 47.678 343.746V269.312C47.678 267.817 48.894 266.6 50.389 266.6H193.407C194.902 266.6 196.119 267.817 196.119 269.312V343.746C196.118 345.241 194.902 346.458 193.407 346.458ZM50.389 268.601C49.997 268.601 49.678 268.92 49.678 269.313V343.747C49.678 344.14 49.997 344.459 50.389 344.459H193.407C193.799 344.459 194.119 344.14 194.119 343.747V269.313C194.119 268.92 193.8 268.601 193.407 268.601H50.389Z" fill="white"/>
<path d="M178.051 328.484H68.03C67.478 328.484 67.03 328.037 67.03 327.484C67.03 326.931 67.478 326.484 68.03 326.484H178.051C178.603 326.484 179.051 326.931 179.051 327.484C179.051 328.037 178.603 328.484 178.051 328.484Z" fill="white"/>
<path d="M178.051 305.19H68.03C67.478 305.19 67.03 304.743 67.03 304.19C67.03 303.637 67.478 303.19 68.03 303.19H178.051C178.603 303.19 179.051 303.637 179.051 304.19C179.051 304.743 178.603 305.19 178.051 305.19Z" fill="white"/>
<path d="M178.051 316.838H118.735C118.183 316.838 117.735 316.391 117.735 315.838C117.735 315.285 118.183 314.838 118.735 314.838H178.051C178.603 314.838 179.051 315.285 179.051 315.838C179.051 316.391 178.603 316.838 178.051 316.838Z" fill="white"/>
<path d="M178.051 292.838H118.735C118.183 292.838 117.735 292.391 117.735 291.838C117.735 291.285 118.183 290.838 118.735 290.838H178.051C178.603 290.838 179.051 291.285 179.051 291.838C179.051 292.391 178.603 292.838 178.051 292.838Z" fill="white"/>
<path d="M178.051 281.72H138.048C137.496 281.72 137.048 281.273 137.048 280.72C137.048 280.167 137.496 279.72 138.048 279.72H178.051C178.603 279.72 179.051 280.167 179.051 280.72C179.051 281.272 178.603 281.72 178.051 281.72Z" fill="white"/>
</g>
<path opacity="0.14" d="M359.986 386.867L250.567 321.994C249.687 321.473 249.397 320.337 249.919 319.457L338.248 170.474C338.77 169.594 339.905 169.304 340.785 169.826L450.204 234.699C451.084 235.22 451.374 236.356 450.852 237.236L362.523 386.219C362.001 387.098 360.865 387.388 359.986 386.867Z" fill="#3E479B"/>
<path d="M357.144 380.897L247.725 316.024C246.846 315.503 246.555 314.367 247.077 313.487L335.407 164.504C335.928 163.624 337.064 163.334 337.944 163.856L447.363 228.729C448.242 229.25 448.533 230.386 448.011 231.266L359.68 380.249C359.159 381.128 358.023 381.419 357.144 380.897Z" fill="#F7A9B4"/>
<path opacity="0.14" d="M388.574 379.072L263.477 356.013C262.472 355.828 261.807 354.862 261.992 353.857L293.389 183.527C293.574 182.522 294.54 181.857 295.545 182.042L420.642 205.101C421.647 205.286 422.312 206.252 422.127 207.257L390.73 377.587C390.545 378.592 389.58 379.257 388.574 379.072Z" fill="#3E479B"/>
<path d="M291.054 176.933L258.981 350.899L387.715 374.632L419.787 200.667L291.054 176.933Z" fill="white"/>
<path opacity="0.39" d="M385.9 374.281L260.803 351.222C259.798 351.037 259.133 350.071 259.318 349.066L290.715 178.736C290.9 177.73 291.866 177.066 292.871 177.251L417.968 200.31C418.973 200.495 419.638 201.461 419.453 202.466L388.056 372.796C387.871 373.802 386.906 374.466 385.9 374.281Z" fill="#F7A9B4"/>
<path d="M400.307 221.139C400.248 221.139 400.186 221.134 400.124 221.122L368.81 215.35C368.267 215.25 367.908 214.728 368.008 214.185C368.109 213.642 368.623 213.284 369.173 213.383L400.487 219.155C401.03 219.255 401.389 219.777 401.289 220.32C401.2 220.802 400.78 221.139 400.307 221.139Z" fill="white"/>
<path d="M398.463 231.143C398.403 231.143 398.342 231.138 398.28 231.126L366.966 225.354C366.423 225.254 366.064 224.732 366.164 224.189C366.264 223.647 366.78 223.287 367.329 223.387L398.643 229.16C399.186 229.26 399.545 229.782 399.445 230.325C399.356 230.806 398.936 231.143 398.463 231.143Z" fill="white"/>
<path d="M396.459 242.016C396.399 242.016 396.338 242.011 396.276 241.999L364.961 236.227C364.418 236.127 364.059 235.605 364.159 235.063C364.259 234.52 364.773 234.162 365.324 234.261L396.638 240.033C397.181 240.133 397.54 240.655 397.44 241.198C397.352 241.679 396.932 242.016 396.459 242.016Z" fill="white"/>
<path opacity="0.14" d="M348.01 251.261L294.358 241.371C293.269 241.17 292.55 240.125 292.75 239.037L303.386 181.337C303.587 180.248 304.632 179.529 305.72 179.729L359.372 189.619C360.461 189.82 361.18 190.865 360.98 191.953L350.344 249.653C350.144 250.742 349.099 251.462 348.01 251.261Z" fill="#3E479B"/>
<path d="M346.039 247.911L294.89 238.483C293.801 238.282 293.081 237.237 293.282 236.149L303.352 181.521C303.553 180.432 304.598 179.712 305.686 179.913L356.835 189.341C357.924 189.542 358.643 190.587 358.443 191.675L348.373 246.303C348.173 247.392 347.128 248.112 346.039 247.911Z" fill="#599AF2"/>
<path opacity="0.07" d="M357.493 196.831L302.402 186.676L303.363 181.463C303.558 180.406 304.572 179.708 305.629 179.902L356.962 189.364C357.98 189.552 358.654 190.53 358.466 191.548L357.493 196.831Z" fill="#ECF1F7"/>
<path d="M317.815 213.845C317.427 213.845 317.034 213.81 316.639 213.737L315.876 213.596C311.826 212.849 309.138 208.946 309.884 204.895L311.808 194.456C311.958 193.641 312.747 193.101 313.555 193.253C314.37 193.403 314.908 194.185 314.759 195L312.835 205.439C312.388 207.863 313.996 210.199 316.42 210.646L317.183 210.787C319.068 211.137 320.882 209.884 321.229 207.999L326.1 181.577C326.458 179.633 325.168 177.759 323.224 177.4L321.919 177.16C319.847 176.779 317.865 178.15 317.483 180.214L317.364 180.865C317.213 181.681 316.422 182.219 315.617 182.069C314.802 181.919 314.263 181.137 314.413 180.322L314.533 179.67C315.216 175.978 318.773 173.528 322.462 174.21L323.767 174.45C327.338 175.108 329.708 178.549 329.051 182.12L324.18 208.542C323.605 211.659 320.876 213.845 317.815 213.845Z" fill="#3E479B"/>
<path d="M323.022 191.658C322.992 191.658 322.961 191.656 322.93 191.65L302.941 187.965C302.67 187.915 302.49 187.655 302.54 187.383C302.591 187.111 302.848 186.928 303.123 186.982L323.112 190.667C323.384 190.717 323.563 190.978 323.513 191.25C323.469 191.49 323.259 191.658 323.022 191.658Z" fill="white"/>
<path d="M384.145 294.995C384.085 294.995 384.024 294.99 383.962 294.978L288.278 277.34C287.735 277.24 287.376 276.719 287.476 276.175C287.576 275.633 288.09 275.271 288.641 275.373L384.325 293.011C384.868 293.111 385.227 293.632 385.127 294.176C385.038 294.658 384.618 294.995 384.145 294.995Z" fill="white"/>
<path d="M377.304 332.108C377.244 332.108 377.183 332.103 377.121 332.091L281.436 314.454C280.893 314.354 280.534 313.833 280.634 313.289C280.734 312.747 281.249 312.383 281.799 312.487L377.484 330.124C378.027 330.224 378.386 330.745 378.286 331.289C378.197 331.772 377.776 332.108 377.304 332.108Z" fill="white"/>
<path d="M330.272 304.252C330.212 304.252 330.151 304.247 330.089 304.235L284.857 295.897C284.314 295.797 283.955 295.276 284.055 294.732C284.156 294.19 284.67 293.825 285.22 293.93L330.452 302.268C330.995 302.368 331.354 302.889 331.254 303.433C331.166 303.915 330.745 304.252 330.272 304.252Z" fill="white"/>
<path d="M336.505 270.44C336.445 270.44 336.384 270.435 336.322 270.423L291.089 262.086C290.546 261.986 290.187 261.464 290.287 260.922C290.388 260.379 290.903 260.022 291.452 260.12L336.684 268.457C337.227 268.557 337.586 269.078 337.486 269.622C337.398 270.104 336.978 270.44 336.505 270.44Z" fill="white"/>
<path d="M380.751 313.407C380.691 313.407 380.63 313.402 380.568 313.39L337.471 305.446C336.928 305.346 336.569 304.825 336.669 304.281C336.769 303.739 337.283 303.377 337.834 303.479L380.931 311.423C381.474 311.523 381.833 312.044 381.733 312.588C381.645 313.07 381.225 313.407 380.751 313.407Z" fill="white"/>
<path d="M370.619 116.853H317.439C315.598 116.853 314.106 115.361 314.106 113.52V95.7329C314.106 93.8919 315.598 92.3999 317.439 92.3999H370.619C372.46 92.3999 373.952 93.8919 373.952 95.7329V113.52C373.952 115.361 372.46 116.853 370.619 116.853Z" fill="#599AF2"/>
<path d="M410.681 143.508H336.292C334.451 143.508 332.959 142.016 332.959 140.175V113.723C332.959 111.882 334.451 110.39 336.292 110.39H410.681C412.522 110.39 414.014 111.882 414.014 113.723V140.175C414.014 142.015 412.522 143.508 410.681 143.508Z" fill="#F7A9B4"/>
<path d="M352.768 136.506H435.143C437.632 136.506 439.668 138.542 439.668 141.031V166.266C439.668 168.755 437.632 170.791 435.143 170.791H352.768C350.279 170.791 348.243 168.755 348.243 166.266V141.031C348.243 138.542 350.28 136.506 352.768 136.506Z" fill="white"/>
<path opacity="0.74" d="M352.768 136.506H435.143C437.632 136.506 439.668 138.542 439.668 141.031V166.266C439.668 168.755 437.632 170.791 435.143 170.791H352.768C350.279 170.791 348.243 168.755 348.243 166.266V141.031C348.243 138.542 350.28 136.506 352.768 136.506Z" fill="#6D6CD4"/>
<path d="M410.646 157.664C408.456 157.664 406.674 155.882 406.674 153.692C406.674 151.502 408.455 149.72 410.646 149.72C412.837 149.72 414.618 151.502 414.618 153.692C414.618 155.882 412.837 157.664 410.646 157.664ZM410.646 150.72C409.007 150.72 407.674 152.053 407.674 153.692C407.674 155.331 409.007 156.664 410.646 156.664C412.285 156.664 413.618 155.331 413.618 153.692C413.618 152.053 412.285 150.72 410.646 150.72Z" fill="white"/>
<path d="M394.261 157.664C392.071 157.664 390.289 155.882 390.289 153.692C390.289 151.502 392.07 149.72 394.261 149.72C396.452 149.72 398.233 151.502 398.233 153.692C398.232 155.882 396.451 157.664 394.261 157.664ZM394.261 150.72C392.622 150.72 391.289 152.053 391.289 153.692C391.289 155.331 392.622 156.664 394.261 156.664C395.9 156.664 397.233 155.331 397.233 153.692C397.232 152.053 395.899 150.72 394.261 150.72Z" fill="white"/>
<path d="M378.985 157.664C376.795 157.664 375.013 155.882 375.013 153.692C375.013 151.502 376.794 149.72 378.985 149.72C381.175 149.72 382.957 151.502 382.957 153.692C382.957 155.882 381.176 157.664 378.985 157.664ZM378.985 150.72C377.346 150.72 376.013 152.053 376.013 153.692C376.013 155.331 377.346 156.664 378.985 156.664C380.624 156.664 381.957 155.331 381.957 153.692C381.957 152.053 380.624 150.72 378.985 150.72Z" fill="white"/>
<path d="M152.377 94.7959H280.019C282.59 94.7959 284.674 96.8799 284.674 99.4509V287.455C284.674 296.324 277.484 303.514 268.615 303.514H179.988C161.089 303.514 145.769 288.193 145.769 269.294V101.404C145.769 97.7539 148.727 94.7959 152.377 94.7959Z" fill="white"/>
<path opacity="0.39" d="M147.393 94.7959H282.178C283.556 94.7959 284.673 95.9129 284.673 97.2909V288.202C284.673 296.658 277.818 303.513 269.362 303.513H176.946C159.727 303.513 145.768 289.554 145.768 272.335V96.4199C145.769 95.5229 146.496 94.7959 147.393 94.7959Z" fill="#6D6CD4"/>
<path opacity="0.39" d="M159.21 94.7959H282.7C283.79 94.7959 284.673 95.6789 284.673 96.7689V288.724C284.673 296.892 278.052 303.513 269.884 303.513H188.762C171.832 303.513 158.107 289.788 158.107 272.857V95.8979C158.107 95.2889 158.601 94.7959 159.21 94.7959Z" fill="#3E479B"/>
<path d="M177.491 303.478V303.513H289.059C301.9 303.513 312.31 293.103 312.31 280.262V271.43H199.48V280.262C199.48 292.68 189.745 302.823 177.491 303.478Z" fill="#6161B5"/>
<g opacity="0.28">
<path d="M192.282 303.478V303.513H291.61C303.042 303.513 312.31 293.103 312.31 280.262V271.43H211.859V280.262C211.859 292.68 203.192 302.823 192.282 303.478Z" fill="#3E479B"/>
</g>
<path d="M263.591 247.373H183.372C182.82 247.373 182.372 246.925 182.372 246.373C182.372 245.821 182.82 245.373 183.372 245.373H263.591C264.144 245.373 264.591 245.821 264.591 246.373C264.591 246.925 264.144 247.373 263.591 247.373Z" fill="white"/>
<path d="M265.273 213.597H181.872C181.32 213.597 180.872 213.149 180.872 212.597C180.872 212.045 181.32 211.597 181.872 211.597H265.273C265.826 211.597 266.273 212.045 266.273 212.597C266.273 213.15 265.826 213.597 265.273 213.597Z" fill="white"/>
<path d="M223.481 230.471H180.865C180.313 230.471 179.865 230.023 179.865 229.471C179.865 228.919 180.313 228.471 180.865 228.471H223.481C224.033 228.471 224.481 228.919 224.481 229.471C224.481 230.023 224.033 230.471 223.481 230.471Z" fill="white"/>
<path d="M220.252 230.471H184.093C183.541 230.471 183.093 230.023 183.093 229.471C183.093 228.919 183.541 228.471 184.093 228.471H220.252C220.804 228.471 221.252 228.919 221.252 229.471C221.252 230.023 220.805 230.471 220.252 230.471Z" fill="white"/>
<path d="M237.353 177.484H182.452C181.9 177.484 181.452 177.036 181.452 176.484C181.452 175.932 181.9 175.484 182.452 175.484H237.353C237.905 175.484 238.353 175.932 238.353 176.484C238.353 177.036 237.905 177.484 237.353 177.484Z" fill="white"/>
<path d="M262.805 177.484H246.081C245.529 177.484 245.081 177.036 245.081 176.484C245.081 175.932 245.529 175.484 246.081 175.484H262.805C263.358 175.484 263.805 175.932 263.805 176.484C263.805 177.036 263.357 177.484 262.805 177.484Z" fill="white"/>
<path d="M265.273 194.357H205.823C205.271 194.357 204.823 193.909 204.823 193.357C204.823 192.805 205.271 192.357 205.823 192.357H265.273C265.826 192.357 266.273 192.805 266.273 193.357C266.273 193.909 265.826 194.357 265.273 194.357Z" fill="white"/>
<path d="M199.952 194.357H181.872C181.32 194.357 180.872 193.909 180.872 193.357C180.872 192.805 181.32 192.357 181.872 192.357H199.952C200.504 192.357 200.952 192.805 200.952 193.357C200.952 193.909 200.504 194.357 199.952 194.357Z" fill="white"/>
<path d="M263.591 163.196H183.372C182.82 163.196 182.372 162.748 182.372 162.196C182.372 161.644 182.82 161.196 183.372 161.196H263.591C264.144 161.196 264.591 161.644 264.591 162.196C264.591 162.748 264.144 163.196 263.591 163.196Z" fill="white"/>
<path d="M263.591 129.42H183.372C182.82 129.42 182.372 128.972 182.372 128.42C182.372 127.868 182.82 127.42 183.372 127.42H263.591C264.144 127.42 264.591 127.868 264.591 128.42C264.591 128.972 264.144 129.42 263.591 129.42Z" fill="white"/>
<path d="M212.813 146.294H182.452C181.9 146.294 181.452 145.846 181.452 145.294C181.452 144.742 181.9 144.294 182.452 144.294H212.813C213.365 144.294 213.813 144.742 213.813 145.294C213.813 145.846 213.366 146.294 212.813 146.294Z" fill="white"/>
<path d="M262.98 146.294H226.821C226.269 146.294 225.821 145.846 225.821 145.294C225.821 144.742 226.269 144.294 226.821 144.294H262.98C263.533 144.294 263.98 144.742 263.98 145.294C263.98 145.846 263.533 146.294 262.98 146.294Z" fill="white"/>
<path opacity="0.21" d="M370.847 263.149C395.564 238.432 395.564 198.358 370.847 173.641C346.13 148.925 306.056 148.925 281.339 173.641C256.623 198.358 256.623 238.432 281.339 263.149C306.056 287.866 346.13 287.866 370.847 263.149Z" fill="white"/>
<path opacity="0.76" d="M276.499 222.943C274.29 222.943 272.499 221.152 272.499 218.943C272.499 187.014 298.475 161.039 330.403 161.039C332.612 161.039 334.403 162.83 334.403 165.039C334.403 167.248 332.612 169.039 330.403 169.039C302.885 169.039 280.499 191.426 280.499 218.943C280.499 221.152 278.708 222.943 276.499 222.943Z" fill="white"/>
<path opacity="0.58" d="M326.097 283.687C290.095 283.687 260.805 254.397 260.805 218.395C260.805 182.393 290.095 153.103 326.097 153.103C362.099 153.103 391.389 182.393 391.389 218.395C391.389 254.397 362.099 283.687 326.097 283.687ZM326.097 157.103C292.3 157.103 264.805 184.599 264.805 218.395C264.805 252.191 292.3 279.687 326.097 279.687C359.894 279.687 387.389 252.191 387.389 218.395C387.389 184.599 359.894 157.103 326.097 157.103Z" fill="#3E479B"/>
<path d="M384.271 263.743C384.364 263.65 384.469 263.575 384.571 263.498C394.21 251.021 399.955 235.382 399.955 218.395C399.955 177.604 366.887 144.537 326.097 144.537C285.307 144.537 252.239 177.604 252.239 218.395C252.239 259.186 285.306 292.253 326.097 292.253C343.013 292.253 358.584 286.545 371.036 276.978L379.58 268.434L384.271 263.743ZM326.097 281.687C291.142 281.687 262.805 253.35 262.805 218.395C262.805 183.44 291.142 155.103 326.097 155.103C361.052 155.103 389.389 183.44 389.389 218.395C389.389 253.35 361.052 281.687 326.097 281.687Z" fill="#3E479B"/>
<path d="M326.097 293.253C284.82 293.253 251.239 259.672 251.239 218.395C251.239 177.118 284.82 143.537 326.097 143.537C367.374 143.537 400.955 177.119 400.955 218.395C400.955 235.097 395.563 250.905 385.362 264.109L385.174 264.295C385.075 264.369 385.024 264.403 384.98 264.448L371.645 277.77C358.463 287.9 342.712 293.253 326.097 293.253ZM326.097 145.536C285.923 145.536 253.239 178.22 253.239 218.394C253.239 258.568 285.924 291.252 326.097 291.252C342.246 291.252 357.556 286.056 370.375 276.224L383.564 263.035C383.658 262.941 383.758 262.859 383.861 262.78C393.736 249.95 398.955 234.605 398.955 218.394C398.955 178.22 366.27 145.536 326.097 145.536ZM326.097 282.687C290.646 282.687 261.805 253.846 261.805 218.395C261.805 182.944 290.646 154.103 326.097 154.103C361.548 154.103 390.389 182.944 390.389 218.395C390.389 253.846 361.548 282.687 326.097 282.687ZM326.097 156.103C291.749 156.103 263.805 184.047 263.805 218.395C263.805 252.743 291.749 280.687 326.097 280.687C360.445 280.687 388.389 252.743 388.389 218.395C388.389 184.046 360.444 156.103 326.097 156.103Z" fill="#3E479B"/>
<path d="M382.445 275.291L379.58 272.426C378.477 271.323 378.477 269.536 379.58 268.433L371.036 276.977L370.897 277.116C369.794 278.219 369.794 280.006 370.897 281.109L374.374 284.586C375.52 282.665 378.874 278.902 382.445 275.291Z" fill="#4C65BA"/>
<path d="M379.58 268.434C378.477 269.537 378.477 271.325 379.58 272.427L382.445 275.292C385.901 271.797 389.547 268.459 391.593 267.073L388.264 263.744C387.255 262.735 385.678 262.661 384.571 263.499C384.469 263.576 384.364 263.651 384.271 263.744L379.58 268.434Z" fill="#4C65BA"/>
<path opacity="0.43" d="M379.58 268.434C378.477 269.537 378.477 271.325 379.58 272.427L382.445 275.292C385.901 271.797 389.547 268.459 391.593 267.073L388.264 263.744C387.255 262.735 385.678 262.661 384.571 263.499C384.469 263.576 384.364 263.651 384.271 263.744L379.58 268.434Z" fill="#3E479B"/>
<path d="M445.179 319.033L393.168 266.455C392.981 266.266 392.411 266.517 391.593 267.072C389.547 268.459 385.901 271.797 382.445 275.291C378.874 278.902 375.521 282.665 374.373 284.587C374 285.212 373.856 285.646 374.019 285.812L426.03 338.39C431.318 343.735 439.891 343.735 445.178 338.39C450.467 333.044 450.467 324.378 445.179 319.033Z" fill="#599AF2"/>
<path opacity="0.14" d="M445.179 319.033L393.168 266.455C392.468 265.747 386.541 271.057 381.452 276.304C377.122 280.768 439.892 343.735 445.179 338.39C450.467 333.044 450.467 324.378 445.179 319.033Z" fill="#3E479B"/>
<path d="M253.118 253.753H82.1519C72.1639 253.753 64.0669 245.656 64.0669 235.668C64.0669 225.68 72.1639 217.583 82.1519 217.583H253.118C263.106 217.583 271.203 225.68 271.203 235.668C271.204 245.656 263.107 253.753 253.118 253.753Z" fill="white"/>
<path d="M253.118 253.753H225.311L225.177 217.582H253.119C263.107 217.582 271.204 225.679 271.204 235.667C271.204 245.656 263.107 253.753 253.118 253.753Z" fill="#599AF2"/>
<path d="M246.081 242.006C241.719 242.006 238.17 238.457 238.17 234.095C238.17 229.733 241.719 226.184 246.081 226.184C250.443 226.184 253.992 229.733 253.992 234.095C253.992 236.208 253.169 238.195 251.675 239.689C250.181 241.183 248.194 242.006 246.081 242.006ZM246.081 228.185C242.822 228.185 240.17 230.836 240.17 234.096C240.17 237.355 242.821 240.007 246.081 240.007C247.66 240.007 249.144 239.392 250.261 238.276C251.377 237.16 251.992 235.675 251.992 234.096C251.992 230.836 249.34 228.185 246.081 228.185Z" fill="white"/>
<path d="M257.21 246.292C256.954 246.292 256.698 246.194 256.503 245.999L250.227 239.723C249.836 239.332 249.836 238.7 250.227 238.309C250.618 237.918 251.251 237.919 251.641 238.309L257.916 244.585C258.307 244.976 258.307 245.608 257.916 245.999C257.722 246.194 257.466 246.292 257.21 246.292Z" fill="white"/>
<path d="M255.557 291.122H170.458C164.502 291.122 159.674 286.294 159.674 280.338V273.266C159.674 267.289 154.828 262.443 148.851 262.443H109.544C103.567 262.443 98.7209 267.289 98.7209 273.266V301.203V333.32V385.599C98.7209 391.166 103.234 395.68 108.802 395.68H255.557C261.124 395.68 265.638 391.167 265.638 385.599V301.203C265.638 295.635 261.125 291.122 255.557 291.122Z" fill="#F28393"/>
<path d="M246.18 291.122H161.081C155.125 291.122 150.297 286.294 150.297 280.338V273.266C150.297 267.289 145.451 262.443 139.474 262.443H100.168C94.191 262.443 89.345 267.289 89.345 273.266V301.203V333.32V385.599C89.345 391.166 93.858 395.68 99.426 395.68H246.18C251.747 395.68 256.261 391.167 256.261 385.599V301.203C256.261 295.635 251.747 291.122 246.18 291.122Z" fill="#F28393"/>
<path opacity="0.12" d="M246.18 291.122H161.081C155.125 291.122 150.297 286.294 150.297 280.338V273.266C150.297 267.289 145.451 262.443 139.474 262.443H100.168C94.191 262.443 89.345 267.289 89.345 273.266V301.203V333.32V385.599C89.345 391.166 93.858 395.68 99.426 395.68H246.18C251.747 395.68 256.261 391.167 256.261 385.599V301.203C256.261 295.635 251.747 291.122 246.18 291.122Z" fill="white"/>
<path opacity="0.12" d="M224.595 291.122H151.208C146.072 291.122 141.908 286.294 141.908 280.338V273.266C141.908 267.289 137.729 262.443 132.575 262.443H98.678C93.523 262.443 89.345 267.289 89.345 273.266V301.203V333.32V385.599C89.345 391.166 93.237 395.68 98.038 395.68H224.596C229.397 395.68 233.289 391.167 233.289 385.599V301.203C233.289 295.635 229.396 291.122 224.595 291.122Z" fill="white"/>
<path d="M97.207 302.354C96.655 302.354 96.207 301.907 96.207 301.354V276.815C96.207 273.014 99.299 269.922 103.099 269.922H132.064C132.616 269.922 133.064 270.369 133.064 270.922C133.064 271.475 132.616 271.922 132.064 271.922H103.1C100.403 271.922 98.208 274.116 98.208 276.815V301.354C98.207 301.906 97.76 302.354 97.207 302.354Z" fill="white"/>
</svg>
