<?xml version="1.0" encoding="utf-8"?>
<!-- Generator: Adobe Illustrator 27.5.0, SVG Export Plug-In . SVG Version: 6.00 Build 0)  -->
<svg version="1.1" id="Layer_1" xmlns="http://www.w3.org/2000/svg" xmlns:xlink="http://www.w3.org/1999/xlink" x="0px" y="0px"
	 viewBox="0 0 7000 4081" style="enable-background:new 0 0 7000 4081;" xml:space="preserve">
<g>
	<g>
		<defs>
			<rect id="SVGID_1_" width="7000" height="4081"/>
		</defs>
		<clipPath id="SVGID_00000005957129254087261870000011831102547333360565_">
			<use xlink:href="#SVGID_1_"  style="overflow:visible;"/>
		</clipPath>
		
			<linearGradient id="SVGID_00000021116821351824439060000009077273758543412880_" gradientUnits="userSpaceOnUse" x1="1092.7635" y1="3846.2515" x2="7678.2002" y2="-1093.7128">
			<stop  offset="0" style="stop-color:#1E13B0"/>
			<stop  offset="0.5" style="stop-color:#AB15A8"/>
			<stop  offset="1" style="stop-color:#FEDC55"/>
		</linearGradient>
		
			<rect style="clip-path:url(#SVGID_00000005957129254087261870000011831102547333360565_);fill:url(#SVGID_00000021116821351824439060000009077273758543412880_);" width="7000" height="4081"/>
	</g>
	<g>
		<defs>
			<path id="SVGID_00000023253348694668436390000017981387597537536384_" d="M1287.426,1776.786v1599.155l1695.119-1695.035
				c219.898-219.885,219.898-579.693,0-799.578c-219.894-219.885-579.721-219.885-799.617-0.002L1287.426,1776.786z"/>
		</defs>
		<clipPath id="SVGID_00000014602173774175943530000005628456755846248106_">
			<use xlink:href="#SVGID_00000023253348694668436390000017981387597537536384_"  style="overflow:visible;"/>
		</clipPath>
		
			<linearGradient id="SVGID_00000114036790445634051510000015032931633689408667_" gradientUnits="userSpaceOnUse" x1="1307.2091" y1="3389.4744" x2="4382.1758" y2="-1105.5573">
			<stop  offset="0" style="stop-color:#1608D4"/>
			<stop  offset="0.5" style="stop-color:#AB15A8"/>
			<stop  offset="1" style="stop-color:#FEDC55"/>
		</linearGradient>
		
			<rect x="1287.426" y="661.444" style="clip-path:url(#SVGID_00000014602173774175943530000005628456755846248106_);fill:url(#SVGID_00000114036790445634051510000015032931633689408667_);" width="1915.017" height="2714.497"/>
	</g>
	<g>
		<defs>
			<path id="SVGID_00000124133964879505357720000002226797160917273738_" d="M3437.781,4081l747.35-747.311
				c421.188-421.167,421.188-1110.348,0-1531.518h-0.002c-421.19-421.169-1110.409-421.169-1531.597-0.002l-873.113,873.069
				L588.337,3863.282L377.839,4081H3437.781z"/>
		</defs>
		<clipPath id="SVGID_00000072994908085229656540000006793548318599878798_">
			<use xlink:href="#SVGID_00000124133964879505357720000002226797160917273738_"  style="overflow:visible;"/>
		</clipPath>
		
			<linearGradient id="SVGID_00000111900114308542143250000009371632064351499446_" gradientUnits="userSpaceOnUse" x1="957.0349" y1="4785.1265" x2="5722.3716" y2="-1591.6298">
			<stop  offset="0" style="stop-color:#1E13B0"/>
			<stop  offset="0.5" style="stop-color:#AB15A8"/>
			<stop  offset="1" style="stop-color:#FEDC55"/>
		</linearGradient>
		
			<rect x="377.839" y="1381.002" style="clip-path:url(#SVGID_00000072994908085229656540000006793548318599878798_);fill:url(#SVGID_00000111900114308542143250000009371632064351499446_);" width="4228.48" height="2699.999"/>
	</g>
	<g>
		<defs>
			<path id="SVGID_00000044898787634779723670000016631789362440359334_" d="M0,3217.83V4081h1514.259l21.327-21.327
				c326.906-326.884,326.906-861.789,0-1188.676c-326.9-326.885-861.833-326.885-1188.732-0.002L0,3217.83z"/>
		</defs>
		<clipPath id="SVGID_00000000934377003749277390000017651479641027528339_">
			<use xlink:href="#SVGID_00000044898787634779723670000016631789362440359334_"  style="overflow:visible;"/>
		</clipPath>
		
			<linearGradient id="SVGID_00000153701484989239420880000006546339680519795102_" gradientUnits="userSpaceOnUse" x1="-619.0439" y1="5731.0151" x2="3144.3298" y2="-139.8637">
			<stop  offset="0" style="stop-color:#1E13B0"/>
			<stop  offset="0.5" style="stop-color:#AB15A8"/>
			<stop  offset="1" style="stop-color:#FEDC55"/>
		</linearGradient>
		
			<rect y="2544.113" style="clip-path:url(#SVGID_00000000934377003749277390000017651479641027528339_);fill:url(#SVGID_00000153701484989239420880000006546339680519795102_);" width="1862.492" height="1536.887"/>
	</g>
	<g>
		<defs>
			<path id="SVGID_00000103232648594071580410000007323876417456350879_" d="M0,1685.349V4081l1880.761-1880.668
				c329.419-329.4,329.419-868.421,0.002-1197.824h-0.002c-329.419-329.404-868.466-329.404-1197.883-0.002L0,1685.349z"/>
		</defs>
		<clipPath id="SVGID_00000134217264847420122200000006727311805386755460_">
			<use xlink:href="#SVGID_00000103232648594071580410000007323876417456350879_"  style="overflow:visible;"/>
		</clipPath>
		
			<linearGradient id="SVGID_00000161628843548560735010000009382935506953301398_" gradientUnits="userSpaceOnUse" x1="-1566.5463" y1="6402.563" x2="2508.5151" y2="262.4296">
			<stop  offset="0" style="stop-color:#1E13B0"/>
			<stop  offset="0.5" style="stop-color:#AB15A8"/>
			<stop  offset="1" style="stop-color:#FEDC55"/>
		</linearGradient>
		
			<rect y="673.105" style="clip-path:url(#SVGID_00000134217264847420122200000006727311805386755460_);fill:url(#SVGID_00000161628843548560735010000009382935506953301398_);" width="2210.18" height="3407.895"/>
	</g>
	<g>
		<defs>
			<path id="SVGID_00000018231163028907213410000004332852862555905164_" d="M5885.804,4081l737.267-737.231
				c219.896-219.881,219.896-579.693,0-799.577c-219.896-219.886-579.723-219.886-799.617,0L4286.568,4081H5885.804z"/>
		</defs>
		<clipPath id="SVGID_00000020369823528245201280000003798951668384562592_">
			<use xlink:href="#SVGID_00000018231163028907213410000004332852862555905164_"  style="overflow:visible;"/>
		</clipPath>
		
			<linearGradient id="SVGID_00000067200091288053212950000008066999485061125775_" gradientUnits="userSpaceOnUse" x1="2912.5488" y1="7111.1851" x2="7319.7832" y2="616.3145">
			<stop  offset="0" style="stop-color:#1E13B0"/>
			<stop  offset="0.5" style="stop-color:#AB15A8"/>
			<stop  offset="1" style="stop-color:#FEDC55"/>
		</linearGradient>
		
			<rect x="4286.568" y="2324.306" style="clip-path:url(#SVGID_00000020369823528245201280000003798951668384562592_);fill:url(#SVGID_00000067200091288053212950000008066999485061125775_);" width="2556.399" height="1756.694"/>
	</g>
	<g>
		<defs>
			<path id="SVGID_00000097495627503650396250000008515540595116722839_" d="M3893.138,4081l1639.528-1639.447
				c219.894-219.881,219.894-579.69-0.002-799.577c-219.896-219.886-579.723-219.886-799.615-0.002L2293.9,4081H3893.138z"/>
		</defs>
		<clipPath id="SVGID_00000063625102021400663780000007828160734737813942_">
			<use xlink:href="#SVGID_00000097495627503650396250000008515540595116722839_"  style="overflow:visible;"/>
		</clipPath>
		
			<linearGradient id="SVGID_00000179610375144364712140000015777251013771803032_" gradientUnits="userSpaceOnUse" x1="911.3256" y1="6926.207" x2="6811.8027" y2="-989.363">
			<stop  offset="0" style="stop-color:#4136D9"/>
			<stop  offset="0.5" style="stop-color:#AB15A8"/>
			<stop  offset="1" style="stop-color:#FEDC55"/>
		</linearGradient>
		
			<rect x="2293.9" y="1422.09" style="clip-path:url(#SVGID_00000063625102021400663780000007828160734737813942_);fill:url(#SVGID_00000179610375144364712140000015777251013771803032_);" width="3458.66" height="2658.91"/>
	</g>
	<defs>
		<filter id="Adobe_OpacityMaskFilter" filterUnits="userSpaceOnUse" x="3791.65" y="1617.414" width="1905.936" height="2463.586">
			<feColorMatrix  type="matrix" values="1 0 0 0 0  0 1 0 0 0  0 0 1 0 0  0 0 0 1 0"/>
		</filter>
	</defs>
	
		<mask maskUnits="userSpaceOnUse" x="3791.65" y="1617.414" width="1905.936" height="2463.586" id="SVGID_00000052818736437426352510000002587922240992186287_">
		<g style="filter:url(#Adobe_OpacityMaskFilter);">
			
				<linearGradient id="SVGID_00000063600806921640698710000006158421011514152864_" gradientUnits="userSpaceOnUse" x1="1441.6647" y1="1590.7919" x2="-3893.3748" y2="6447.4453" gradientTransform="matrix(1 0 0 1 7314.0913 -2393.0486)">
				<stop  offset="0" style="stop-color:#FFFFFF"/>
				<stop  offset="1" style="stop-color:#000000"/>
			</linearGradient>
			
				<rect x="3791.65" y="1617.415" style="fill:url(#SVGID_00000063600806921640698710000006158421011514152864_);" width="1905.937" height="2463.585"/>
		</g>
	</mask>
	
		<path style="mask:url(#SVGID_00000052818736437426352510000002587922240992186287_);fill-rule:evenodd;clip-rule:evenodd;fill:#FDE3A7;" d="
		M3791.65,4081l1690.272-1690.186c211.374-211.363,219.564-552.015,24.572-773.4c8.924,7.857,17.65,16.047,26.169,24.563
		c219.896,219.886,219.896,579.696,0.002,799.577L3893.138,4081H3791.65z"/>
	<defs>
		
			<filter id="Adobe_OpacityMaskFilter_00000163791722851650491550000008051877084020687488_" filterUnits="userSpaceOnUse" x="5798.816" y="2523.04" width="989.176" height="1557.96">
			<feColorMatrix  type="matrix" values="1 0 0 0 0  0 1 0 0 0  0 0 1 0 0  0 0 0 1 0"/>
		</filter>
	</defs>
	
		<mask maskUnits="userSpaceOnUse" x="5798.816" y="2523.04" width="989.176" height="1557.96" id="SVGID_00000037690273172510298050000007027154133297021371_">
		<g style="filter:url(#Adobe_OpacityMaskFilter_00000163791722851650491550000008051877084020687488_);">
			
				<linearGradient id="SVGID_00000078761960786880479490000002231734746153705620_" gradientUnits="userSpaceOnUse" x1="2075.0701" y1="4147.062" x2="-3419.5098" y2="6524.6338" gradientTransform="matrix(1 0 0 1 7795.7871 -2393.0486)">
				<stop  offset="0" style="stop-color:#FFFFFF"/>
				<stop  offset="1" style="stop-color:#000000"/>
			</linearGradient>
			
				<rect x="5798.816" y="2523.041" style="fill:url(#SVGID_00000078761960786880479490000002231734746153705620_);" width="989.177" height="1557.959"/>
		</g>
	</mask>
	
		<path style="mask:url(#SVGID_00000037690273172510298050000007027154133297021371_);fill-rule:evenodd;clip-rule:evenodd;fill:#FDE3A7;" d="
		M5798.816,4081l780.76-780.722c212.601-212.588,219.652-555.968,21.164-777.238c7.591,6.807,15.036,13.859,22.33,21.152
		c219.896,219.884,219.896,579.695,0,799.577L5885.804,4081H5798.816z"/>
	<defs>
		
			<filter id="Adobe_OpacityMaskFilter_00000075140383006564357710000004294622420484790673_" filterUnits="userSpaceOnUse" x="375.178" y="769.011" width="1757.962" height="2804.242">
			<feColorMatrix  type="matrix" values="1 0 0 0 0  0 1 0 0 0  0 0 1 0 0  0 0 0 1 0"/>
		</filter>
	</defs>
	
		<mask maskUnits="userSpaceOnUse" x="375.178" y="769.011" width="1757.962" height="2804.242" id="SVGID_00000177459253800204710440000013387230251285822876_">
		<g style="filter:url(#Adobe_OpacityMaskFilter_00000075140383006564357710000004294622420484790673_);">
			
				<linearGradient id="SVGID_00000137824673652315528680000007350965444863697591_" gradientUnits="userSpaceOnUse" x1="-2172.856" y1="3253.3643" x2="-5317.0718" y2="4722.0313" gradientTransform="matrix(1 0 0 1 6494.1792 -2514.9077)">
				<stop  offset="0" style="stop-color:#FFFFFF"/>
				<stop  offset="1" style="stop-color:#000000"/>
			</linearGradient>
			
				<rect x="375.178" y="769.011" style="fill:url(#SVGID_00000137824673652315528680000007350965444863697591_);" width="1757.964" height="2804.242"/>
		</g>
	</mask>
	
		<path style="mask:url(#SVGID_00000177459253800204710440000013387230251285822876_);fill-rule:evenodd;clip-rule:evenodd;fill:#FDE3A7;" d="
		M1775.753,2172.751c329.419-329.401,329.417-868.42-0.006-1197.824c-97.496-97.495-213.361-166.133-336.717-205.916
		c164.059,29.541,320.919,107.376,447.048,233.497c329.417,329.403,329.417,868.424-0.002,1197.824L702.908,3383.442
		c-119.094,36.568-231.561,99.839-327.731,189.812L1775.753,2172.751z"/>
	<path style="fill-rule:evenodd;clip-rule:evenodd;fill:#FDE3A7;" d="M6668.174,417.594h-51.156
		c-6.395,0-11.624-5.231-11.624-11.624v-51.153c0-6.393,5.229-11.624,11.624-11.624h51.156c6.393,0,11.624,5.231,11.624,11.624
		v51.153C6679.797,412.364,6674.566,417.594,6668.174,417.594"/>
	<path style="fill-rule:evenodd;clip-rule:evenodd;fill:#FDE3A7;" d="M6560.055,417.594h-51.156
		c-6.395,0-11.624-5.231-11.624-11.624v-51.153c0-6.393,5.229-11.624,11.624-11.624h51.156c6.393,0,11.624,5.231,11.624,11.624
		v51.153C6571.679,412.364,6566.448,417.594,6560.055,417.594"/>
	<path style="fill-rule:evenodd;clip-rule:evenodd;fill:#FDE3A7;" d="M6451.936,417.594h-51.156
		c-6.393,0-11.624-5.231-11.624-11.624v-51.153c0-6.393,5.231-11.624,11.624-11.624h51.156c6.393,0,11.624,5.231,11.624,11.624
		v51.153C6463.56,412.364,6458.329,417.594,6451.936,417.594"/>
	<path style="fill-rule:evenodd;clip-rule:evenodd;fill:#FDE3A7;" d="M6668.174,317.619h-51.156c-6.395,0-11.624-5.23-11.624-11.623
		v-51.155c0-6.392,5.229-11.622,11.624-11.622h51.156c6.393,0,11.624,5.23,11.624,11.622v51.155
		C6679.797,312.389,6674.566,317.619,6668.174,317.619"/>
	<path style="fill-rule:evenodd;clip-rule:evenodd;fill:#FDE3A7;" d="M6560.055,317.619h-51.156c-6.395,0-11.624-5.23-11.624-11.623
		v-51.155c0-6.392,5.229-11.622,11.624-11.622h51.156c6.393,0,11.624,5.23,11.624,11.622v51.155
		C6571.679,312.389,6566.448,317.619,6560.055,317.619"/>
	<path style="fill-rule:evenodd;clip-rule:evenodd;fill:#FDE3A7;" d="M6451.936,317.619h-51.156c-6.393,0-11.624-5.23-11.624-11.623
		v-51.155c0-6.392,5.231-11.622,11.624-11.622h51.156c6.393,0,11.624,5.23,11.624,11.622v51.155
		C6463.56,312.389,6458.329,317.619,6451.936,317.619"/>
	<path style="fill-rule:evenodd;clip-rule:evenodd;fill:#FDE3A7;" d="M500.815,2970.971h-51.156c-6.395,0-11.624-5.23-11.624-11.623
		v-51.154c0-6.393,5.229-11.623,11.624-11.623h51.156c6.393,0,11.624,5.23,11.624,11.623v51.154
		C512.438,2965.741,507.207,2970.971,500.815,2970.971"/>
	<path style="fill-rule:evenodd;clip-rule:evenodd;fill:#FDE3A7;" d="M392.696,2970.971h-51.156c-6.395,0-11.624-5.23-11.624-11.623
		v-51.154c0-6.393,5.229-11.623,11.624-11.623h51.156c6.393,0,11.624,5.23,11.624,11.623v51.154
		C404.319,2965.741,399.088,2970.971,392.696,2970.971"/>
	<path style="fill-rule:evenodd;clip-rule:evenodd;fill:#FDE3A7;" d="M284.576,2970.971H233.42c-6.393,0-11.624-5.23-11.624-11.623
		v-51.154c0-6.393,5.231-11.623,11.624-11.623h51.156c6.393,0,11.624,5.23,11.624,11.623v51.154
		C296.2,2965.741,290.969,2970.971,284.576,2970.971"/>
	<path style="fill-rule:evenodd;clip-rule:evenodd;fill:#FDE3A7;" d="M500.815,2870.996h-51.156c-6.395,0-11.624-5.23-11.624-11.623
		v-51.154c0-6.393,5.229-11.623,11.624-11.623h51.156c6.393,0,11.624,5.23,11.624,11.623v51.154
		C512.438,2865.766,507.207,2870.996,500.815,2870.996"/>
	<path style="fill-rule:evenodd;clip-rule:evenodd;fill:#FDE3A7;" d="M392.696,2870.996h-51.156c-6.395,0-11.624-5.23-11.624-11.623
		v-51.154c0-6.393,5.229-11.623,11.624-11.623h51.156c6.393,0,11.624,5.23,11.624,11.623v51.154
		C404.319,2865.766,399.088,2870.996,392.696,2870.996"/>
	<path style="fill-rule:evenodd;clip-rule:evenodd;fill:#FDE3A7;" d="M284.576,2870.996H233.42c-6.393,0-11.624-5.23-11.624-11.623
		v-51.154c0-6.393,5.231-11.623,11.624-11.623h51.156c6.393,0,11.624,5.23,11.624,11.623v51.154
		C296.2,2865.766,290.969,2870.996,284.576,2870.996"/>
</g>
</svg>
