<?xml version="1.0" encoding="utf-8"?>
<!-- Generator: Adobe Illustrator 27.5.0, SVG Export Plug-In . SVG Version: 6.00 Build 0)  -->
<svg version="1.1" xmlns="http://www.w3.org/2000/svg" xmlns:xlink="http://www.w3.org/1999/xlink" x="0px" y="0px"
	 viewBox="0 0 750 500" style="enable-background:new 0 0 750 500;" xml:space="preserve">
<g id="BACKGROUND">
	<radialGradient id="SVGID_1_" cx="363.4312" cy="222.698" r="604.8732" gradientUnits="userSpaceOnUse">
		<stop  offset="0" style="stop-color:#2C0256"/>
		<stop  offset="1" style="stop-color:#221630"/>
	</radialGradient>
	<rect style="fill:url(#SVGID_1_);" width="750" height="500"/>
</g>
<g id="OBJECTS">
	<g>
		<defs>
			<rect id="SVGID_00000012445248375308646180000009964220035394060967_" width="750" height="500"/>
		</defs>
		<clipPath id="SVGID_00000072281207403897474960000017866148688200455854_">
			<use xlink:href="#SVGID_00000012445248375308646180000009964220035394060967_"  style="overflow:visible;"/>
		</clipPath>
		
			<linearGradient id="SVGID_00000152232565205810668350000010599014633234555037_" gradientUnits="userSpaceOnUse" x1="162.1908" y1="123.8056" x2="-205.6042" y2="166.3694">
			<stop  offset="0" style="stop-color:#2C0256"/>
			<stop  offset="1" style="stop-color:#221630"/>
		</linearGradient>
		
			<circle style="clip-path:url(#SVGID_00000072281207403897474960000017866148688200455854_);fill:url(#SVGID_00000152232565205810668350000010599014633234555037_);" cx="42.301" cy="137.68" r="95.946"/>
		
			<linearGradient id="SVGID_00000134936645211876463420000002218172313829141155_" gradientUnits="userSpaceOnUse" x1="257.4419" y1="273.0912" x2="84.2614" y2="474.0103">
			<stop  offset="0" style="stop-color:#330661"/>
			<stop  offset="1" style="stop-color:#2B1D3B"/>
		</linearGradient>
		
			<circle style="clip-path:url(#SVGID_00000072281207403897474960000017866148688200455854_);fill:url(#SVGID_00000134936645211876463420000002218172313829141155_);" cx="190.043" cy="351.285" r="63.475"/>
		<g style="opacity:0.8;clip-path:url(#SVGID_00000072281207403897474960000017866148688200455854_);">
			<g>
				<path style="fill:#FFFFFF;" d="M33.816-20.506c27.191,0,52.754,10.589,71.981,29.815c19.227,19.227,29.815,44.79,29.815,71.981
					s-10.589,52.754-29.815,71.981c-19.227,19.227-44.79,29.815-71.981,29.815c-27.191,0-52.754-10.589-71.981-29.815
					c-19.227-19.227-29.815-44.79-29.815-71.981S-57.391,28.537-38.164,9.31C-18.938-9.917,6.626-20.506,33.816-20.506
					 M33.816-22.059c-57.078,0-103.349,46.271-103.349,103.349c0,57.078,46.271,103.349,103.349,103.349
					c57.078,0,103.349-46.271,103.349-103.349C137.165,24.212,90.894-22.059,33.816-22.059L33.816-22.059z"/>
			</g>
			<path style="fill:#FFFFFF;" d="M33.816-13.352c25.393,0,49.145,9.952,66.918,27.724c17.773,17.773,27.724,41.525,27.724,66.918
				s-9.952,49.145-27.724,66.918s-41.525,27.725-66.918,27.725c-25.393,0-49.145-9.952-66.918-27.725s-27.724-41.525-27.724-66.918
				s9.952-49.145,27.724-66.918C-15.329-3.4,8.423-13.352,33.816-13.352 M33.816-14.905c-53.127,0-96.195,43.068-96.195,96.195
				c0,53.127,43.068,96.195,96.195,96.195c53.127,0,96.196-43.068,96.196-96.195C130.012,28.163,86.944-14.905,33.816-14.905
				L33.816-14.905z"/>
			<path style="fill:#FFFFFF;" d="M33.816-6.198c23.596,0,45.537,9.315,61.855,25.634c16.318,16.318,25.634,38.259,25.634,61.855
				c0,23.596-9.315,45.537-25.634,61.855c-16.318,16.318-38.259,25.634-61.855,25.634c-23.596,0-45.537-9.315-61.855-25.634
				c-16.318-16.318-25.634-38.259-25.634-61.855c0-23.596,9.315-45.537,25.634-61.855C-11.721,3.117,10.22-6.198,33.816-6.198
				 M33.816-7.751c-49.176,0-89.042,39.865-89.042,89.042c0,49.177,39.865,89.042,89.042,89.042
				c49.177,0,89.042-39.865,89.042-89.042C122.858,32.114,82.993-7.751,33.816-7.751L33.816-7.751z"/>
			<path style="fill:#FFFFFF;" d="M33.816,0.955c21.799,0,41.928,8.679,56.793,23.543c14.864,14.864,23.543,34.994,23.543,56.792
				s-8.679,41.928-23.543,56.793c-14.864,14.864-34.994,23.543-56.793,23.543c-21.799,0-41.928-8.678-56.792-23.543
				s-23.543-34.994-23.543-56.793s8.679-41.928,23.543-56.792S12.017,0.955,33.816,0.955 M33.816-0.598
				c-45.226,0-81.888,36.663-81.888,81.888c0,45.226,36.663,81.888,81.888,81.888s81.888-36.663,81.888-81.888
				C115.705,36.065,79.042-0.598,33.816-0.598L33.816-0.598z"/>
			<path style="fill:#FFFFFF;" d="M33.816,8.109c20.001,0,38.32,8.042,51.73,21.452c13.41,13.41,21.452,31.729,21.452,51.73
				c0,20.001-8.042,38.32-21.452,51.73c-13.41,13.41-31.728,21.452-51.73,21.452c-20.001,0-38.32-8.042-51.73-21.452
				c-13.41-13.41-21.452-31.729-21.452-51.73c0-20.001,8.042-38.32,21.452-51.73S13.815,8.109,33.816,8.109 M33.816,6.556
				c-41.275,0-74.735,33.46-74.735,74.735s33.46,74.735,74.735,74.735s74.735-33.46,74.735-74.735S75.091,6.556,33.816,6.556
				L33.816,6.556z"/>
			<g>
				<path style="fill:#FFFFFF;" d="M33.816,15.262c36.408,0,66.028,29.62,66.028,66.028c0,36.408-29.62,66.028-66.028,66.028
					c-36.408,0-66.028-29.62-66.028-66.028C-32.212,44.882-2.592,15.262,33.816,15.262 M33.816,13.709
					c-37.324,0-67.581,30.257-67.581,67.581s30.257,67.581,67.581,67.581s67.581-30.257,67.581-67.581S71.14,13.709,33.816,13.709
					L33.816,13.709z"/>
			</g>
		</g>
		
			<linearGradient id="SVGID_00000005264135090779380000000017742666930346305723_" gradientUnits="userSpaceOnUse" x1="382.1014" y1="393.977" x2="790.9584" y2="879.9766">
			<stop  offset="0" style="stop-color:#2C0256"/>
			<stop  offset="1" style="stop-color:#221630"/>
		</linearGradient>
		
			<path style="clip-path:url(#SVGID_00000072281207403897474960000017866148688200455854_);fill:url(#SVGID_00000005264135090779380000000017742666930346305723_);" d="
			M685.386,338.301c-93.922-21.145-180.429,21.497-224.649,93.041c-12.933,20.925-39.825,28.125-61.495,16.486
			c-20.987-11.273-44.984-17.668-70.475-17.668c-81.624-0.002-148.59,66.469-149.165,148.091
			c-0.583,82.874,66.422,150.239,149.161,150.239c57.229,0,106.921-32.234,131.936-79.531
			c36.517,59.133,101.906,98.546,176.51,98.546c130.021,0,232.087-119.695,202.019-254.907
			C822.169,415.89,762.048,355.56,685.386,338.301z"/>
		
			<linearGradient id="SVGID_00000091710359921148969090000010464851513397568696_" gradientUnits="userSpaceOnUse" x1="295.8414" y1="428.1296" x2="771.5549" y2="1051.7006">
			<stop  offset="0" style="stop-color:#330661"/>
			<stop  offset="1" style="stop-color:#2B1D3B"/>
		</linearGradient>
		
			<path style="clip-path:url(#SVGID_00000072281207403897474960000017866148688200455854_);fill:url(#SVGID_00000091710359921148969090000010464851513397568696_);" d="
			M586.386,370.87c-93.922-21.145-180.429,21.497-224.649,93.041c-12.933,20.925-39.825,28.126-61.495,16.486
			c-20.987-11.273-44.984-17.668-70.475-17.668c-81.624-0.002-148.591,66.469-149.165,148.091
			c-0.583,82.874,66.422,150.238,149.161,150.238c57.229,0,106.921-32.234,131.936-79.531
			c36.517,59.133,101.906,98.546,176.51,98.546c130.022,0,232.087-119.695,202.019-254.907
			C723.169,448.458,663.048,388.128,586.386,370.87z"/>
		
			<linearGradient id="SVGID_00000053545515745910273020000016777522741032871560_" gradientUnits="userSpaceOnUse" x1="-83.361" y1="167.4733" x2="235.4794" y2="585.4131" gradientTransform="matrix(0 1 -1 0 247.8177 159.6964)">
			<stop  offset="0" style="stop-color:#330661"/>
			<stop  offset="1" style="stop-color:#2B1D3B"/>
		</linearGradient>
		
			<path style="clip-path:url(#SVGID_00000072281207403897474960000017866148688200455854_);fill:url(#SVGID_00000053545515745910273020000016777522741032871560_);" d="
			M118.722,271.069c14.172-62.95-14.408-120.93-62.359-150.568c-14.024-8.668-18.851-26.692-11.049-41.216
			c7.555-14.066,11.842-30.15,11.842-47.235c0.001-54.707-44.55-99.591-99.256-99.976c-55.545-0.391-100.695,44.518-100.695,99.973
			c0,38.357,21.604,71.662,53.305,88.428c-39.633,24.475-66.049,68.301-66.049,118.303c0,87.145,80.224,155.553,170.848,135.4
			C66.719,362.746,107.155,322.45,118.722,271.069z"/>
		
			<linearGradient id="SVGID_00000034792567251034905650000011797439945459148683_" gradientUnits="userSpaceOnUse" x1="578.8188" y1="93.8147" x2="765.8897" y2="277.0285">
			<stop  offset="0" style="stop-color:#330661"/>
			<stop  offset="1" style="stop-color:#2B1D3B"/>
		</linearGradient>
		
			<path style="clip-path:url(#SVGID_00000072281207403897474960000017866148688200455854_);fill:url(#SVGID_00000034792567251034905650000011797439945459148683_);" d="
			M657.228,103.964c36.747,0,66.643,29.896,66.643,66.643s-29.896,66.643-66.643,66.643c-36.747,0-66.643-29.896-66.643-66.643
			S620.481,103.964,657.228,103.964 M657.228,88.964c-45.09,0-81.643,36.553-81.643,81.643c0,45.09,36.553,81.643,81.643,81.643
			c45.09,0,81.643-36.553,81.643-81.643C738.871,125.517,702.318,88.964,657.228,88.964L657.228,88.964z"/>
		
			<linearGradient id="SVGID_00000125582283143693980510000014605411213968183979_" gradientUnits="userSpaceOnUse" x1="289.8984" y1="68.7311" x2="86.4343" y2="-135.6976">
			<stop  offset="0" style="stop-color:#330661"/>
			<stop  offset="1" style="stop-color:#2B1D3B"/>
		</linearGradient>
		
			<path style="clip-path:url(#SVGID_00000072281207403897474960000017866148688200455854_);fill:url(#SVGID_00000125582283143693980510000014605411213968183979_);" d="
			M193.074-95.195c36.747,0,66.643,29.896,66.643,66.643s-29.896,66.643-66.643,66.643c-36.747,0-66.643-29.896-66.643-66.643
			S156.327-95.195,193.074-95.195 M193.074-110.195c-45.09,0-81.643,36.553-81.643,81.643s36.553,81.643,81.643,81.643
			c45.09,0,81.643-36.553,81.643-81.643S238.164-110.195,193.074-110.195L193.074-110.195z"/>
		<g style="clip-path:url(#SVGID_00000072281207403897474960000017866148688200455854_);">
			<path style="fill:#3D3280;" d="M659.094,331.437c-1.868,0-3.389,1.521-3.389,3.39c0,1.868,1.521,3.389,3.389,3.389
				c1.869,0,3.39-1.521,3.39-3.389C662.484,332.957,660.963,331.437,659.094,331.437z"/>
			<path style="fill:#3D3280;" d="M659.094,316.205c-1.868,0-3.389,1.521-3.389,3.39c0,1.868,1.521,3.389,3.389,3.389
				c1.869,0,3.39-1.521,3.39-3.389C662.484,317.726,660.963,316.205,659.094,316.205z"/>
			<path style="fill:#3D3280;" d="M659.094,301.547c-1.868,0-3.389,1.521-3.389,3.39c0,1.869,1.521,3.39,3.389,3.39
				c1.869,0,3.39-1.521,3.39-3.39C662.484,303.068,660.963,301.547,659.094,301.547z"/>
			<path style="fill:#3D3280;" d="M659.094,293.095c1.869,0,3.39-1.521,3.39-3.39c0-1.869-1.521-3.39-3.39-3.39
				c-0.127,0-0.247,0.024-0.37,0.037c-0.886,1.679-1.724,3.387-2.504,5.127C656.818,292.445,657.878,293.095,659.094,293.095z"/>
			<path style="fill:#3D3280;" d="M674.326,331.437c-1.868,0-3.389,1.521-3.389,3.39c0,1.868,1.52,3.389,3.389,3.389
				c1.869,0,3.39-1.521,3.39-3.389C677.715,332.957,676.195,331.437,674.326,331.437z"/>
			<path style="fill:#3D3280;" d="M674.326,316.205c-1.868,0-3.389,1.521-3.389,3.39c0,1.868,1.52,3.389,3.389,3.389
				c1.869,0,3.39-1.521,3.39-3.389C677.715,317.726,676.195,316.205,674.326,316.205z"/>
			<path style="fill:#3D3280;" d="M674.326,301.547c-1.868,0-3.389,1.521-3.389,3.39c0,1.869,1.52,3.39,3.389,3.39
				c1.869,0,3.39-1.521,3.39-3.39C677.715,303.068,676.195,301.547,674.326,301.547z"/>
			<path style="fill:#3D3280;" d="M674.326,286.316c-1.868,0-3.389,1.52-3.389,3.39c0,1.869,1.52,3.39,3.389,3.39
				c1.869,0,3.39-1.521,3.39-3.39C677.715,287.836,676.195,286.316,674.326,286.316z"/>
			<path style="fill:#3D3280;" d="M674.326,271.084c-1.868,0-3.389,1.521-3.389,3.39c0,1.869,1.52,3.39,3.389,3.39
				c1.869,0,3.39-1.521,3.39-3.39C677.715,272.605,676.195,271.084,674.326,271.084z"/>
			<path style="fill:#3D3280;" d="M689.557,331.437c-1.869,0-3.39,1.521-3.39,3.39c0,1.868,1.521,3.389,3.39,3.389
				c1.869,0,3.39-1.521,3.39-3.389C692.947,332.957,691.426,331.437,689.557,331.437z"/>
			<path style="fill:#3D3280;" d="M689.557,316.205c-1.869,0-3.39,1.521-3.39,3.39c0,1.868,1.521,3.389,3.39,3.389
				c1.869,0,3.39-1.521,3.39-3.389C692.947,317.726,691.426,316.205,689.557,316.205z"/>
			<path style="fill:#3D3280;" d="M689.557,301.547c-1.869,0-3.39,1.521-3.39,3.39c0,1.869,1.521,3.39,3.39,3.39
				c1.869,0,3.39-1.521,3.39-3.39C692.947,303.068,691.426,301.547,689.557,301.547z"/>
			<path style="fill:#3D3280;" d="M689.557,286.316c-1.869,0-3.39,1.52-3.39,3.39c0,1.869,1.521,3.39,3.39,3.39
				c1.869,0,3.39-1.521,3.39-3.39C692.947,287.836,691.426,286.316,689.557,286.316z"/>
			<path style="fill:#3D3280;" d="M704.789,331.437c-1.869,0-3.39,1.521-3.39,3.39c0,1.868,1.521,3.389,3.39,3.389
				c1.869,0,3.39-1.521,3.39-3.389C708.178,332.957,706.658,331.437,704.789,331.437z"/>
			<path style="fill:#3D3280;" d="M719.652,331.437c-1.869,0-3.39,1.521-3.39,3.39c0,1.868,1.52,3.389,3.39,3.389
				c1.869,0,3.39-1.521,3.39-3.389C723.042,332.957,721.521,331.437,719.652,331.437z"/>
			<path style="fill:#3D3280;" d="M704.789,316.205c-1.869,0-3.39,1.521-3.39,3.39c0,1.868,1.521,3.389,3.39,3.389
				c1.869,0,3.39-1.521,3.39-3.389C708.178,317.726,706.658,316.205,704.789,316.205z"/>
			<path style="fill:#3D3280;" d="M704.789,301.547c-1.869,0-3.39,1.521-3.39,3.39c0,1.869,1.521,3.39,3.39,3.39
				c1.869,0,3.39-1.521,3.39-3.39C708.178,303.068,706.658,301.547,704.789,301.547z"/>
			<path style="fill:#3D3280;" d="M704.789,286.316c-1.869,0-3.39,1.52-3.39,3.39c0,1.869,1.521,3.39,3.39,3.39
				c1.869,0,3.39-1.521,3.39-3.39C708.178,287.836,706.658,286.316,704.789,286.316z"/>
			<path style="fill:#3D3280;" d="M719.652,316.205c-1.869,0-3.39,1.521-3.39,3.39c0,1.868,1.52,3.389,3.39,3.389
				c1.869,0,3.39-1.521,3.39-3.389C723.042,317.726,721.521,316.205,719.652,316.205z"/>
			<path style="fill:#3D3280;" d="M719.652,301.547c-1.869,0-3.39,1.521-3.39,3.39c0,1.869,1.52,3.39,3.39,3.39
				c1.869,0,3.39-1.521,3.39-3.39C723.042,303.068,721.521,301.547,719.652,301.547z"/>
			<path style="fill:#3D3280;" d="M719.652,286.316c-1.869,0-3.39,1.52-3.39,3.39c0,1.869,1.52,3.39,3.39,3.39
				c1.869,0,3.39-1.521,3.39-3.39C723.042,287.836,721.521,286.316,719.652,286.316z"/>
			<path style="fill:#3D3280;" d="M734.883,331.437c-1.869,0-3.39,1.521-3.39,3.39c0,1.868,1.521,3.389,3.39,3.389
				c1.868,0,3.389-1.521,3.389-3.389C738.272,332.957,736.751,331.437,734.883,331.437z"/>
			<path style="fill:#3D3280;" d="M734.883,316.205c-1.869,0-3.39,1.521-3.39,3.39c0,1.868,1.521,3.389,3.39,3.389
				c1.868,0,3.389-1.521,3.389-3.389C738.272,317.726,736.751,316.205,734.883,316.205z"/>
			<path style="fill:#3D3280;" d="M734.883,301.547c-1.869,0-3.39,1.521-3.39,3.39c0,1.869,1.521,3.39,3.39,3.39
				c1.868,0,3.389-1.521,3.389-3.39C738.272,303.068,736.751,301.547,734.883,301.547z"/>
			<path style="fill:#3D3280;" d="M734.883,286.316c-1.869,0-3.39,1.52-3.39,3.39c0,1.869,1.521,3.39,3.39,3.39
				c1.868,0,3.389-1.521,3.389-3.39C738.272,287.836,736.751,286.316,734.883,286.316z"/>
			<path style="fill:#3D3280;" d="M689.557,271.084c-1.869,0-3.39,1.521-3.39,3.39c0,1.869,1.521,3.39,3.39,3.39
				c1.869,0,3.39-1.521,3.39-3.39C692.947,272.605,691.426,271.084,689.557,271.084z"/>
			<path style="fill:#3D3280;" d="M689.557,255.853c-1.869,0-3.39,1.52-3.39,3.39c0,1.869,1.521,3.39,3.39,3.39
				c1.869,0,3.39-1.52,3.39-3.39C692.947,257.373,691.426,255.853,689.557,255.853z"/>
			<path style="fill:#3D3280;" d="M704.789,271.084c-1.869,0-3.39,1.521-3.39,3.39c0,1.869,1.521,3.39,3.39,3.39
				c1.869,0,3.39-1.521,3.39-3.39C708.178,272.605,706.658,271.084,704.789,271.084z"/>
			<path style="fill:#3D3280;" d="M719.652,271.084c-1.869,0-3.39,1.521-3.39,3.39c0,1.869,1.52,3.39,3.39,3.39
				c1.869,0,3.39-1.521,3.39-3.39C723.042,272.605,721.521,271.084,719.652,271.084z"/>
			<path style="fill:#3D3280;" d="M704.789,255.853c-1.869,0-3.39,1.52-3.39,3.39c0,1.869,1.521,3.39,3.39,3.39
				c1.869,0,3.39-1.52,3.39-3.39C708.178,257.373,706.658,255.853,704.789,255.853z"/>
			<path style="fill:#3D3280;" d="M704.789,247.974c1.869,0,3.39-1.521,3.39-3.39c0-0.331-0.063-0.644-0.151-0.947
				c-2.118,0.753-4.199,1.583-6.24,2.488C702.35,247.217,703.477,247.974,704.789,247.974z"/>
			<path style="fill:#3D3280;" d="M719.652,255.853c-1.869,0-3.39,1.52-3.39,3.39c0,1.869,1.52,3.39,3.39,3.39
				c1.869,0,3.39-1.52,3.39-3.39C723.042,257.373,721.521,255.853,719.652,255.853z"/>
			<path style="fill:#3D3280;" d="M719.652,241.195c-1.869,0-3.39,1.521-3.39,3.389c0,1.869,1.52,3.39,3.39,3.39
				c1.869,0,3.39-1.521,3.39-3.39C723.042,242.716,721.521,241.195,719.652,241.195z"/>
			<path style="fill:#3D3280;" d="M734.883,271.084c-1.869,0-3.39,1.521-3.39,3.39c0,1.869,1.521,3.39,3.39,3.39
				c1.868,0,3.389-1.521,3.389-3.39C738.272,272.605,736.751,271.084,734.883,271.084z"/>
			<path style="fill:#3D3280;" d="M734.883,255.853c-1.869,0-3.39,1.52-3.39,3.39c0,1.869,1.521,3.39,3.39,3.39
				c1.868,0,3.389-1.52,3.389-3.39C738.272,257.373,736.751,255.853,734.883,255.853z"/>
			<path style="fill:#3D3280;" d="M734.883,241.195c-1.869,0-3.39,1.521-3.39,3.389c0,1.869,1.521,3.39,3.39,3.39
				c1.868,0,3.389-1.521,3.389-3.39C738.272,242.716,736.751,241.195,734.883,241.195z"/>
			<path style="fill:#3D3280;" d="M750.115,331.437c-1.869,0-3.39,1.521-3.39,3.39c0,1.868,1.521,3.389,3.39,3.389
				c1.868,0,3.389-1.521,3.389-3.389C753.503,332.957,751.983,331.437,750.115,331.437z"/>
			<path style="fill:#3D3280;" d="M750.115,316.205c-1.869,0-3.39,1.521-3.39,3.39c0,1.868,1.521,3.389,3.39,3.389
				c1.868,0,3.389-1.521,3.389-3.389C753.503,317.726,751.983,316.205,750.115,316.205z"/>
			<path style="fill:#3D3280;" d="M750.115,301.547c-1.869,0-3.39,1.521-3.39,3.39c0,1.869,1.521,3.39,3.39,3.39
				c1.868,0,3.389-1.521,3.389-3.39C753.503,303.068,751.983,301.547,750.115,301.547z"/>
			<path style="fill:#3D3280;" d="M750.115,286.316c-1.869,0-3.39,1.52-3.39,3.39c0,1.869,1.521,3.39,3.39,3.39
				c1.868,0,3.389-1.521,3.389-3.39C753.503,287.836,751.983,286.316,750.115,286.316z"/>
			<path style="fill:#3D3280;" d="M765.346,331.437c-1.869,0-3.39,1.521-3.39,3.39c0,1.868,1.521,3.389,3.39,3.389
				c1.868,0,3.389-1.521,3.389-3.389C768.735,332.957,767.214,331.437,765.346,331.437z"/>
			<path style="fill:#3D3280;" d="M780.209,331.437c-1.869,0-3.39,1.521-3.39,3.39c0,1.868,1.521,3.389,3.39,3.389
				c1.868,0,3.389-1.521,3.389-3.389C783.598,332.957,782.078,331.437,780.209,331.437z"/>
			<path style="fill:#3D3280;" d="M765.346,316.205c-1.869,0-3.39,1.521-3.39,3.39c0,1.868,1.521,3.389,3.39,3.389
				c1.868,0,3.389-1.521,3.389-3.389C768.735,317.726,767.214,316.205,765.346,316.205z"/>
			<path style="fill:#3D3280;" d="M765.346,301.547c-1.869,0-3.39,1.521-3.39,3.39c0,1.869,1.521,3.39,3.39,3.39
				c1.868,0,3.389-1.521,3.389-3.39C768.735,303.068,767.214,301.547,765.346,301.547z"/>
			<path style="fill:#3D3280;" d="M765.346,286.316c-1.869,0-3.39,1.52-3.39,3.39c0,1.869,1.521,3.39,3.39,3.39
				c1.868,0,3.389-1.521,3.389-3.39C768.735,287.836,767.214,286.316,765.346,286.316z"/>
			<path style="fill:#3D3280;" d="M780.209,316.205c-1.869,0-3.39,1.521-3.39,3.39c0,1.868,1.521,3.389,3.39,3.389
				c1.868,0,3.389-1.521,3.389-3.389C783.598,317.726,782.078,316.205,780.209,316.205z"/>
			<path style="fill:#3D3280;" d="M780.209,301.547c-1.869,0-3.39,1.521-3.39,3.39c0,1.869,1.521,3.39,3.39,3.39
				c1.868,0,3.389-1.521,3.389-3.39C783.598,303.068,782.078,301.547,780.209,301.547z"/>
			<path style="fill:#3D3280;" d="M780.209,286.316c-1.869,0-3.39,1.52-3.39,3.39c0,1.869,1.521,3.39,3.39,3.39
				c1.868,0,3.389-1.521,3.389-3.39C783.598,287.836,782.078,286.316,780.209,286.316z"/>
			<path style="fill:#3D3280;" d="M795.44,331.437c-1.868,0-3.389,1.521-3.389,3.39c0,1.868,1.521,3.389,3.389,3.389
				c1.869,0,3.39-1.521,3.39-3.389C798.83,332.957,797.309,331.437,795.44,331.437z"/>
			<path style="fill:#3D3280;" d="M795.44,316.205c-1.868,0-3.389,1.521-3.389,3.39c0,1.868,1.521,3.389,3.389,3.389
				c1.869,0,3.39-1.521,3.39-3.389C798.83,317.726,797.309,316.205,795.44,316.205z"/>
			<path style="fill:#3D3280;" d="M795.44,301.547c-1.868,0-3.389,1.521-3.389,3.39c0,1.869,1.521,3.39,3.389,3.39
				c1.869,0,3.39-1.521,3.39-3.39C798.83,303.068,797.309,301.547,795.44,301.547z"/>
			<path style="fill:#3D3280;" d="M795.44,286.316c-1.868,0-3.389,1.52-3.389,3.39c0,1.869,1.521,3.39,3.389,3.39
				c1.869,0,3.39-1.521,3.39-3.39C798.83,287.836,797.309,286.316,795.44,286.316z"/>
			<path style="fill:#3D3280;" d="M750.115,271.084c-1.869,0-3.39,1.521-3.39,3.39c0,1.869,1.521,3.39,3.39,3.39
				c1.868,0,3.389-1.521,3.389-3.39C753.503,272.605,751.983,271.084,750.115,271.084z"/>
			<path style="fill:#3D3280;" d="M750.115,255.853c-1.869,0-3.39,1.52-3.39,3.39c0,1.869,1.521,3.39,3.39,3.39
				c1.868,0,3.389-1.52,3.389-3.39C753.503,257.373,751.983,255.853,750.115,255.853z"/>
			<path style="fill:#3D3280;" d="M750.115,241.195c-1.869,0-3.39,1.521-3.39,3.389c0,1.869,1.521,3.39,3.39,3.39
				c1.868,0,3.389-1.521,3.389-3.39C753.503,242.716,751.983,241.195,750.115,241.195z"/>
			<path style="fill:#3D3280;" d="M765.346,271.084c-1.869,0-3.39,1.521-3.39,3.39c0,1.869,1.521,3.39,3.39,3.39
				c1.868,0,3.389-1.521,3.389-3.39C768.735,272.605,767.214,271.084,765.346,271.084z"/>
			<path style="fill:#3D3280;" d="M780.209,271.084c-1.869,0-3.39,1.521-3.39,3.39c0,1.869,1.521,3.39,3.39,3.39
				c1.868,0,3.389-1.521,3.389-3.39C783.598,272.605,782.078,271.084,780.209,271.084z"/>
			<path style="fill:#3D3280;" d="M765.346,255.853c-1.869,0-3.39,1.52-3.39,3.39c0,1.869,1.521,3.39,3.39,3.39
				c1.868,0,3.389-1.52,3.389-3.39C768.735,257.373,767.214,255.853,765.346,255.853z"/>
			<path style="fill:#3D3280;" d="M761.956,244.584c0,1.869,1.521,3.39,3.39,3.39c1.868,0,3.389-1.521,3.389-3.39
				c0-0.265-0.038-0.521-0.096-0.769c-1.804-0.654-3.636-1.249-5.491-1.789C762.425,242.649,761.956,243.558,761.956,244.584z"/>
			<path style="fill:#3D3280;" d="M780.209,255.853c-1.869,0-3.39,1.52-3.39,3.39c0,1.869,1.521,3.39,3.39,3.39
				c1.868,0,3.389-1.52,3.389-3.39C783.598,257.373,782.078,255.853,780.209,255.853z"/>
			<path style="fill:#3D3280;" d="M795.44,271.084c-1.868,0-3.389,1.521-3.389,3.39c0,1.869,1.521,3.39,3.389,3.39
				c1.869,0,3.39-1.521,3.39-3.39C798.83,272.605,797.309,271.084,795.44,271.084z"/>
			<path style="fill:#3D3280;" d="M792.051,259.242c0,1.869,1.521,3.39,3.389,3.39c1.029,0,1.941-0.471,2.563-1.197
				c-1.672-1.503-3.401-2.942-5.182-4.317C792.347,257.701,792.051,258.434,792.051,259.242z"/>
			<path style="fill:#3D3280;" d="M810.671,331.437c-1.868,0-3.389,1.521-3.389,3.39c0,1.868,1.521,3.389,3.389,3.389
				c1.869,0,3.39-1.521,3.39-3.389C814.061,332.957,812.54,331.437,810.671,331.437z"/>
			<path style="fill:#3D3280;" d="M810.671,316.205c-1.868,0-3.389,1.521-3.389,3.39c0,1.868,1.521,3.389,3.389,3.389
				c1.869,0,3.39-1.521,3.39-3.389C814.061,317.726,812.54,316.205,810.671,316.205z"/>
			<path style="fill:#3D3280;" d="M810.671,301.547c-1.868,0-3.389,1.521-3.389,3.39c0,1.869,1.521,3.39,3.389,3.39
				c1.869,0,3.39-1.521,3.39-3.39C814.061,303.068,812.54,301.547,810.671,301.547z"/>
			<path style="fill:#3D3280;" d="M810.671,286.316c-1.868,0-3.389,1.52-3.389,3.39c0,1.869,1.521,3.39,3.389,3.39
				c1.869,0,3.39-1.521,3.39-3.39C814.061,287.836,812.54,286.316,810.671,286.316z"/>
			<path style="fill:#3D3280;" d="M825.903,331.437c-1.868,0-3.389,1.521-3.389,3.39c0,1.868,1.521,3.389,3.389,3.389
				c0.469,0,0.915-0.096,1.321-0.268c0.215-1.98,0.365-3.98,0.449-5.997C827.156,331.63,826.554,331.437,825.903,331.437z"/>
			<path style="fill:#3D3280;" d="M825.903,316.205c-1.868,0-3.389,1.521-3.389,3.39c0,1.868,1.521,3.389,3.389,3.389
				c0.612,0,1.179-0.176,1.675-0.461c-0.128-2.06-0.321-4.102-0.586-6.122C826.649,316.283,826.286,316.205,825.903,316.205z"/>
			<path style="fill:#3D3280;" d="M822.514,304.937c0,1.748,1.334,3.174,3.034,3.354c-0.466-2.063-1.006-4.098-1.612-6.104
				C823.079,302.802,822.514,303.802,822.514,304.937z"/>
			<path style="fill:#3D3280;" d="M810.671,277.863c0.517,0,1.001-0.125,1.44-0.333c-1.25-1.824-2.565-3.599-3.942-5.322
				c-0.545,0.602-0.886,1.392-0.886,2.265C807.283,276.343,808.803,277.863,810.671,277.863z"/>
			<path style="fill:#3D3280;" d="M662.484,365.288c0-1.868-1.521-3.389-3.39-3.389c-1.462,0-2.699,0.936-3.173,2.236
				c0.643,1.465,1.322,2.91,2.039,4.333c0.356,0.128,0.734,0.21,1.134,0.21C660.963,368.678,662.484,367.157,662.484,365.288z"/>
			<path style="fill:#3D3280;" d="M659.094,353.447c1.869,0,3.39-1.521,3.39-3.39c0-1.868-1.521-3.389-3.39-3.389
				c-1.868,0-3.389,1.521-3.389,3.389C655.706,351.926,657.226,353.447,659.094,353.447z"/>
			<path style="fill:#3D3280;" d="M674.966,391.853c0.863,0.855,1.743,1.694,2.64,2.514
				C677.291,393.094,676.263,392.103,674.966,391.853z"/>
			<path style="fill:#3D3280;" d="M674.326,376.557c-1.868,0-3.389,1.521-3.389,3.39c0,1.869,1.52,3.39,3.389,3.39
				c1.869,0,3.39-1.52,3.39-3.39C677.715,378.077,676.195,376.557,674.326,376.557z"/>
			<path style="fill:#3D3280;" d="M674.326,361.9c-1.868,0-3.389,1.521-3.389,3.389c0,1.869,1.52,3.39,3.389,3.39
				c1.869,0,3.39-1.52,3.39-3.39C677.715,363.42,676.195,361.9,674.326,361.9z"/>
			<path style="fill:#3D3280;" d="M674.326,346.668c-1.868,0-3.389,1.521-3.389,3.389c0,1.869,1.52,3.39,3.389,3.39
				c1.869,0,3.39-1.521,3.39-3.39C677.715,348.189,676.195,346.668,674.326,346.668z"/>
			<path style="fill:#3D3280;" d="M704.789,407.02c-1.736,0-3.155,1.317-3.35,3.002c1.973,0.884,3.983,1.7,6.028,2.442
				c0.44-0.572,0.712-1.279,0.712-2.055C708.178,408.54,706.658,407.02,704.789,407.02z"/>
			<path style="fill:#3D3280;" d="M719.652,407.02c-1.869,0-3.39,1.52-3.39,3.39c0,1.869,1.52,3.39,3.39,3.39
				c1.869,0,3.39-1.521,3.39-3.39C723.042,408.54,721.521,407.02,719.652,407.02z"/>
			<path style="fill:#3D3280;" d="M734.883,407.02c-1.869,0-3.39,1.52-3.39,3.39c0,1.869,1.521,3.39,3.39,3.39
				c1.868,0,3.389-1.521,3.389-3.39C738.272,408.54,736.751,407.02,734.883,407.02z"/>
			<path style="fill:#3D3280;" d="M689.557,391.788c-1.869,0-3.39,1.521-3.39,3.39c0,1.869,1.521,3.39,3.39,3.39
				c1.869,0,3.39-1.521,3.39-3.39C692.947,393.309,691.426,391.788,689.557,391.788z"/>
			<path style="fill:#3D3280;" d="M689.557,376.557c-1.869,0-3.39,1.521-3.39,3.39c0,1.869,1.521,3.39,3.39,3.39
				c1.869,0,3.39-1.52,3.39-3.39C692.947,378.077,691.426,376.557,689.557,376.557z"/>
			<path style="fill:#3D3280;" d="M689.557,361.9c-1.869,0-3.39,1.521-3.39,3.389c0,1.869,1.521,3.39,3.39,3.39
				c1.869,0,3.39-1.52,3.39-3.39C692.947,363.42,691.426,361.9,689.557,361.9z"/>
			<path style="fill:#3D3280;" d="M689.557,346.668c-1.869,0-3.39,1.521-3.39,3.389c0,1.869,1.521,3.39,3.39,3.39
				c1.869,0,3.39-1.521,3.39-3.39C692.947,348.189,691.426,346.668,689.557,346.668z"/>
			<path style="fill:#3D3280;" d="M704.789,391.788c-1.869,0-3.39,1.521-3.39,3.39c0,1.869,1.521,3.39,3.39,3.39
				c1.869,0,3.39-1.521,3.39-3.39C708.178,393.309,706.658,391.788,704.789,391.788z"/>
			<path style="fill:#3D3280;" d="M719.652,391.788c-1.869,0-3.39,1.521-3.39,3.39c0,1.869,1.52,3.39,3.39,3.39
				c1.869,0,3.39-1.521,3.39-3.39C723.042,393.309,721.521,391.788,719.652,391.788z"/>
			<path style="fill:#3D3280;" d="M704.789,376.557c-1.869,0-3.39,1.521-3.39,3.39c0,1.869,1.521,3.39,3.39,3.39
				c1.869,0,3.39-1.52,3.39-3.39C708.178,378.077,706.658,376.557,704.789,376.557z"/>
			<path style="fill:#3D3280;" d="M704.789,361.9c-1.869,0-3.39,1.521-3.39,3.389c0,1.869,1.521,3.39,3.39,3.39
				c1.869,0,3.39-1.52,3.39-3.39C708.178,363.42,706.658,361.9,704.789,361.9z"/>
			<path style="fill:#3D3280;" d="M704.789,346.668c-1.869,0-3.39,1.521-3.39,3.389c0,1.869,1.521,3.39,3.39,3.39
				c1.869,0,3.39-1.521,3.39-3.39C708.178,348.189,706.658,346.668,704.789,346.668z"/>
			<path style="fill:#3D3280;" d="M719.652,376.557c-1.869,0-3.39,1.521-3.39,3.39c0,1.869,1.52,3.39,3.39,3.39
				c1.869,0,3.39-1.52,3.39-3.39C723.042,378.077,721.521,376.557,719.652,376.557z"/>
			<path style="fill:#3D3280;" d="M719.652,361.9c-1.869,0-3.39,1.521-3.39,3.389c0,1.869,1.52,3.39,3.39,3.39
				c1.869,0,3.39-1.52,3.39-3.39C723.042,363.42,721.521,361.9,719.652,361.9z"/>
			<path style="fill:#3D3280;" d="M719.652,346.668c-1.869,0-3.39,1.521-3.39,3.389c0,1.869,1.52,3.39,3.39,3.39
				c1.869,0,3.39-1.521,3.39-3.39C723.042,348.189,721.521,346.668,719.652,346.668z"/>
			<path style="fill:#3D3280;" d="M734.883,391.788c-1.869,0-3.39,1.521-3.39,3.39c0,1.869,1.521,3.39,3.39,3.39
				c1.868,0,3.389-1.521,3.389-3.39C738.272,393.309,736.751,391.788,734.883,391.788z"/>
			<path style="fill:#3D3280;" d="M734.883,376.557c-1.869,0-3.39,1.521-3.39,3.39c0,1.869,1.521,3.39,3.39,3.39
				c1.868,0,3.389-1.52,3.389-3.39C738.272,378.077,736.751,376.557,734.883,376.557z"/>
			<path style="fill:#3D3280;" d="M734.883,361.9c-1.869,0-3.39,1.521-3.39,3.389c0,1.869,1.521,3.39,3.39,3.39
				c1.868,0,3.389-1.52,3.389-3.39C738.272,363.42,736.751,361.9,734.883,361.9z"/>
			<path style="fill:#3D3280;" d="M734.883,346.668c-1.869,0-3.39,1.521-3.39,3.389c0,1.869,1.521,3.39,3.39,3.39
				c1.868,0,3.389-1.521,3.389-3.39C738.272,348.189,736.751,346.668,734.883,346.668z"/>
			<path style="fill:#3D3280;" d="M750.115,407.02c-1.869,0-3.39,1.52-3.39,3.39c0,1.869,1.521,3.39,3.39,3.39
				c1.868,0,3.389-1.521,3.389-3.39C753.503,408.54,751.983,407.02,750.115,407.02z"/>
			<path style="fill:#3D3280;" d="M765.346,407.02c-1.869,0-3.39,1.52-3.39,3.39c0,1.711,1.278,3.115,2.927,3.343
				c0.962-0.301,1.915-0.622,2.863-0.954c0.61-0.613,0.988-1.457,0.988-2.388C768.735,408.54,767.214,407.02,765.346,407.02z"/>
			<path style="fill:#3D3280;" d="M777.213,408.859c1.178-0.572,2.342-1.168,3.49-1.79c-0.163-0.024-0.325-0.05-0.494-0.05
				C778.902,407.02,777.778,407.772,777.213,408.859z"/>
			<path style="fill:#3D3280;" d="M750.115,391.788c-1.869,0-3.39,1.521-3.39,3.39c0,1.869,1.521,3.39,3.39,3.39
				c1.868,0,3.389-1.521,3.389-3.39C753.503,393.309,751.983,391.788,750.115,391.788z"/>
			<path style="fill:#3D3280;" d="M750.115,376.557c-1.869,0-3.39,1.521-3.39,3.39c0,1.869,1.521,3.39,3.39,3.39
				c1.868,0,3.389-1.52,3.389-3.39C753.503,378.077,751.983,376.557,750.115,376.557z"/>
			<path style="fill:#3D3280;" d="M750.115,361.9c-1.869,0-3.39,1.521-3.39,3.389c0,1.869,1.521,3.39,3.39,3.39
				c1.868,0,3.389-1.52,3.389-3.39C753.503,363.42,751.983,361.9,750.115,361.9z"/>
			<path style="fill:#3D3280;" d="M750.115,346.668c-1.869,0-3.39,1.521-3.39,3.389c0,1.869,1.521,3.39,3.39,3.39
				c1.868,0,3.389-1.521,3.389-3.39C753.503,348.189,751.983,346.668,750.115,346.668z"/>
			<path style="fill:#3D3280;" d="M765.346,391.788c-1.869,0-3.39,1.521-3.39,3.39c0,1.869,1.521,3.39,3.39,3.39
				c1.868,0,3.389-1.521,3.389-3.39C768.735,393.309,767.214,391.788,765.346,391.788z"/>
			<path style="fill:#3D3280;" d="M780.209,391.788c-1.869,0-3.39,1.521-3.39,3.39c0,1.869,1.521,3.39,3.39,3.39
				c1.868,0,3.389-1.521,3.389-3.39C783.598,393.309,782.078,391.788,780.209,391.788z"/>
			<path style="fill:#3D3280;" d="M765.346,376.557c-1.869,0-3.39,1.521-3.39,3.39c0,1.869,1.521,3.39,3.39,3.39
				c1.868,0,3.389-1.52,3.389-3.39C768.735,378.077,767.214,376.557,765.346,376.557z"/>
			<path style="fill:#3D3280;" d="M765.346,361.9c-1.869,0-3.39,1.521-3.39,3.389c0,1.869,1.521,3.39,3.39,3.39
				c1.868,0,3.389-1.52,3.389-3.39C768.735,363.42,767.214,361.9,765.346,361.9z"/>
			<path style="fill:#3D3280;" d="M765.346,346.668c-1.869,0-3.39,1.521-3.39,3.389c0,1.869,1.521,3.39,3.39,3.39
				c1.868,0,3.389-1.521,3.389-3.39C768.735,348.189,767.214,346.668,765.346,346.668z"/>
			<path style="fill:#3D3280;" d="M780.209,376.557c-1.869,0-3.39,1.521-3.39,3.39c0,1.869,1.521,3.39,3.39,3.39
				c1.868,0,3.389-1.52,3.389-3.39C783.598,378.077,782.078,376.557,780.209,376.557z"/>
			<path style="fill:#3D3280;" d="M780.209,361.9c-1.869,0-3.39,1.521-3.39,3.389c0,1.869,1.521,3.39,3.39,3.39
				c1.868,0,3.389-1.52,3.389-3.39C783.598,363.42,782.078,361.9,780.209,361.9z"/>
			<path style="fill:#3D3280;" d="M780.209,346.668c-1.869,0-3.39,1.521-3.39,3.389c0,1.869,1.521,3.39,3.39,3.39
				c1.868,0,3.389-1.521,3.389-3.39C783.598,348.189,782.078,346.668,780.209,346.668z"/>
			<path style="fill:#3D3280;" d="M795.44,391.788c-1.868,0-3.389,1.521-3.389,3.39c0,1.359,0.808,2.525,1.964,3.065
				c1.601-1.28,3.159-2.611,4.668-3.996C798.276,392.832,796.984,391.788,795.44,391.788z"/>
			<path style="fill:#3D3280;" d="M795.44,376.557c-1.868,0-3.389,1.521-3.389,3.39c0,1.869,1.521,3.39,3.389,3.39
				c1.869,0,3.39-1.52,3.39-3.39C798.83,378.077,797.309,376.557,795.44,376.557z"/>
			<path style="fill:#3D3280;" d="M795.44,361.9c-1.868,0-3.389,1.521-3.389,3.389c0,1.869,1.521,3.39,3.389,3.39
				c1.869,0,3.39-1.52,3.39-3.39C798.83,363.42,797.309,361.9,795.44,361.9z"/>
			<path style="fill:#3D3280;" d="M795.44,346.668c-1.868,0-3.389,1.521-3.389,3.389c0,1.869,1.521,3.39,3.389,3.39
				c1.869,0,3.39-1.521,3.39-3.39C798.83,348.189,797.309,346.668,795.44,346.668z"/>
			<path style="fill:#3D3280;" d="M807.283,379.947c0,1.293,0.736,2.406,1.803,2.977c1.363-1.764,2.661-3.581,3.892-5.447
				c-0.606-0.566-1.414-0.92-2.307-0.92C808.803,376.557,807.283,378.077,807.283,379.947z"/>
			<path style="fill:#3D3280;" d="M810.671,361.9c-1.868,0-3.389,1.521-3.389,3.389c0,1.869,1.521,3.39,3.389,3.39
				c1.869,0,3.39-1.52,3.39-3.39C814.061,363.42,812.54,361.9,810.671,361.9z"/>
			<path style="fill:#3D3280;" d="M810.671,346.668c-1.868,0-3.389,1.521-3.389,3.389c0,1.869,1.521,3.39,3.389,3.39
				c1.869,0,3.39-1.521,3.39-3.39C814.061,348.189,812.54,346.668,810.671,346.668z"/>
			<path style="fill:#3D3280;" d="M822.514,350.057c0,1.272,0.713,2.37,1.752,2.949c0.599-2.08,1.123-4.192,1.573-6.332
				C824.001,346.71,822.514,348.211,822.514,350.057z"/>
		</g>
		<g style="clip-path:url(#SVGID_00000072281207403897474960000017866148688200455854_);">
			
				<linearGradient id="SVGID_00000089539593172493990830000003818564314611533751_" gradientUnits="userSpaceOnUse" x1="841.0707" y1="313.8965" x2="720.535" y2="209.7537">
				<stop  offset="0" style="stop-color:#5B26D4"/>
				<stop  offset="1" style="stop-color:#D858DE"/>
			</linearGradient>
			<circle style="fill:url(#SVGID_00000089539593172493990830000003818564314611533751_);" cx="772.439" cy="254.598" r="81.643"/>
		</g>
		<g style="clip-path:url(#SVGID_00000072281207403897474960000017866148688200455854_);">
			
				<linearGradient id="SVGID_00000065071647363088937690000002324788656423205823_" gradientUnits="userSpaceOnUse" x1="203.0383" y1="564.7319" x2="82.5026" y2="460.5891">
				<stop  offset="0" style="stop-color:#5B26D4"/>
				<stop  offset="1" style="stop-color:#D858DE"/>
			</linearGradient>
			<circle style="fill:url(#SVGID_00000065071647363088937690000002324788656423205823_);" cx="134.406" cy="505.434" r="81.643"/>
		</g>
		<g style="clip-path:url(#SVGID_00000072281207403897474960000017866148688200455854_);">
			
				<linearGradient id="SVGID_00000002378415533556928890000008886117304259991429_" gradientUnits="userSpaceOnUse" x1="161.42" y1="30.6451" x2="40.8842" y2="-73.4977">
				<stop  offset="0" style="stop-color:#5B26D4"/>
				<stop  offset="1" style="stop-color:#D858DE"/>
			</linearGradient>
			<circle style="fill:url(#SVGID_00000002378415533556928890000008886117304259991429_);" cx="92.788" cy="-28.653" r="81.643"/>
		</g>
		
			<linearGradient id="SVGID_00000096769053094456965030000007440776155824427153_" gradientUnits="userSpaceOnUse" x1="494.6698" y1="165.1476" x2="600.0983" y2="246.7905">
			<stop  offset="0" style="stop-color:#5B26D4"/>
			<stop  offset="1" style="stop-color:#D858DE"/>
		</linearGradient>
		
			<circle style="clip-path:url(#SVGID_00000072281207403897474960000017866148688200455854_);fill:url(#SVGID_00000096769053094456965030000007440776155824427153_);" cx="552.503" cy="209.933" r="46.583"/>
		
			<linearGradient id="SVGID_00000148638092104176307180000008219414454132988836_" gradientUnits="userSpaceOnUse" x1="505.2168" y1="23.6521" x2="311.4872" y2="-143.7302">
			<stop  offset="0" style="stop-color:#2C0256"/>
			<stop  offset="1" style="stop-color:#221630"/>
		</linearGradient>
		
			<circle style="clip-path:url(#SVGID_00000072281207403897474960000017866148688200455854_);fill:url(#SVGID_00000148638092104176307180000008219414454132988836_);" cx="394.909" cy="-71.654" r="131.219"/>
		<g style="clip-path:url(#SVGID_00000072281207403897474960000017866148688200455854_);">
			<path style="fill:#3D3280;" d="M469.202,480.853c-1.411,0.679-2.794,1.407-4.151,2.175l-26.59,26.59
				c-0.769,1.357-1.496,2.74-2.175,4.151L469.202,480.853z"/>
			<path style="fill:#3D3280;" d="M480.636,476.542c-0.955,0.268-1.901,0.557-2.839,0.863l-44.958,44.958
				c-0.306,0.938-0.596,1.884-0.863,2.839L480.636,476.542z"/>
			<path style="fill:#3D3280;" d="M489.647,474.652c-0.786,0.112-1.569,0.232-2.346,0.37l-56.846,56.846
				c-0.137,0.777-0.258,1.56-0.37,2.346L489.647,474.652z"/>
			<path style="fill:#3D3280;" d="M497.44,473.982c-0.693,0.021-1.383,0.054-2.071,0.095l-65.86,65.86
				c-0.041,0.688-0.074,1.378-0.095,2.071L497.44,473.982z"/>
			<path style="fill:#3D3280;" d="M504.431,474.113c-0.622-0.042-1.247-0.076-1.874-0.102l-73.113,73.113
				c0.026,0.627,0.06,1.252,0.102,1.874L504.431,474.113z"/>
			<path style="fill:#3D3280;" d="M510.826,474.84c-0.572-0.092-1.146-0.176-1.722-0.254l-79.085,79.085
				c0.078,0.576,0.163,1.15,0.254,1.722L510.826,474.84z"/>
			<path style="fill:#3D3280;" d="M516.737,476.052c-0.53-0.133-1.061-0.26-1.595-0.381l-84.037,84.037
				c0.121,0.534,0.248,1.066,0.381,1.595L516.737,476.052z"/>
			<path style="fill:#3D3280;" d="M522.24,477.671c-0.494-0.168-0.991-0.329-1.49-0.486l-88.133,88.133
				c0.157,0.499,0.318,0.996,0.486,1.49L522.24,477.671z"/>
			<path style="fill:#3D3280;" d="M527.381,479.652c-0.462-0.199-0.927-0.393-1.394-0.582l-91.483,91.483
				c0.189,0.467,0.383,0.932,0.582,1.394L527.381,479.652z"/>
			<path style="fill:#3D3280;" d="M532.202,481.953c-0.433-0.227-0.869-0.45-1.307-0.669l-94.177,94.177
				c0.219,0.438,0.441,0.874,0.669,1.307L532.202,481.953z"/>
			<path style="fill:#3D3280;" d="M536.729,484.548c-0.406-0.254-0.815-0.503-1.227-0.749l-96.269,96.269
				c0.245,0.412,0.495,0.821,0.749,1.227L536.729,484.548z"/>
			<path style="fill:#3D3280;" d="M540.98,487.42c-0.381-0.278-0.765-0.553-1.152-0.824l-97.799,97.799
				c0.271,0.387,0.546,0.771,0.824,1.152L540.98,487.42z"/>
			<path style="fill:#3D3280;" d="M544.966,490.556c-0.357-0.302-0.716-0.601-1.08-0.897l-98.794,98.794
				c0.295,0.363,0.594,0.722,0.897,1.079L544.966,490.556z"/>
			<path style="fill:#3D3280;" d="M548.695,493.949c-0.333-0.326-0.669-0.648-1.009-0.967l-99.272,99.272
				c0.319,0.34,0.642,0.676,0.967,1.009L548.695,493.949z"/>
			<path style="fill:#3D3280;" d="M552.17,497.596c-0.309-0.349-0.622-0.695-0.938-1.038l-99.241,99.241
				c0.343,0.316,0.689,0.629,1.038,0.938L552.17,497.596z"/>
			<path style="fill:#3D3280;" d="M555.39,501.499c-0.286-0.372-0.574-0.743-0.867-1.109l-98.7,98.7
				c0.367,0.293,0.737,0.581,1.109,0.867L555.39,501.499z"/>
			<path style="fill:#3D3280;" d="M558.348,505.663c-0.261-0.397-0.525-0.791-0.794-1.183l-97.64,97.64
				c0.391,0.269,0.786,0.533,1.183,0.793L558.348,505.663z"/>
			<path style="fill:#3D3280;" d="M561.034,510.099c-0.235-0.422-0.473-0.843-0.716-1.26l-96.044,96.045
				c0.417,0.243,0.837,0.482,1.26,0.716L561.034,510.099z"/>
			<path style="fill:#3D3280;" d="M563.432,514.823c-0.207-0.45-0.418-0.898-0.634-1.342l-93.884,93.884
				c0.444,0.216,0.892,0.427,1.342,0.634L563.432,514.823z"/>
			<path style="fill:#3D3280;" d="M565.52,519.857c-0.177-0.479-0.357-0.957-0.544-1.432l-91.116,91.116
				c0.474,0.187,0.952,0.367,1.432,0.544L565.52,519.857z"/>
			<path style="fill:#3D3280;" d="M567.261,525.239c-0.143-0.512-0.293-1.021-0.447-1.529l-87.67,87.67
				c0.507,0.154,1.017,0.304,1.529,0.447L567.261,525.239z"/>
			<path style="fill:#3D3280;" d="M568.61,531.012c-0.104-0.55-0.215-1.098-0.332-1.644l-83.476,83.476
				c0.546,0.117,1.094,0.228,1.644,0.332L568.61,531.012z"/>
			<path style="fill:#3D3280;" d="M569.506,537.238c-0.058-0.595-0.124-1.188-0.197-1.779l-78.416,78.416
				c0.591,0.073,1.184,0.139,1.779,0.197L569.506,537.238z"/>
			<path style="fill:#3D3280;" d="M569.846,544.021c-0.002-0.65-0.013-1.298-0.032-1.944l-72.303,72.303
				c0.646,0.019,1.294,0.031,1.944,0.032L569.846,544.021z"/>
			<path style="fill:#3D3280;" d="M504.789,614.224c0.725-0.053,1.448-0.116,2.167-0.191l62.511-62.511
				c0.075-0.719,0.138-1.441,0.191-2.167L504.789,614.224z"/>
			<path style="fill:#3D3280;" d="M568.042,560.069c0.191-0.828,0.363-1.663,0.525-2.501l-55.567,55.567
				c0.839-0.162,1.674-0.334,2.501-0.525L568.042,560.069z"/>
			<path style="fill:#3D3280;" d="M564.752,570.482c0.422-1.044,0.819-2.1,1.191-3.168l-43.195,43.195
				c1.068-0.372,2.124-0.77,3.167-1.191L564.752,570.482z"/>
			<path style="fill:#3D3280;" d="M555.043,587.313c1.605-2.06,3.097-4.211,4.468-6.444l-23.209,23.209
				c2.234-1.371,4.385-2.863,6.444-4.468L555.043,587.313z"/>
		</g>
		<g style="clip-path:url(#SVGID_00000072281207403897474960000017866148688200455854_);">
			
				<linearGradient id="SVGID_00000183238818081502429000000000982255918638760854_" gradientUnits="userSpaceOnUse" x1="535.0743" y1="501.6978" x2="698.36" y2="501.6978">
				<stop  offset="0" style="stop-color:#5B26D4"/>
				<stop  offset="1" style="stop-color:#D858DE"/>
			</linearGradient>
			<path style="fill:url(#SVGID_00000183238818081502429000000000982255918638760854_);" d="M616.717,435.055
				c36.747,0,66.643,29.896,66.643,66.643s-29.896,66.643-66.643,66.643s-66.643-29.896-66.643-66.643
				S579.97,435.055,616.717,435.055 M616.717,420.055c-45.09,0-81.643,36.553-81.643,81.643c0,45.09,36.553,81.643,81.643,81.643
				c45.09,0,81.643-36.553,81.643-81.643C698.36,456.608,661.807,420.055,616.717,420.055L616.717,420.055z"/>
		</g>
		<g style="clip-path:url(#SVGID_00000072281207403897474960000017866148688200455854_);">
			
				<linearGradient id="SVGID_00000075161466153809380570000005542895979609693844_" gradientUnits="userSpaceOnUse" x1="-77.2459" y1="175.2157" x2="28.2672" y2="175.2157" gradientTransform="matrix(0.3604 0.9328 -0.9328 0.3604 148.4628 138.1922)">
				<stop  offset="0" style="stop-color:#5B26D4"/>
				<stop  offset="1" style="stop-color:#D858DE"/>
			</linearGradient>
			<path style="fill:url(#SVGID_00000075161466153809380570000005542895979609693844_);" d="M16.365,162.974
				c8.558,22.15-2.501,47.132-24.65,55.69c-22.15,8.558-47.132-2.501-55.69-24.65c-8.558-22.15,2.5-47.132,24.65-55.689
				C-17.174,129.766,7.808,140.824,16.365,162.974 M25.407,159.481c-10.501-27.179-41.046-40.699-68.224-30.199
				c-27.179,10.501-40.699,41.046-30.199,68.224c10.5,27.179,41.045,40.699,68.224,30.199
				C22.387,217.205,35.907,186.66,25.407,159.481L25.407,159.481z"/>
		</g>
		<g style="clip-path:url(#SVGID_00000072281207403897474960000017866148688200455854_);">
			
				<linearGradient id="SVGID_00000138565715815837524360000016831370099139782055_" gradientUnits="userSpaceOnUse" x1="553.3552" y1="694.4697" x2="410.6413" y2="437.3277">
				<stop  offset="0" style="stop-color:#5B26D4"/>
				<stop  offset="1" style="stop-color:#D858DE"/>
			</linearGradient>
			<path style="fill:url(#SVGID_00000138565715815837524360000016831370099139782055_);" d="M500.431,459.71v-19.016
				c-57.163,0-103.5,46.349-103.5,103.513c0,57.163,46.337,103.5,103.5,103.5V628.69c-46.59,0-84.483-37.906-84.483-84.484
				C415.948,497.616,453.841,459.71,500.431,459.71z"/>
		</g>
		
			<linearGradient id="SVGID_00000181085520660412029490000006033331794293093793_" gradientUnits="userSpaceOnUse" x1="552.5028" y1="114.0551" x2="552.5028" y2="250.8313">
			<stop  offset="0" style="stop-color:#5B26D4"/>
			<stop  offset="1" style="stop-color:#27063D"/>
		</linearGradient>
		
			<path style="clip-path:url(#SVGID_00000072281207403897474960000017866148688200455854_);fill:url(#SVGID_00000181085520660412029490000006033331794293093793_);" d="
			M611.881,209.936h13.364c0-40.173-32.574-72.738-72.747-72.738c-40.174,0-72.738,32.565-72.738,72.738h13.364
			c0-32.743,26.64-59.374,59.374-59.374C585.241,150.562,611.881,177.193,611.881,209.936z"/>
		
			<linearGradient id="SVGID_00000167353801023875060510000002235717802239268522_" gradientUnits="userSpaceOnUse" x1="59.2413" y1="271.4333" x2="164.6698" y2="353.0763" gradientTransform="matrix(0 1 -1 0 448.5026 174.0683)">
			<stop  offset="0" style="stop-color:#5B26D4"/>
			<stop  offset="1" style="stop-color:#D858DE"/>
		</linearGradient>
		
			<circle style="clip-path:url(#SVGID_00000072281207403897474960000017866148688200455854_);fill:url(#SVGID_00000167353801023875060510000002235717802239268522_);" cx="132.284" cy="291.143" r="46.583"/>
		
			<linearGradient id="SVGID_00000091714649273028131720000010487802454149144985_" gradientUnits="userSpaceOnUse" x1="117.0743" y1="220.3407" x2="117.0743" y2="357.1171" gradientTransform="matrix(0 1 -1 0 448.5026 174.0683)">
			<stop  offset="0" style="stop-color:#5B26D4"/>
			<stop  offset="1" style="stop-color:#27063D"/>
		</linearGradient>
		
			<path style="clip-path:url(#SVGID_00000072281207403897474960000017866148688200455854_);fill:url(#SVGID_00000091714649273028131720000010487802454149144985_);" d="
			M132.281,350.521v13.364c40.174,0,72.738-32.574,72.738-72.747c0-40.174-32.565-72.738-72.738-72.738v13.364
			c32.743,0,59.374,26.64,59.374,59.374C191.654,323.881,165.024,350.521,132.281,350.521z"/>
		<g style="clip-path:url(#SVGID_00000072281207403897474960000017866148688200455854_);">
			<path style="fill:#FFFFFF;" d="M552.86,415.841c15.498,0,28.107,12.609,28.107,28.107c0,15.498-12.609,28.107-28.107,28.107
				s-28.107-12.609-28.107-28.107C524.753,428.449,537.362,415.841,552.86,415.841 M552.86,410.841
				c-18.285,0-33.107,14.823-33.107,33.107c0,18.284,14.823,33.107,33.107,33.107s33.107-14.823,33.107-33.107
				C585.967,425.663,571.145,410.841,552.86,410.841L552.86,410.841z"/>
		</g>
		<g style="clip-path:url(#SVGID_00000072281207403897474960000017866148688200455854_);">
			<path style="fill:#FFFFFF;" d="M224.467,23.893c10.458,0,18.965,8.508,18.965,18.965s-8.508,18.965-18.965,18.965
				c-10.458,0-18.966-8.508-18.966-18.965S214.009,23.893,224.467,23.893 M224.467,20.519c-12.338,0-22.339,10.002-22.339,22.339
				c0,12.338,10.002,22.339,22.339,22.339c12.338,0,22.339-10.002,22.339-22.339C246.806,30.521,236.805,20.519,224.467,20.519
				L224.467,20.519z"/>
		</g>
		<g style="clip-path:url(#SVGID_00000072281207403897474960000017866148688200455854_);">
			<path style="fill:#FFFFFF;" d="M45.753,487.018c10.458,0,18.965,8.508,18.965,18.966s-8.508,18.965-18.965,18.965
				s-18.965-8.508-18.965-18.965S35.295,487.018,45.753,487.018 M45.753,483.644c-12.338,0-22.339,10.002-22.339,22.339
				s10.002,22.339,22.339,22.339c12.338,0,22.339-10.002,22.339-22.339S58.09,483.644,45.753,483.644L45.753,483.644z"/>
		</g>
		<g style="opacity:0.8;clip-path:url(#SVGID_00000072281207403897474960000017866148688200455854_);">
			<g>
				<path style="fill:#FFFFFF;" d="M537.001-170.016c35.016,0,67.936,13.636,92.697,38.396c24.76,24.76,38.396,57.68,38.396,92.697
					s-13.636,67.936-38.396,92.697c-24.76,24.76-57.68,38.396-92.697,38.396c-35.016,0-67.936-13.636-92.697-38.396
					c-24.76-24.76-38.396-57.68-38.396-92.697s13.636-67.936,38.396-92.697C469.065-156.38,501.985-170.016,537.001-170.016
					 M537.001-172.016c-73.505,0-133.093,59.588-133.093,133.093c0,73.505,59.588,133.093,133.093,133.093
					c73.505,0,133.093-59.588,133.093-133.093C670.094-112.429,610.506-172.016,537.001-172.016L537.001-172.016z"/>
			</g>
			<path style="fill:#FFFFFF;" d="M537.001-160.804c32.701,0,63.289,12.816,86.177,35.703s35.703,53.475,35.703,86.177
				s-12.816,63.289-35.703,86.177s-53.475,35.703-86.177,35.703c-32.702,0-63.289-12.816-86.177-35.703
				c-22.887-22.887-35.703-53.475-35.703-86.177s12.816-63.289,35.703-86.177C473.712-147.988,504.3-160.804,537.001-160.804
				 M537.001-162.804c-68.417,0-123.88,55.463-123.88,123.88c0,68.417,55.463,123.88,123.88,123.88
				c68.417,0,123.88-55.463,123.88-123.88C660.881-107.341,605.418-162.804,537.001-162.804L537.001-162.804z"/>
			<path style="fill:#FFFFFF;" d="M537.001-151.592c30.387,0,58.642,11.996,79.657,33.011c21.015,21.015,33.011,49.27,33.011,79.657
				s-11.996,58.642-33.011,79.657c-21.015,21.015-49.27,33.011-79.657,33.011s-58.642-11.996-79.657-33.011
				c-21.015-21.015-33.011-49.27-33.011-79.657s11.996-58.642,33.011-79.657C478.359-139.596,506.614-151.592,537.001-151.592
				 M537.001-153.592c-63.329,0-114.668,51.339-114.668,114.668S473.672,75.744,537.001,75.744
				c63.329,0,114.668-51.339,114.668-114.668S600.331-153.592,537.001-153.592L537.001-153.592z"/>
			<path style="fill:#FFFFFF;" d="M537.001-142.379c28.072,0,53.995,11.176,73.137,30.318s30.318,45.065,30.318,73.137
				s-11.176,53.995-30.318,73.137s-45.065,30.318-73.137,30.318c-28.072,0-53.995-11.176-73.137-30.318
				c-19.142-19.142-30.318-45.065-30.318-73.137s11.176-53.995,30.318-73.137C483.006-131.203,508.929-142.379,537.001-142.379
				 M537.001-144.379c-58.242,0-105.456,47.214-105.456,105.456c0,58.242,47.214,105.456,105.456,105.456
				c58.242,0,105.456-47.214,105.456-105.456C642.457-97.165,595.243-144.379,537.001-144.379L537.001-144.379z"/>
			<path style="fill:#FFFFFF;" d="M537.001-133.167c25.758,0,49.348,10.356,66.617,27.626s27.626,40.86,27.626,66.617
				s-10.356,49.348-27.626,66.618c-17.27,17.27-40.86,27.626-66.617,27.626s-49.348-10.356-66.617-27.626
				c-17.27-17.27-27.626-40.86-27.626-66.618s10.356-49.348,27.626-66.617C487.653-122.811,511.244-133.167,537.001-133.167
				 M537.001-135.167c-53.154,0-96.243,43.09-96.243,96.243s43.09,96.243,96.243,96.243c53.154,0,96.243-43.09,96.243-96.243
				S590.155-135.167,537.001-135.167L537.001-135.167z"/>
			<g>
				<path style="fill:#FFFFFF;" d="M537.001-123.955c46.886,0,85.031,38.145,85.031,85.031c0,46.886-38.145,85.031-85.031,85.031
					S451.97,7.962,451.97-38.924C451.97-85.81,490.115-123.955,537.001-123.955 M537.001-125.955
					c-48.066,0-87.031,38.965-87.031,87.031c0,48.066,38.965,87.031,87.031,87.031c48.066,0,87.031-38.965,87.031-87.031
					C624.032-86.99,585.067-125.955,537.001-125.955L537.001-125.955z"/>
			</g>
		</g>
		<g style="clip-path:url(#SVGID_00000072281207403897474960000017866148688200455854_);">
			
				<linearGradient id="SVGID_00000119107623536382114220000009842855535284017086_" gradientUnits="userSpaceOnUse" x1="719.2687" y1="44.2659" x2="652.8103" y2="-13.1541">
				<stop  offset="0" style="stop-color:#5B26D4"/>
				<stop  offset="1" style="stop-color:#D858DE"/>
			</linearGradient>
			<circle style="fill:url(#SVGID_00000119107623536382114220000009842855535284017086_);" cx="681.428" cy="11.571" r="45.014"/>
		</g>
		<g style="clip-path:url(#SVGID_00000072281207403897474960000017866148688200455854_);">
			<path style="fill:#FFFFFF;" d="M717.07,40.407c9.505,0,17.237,7.733,17.237,17.237s-7.733,17.237-17.237,17.237
				c-9.505,0-17.237-7.733-17.237-17.237S707.565,40.407,717.07,40.407 M717.07,37.341c-11.213,0-20.304,9.09-20.304,20.304
				c0,11.213,9.09,20.304,20.304,20.304c11.213,0,20.304-9.09,20.304-20.304C737.373,46.431,728.283,37.341,717.07,37.341
				L717.07,37.341z"/>
		</g>
		<g style="clip-path:url(#SVGID_00000072281207403897474960000017866148688200455854_);">
			<path style="fill:#3D3280;" d="M-127.604,371.609c-2.161,0-3.919,1.758-3.919,3.92c0,2.161,1.758,3.919,3.919,3.919
				c2.162,0,3.92-1.758,3.92-3.919C-123.684,373.368-125.443,371.609-127.604,371.609z"/>
			<path style="fill:#3D3280;" d="M-127.604,353.994c-2.161,0-3.919,1.758-3.919,3.92c0,2.161,1.758,3.919,3.919,3.919
				c2.162,0,3.92-1.759,3.92-3.919C-123.684,355.752-125.443,353.994-127.604,353.994z"/>
			<path style="fill:#3D3280;" d="M-127.604,337.041c-2.161,0-3.919,1.758-3.919,3.92c0,2.162,1.758,3.92,3.919,3.92
				c2.162,0,3.92-1.758,3.92-3.92C-123.684,338.8-125.443,337.041-127.604,337.041z"/>
			<path style="fill:#3D3280;" d="M-127.604,327.266c2.162,0,3.92-1.758,3.92-3.92c0-2.162-1.759-3.92-3.92-3.92
				c-0.146,0-0.285,0.027-0.428,0.043c-1.025,1.942-1.993,3.917-2.896,5.929C-130.237,326.514-129.011,327.266-127.604,327.266z"/>
			<path style="fill:#3D3280;" d="M-109.989,371.609c-2.161,0-3.919,1.758-3.919,3.92c0,2.161,1.758,3.919,3.919,3.919
				c2.162,0,3.92-1.758,3.92-3.919C-106.068,373.368-107.827,371.609-109.989,371.609z"/>
			<path style="fill:#3D3280;" d="M-109.989,353.994c-2.161,0-3.919,1.758-3.919,3.92c0,2.161,1.758,3.919,3.919,3.919
				c2.162,0,3.92-1.759,3.92-3.919C-106.068,355.752-107.827,353.994-109.989,353.994z"/>
			<path style="fill:#3D3280;" d="M-109.989,337.041c-2.161,0-3.919,1.758-3.919,3.92c0,2.162,1.758,3.92,3.919,3.92
				c2.162,0,3.92-1.758,3.92-3.92C-106.068,338.8-107.827,337.041-109.989,337.041z"/>
			<path style="fill:#3D3280;" d="M-109.989,319.426c-2.161,0-3.919,1.758-3.919,3.92c0,2.162,1.758,3.92,3.919,3.92
				c2.162,0,3.92-1.758,3.92-3.92C-106.068,321.184-107.827,319.426-109.989,319.426z"/>
			<path style="fill:#3D3280;" d="M-109.989,301.81c-2.161,0-3.919,1.759-3.919,3.92c0,2.162,1.758,3.92,3.919,3.92
				c2.162,0,3.92-1.758,3.92-3.92C-106.068,303.568-107.827,301.81-109.989,301.81z"/>
			<path style="fill:#3D3280;" d="M-92.373,371.609c-2.162,0-3.92,1.758-3.92,3.92c0,2.161,1.759,3.919,3.92,3.919
				c2.162,0,3.92-1.758,3.92-3.919C-88.453,373.368-90.211,371.609-92.373,371.609z"/>
			<path style="fill:#3D3280;" d="M-92.373,353.994c-2.162,0-3.92,1.758-3.92,3.92c0,2.161,1.759,3.919,3.92,3.919
				c2.162,0,3.92-1.759,3.92-3.919C-88.453,355.752-90.211,353.994-92.373,353.994z"/>
			<path style="fill:#3D3280;" d="M-92.373,337.041c-2.162,0-3.92,1.758-3.92,3.92c0,2.162,1.759,3.92,3.92,3.92
				c2.162,0,3.92-1.758,3.92-3.92C-88.453,338.8-90.211,337.041-92.373,337.041z"/>
			<path style="fill:#3D3280;" d="M-92.373,319.426c-2.162,0-3.92,1.758-3.92,3.92c0,2.162,1.759,3.92,3.92,3.92
				c2.162,0,3.92-1.758,3.92-3.92C-88.453,321.184-90.211,319.426-92.373,319.426z"/>
			<path style="fill:#3D3280;" d="M-74.757,371.609c-2.162,0-3.92,1.758-3.92,3.92c0,2.161,1.758,3.919,3.92,3.919
				s3.92-1.758,3.92-3.919C-70.837,373.368-72.596,371.609-74.757,371.609z"/>
			<path style="fill:#3D3280;" d="M-57.568,371.609c-2.162,0-3.92,1.758-3.92,3.92c0,2.161,1.758,3.919,3.92,3.919
				c2.162,0,3.92-1.758,3.92-3.919C-53.647,373.368-55.406,371.609-57.568,371.609z"/>
			<path style="fill:#3D3280;" d="M-74.757,353.994c-2.162,0-3.92,1.758-3.92,3.92c0,2.161,1.758,3.919,3.92,3.919
				s3.92-1.759,3.92-3.919C-70.837,355.752-72.596,353.994-74.757,353.994z"/>
			<path style="fill:#3D3280;" d="M-74.757,337.041c-2.162,0-3.92,1.758-3.92,3.92c0,2.162,1.758,3.92,3.92,3.92
				s3.92-1.758,3.92-3.92C-70.837,338.8-72.596,337.041-74.757,337.041z"/>
			<circle style="fill:#3D3280;" cx="-74.757" cy="323.346" r="3.92"/>
			<path style="fill:#3D3280;" d="M-57.568,353.994c-2.162,0-3.92,1.758-3.92,3.92c0,2.161,1.758,3.919,3.92,3.919
				c2.162,0,3.92-1.759,3.92-3.919C-53.647,355.752-55.406,353.994-57.568,353.994z"/>
			<path style="fill:#3D3280;" d="M-57.568,337.041c-2.162,0-3.92,1.758-3.92,3.92c0,2.162,1.758,3.92,3.92,3.92
				c2.162,0,3.92-1.758,3.92-3.92C-53.647,338.8-55.406,337.041-57.568,337.041z"/>
			<path style="fill:#3D3280;" d="M-57.568,319.426c-2.162,0-3.92,1.758-3.92,3.92c0,2.162,1.758,3.92,3.92,3.92
				c2.162,0,3.92-1.758,3.92-3.92C-53.647,321.184-55.406,319.426-57.568,319.426z"/>
			<path style="fill:#3D3280;" d="M-39.952,371.609c-2.162,0-3.92,1.758-3.92,3.92c0,2.161,1.758,3.919,3.92,3.919
				c2.161,0,3.919-1.758,3.919-3.919C-36.033,373.368-37.791,371.609-39.952,371.609z"/>
			<path style="fill:#3D3280;" d="M-39.952,353.994c-2.162,0-3.92,1.758-3.92,3.92c0,2.161,1.758,3.919,3.92,3.919
				c2.161,0,3.919-1.759,3.919-3.919C-36.033,355.752-37.791,353.994-39.952,353.994z"/>
			<path style="fill:#3D3280;" d="M-39.952,337.041c-2.162,0-3.92,1.758-3.92,3.92c0,2.162,1.758,3.92,3.92,3.92
				c2.161,0,3.919-1.758,3.919-3.92C-36.033,338.8-37.791,337.041-39.952,337.041z"/>
			<path style="fill:#3D3280;" d="M-39.952,319.426c-2.162,0-3.92,1.758-3.92,3.92c0,2.162,1.758,3.92,3.92,3.92
				c2.161,0,3.919-1.758,3.919-3.92C-36.033,321.184-37.791,319.426-39.952,319.426z"/>
			<path style="fill:#3D3280;" d="M-92.373,301.81c-2.162,0-3.92,1.759-3.92,3.92c0,2.162,1.759,3.92,3.92,3.92
				c2.162,0,3.92-1.758,3.92-3.92C-88.453,303.568-90.211,301.81-92.373,301.81z"/>
			<path style="fill:#3D3280;" d="M-92.373,284.194c-2.162,0-3.92,1.758-3.92,3.92c0,2.162,1.759,3.92,3.92,3.92
				c2.162,0,3.92-1.759,3.92-3.92C-88.453,285.953-90.211,284.194-92.373,284.194z"/>
			<path style="fill:#3D3280;" d="M-74.757,301.81c-2.162,0-3.92,1.759-3.92,3.92c0,2.162,1.758,3.92,3.92,3.92
				s3.92-1.758,3.92-3.92C-70.837,303.568-72.596,301.81-74.757,301.81z"/>
			<path style="fill:#3D3280;" d="M-57.568,301.81c-2.162,0-3.92,1.759-3.92,3.92c0,2.162,1.758,3.92,3.92,3.92
				c2.162,0,3.92-1.758,3.92-3.92C-53.647,303.568-55.406,301.81-57.568,301.81z"/>
			<path style="fill:#3D3280;" d="M-74.757,284.194c-2.162,0-3.92,1.758-3.92,3.92c0,2.162,1.758,3.92,3.92,3.92
				s3.92-1.759,3.92-3.92C-70.837,285.953-72.596,284.194-74.757,284.194z"/>
			<path style="fill:#3D3280;" d="M-74.757,275.082c2.162,0,3.92-1.759,3.92-3.92c0-0.383-0.072-0.745-0.175-1.095
				c-2.449,0.871-4.856,1.831-7.217,2.877C-77.578,274.207-76.274,275.082-74.757,275.082z"/>
			<path style="fill:#3D3280;" d="M-57.568,284.194c-2.162,0-3.92,1.758-3.92,3.92c0,2.162,1.758,3.92,3.92,3.92
				c2.162,0,3.92-1.759,3.92-3.92C-53.647,285.953-55.406,284.194-57.568,284.194z"/>
			<path style="fill:#3D3280;" d="M-57.568,267.243c-2.162,0-3.92,1.758-3.92,3.919c0,2.162,1.758,3.92,3.92,3.92
				c2.162,0,3.92-1.759,3.92-3.92C-53.647,269.001-55.406,267.243-57.568,267.243z"/>
			<path style="fill:#3D3280;" d="M-39.952,301.81c-2.162,0-3.92,1.759-3.92,3.92c0,2.162,1.758,3.92,3.92,3.92
				c2.161,0,3.919-1.758,3.919-3.92C-36.033,303.568-37.791,301.81-39.952,301.81z"/>
			<path style="fill:#3D3280;" d="M-39.952,284.194c-2.162,0-3.92,1.758-3.92,3.92c0,2.162,1.758,3.92,3.92,3.92
				c2.161,0,3.919-1.759,3.919-3.92C-36.033,285.953-37.791,284.194-39.952,284.194z"/>
			<path style="fill:#3D3280;" d="M-39.952,267.243c-2.162,0-3.92,1.758-3.92,3.919c0,2.162,1.758,3.92,3.92,3.92
				c2.161,0,3.919-1.759,3.919-3.92C-36.033,269.001-37.791,267.243-39.952,267.243z"/>
			<path style="fill:#3D3280;" d="M-22.336,371.609c-2.162,0-3.92,1.758-3.92,3.92c0,2.161,1.758,3.919,3.92,3.919
				c2.161,0,3.919-1.758,3.919-3.919C-18.417,373.368-20.176,371.609-22.336,371.609z"/>
			<path style="fill:#3D3280;" d="M-22.336,353.994c-2.162,0-3.92,1.758-3.92,3.92c0,2.161,1.758,3.919,3.92,3.919
				c2.161,0,3.919-1.759,3.919-3.919C-18.417,355.752-20.176,353.994-22.336,353.994z"/>
			<path style="fill:#3D3280;" d="M-22.336,337.041c-2.162,0-3.92,1.758-3.92,3.92c0,2.162,1.758,3.92,3.92,3.92
				c2.161,0,3.919-1.758,3.919-3.92C-18.417,338.8-20.176,337.041-22.336,337.041z"/>
			<path style="fill:#3D3280;" d="M-22.336,319.426c-2.162,0-3.92,1.758-3.92,3.92c0,2.162,1.758,3.92,3.92,3.92
				c2.161,0,3.919-1.758,3.919-3.92C-18.417,321.184-20.176,319.426-22.336,319.426z"/>
			<path style="fill:#3D3280;" d="M-4.721,371.609c-2.162,0-3.92,1.758-3.92,3.92c0,2.161,1.759,3.919,3.92,3.919
				c2.16,0,3.919-1.758,3.919-3.919C-0.802,373.368-2.56,371.609-4.721,371.609z"/>
			<path style="fill:#3D3280;" d="M12.469,371.609c-2.162,0-3.92,1.758-3.92,3.92c0,2.161,1.759,3.919,3.92,3.919
				c2.161,0,3.919-1.758,3.919-3.919C16.388,373.368,14.63,371.609,12.469,371.609z"/>
			<path style="fill:#3D3280;" d="M-4.721,353.994c-2.162,0-3.92,1.758-3.92,3.92c0,2.161,1.759,3.919,3.92,3.919
				c2.16,0,3.919-1.759,3.919-3.919C-0.802,355.752-2.56,353.994-4.721,353.994z"/>
			<path style="fill:#3D3280;" d="M-4.721,337.041c-2.162,0-3.92,1.758-3.92,3.92c0,2.162,1.759,3.92,3.92,3.92
				c2.16,0,3.919-1.758,3.919-3.92C-0.802,338.8-2.56,337.041-4.721,337.041z"/>
			<path style="fill:#3D3280;" d="M-4.721,319.426c-2.162,0-3.92,1.758-3.92,3.92c0,2.162,1.759,3.92,3.92,3.92
				c2.16,0,3.919-1.758,3.919-3.92C-0.802,321.184-2.56,319.426-4.721,319.426z"/>
			<path style="fill:#3D3280;" d="M12.469,353.994c-2.162,0-3.92,1.758-3.92,3.92c0,2.161,1.759,3.919,3.92,3.919
				c2.161,0,3.919-1.759,3.919-3.919C16.388,355.752,14.63,353.994,12.469,353.994z"/>
			<path style="fill:#3D3280;" d="M12.469,337.041c-2.162,0-3.92,1.758-3.92,3.92c0,2.162,1.759,3.92,3.92,3.92
				c2.161,0,3.919-1.758,3.919-3.92C16.388,338.8,14.63,337.041,12.469,337.041z"/>
			<path style="fill:#3D3280;" d="M12.469,319.426c-2.162,0-3.92,1.758-3.92,3.92c0,2.162,1.759,3.92,3.92,3.92
				c2.161,0,3.919-1.758,3.919-3.92C16.388,321.184,14.63,319.426,12.469,319.426z"/>
			<path style="fill:#3D3280;" d="M30.084,371.609c-2.161,0-3.919,1.758-3.919,3.92c0,2.161,1.759,3.919,3.919,3.919
				c2.162,0,3.92-1.758,3.92-3.919C34.004,373.368,32.245,371.609,30.084,371.609z"/>
			<path style="fill:#3D3280;" d="M30.084,353.994c-2.161,0-3.919,1.758-3.919,3.92c0,2.161,1.759,3.919,3.919,3.919
				c2.162,0,3.92-1.759,3.92-3.919C34.004,355.752,32.245,353.994,30.084,353.994z"/>
			<path style="fill:#3D3280;" d="M30.084,337.041c-2.161,0-3.919,1.758-3.919,3.92c0,2.162,1.759,3.92,3.919,3.92
				c2.162,0,3.92-1.758,3.92-3.92C34.004,338.8,32.245,337.041,30.084,337.041z"/>
			<path style="fill:#3D3280;" d="M30.084,319.426c-2.161,0-3.919,1.758-3.919,3.92c0,2.162,1.759,3.92,3.919,3.92
				c2.162,0,3.92-1.758,3.92-3.92C34.004,321.184,32.245,319.426,30.084,319.426z"/>
			<path style="fill:#3D3280;" d="M-22.336,301.81c-2.162,0-3.92,1.759-3.92,3.92c0,2.162,1.758,3.92,3.92,3.92
				c2.161,0,3.919-1.758,3.919-3.92C-18.417,303.568-20.176,301.81-22.336,301.81z"/>
			<path style="fill:#3D3280;" d="M-22.336,284.194c-2.162,0-3.92,1.758-3.92,3.92c0,2.162,1.758,3.92,3.92,3.92
				c2.161,0,3.919-1.759,3.919-3.92C-18.417,285.953-20.176,284.194-22.336,284.194z"/>
			<path style="fill:#3D3280;" d="M-22.336,267.243c-2.162,0-3.92,1.758-3.92,3.919c0,2.162,1.758,3.92,3.92,3.92
				c2.161,0,3.919-1.759,3.919-3.92C-18.417,269.001-20.176,267.243-22.336,267.243z"/>
			<path style="fill:#3D3280;" d="M-4.721,301.81c-2.162,0-3.92,1.759-3.92,3.92c0,2.162,1.759,3.92,3.92,3.92
				c2.16,0,3.919-1.758,3.919-3.92C-0.802,303.568-2.56,301.81-4.721,301.81z"/>
			<path style="fill:#3D3280;" d="M12.469,301.81c-2.162,0-3.92,1.759-3.92,3.92c0,2.162,1.759,3.92,3.92,3.92
				c2.161,0,3.919-1.758,3.919-3.92C16.388,303.568,14.63,301.81,12.469,301.81z"/>
			<path style="fill:#3D3280;" d="M-4.721,284.194c-2.162,0-3.92,1.758-3.92,3.92c0,2.162,1.759,3.92,3.92,3.92
				c2.16,0,3.919-1.759,3.919-3.92C-0.802,285.953-2.56,284.194-4.721,284.194z"/>
			<path style="fill:#3D3280;" d="M-8.641,271.162c0,2.162,1.759,3.92,3.92,3.92c2.16,0,3.919-1.759,3.919-3.92
				c0-0.307-0.044-0.602-0.111-0.889c-2.086-0.756-4.205-1.445-6.351-2.069C-8.1,268.923-8.641,269.975-8.641,271.162z"/>
			<path style="fill:#3D3280;" d="M12.469,284.194c-2.162,0-3.92,1.758-3.92,3.92c0,2.162,1.759,3.92,3.92,3.92
				c2.161,0,3.919-1.759,3.919-3.92C16.388,285.953,14.63,284.194,12.469,284.194z"/>
			<path style="fill:#3D3280;" d="M30.084,301.81c-2.161,0-3.919,1.759-3.919,3.92c0,2.162,1.759,3.92,3.919,3.92
				c2.162,0,3.92-1.758,3.92-3.92C34.004,303.568,32.245,301.81,30.084,301.81z"/>
			<path style="fill:#3D3280;" d="M26.164,288.114c0,2.162,1.759,3.92,3.919,3.92c1.19,0,2.245-0.544,2.965-1.384
				c-1.933-1.738-3.933-3.402-5.994-4.993C26.507,286.332,26.164,287.18,26.164,288.114z"/>
			<path style="fill:#3D3280;" d="M47.699,371.609c-2.161,0-3.919,1.758-3.919,3.92c0,2.161,1.758,3.919,3.919,3.919
				c2.162,0,3.92-1.758,3.92-3.919C51.619,373.368,49.861,371.609,47.699,371.609z"/>
			<path style="fill:#3D3280;" d="M47.699,353.994c-2.161,0-3.919,1.758-3.919,3.92c0,2.161,1.758,3.919,3.919,3.919
				c2.162,0,3.92-1.759,3.92-3.919C51.619,355.752,49.861,353.994,47.699,353.994z"/>
			<path style="fill:#3D3280;" d="M47.699,337.041c-2.161,0-3.919,1.758-3.919,3.92c0,2.162,1.758,3.92,3.919,3.92
				c2.162,0,3.92-1.758,3.92-3.92C51.619,338.8,49.861,337.041,47.699,337.041z"/>
			<path style="fill:#3D3280;" d="M47.699,319.426c-2.161,0-3.919,1.758-3.919,3.92c0,2.162,1.758,3.92,3.919,3.92
				c2.162,0,3.92-1.758,3.92-3.92C51.619,321.184,49.861,319.426,47.699,319.426z"/>
			<path style="fill:#3D3280;" d="M65.315,371.609c-2.161,0-3.919,1.758-3.919,3.92c0,2.161,1.758,3.919,3.919,3.919
				c0.542,0,1.058-0.111,1.528-0.31c0.249-2.29,0.422-4.603,0.519-6.936C66.765,371.833,66.068,371.609,65.315,371.609z"/>
			<path style="fill:#3D3280;" d="M65.315,353.994c-2.161,0-3.919,1.758-3.919,3.92c0,2.161,1.758,3.919,3.919,3.919
				c0.708,0,1.364-0.203,1.938-0.533c-0.148-2.382-0.371-4.744-0.677-7.08C66.178,354.084,65.758,353.994,65.315,353.994z"/>
			<path style="fill:#3D3280;" d="M61.396,340.961c0,2.021,1.543,3.67,3.509,3.879c-0.539-2.386-1.163-4.739-1.864-7.059
				C62.049,338.493,61.396,339.65,61.396,340.961z"/>
			<path style="fill:#3D3280;" d="M47.699,309.65c0.597,0,1.158-0.145,1.665-0.385c-1.445-2.109-2.966-4.162-4.559-6.155
				c-0.63,0.696-1.025,1.609-1.025,2.62C43.78,307.892,45.539,309.65,47.699,309.65z"/>
			<path style="fill:#3D3280;" d="M-123.684,410.76c0-2.16-1.759-3.919-3.92-3.919c-1.69,0-3.121,1.082-3.67,2.586
				c0.743,1.694,1.529,3.366,2.359,5.011c0.412,0.148,0.849,0.243,1.311,0.243C-125.443,414.68-123.684,412.922-123.684,410.76z"/>
			<path style="fill:#3D3280;" d="M-127.604,397.064c2.162,0,3.92-1.758,3.92-3.92c0-2.161-1.759-3.919-3.92-3.919
				c-2.161,0-3.919,1.759-3.919,3.919C-131.523,395.306-129.765,397.064-127.604,397.064z"/>
			<path style="fill:#3D3280;" d="M-109.248,441.483c0.998,0.989,2.016,1.96,3.054,2.908
				C-106.559,442.918-107.748,441.771-109.248,441.483z"/>
			<path style="fill:#3D3280;" d="M-109.989,423.792c-2.161,0-3.919,1.759-3.919,3.92c0,2.162,1.758,3.92,3.919,3.92
				c2.162,0,3.92-1.758,3.92-3.92C-106.068,425.551-107.827,423.792-109.989,423.792z"/>
			<path style="fill:#3D3280;" d="M-109.989,406.841c-2.161,0-3.919,1.759-3.919,3.919c0,2.162,1.758,3.92,3.919,3.92
				c2.162,0,3.92-1.759,3.92-3.92C-106.068,408.599-107.827,406.841-109.989,406.841z"/>
			<path style="fill:#3D3280;" d="M-109.989,389.225c-2.161,0-3.919,1.759-3.919,3.919c0,2.162,1.758,3.92,3.919,3.92
				c2.162,0,3.92-1.758,3.92-3.92C-106.068,390.984-107.827,389.225-109.989,389.225z"/>
			<path style="fill:#3D3280;" d="M-74.757,459.023c-2.008,0-3.649,1.523-3.875,3.472c2.281,1.023,4.606,1.966,6.971,2.825
				c0.509-0.661,0.824-1.479,0.824-2.376C-70.837,460.782-72.596,459.023-74.757,459.023z"/>
			<path style="fill:#3D3280;" d="M-57.568,459.023c-2.162,0-3.92,1.759-3.92,3.92c0,2.162,1.758,3.92,3.92,3.92
				c2.162,0,3.92-1.759,3.92-3.92C-53.647,460.782-55.406,459.023-57.568,459.023z"/>
			<path style="fill:#3D3280;" d="M-39.952,459.023c-2.162,0-3.92,1.759-3.92,3.92c0,2.162,1.758,3.92,3.92,3.92
				c2.161,0,3.919-1.759,3.919-3.92C-36.033,460.782-37.791,459.023-39.952,459.023z"/>
			<path style="fill:#3D3280;" d="M-92.373,441.408c-2.162,0-3.92,1.759-3.92,3.92c0,2.162,1.759,3.92,3.92,3.92
				c2.162,0,3.92-1.759,3.92-3.92C-88.453,443.166-90.211,441.408-92.373,441.408z"/>
			<path style="fill:#3D3280;" d="M-92.373,423.792c-2.162,0-3.92,1.759-3.92,3.92c0,2.162,1.759,3.92,3.92,3.92
				c2.162,0,3.92-1.758,3.92-3.92C-88.453,425.551-90.211,423.792-92.373,423.792z"/>
			<path style="fill:#3D3280;" d="M-92.373,406.841c-2.162,0-3.92,1.759-3.92,3.919c0,2.162,1.759,3.92,3.92,3.92
				c2.162,0,3.92-1.759,3.92-3.92C-88.453,408.599-90.211,406.841-92.373,406.841z"/>
			<path style="fill:#3D3280;" d="M-92.373,389.225c-2.162,0-3.92,1.759-3.92,3.919c0,2.162,1.759,3.92,3.92,3.92
				c2.162,0,3.92-1.758,3.92-3.92C-88.453,390.984-90.211,389.225-92.373,389.225z"/>
			<path style="fill:#3D3280;" d="M-74.757,441.408c-2.162,0-3.92,1.759-3.92,3.92c0,2.162,1.758,3.92,3.92,3.92
				s3.92-1.759,3.92-3.92C-70.837,443.166-72.596,441.408-74.757,441.408z"/>
			<path style="fill:#3D3280;" d="M-57.568,441.408c-2.162,0-3.92,1.759-3.92,3.92c0,2.162,1.758,3.92,3.92,3.92
				c2.162,0,3.92-1.759,3.92-3.92C-53.647,443.166-55.406,441.408-57.568,441.408z"/>
			<path style="fill:#3D3280;" d="M-74.757,423.792c-2.162,0-3.92,1.759-3.92,3.92c0,2.162,1.758,3.92,3.92,3.92
				s3.92-1.758,3.92-3.92C-70.837,425.551-72.596,423.792-74.757,423.792z"/>
			<path style="fill:#3D3280;" d="M-74.757,406.841c-2.162,0-3.92,1.759-3.92,3.919c0,2.162,1.758,3.92,3.92,3.92
				s3.92-1.759,3.92-3.92C-70.837,408.599-72.596,406.841-74.757,406.841z"/>
			<path style="fill:#3D3280;" d="M-74.757,389.225c-2.162,0-3.92,1.759-3.92,3.919c0,2.162,1.758,3.92,3.92,3.92
				s3.92-1.758,3.92-3.92C-70.837,390.984-72.596,389.225-74.757,389.225z"/>
			<path style="fill:#3D3280;" d="M-57.568,423.792c-2.162,0-3.92,1.759-3.92,3.92c0,2.162,1.758,3.92,3.92,3.92
				c2.162,0,3.92-1.758,3.92-3.92C-53.647,425.551-55.406,423.792-57.568,423.792z"/>
			<path style="fill:#3D3280;" d="M-57.568,406.841c-2.162,0-3.92,1.759-3.92,3.919c0,2.162,1.758,3.92,3.92,3.92
				c2.162,0,3.92-1.759,3.92-3.92C-53.647,408.599-55.406,406.841-57.568,406.841z"/>
			<path style="fill:#3D3280;" d="M-57.568,389.225c-2.162,0-3.92,1.759-3.92,3.919c0,2.162,1.758,3.92,3.92,3.92
				c2.162,0,3.92-1.758,3.92-3.92C-53.647,390.984-55.406,389.225-57.568,389.225z"/>
			<path style="fill:#3D3280;" d="M-39.952,441.408c-2.162,0-3.92,1.759-3.92,3.92c0,2.162,1.758,3.92,3.92,3.92
				c2.161,0,3.919-1.759,3.919-3.92C-36.033,443.166-37.791,441.408-39.952,441.408z"/>
			<path style="fill:#3D3280;" d="M-39.952,423.792c-2.162,0-3.92,1.759-3.92,3.92c0,2.162,1.758,3.92,3.92,3.92
				c2.161,0,3.919-1.758,3.919-3.92C-36.033,425.551-37.791,423.792-39.952,423.792z"/>
			<path style="fill:#3D3280;" d="M-39.952,406.841c-2.162,0-3.92,1.759-3.92,3.919c0,2.162,1.758,3.92,3.92,3.92
				c2.161,0,3.919-1.759,3.919-3.92C-36.033,408.599-37.791,406.841-39.952,406.841z"/>
			<path style="fill:#3D3280;" d="M-39.952,389.225c-2.162,0-3.92,1.759-3.92,3.919c0,2.162,1.758,3.92,3.92,3.92
				c2.161,0,3.919-1.758,3.919-3.92C-36.033,390.984-37.791,389.225-39.952,389.225z"/>
			<path style="fill:#3D3280;" d="M-22.336,459.023c-2.162,0-3.92,1.759-3.92,3.92c0,2.162,1.758,3.92,3.92,3.92
				c2.161,0,3.919-1.759,3.919-3.92C-18.417,460.782-20.176,459.023-22.336,459.023z"/>
			<path style="fill:#3D3280;" d="M-4.721,459.023c-2.162,0-3.92,1.759-3.92,3.92c0,1.979,1.478,3.602,3.386,3.866
				c1.113-0.348,2.215-0.72,3.311-1.104c0.705-0.709,1.142-1.685,1.142-2.762C-0.802,460.782-2.56,459.023-4.721,459.023z"/>
			<path style="fill:#3D3280;" d="M9.003,461.151c1.362-0.662,2.709-1.351,4.037-2.07c-0.188-0.028-0.375-0.058-0.571-0.058
				C10.957,459.023,9.657,459.894,9.003,461.151z"/>
			<path style="fill:#3D3280;" d="M-22.336,441.408c-2.162,0-3.92,1.759-3.92,3.92c0,2.162,1.758,3.92,3.92,3.92
				c2.161,0,3.919-1.759,3.919-3.92C-18.417,443.166-20.176,441.408-22.336,441.408z"/>
			<path style="fill:#3D3280;" d="M-22.336,423.792c-2.162,0-3.92,1.759-3.92,3.92c0,2.162,1.758,3.92,3.92,3.92
				c2.161,0,3.919-1.758,3.919-3.92C-18.417,425.551-20.176,423.792-22.336,423.792z"/>
			<path style="fill:#3D3280;" d="M-22.336,406.841c-2.162,0-3.92,1.759-3.92,3.919c0,2.162,1.758,3.92,3.92,3.92
				c2.161,0,3.919-1.759,3.919-3.92C-18.417,408.599-20.176,406.841-22.336,406.841z"/>
			<path style="fill:#3D3280;" d="M-22.336,389.225c-2.162,0-3.92,1.759-3.92,3.919c0,2.162,1.758,3.92,3.92,3.92
				c2.161,0,3.919-1.758,3.919-3.92C-18.417,390.984-20.176,389.225-22.336,389.225z"/>
			<path style="fill:#3D3280;" d="M-4.721,441.408c-2.162,0-3.92,1.759-3.92,3.92c0,2.162,1.759,3.92,3.92,3.92
				c2.16,0,3.919-1.759,3.919-3.92C-0.802,443.166-2.56,441.408-4.721,441.408z"/>
			<path style="fill:#3D3280;" d="M12.469,441.408c-2.162,0-3.92,1.759-3.92,3.92c0,2.162,1.759,3.92,3.92,3.92
				c2.161,0,3.919-1.759,3.919-3.92C16.388,443.166,14.63,441.408,12.469,441.408z"/>
			<path style="fill:#3D3280;" d="M-4.721,423.792c-2.162,0-3.92,1.759-3.92,3.92c0,2.162,1.759,3.92,3.92,3.92
				c2.16,0,3.919-1.758,3.919-3.92C-0.802,425.551-2.56,423.792-4.721,423.792z"/>
			<path style="fill:#3D3280;" d="M-4.721,406.841c-2.162,0-3.92,1.759-3.92,3.919c0,2.162,1.759,3.92,3.92,3.92
				c2.16,0,3.919-1.759,3.919-3.92C-0.802,408.599-2.56,406.841-4.721,406.841z"/>
			<path style="fill:#3D3280;" d="M-4.721,389.225c-2.162,0-3.92,1.759-3.92,3.919c0,2.162,1.759,3.92,3.92,3.92
				c2.16,0,3.919-1.758,3.919-3.92C-0.802,390.984-2.56,389.225-4.721,389.225z"/>
			<path style="fill:#3D3280;" d="M12.469,423.792c-2.162,0-3.92,1.759-3.92,3.92c0,2.162,1.759,3.92,3.92,3.92
				c2.161,0,3.919-1.758,3.919-3.92C16.388,425.551,14.63,423.792,12.469,423.792z"/>
			<path style="fill:#3D3280;" d="M12.469,406.841c-2.162,0-3.92,1.759-3.92,3.919c0,2.162,1.759,3.92,3.92,3.92
				c2.161,0,3.919-1.759,3.919-3.92C16.388,408.599,14.63,406.841,12.469,406.841z"/>
			<path style="fill:#3D3280;" d="M12.469,389.225c-2.162,0-3.92,1.759-3.92,3.919c0,2.162,1.759,3.92,3.92,3.92
				c2.161,0,3.919-1.758,3.919-3.92C16.388,390.984,14.63,389.225,12.469,389.225z"/>
			<path style="fill:#3D3280;" d="M30.084,441.408c-2.161,0-3.919,1.759-3.919,3.92c0,1.571,0.935,2.92,2.272,3.545
				c1.852-1.48,3.653-3.02,5.398-4.621C33.363,442.615,31.87,441.408,30.084,441.408z"/>
			<path style="fill:#3D3280;" d="M30.084,423.792c-2.161,0-3.919,1.759-3.919,3.92c0,2.162,1.759,3.92,3.919,3.92
				c2.162,0,3.92-1.758,3.92-3.92C34.004,425.551,32.245,423.792,30.084,423.792z"/>
			<path style="fill:#3D3280;" d="M30.084,406.841c-2.161,0-3.919,1.759-3.919,3.919c0,2.162,1.759,3.92,3.919,3.92
				c2.162,0,3.92-1.759,3.92-3.92C34.004,408.599,32.245,406.841,30.084,406.841z"/>
			<path style="fill:#3D3280;" d="M30.084,389.225c-2.161,0-3.919,1.759-3.919,3.919c0,2.162,1.759,3.92,3.919,3.92
				c2.162,0,3.92-1.758,3.92-3.92C34.004,390.984,32.245,389.225,30.084,389.225z"/>
			<path style="fill:#3D3280;" d="M43.78,427.712c0,1.496,0.851,2.782,2.085,3.443c1.576-2.041,3.078-4.142,4.501-6.299
				c-0.701-0.655-1.635-1.064-2.668-1.064C45.539,423.792,43.78,425.551,43.78,427.712z"/>
			<path style="fill:#3D3280;" d="M47.699,406.841c-2.161,0-3.919,1.759-3.919,3.919c0,2.162,1.758,3.92,3.919,3.92
				c2.162,0,3.92-1.759,3.92-3.92C51.619,408.599,49.861,406.841,47.699,406.841z"/>
			<path style="fill:#3D3280;" d="M47.699,389.225c-2.161,0-3.919,1.759-3.919,3.919c0,2.162,1.758,3.92,3.919,3.92
				c2.162,0,3.92-1.758,3.92-3.92C51.619,390.984,49.861,389.225,47.699,389.225z"/>
			<path style="fill:#3D3280;" d="M61.396,393.144c0,1.471,0.824,2.741,2.026,3.411c0.693-2.406,1.299-4.848,1.819-7.323
				C63.115,389.273,61.396,391.009,61.396,393.144z"/>
		</g>
	</g>
</g>
</svg>
