<svg width="800" height="800" viewBox="0 0 800 800" fill="none" xmlns="http://www.w3.org/2000/svg">
<g clip-path="url(#clip0_405_2)">
<path d="M695.398 193.075C675.719 173.981 650.998 161.417 624.136 156.569C618.094 117.625 599.156 81.7797 569.488 53.8469C534.217 20.6438 487.664 2.35938 438.405 2.35938C380.113 2.35938 326.106 28.0125 290.619 71.7797C284.073 70.8766 277.45 70.4234 270.797 70.4234C237.5 70.4234 205.253 81.9531 179.994 102.891C158.553 120.664 143.245 144.23 135.966 170.319C92.3047 193.252 64.7922 237.394 64.7922 286.275C64.7922 342.819 101.73 391.156 153.466 409.905V465.938H205.639V418.241H223.422C223.391 419.177 223.356 420.112 223.356 421.053C223.356 455.17 244.15 484.517 273.727 497.098C275.117 518.287 285.197 537.133 300.431 550.111V585.886H352.605V568.253C370.717 567.597 387.231 560.602 400 549.416C412.769 560.602 429.281 567.598 447.395 568.253V585.886H499.569V550.111C514.803 537.133 524.881 518.287 526.273 497.098C555.852 484.517 576.644 455.17 576.644 421.053C576.644 420.112 576.609 419.177 576.578 418.241H594.363V465.936H646.536V409.905C698.273 391.158 735.209 342.822 735.209 286.275C735.206 251.083 721.069 217.983 695.398 193.075ZM373.913 492.052C373.913 505.339 363.102 516.148 349.816 516.148C339.617 516.148 330.898 509.772 327.386 500.803C342.567 496.712 356.448 488.336 367.181 476.484L328.509 441.459C322.664 447.916 314.652 451.47 305.953 451.47C289.178 451.47 275.533 437.823 275.533 421.05C275.533 420.867 275.555 420.686 275.559 420.505C284.975 424.245 295.224 426.325 305.955 426.325V374.152C289.18 374.152 275.534 360.505 275.534 343.731C275.534 333.345 280.855 324.072 288.945 318.567C297.497 329.941 309.205 338.972 323.034 344.161L341.359 295.311C332.005 291.802 325.722 282.728 325.722 272.733C325.722 259.444 336.534 248.634 349.82 248.634C363.106 248.634 373.916 259.447 373.916 272.734V492.052H373.913ZM494.05 451.472C485.352 451.472 477.341 447.917 471.494 441.461L432.822 476.486C443.555 488.334 457.436 496.714 472.617 500.805C469.105 509.773 460.386 516.15 450.188 516.15C436.897 516.148 426.088 505.337 426.088 492.052V272.733C426.088 259.444 436.899 248.634 450.184 248.634C463.472 248.634 474.283 259.445 474.283 272.733C474.283 282.73 468 291.803 458.645 295.311L476.97 344.161C490.8 338.973 502.508 329.942 511.059 318.567C519.15 324.072 524.47 333.345 524.47 343.731C524.47 360.505 510.823 374.152 494.05 374.152V426.325C504.783 426.325 515.031 424.245 524.447 420.505C524.45 420.687 524.473 420.867 524.473 421.05C524.472 437.825 510.825 451.472 494.05 451.472ZM598.894 366.066H573.552C575.552 358.956 576.645 351.47 576.645 343.731C576.645 309.928 555.936 280.378 526.277 267.713C523.68 227.989 490.555 196.461 450.186 196.461C430.981 196.461 413.424 203.613 400.002 215.37C386.577 203.613 369.022 196.461 349.817 196.461C309.448 196.461 276.323 227.989 273.727 267.713C244.067 280.378 223.358 309.928 223.358 343.731C223.358 351.472 224.452 358.956 226.452 366.066H201.113C154.714 366.066 116.967 330.272 116.967 286.277C116.967 254.155 137.133 225.298 168.339 212.764L181.991 207.281L184.361 192.761C190.895 152.761 228.053 122.597 270.797 122.597C279.013 122.597 287.136 123.673 294.941 125.794L313.139 130.739L323.541 115.011C348.584 77.1406 391.525 54.5344 438.405 54.5344C474.319 54.5344 508.17 67.7828 533.725 91.8375C558.959 115.594 573.272 147.258 574.027 180.997L574.591 206.238L599.836 206.5C645.713 206.977 683.034 242.766 683.034 286.278C683.034 330.272 645.291 366.066 598.894 366.066Z" fill="url(#paint0_linear_405_2)" stroke="url(#paint1_linear_405_2)" stroke-width="1.5625"/>
<path d="M153.466 518.113V544.2H130.319C120.081 519.742 95.9031 502.513 67.775 502.513C30.4031 502.513 0 532.916 0 570.286C0 607.656 30.4016 638.059 67.7734 638.059C95.9031 638.059 120.08 620.83 130.317 596.372H205.639V518.111H153.466V518.113ZM67.7734 585.884C59.1719 585.884 52.1734 578.886 52.1734 570.284C52.1734 561.683 59.1703 554.684 67.7734 554.684C76.3766 554.684 83.3734 561.683 83.3734 570.284C83.3734 578.886 76.375 585.884 67.7734 585.884Z" fill="url(#paint2_linear_405_2)" stroke="url(#paint3_linear_405_2)" stroke-width="1.5625"/>
<path d="M732.227 502.513C704.097 502.513 679.92 519.742 669.683 544.2H646.534V518.113H594.359V596.373H669.681C679.919 620.831 704.097 638.061 732.225 638.061C769.595 638.061 799.998 607.658 799.998 570.288C800 532.916 769.598 502.513 732.227 502.513ZM732.227 585.884C723.625 585.884 716.627 578.886 716.627 570.284C716.627 561.683 723.623 554.684 732.227 554.684C740.83 554.684 747.827 561.683 747.827 570.284C747.827 578.886 740.83 585.884 732.227 585.884Z" fill="url(#paint4_linear_405_2)" stroke="url(#paint5_linear_405_2)" stroke-width="1.5625"/>
<path d="M352.605 667.322V638.058H300.431V667.322C275.973 677.562 258.744 701.738 258.744 729.866C258.744 767.236 289.145 797.639 326.517 797.639C363.889 797.639 394.291 767.236 394.291 729.866C394.292 701.738 377.063 677.562 352.605 667.322ZM326.519 745.469C317.917 745.469 310.919 738.47 310.919 729.869C310.919 721.267 317.916 714.269 326.519 714.269C335.122 714.269 342.119 721.267 342.119 729.869C342.119 738.47 335.12 745.469 326.519 745.469Z" fill="url(#paint6_linear_405_2)" stroke="url(#paint7_linear_405_2)" stroke-width="1.5625"/>
<path d="M499.569 667.322V638.058H447.395V667.322C422.937 677.562 405.708 701.738 405.708 729.866C405.708 767.236 436.109 797.639 473.481 797.639C510.853 797.639 541.255 767.236 541.255 729.866C541.256 701.738 524.026 677.562 499.569 667.322ZM473.481 745.469C464.88 745.469 457.881 738.47 457.881 729.869C457.881 721.267 464.878 714.269 473.481 714.269C482.084 714.269 489.081 721.267 489.081 729.869C489.081 738.47 482.083 745.469 473.481 745.469Z" fill="url(#paint8_linear_405_2)" stroke="url(#paint9_linear_405_2)" stroke-width="1.5625"/>
</g>
<defs>
<linearGradient id="paint0_linear_405_2" x1="64.7922" y1="291.494" x2="735.193" y2="298.352" gradientUnits="userSpaceOnUse">
<stop stop-color="#F16BFA"/>
<stop offset="1" stop-color="#E58F51"/>
</linearGradient>
<linearGradient id="paint1_linear_405_2" x1="400.001" y1="2.35937" x2="400.001" y2="585.886" gradientUnits="userSpaceOnUse">
<stop stop-color="#F16BFA"/>
<stop offset="1" stop-color="#E58F51"/>
</linearGradient>
<linearGradient id="paint2_linear_405_2" x1="4.45947e-09" y1="569.675" x2="205.618" y2="572.453" gradientUnits="userSpaceOnUse">
<stop stop-color="#F16BFA"/>
<stop offset="1" stop-color="#E58F51"/>
</linearGradient>
<linearGradient id="paint3_linear_405_2" x1="102.82" y1="502.513" x2="102.82" y2="638.059" gradientUnits="userSpaceOnUse">
<stop stop-color="#F16BFA"/>
<stop offset="1" stop-color="#E58F51"/>
</linearGradient>
<linearGradient id="paint4_linear_405_2" x1="594.359" y1="569.676" x2="799.977" y2="572.454" gradientUnits="userSpaceOnUse">
<stop stop-color="#F16BFA"/>
<stop offset="1" stop-color="#E58F51"/>
</linearGradient>
<linearGradient id="paint5_linear_405_2" x1="697.179" y1="502.513" x2="697.179" y2="638.061" gradientUnits="userSpaceOnUse">
<stop stop-color="#F16BFA"/>
<stop offset="1" stop-color="#E58F51"/>
</linearGradient>
<linearGradient id="paint6_linear_405_2" x1="258.744" y1="717.13" x2="394.294" y2="718.155" gradientUnits="userSpaceOnUse">
<stop stop-color="#F16BFA"/>
<stop offset="1" stop-color="#E58F51"/>
</linearGradient>
<linearGradient id="paint7_linear_405_2" x1="326.517" y1="638.058" x2="326.517" y2="797.639" gradientUnits="userSpaceOnUse">
<stop stop-color="#F16BFA"/>
<stop offset="1" stop-color="#E58F51"/>
</linearGradient>
<linearGradient id="paint8_linear_405_2" x1="405.708" y1="717.13" x2="541.258" y2="718.155" gradientUnits="userSpaceOnUse">
<stop stop-color="#F16BFA"/>
<stop offset="1" stop-color="#E58F51"/>
</linearGradient>
<linearGradient id="paint9_linear_405_2" x1="473.481" y1="638.058" x2="473.481" y2="797.639" gradientUnits="userSpaceOnUse">
<stop stop-color="#F16BFA"/>
<stop offset="1" stop-color="#E58F51"/>
</linearGradient>
<clipPath id="clip0_405_2">
<rect width="800" height="800" fill="white"/>
</clipPath>
</defs>
</svg>
