<svg width="800" height="650" viewBox="0 0 800 650" fill="none" xmlns="http://www.w3.org/2000/svg">
<path fill-rule="evenodd" clip-rule="evenodd" d="M62.5 0C28 0 0 28 0 62.5V487.5C0 522 28 550 62.5 550H250C294.8 550 323.75 560.25 340.45 572.4C356.3 583.9 362.5 597.9 362.5 612.5C362.5 622.446 366.451 631.984 373.483 639.016C380.516 646.049 390.054 650 400 650C409.946 650 419.484 646.049 426.516 639.016C433.549 631.984 437.5 622.446 437.5 612.5C437.5 597.9 443.7 583.9 459.55 572.4C476.25 560.25 505.2 550 550 550H737.5C772 550 800 522 800 487.5V62.5C800 28 772 0 737.5 0H550C492.3 0 444.7 17.7 411.4 50C407.35 54 403.55 58.05 400 62.3C396.422 57.9993 392.617 53.8934 388.6 50C355.3 17.7 307.7 0 250 0H62.5ZM437.5 498.35C468 482.9 506.1 475 550 475H725V75H550C507.7 75 480.3 87.65 463.6 103.85C446.85 120.1 437.5 143.2 437.5 170.85V498.35ZM362.5 498.35V170.85C362.5 143.2 353.15 120.1 336.4 103.85C319.7 87.65 292.3 75 250 75H75V475H250C293.9 475 332 482.9 362.5 498.35Z" fill="url(#paint0_linear_445_7)"/>
<defs>
<linearGradient id="paint0_linear_445_7" x1="800" y1="324.233" x2="-2.28592e-05" y2="325.767" gradientUnits="userSpaceOnUse">
<stop stop-color="#F16BFA"/>
<stop offset="1" stop-color="#E58F51"/>
</linearGradient>
</defs>
</svg>
