<svg width="170" height="200" viewBox="0 0 170 200" fill="none" xmlns="http://www.w3.org/2000/svg">
<path d="M144.382 4.11855C164.805 9.66188 171.215 26.2921 169.518 41.2591C167.837 56.0911 152.002 69.3048 128.783 68.4483C135.106 68.9417 155.002 76.2708 159.045 93.9207C163.235 112.214 153.864 123.511 142.287 129.398C124.121 138.635 104.06 138.609 86.7783 137.5C97.3996 143.411 112.609 154.491 114.532 171.527C116.454 188.564 101.964 204.787 72.6372 198.69C43.3108 192.592 -12.3545 167.5 2.46318 124.409C8.40503 107.13 27.8698 100.614 39.1211 98.3554C43.9918 97.3776 58.4974 95.0294 78.9209 95.0294C54.4344 92.673 16.3949 80.6166 14.5081 53.4543C10.7345 -0.870216 107.839 -5.79979 144.382 4.11855Z" fill="url(#paint0_linear_2002_2786)"/>
<defs>
<linearGradient id="paint0_linear_2002_2786" x1="84.889" y1="0" x2="84.889" y2="200" gradientUnits="userSpaceOnUse">
<stop stop-color="#F16BFA"/>
<stop offset="1" stop-color="#E58F51"/>
</linearGradient>
</defs>
</svg>
