<svg width="800" height="800" viewBox="0 0 800 800" fill="none" xmlns="http://www.w3.org/2000/svg">
<path fill-rule="evenodd" clip-rule="evenodd" d="M400.006 288.889C338.642 288.889 288.896 338.635 288.896 400C288.896 461.364 338.642 511.111 400.006 511.111C461.372 511.111 511.117 461.364 511.117 400C511.117 338.635 461.372 288.889 400.006 288.889ZM344.45 400C344.45 369.317 369.325 344.444 400.006 344.444C430.689 344.444 455.561 369.317 455.561 400C455.561 430.683 430.689 455.556 400.006 455.556C369.325 455.556 344.45 430.683 344.45 400Z" fill="url(#paint0_linear_405_26)"/>
<path fill-rule="evenodd" clip-rule="evenodd" d="M380.186 80.5555C341.273 80.5555 306.836 107.429 299.214 146.001L297.018 157.117C291.802 183.511 262.832 200.85 234.586 191.337L223.563 187.624C186.735 175.221 145.52 189.713 125.51 223.315L105.692 256.593C85.4925 290.513 93.1764 333.469 123.313 358.728L132.143 366.128C153.594 384.108 153.594 415.892 132.143 433.872L123.313 441.272C93.1764 466.531 85.4925 509.486 105.692 543.406L125.509 576.683C145.52 610.286 186.736 624.778 223.564 612.375L234.585 608.661C262.831 599.147 291.803 616.486 297.018 642.881L299.214 653.997C306.836 692.569 341.273 719.444 380.186 719.444H419.822C458.739 719.444 493.175 692.569 500.797 653.994L502.992 642.883C508.206 616.489 537.178 599.147 565.425 608.661L576.447 612.375C613.275 624.778 654.492 610.286 674.503 576.683L694.32 543.408C714.52 509.489 706.833 466.531 676.697 441.272L667.867 433.872C646.414 415.894 646.414 384.106 667.867 366.128L676.697 358.728C706.833 333.469 714.52 290.512 694.32 256.592L674.503 223.314C654.492 189.713 613.278 175.221 576.45 187.623L565.422 191.337C537.178 200.85 508.206 183.509 502.992 157.116L500.797 146.004C493.175 107.431 458.739 80.5555 419.822 80.5555H380.186ZM353.717 156.771C355.969 145.371 366.619 136.111 380.186 136.111H419.822C433.392 136.111 444.042 145.371 446.294 156.772L448.489 167.883C460.531 228.836 524.747 263.657 583.153 243.987L594.181 240.273C606.931 235.98 620.539 241.276 626.769 251.74L646.586 285.018C652.628 295.163 650.578 308.131 641.011 316.149L632.183 323.548C584.236 363.731 584.236 436.269 632.183 476.453L641.011 483.85C650.578 491.869 652.628 504.836 646.586 514.983L626.769 548.258C620.539 558.722 606.931 564.019 594.181 559.725L583.156 556.011C524.747 536.339 460.531 571.161 448.489 632.117L446.294 643.228C444.042 654.628 433.392 663.889 419.822 663.889H380.186C366.619 663.889 355.969 654.631 353.717 643.228L351.519 632.111C339.476 571.158 275.259 536.339 216.851 556.014L205.831 559.725C193.081 564.019 179.473 558.722 173.242 548.258L153.425 514.981C147.383 504.836 149.433 491.869 158.999 483.85L167.829 476.45C215.773 436.267 215.773 363.733 167.829 323.55L158.999 316.149C149.433 308.131 147.383 295.164 153.425 285.019L173.243 251.741C179.474 241.277 193.081 235.98 205.831 240.274L216.854 243.987C275.261 263.657 339.476 228.839 351.519 167.887L353.717 156.771Z" fill="url(#paint1_linear_405_26)"/>
<defs>
<linearGradient id="paint0_linear_405_26" x1="283.825" y1="395.652" x2="516.182" y2="393.561" gradientUnits="userSpaceOnUse">
<stop stop-color="#F16BFA"/>
<stop offset="1" stop-color="#E58F51"/>
</linearGradient>
<linearGradient id="paint1_linear_405_26" x1="80.5" y1="387.5" x2="719.5" y2="382" gradientUnits="userSpaceOnUse">
<stop stop-color="#F16BFA"/>
<stop offset="1" stop-color="#E58F51"/>
</linearGradient>
</defs>
</svg>
