<svg width="6139" height="6038" viewBox="0 0 6139 6038" fill="none" xmlns="http://www.w3.org/2000/svg">
<path d="M5446.07 6.33211C5445.13 14.3117 5351.61 816.02 5163.65 1769.12C5053.36 2328.3 4932.66 2829.44 4804.83 3258.46C4645.65 3793.03 4475.17 4215.95 4298.2 4515.62C4286.02 4536.26 4273.97 4556.23 4262.12 4575.45C4238.02 4614.64 4214.63 4650.92 4192.01 4684.32C4177.15 4650.89 4162.22 4614.9 4147.3 4576.49C4159.16 4557.23 4171.14 4537.33 4183.32 4516.69C4194.92 4497.05 4206.45 4476.95 4217.95 4456.24C4382.58 4161.19 4541.21 3759.08 4689.95 3259.53C4817.78 2830.47 4938.48 2329.37 5048.77 1770.15C5236.76 817.087 5330.28 15.3455 5331.19 7.3336L5446.07 6.2998V6.33211Z" fill="#E58F51"/>
<path d="M5676.99 4.2002C5676.06 12.2121 5582.53 813.953 5394.57 1766.98C5284.28 2326.24 5163.52 2827.3 5035.75 3256.36C4876.58 3790.9 4706.07 4213.85 4529.09 4513.52C4465.61 4620.91 4407.11 4709.23 4353.19 4778.85C4329.83 4809.03 4307.34 4835.68 4285.67 4858.81C4269.71 4835.65 4253.88 4809.09 4238.08 4779.47C4260.31 4750.75 4283.31 4718.89 4307.09 4683.81C4341.01 4633.89 4376.48 4577.49 4413.66 4514.59C4590.64 4214.92 4761.12 3792 4920.35 3257.46C5048.12 2828.4 5168.85 2327.3 5279.14 1768.08C5467.07 814.955 5560.63 13.2136 5561.5 5.2663L5676.96 4.2002H5676.99Z" fill="#E58F51"/>
<path d="M5907.89 2.10059C5906.95 10.0802 5813.42 811.789 5625.47 1764.88C5515.17 2324.14 5394.41 2825.2 5266.64 3254.26C5107.47 3788.8 4936.96 4211.72 4759.99 4511.39C4639.84 4714.82 4537.3 4849.89 4450.33 4918.67C4428.36 4936.09 4407.36 4949.27 4387.33 4958.25C4369.73 4949.46 4352.41 4936.47 4335.22 4919.48C4356.19 4902.88 4378 4882.43 4400.74 4858.1C4472.53 4781.57 4553.45 4666.62 4644.56 4512.42C4821.53 4212.75 4992.01 3789.8 5151.18 3255.26C5279.02 2826.21 5399.71 2325.1 5510 1765.92C5697.99 812.855 5791.52 11.1463 5792.42 3.16669L5907.89 2.10059Z" fill="#E58F51"/>
<path d="M6138.2 0C6137.26 7.97961 6043.73 809.721 5855.78 1762.78C5745.48 2322 5624.76 2823.1 5496.95 3252.16C5337.75 3786.7 5167.27 4209.65 4990.3 4509.32C4811.8 4811.42 4672.24 4962.77 4564.82 4970.3C4562.37 4970.46 4559.91 4970.56 4557.49 4970.59L4442.61 4971.62C4445.03 4971.62 4447.49 4971.49 4449.94 4971.33C4557.36 4963.77 4696.92 4812.45 4875.41 4510.35C5052.39 4210.68 5222.87 3787.73 5382.07 3253.19C5509.87 2824.14 5630.6 2323.04 5740.9 1763.82C5928.85 810.754 6022.41 9.01341 6023.32 1.0338L6138.2 0Z" fill="#E58F51"/>
<path d="M3864.56 4976.92L3750.51 4977.95C3744.73 4977.99 3739.01 4977.66 3733.42 4976.86C3543.27 4949.46 3390.14 4432.82 3178.15 3717.79C3030.73 3220.63 2847.27 2601.84 2588.75 1924.31C2551.31 1826.23 2511.61 1741.27 2469.9 1670.03C2454.01 1642.9 2437.85 1617.76 2421.47 1594.63C2443.28 1571.34 2464.96 1549.95 2486.47 1530.47C2503.34 1549.47 2519.94 1570.56 2536.32 1593.6C2595.93 1677.46 2651.98 1787.89 2703.6 1923.25C2962.15 2600.8 3145.58 3219.56 3293.03 3716.72C3490.68 4383.59 3637.25 4877.87 3810.31 4963.71H3810.35C3822.88 4969.88 3835.48 4973.98 3848.31 4975.79C3853.57 4976.56 3859.03 4976.95 3864.52 4976.95L3864.56 4976.92Z" fill="#EA7F9C"/>
<path d="M4095.32 4974.79L3980.82 4975.85C3975.04 4975.89 3969.32 4975.5 3963.74 4974.69C3950.81 4972.82 3938.15 4968.71 3925.52 4962.48C3907.97 4953.76 3890.72 4940.83 3873.63 4923.97C3722.28 4774.43 3586.04 4314.64 3408.46 3715.66C3261.04 3218.43 3077.61 2599.71 2819.06 1922.12C2753.13 1749.41 2680.08 1617.31 2601.64 1529.08C2596.48 1523.3 2591.31 1517.68 2586.1 1512.22C2574.31 1499.94 2562.39 1488.57 2550.28 1478.13C2571.18 1462.72 2591.98 1449.25 2612.56 1437.65C2630.53 1448.8 2648.17 1461.88 2665.48 1476.84C2677.66 1487.31 2689.71 1498.78 2701.57 1511.12C2785.85 1598.99 2864.23 1736.87 2934.53 1921.05C3193.07 2598.58 3376.51 3217.37 3523.92 3714.53C3681.9 4247.45 3807.21 4670.14 3939.54 4862.27C3955.85 4885.95 3972.26 4906.14 3988.87 4922.58C4006.02 4939.57 4023.37 4952.56 4040.98 4961.38C4053.58 4967.65 4066.34 4971.72 4079.23 4973.59C4084.56 4974.37 4089.92 4974.69 4095.38 4974.69L4095.32 4974.79Z" fill="#EA7F9C"/>
<path d="M4326.37 4972.69L4211.75 4973.72C4205.97 4973.82 4200.25 4973.43 4194.66 4972.62C4181.74 4970.75 4169.01 4966.65 4156.41 4960.41H4156.38C4138.77 4951.62 4121.49 4938.6 4104.33 4921.61C4087.63 4905.07 4071.15 4884.81 4054.74 4860.94C4038.91 4837.91 4023.15 4811.48 4007.41 4782.02C3892.02 4565.73 3778.33 4182.29 3639.38 3713.56C3491.97 3216.4 3308.5 2597.64 3049.99 1920.08C2979.69 1735.94 2901.32 1598.02 2817.03 1510.15C2788.18 1480.1 2758.43 1455.55 2727.74 1436.56C2709.93 1425.44 2691.78 1416.23 2673.4 1408.9C2693.33 1401.18 2713.1 1395.37 2732.65 1391.42C2751.54 1394.95 2770.22 1400.4 2788.57 1407.71C2838.74 1427.67 2886.78 1461.56 2932.46 1509.12C3016.75 1596.96 3095.12 1734.87 3165.42 1919.02C3423.96 2596.57 3607.4 3215.33 3754.81 3712.55C3875.28 4118.9 3976.72 4461.18 4076.77 4685.94C4092.02 4720.31 4107.27 4751.87 4122.55 4780.53C4138.35 4810.22 4154.21 4836.71 4170.17 4859.87C4186.52 4883.72 4203.03 4904 4219.7 4920.58C4236.85 4937.57 4254.2 4950.56 4271.84 4959.34C4284.44 4965.61 4297.13 4969.68 4310.06 4971.56C4315.39 4972.33 4320.85 4972.72 4326.34 4972.72L4326.37 4972.69Z" fill="#EA7F9C"/>
<path d="M4555.97 4970.56L4442.67 4971.62C4436.89 4971.65 4431.17 4971.27 4425.58 4970.52C4412.66 4968.65 4399.93 4964.55 4387.33 4958.25C4369.73 4949.46 4352.41 4936.47 4335.22 4919.48C4318.52 4902.94 4302.05 4882.62 4285.63 4858.78C4269.67 4835.61 4253.84 4809.06 4238.05 4779.43C4222.67 4750.65 4207.32 4718.86 4192.01 4684.32C4177.15 4650.89 4162.22 4614.9 4147.3 4576.49C4061.46 4356.38 3972.68 4057.13 3870.27 3711.46C3722.86 3214.3 3539.43 2595.51 3280.88 1917.98C3210.65 1733.81 3132.21 1595.92 3047.92 1508.05C2968.9 1425.67 2882.74 1384.38 2790.6 1385.25L2905.48 1384.22C2997.59 1383.38 3083.78 1424.64 3162.8 1506.98C3247.09 1594.86 3325.46 1732.77 3395.76 1916.92C3654.31 2594.47 3837.74 3213.23 3985.15 3710.39C4070.18 3997.17 4145.75 4252.04 4217.98 4456.24C4232.85 4498.14 4247.54 4537.98 4262.15 4575.45C4277.23 4614.09 4292.19 4650.24 4307.08 4683.77C4322.46 4718.31 4337.81 4750.07 4353.19 4778.85C4368.98 4808.51 4384.78 4835 4400.77 4858.13C4417.18 4881.94 4433.66 4902.23 4450.36 4918.7C4467.52 4935.67 4484.87 4948.65 4502.47 4957.38C4515.01 4963.55 4527.64 4967.65 4540.46 4969.46C4545.57 4970.17 4550.77 4970.56 4556 4970.56H4555.97Z" fill="#EA7F9C"/>
<path d="M2155.79 1396.59C2051.18 1417.56 1940.6 1492.22 1826.52 1619.15C1713.29 1745.11 1592.85 1926.45 1468.41 2158.15C1260.46 2545.33 1036.96 3080.16 804.003 3747.77C408.026 4882.55 117.756 6024.74 114.881 6036.17L0 6037.24C2.84294 6025.84 293.178 4883.62 689.122 3748.8C922.081 3081.26 1145.61 2546.43 1353.53 2159.18C1477.94 1927.51 1598.41 1746.15 1711.64 1620.22C1840.29 1477.07 1964.44 1400.37 2080.68 1392.2C2086.65 1391.81 2092.56 1391.55 2098.44 1391.52C2117.83 1391.36 2136.95 1393.01 2155.79 1396.59Z" fill="#F16BFA"/>
<path d="M2386.26 1394.56C2366.71 1398.47 2346.94 1404.31 2327.01 1412.04C2307.05 1419.69 2286.85 1429.29 2266.53 1440.69C2198.59 1478.85 2128.68 1537.77 2057.45 1617.08C1944.18 1742.98 1823.71 1924.38 1699.3 2156.05C1491.38 2543.27 1267.89 3078.1 1034.93 3745.67C638.951 4880.49 348.68 6022.7 345.773 6034.11L230.343 6035.17C233.186 6023.77 523.521 4881.52 919.497 3746.73C1152.42 3079.13 1375.95 2544.3 1583.87 2157.11C1708.28 1925.44 1828.75 1744.08 1941.99 1618.12C2034.77 1514.96 2125.16 1446.28 2211.97 1412.97C2231.77 1405.35 2251.45 1399.57 2270.86 1395.62C2284.37 1392.91 2297.74 1391.07 2311.02 1390.13C2317 1389.71 2322.91 1389.49 2328.79 1389.45C2348.2 1389.29 2367.39 1390.97 2386.29 1394.56H2386.26Z" fill="#F16BFA"/>
<path d="M2617.22 1392.46C2597.7 1396.37 2577.93 1402.21 2558 1409.94C2537.9 1417.66 2517.58 1427.28 2497.13 1438.79C2476.52 1450.38 2455.78 1463.89 2434.82 1479.26C2413.85 1494.67 2392.69 1512.02 2371.4 1531.25C2343.94 1555.99 2316.25 1583.94 2288.31 1614.98C2175.07 1740.94 2054.64 1922.31 1930.19 2153.98C1722.27 2541.17 1498.78 3076 1265.82 3743.6C869.842 4878.39 579.572 6020.63 576.664 6032.04L461.234 6033.07C464.077 6021.67 754.412 4879.45 1150.39 3744.67C1383.32 3077.06 1606.84 2542.23 1814.76 2155.04C1939.17 1923.31 2059.64 1742.01 2172.88 1616.05C2222.6 1560.77 2271.61 1515.38 2319.74 1480.07C2340.58 1464.73 2361.22 1451.35 2381.67 1439.85C2402.15 1428.32 2422.44 1418.69 2442.5 1410.97C2462.44 1403.25 2482.21 1397.43 2501.75 1393.49C2515.26 1390.78 2528.63 1388.94 2541.91 1388C2547.89 1387.61 2553.8 1387.42 2559.68 1387.32C2579.16 1387.16 2598.32 1388.84 2617.22 1392.49V1392.46Z" fill="#F16BFA"/>
<path d="M2905.45 1384.19C2899.54 1384.22 2893.6 1384.45 2887.65 1384.83C2874.44 1385.77 2861.19 1387.55 2847.79 1390.29C2828.27 1394.2 2808.5 1400.02 2788.57 1407.68C2768.47 1415.4 2748.19 1425.02 2727.74 1436.52C2707.16 1448.06 2686.38 1461.53 2665.45 1476.91C2644.35 1492.41 2623.06 1509.83 2601.64 1529.11C2580 1548.66 2558.23 1570.14 2536.29 1593.56C2530.41 1599.86 2524.53 1606.29 2518.62 1612.85C2502.53 1630.78 2486.25 1649.81 2469.9 1669.97C2370.98 1791.44 2267.18 1953.1 2160.47 2151.85C1952.55 2539.04 1729.06 3073.86 1496.1 3741.47C1100.12 4876.25 809.85 6018.44 806.943 6029.87L692.094 6030.94C694.937 6019.54 985.24 4877.32 1381.22 3742.5C1614.18 3074.96 1837.67 2540.13 2045.59 2152.88C2170.07 1921.21 2290.5 1739.85 2403.74 1613.89C2409.65 1607.33 2415.53 1600.9 2421.44 1594.6C2443.25 1571.31 2464.93 1549.92 2486.44 1530.44C2507.86 1511.09 2529.15 1493.64 2550.25 1478.17C2571.15 1462.76 2591.95 1449.29 2612.53 1437.69C2632.98 1426.19 2653.24 1416.56 2673.36 1408.84C2693.3 1401.12 2713.07 1395.3 2732.61 1391.36C2746.12 1388.65 2759.49 1386.81 2772.77 1385.87C2778.68 1385.48 2784.63 1385.22 2790.54 1385.19L2905.42 1384.16L2905.45 1384.19Z" fill="#F16BFA"/>
</svg>
