<svg width="800" height="800" viewBox="0 0 800 800" fill="none" xmlns="http://www.w3.org/2000/svg">
<path d="M697 370.667C697 533.667 578.667 686.333 417 731C406 734 394 734 383 731C221.332 686.333 102.999 533.667 102.999 370.667V224.332C102.999 196.999 123.666 165.999 149.333 155.666L335 79.667C376.667 62.667 423.667 62.667 465.333 79.667L651 155.666C676.333 165.999 697.333 196.999 697.333 224.332L697 370.667Z" stroke="url(#paint0_linear_445_2)" stroke-width="50" stroke-linecap="round" stroke-linejoin="round"/>
<path d="M400 416.667C436.82 416.667 466.667 386.82 466.667 350C466.667 313.181 436.82 283.333 400 283.333C363.18 283.333 333.333 313.181 333.333 350C333.333 386.82 363.18 416.667 400 416.667Z" stroke="url(#paint1_linear_445_2)" stroke-width="50" stroke-miterlimit="10" stroke-linecap="round" stroke-linejoin="round"/>
<path d="M400 416.667V516.667" stroke="url(#paint2_linear_445_2)" stroke-width="50" stroke-miterlimit="10" stroke-linecap="round" stroke-linejoin="round"/>
<defs>
<linearGradient id="paint0_linear_445_2" x1="400.166" y1="66.917" x2="400.166" y2="733.25" gradientUnits="userSpaceOnUse">
<stop stop-color="#F16BFA"/>
<stop offset="1" stop-color="#E58F51"/>
</linearGradient>
<linearGradient id="paint1_linear_445_2" x1="400" y1="283.333" x2="400" y2="416.667" gradientUnits="userSpaceOnUse">
<stop stop-color="#F16BFA"/>
<stop offset="1" stop-color="#E58F51"/>
</linearGradient>
<linearGradient id="paint2_linear_445_2" x1="400.5" y1="416.667" x2="400.5" y2="516.667" gradientUnits="userSpaceOnUse">
<stop stop-color="#F16BFA"/>
<stop offset="1" stop-color="#E58F51"/>
</linearGradient>
</defs>
</svg>
