<svg width="800" height="800" viewBox="0 0 800 800" fill="none" xmlns="http://www.w3.org/2000/svg">
<g clip-path="url(#clip0_405_32)">
<path d="M563.098 286.958C562.186 281.796 557.264 278.348 552.096 279.256L517.996 285.266C513.902 275.66 508.672 266.662 502.468 258.43L524.746 231.886C526.364 229.956 527.148 227.464 526.934 224.954C526.712 222.442 525.504 220.126 523.574 218.504L493.748 193.475C491.82 191.857 489.322 191.071 486.812 191.289C484.304 191.507 481.986 192.717 480.364 194.645L458.103 221.176C448.971 216.524 439.203 212.93 428.963 210.564V175.939C428.963 170.691 424.713 166.437 419.467 166.437H380.535C375.291 166.437 371.039 170.691 371.039 175.939V210.564C360.795 212.93 351.031 216.522 341.895 221.176L319.638 194.645C316.262 190.629 310.274 190.103 306.258 193.477L276.432 218.504C274.5 220.126 273.296 222.442 273.072 224.954C272.858 227.464 273.64 229.956 275.26 231.886L297.536 258.43C291.332 266.662 286.104 275.664 282.01 285.266L247.91 279.256C242.752 278.348 237.82 281.796 236.908 286.958L230.146 325.304C229.71 327.784 230.274 330.342 231.722 332.402C233.166 334.467 235.368 335.869 237.85 336.305L271.976 342.327C272.53 352.895 274.37 363.123 277.336 372.863L247.348 390.177C245.164 391.439 243.576 393.507 242.922 395.941C242.272 398.379 242.614 400.969 243.872 403.149L263.338 436.869C264.598 439.053 266.672 440.641 269.108 441.293C269.914 441.511 270.74 441.619 271.566 441.619C273.218 441.619 274.856 441.187 276.312 440.343L306.33 423.015C313.396 430.567 321.366 437.269 330.067 442.949L318.214 475.504C317.354 477.872 317.464 480.482 318.53 482.766C319.596 485.05 321.522 486.81 323.89 487.676L360.479 500.992C361.527 501.372 362.629 501.564 363.729 501.564C365.101 501.564 366.471 501.266 367.739 500.676C370.023 499.612 371.789 497.684 372.651 495.314L384.501 462.757C389.581 463.371 394.755 463.695 400.001 463.695C405.247 463.695 410.421 463.371 415.501 462.757L427.353 495.314C428.217 497.684 429.979 499.606 432.263 500.676C433.535 501.266 434.899 501.564 436.277 501.564C437.375 501.564 438.479 501.37 439.523 500.992L476.114 487.676C478.484 486.81 480.406 485.05 481.476 482.762C482.54 480.478 482.652 477.872 481.79 475.504L469.936 442.949C478.64 437.269 486.606 430.573 493.672 423.015L523.69 440.343C525.148 441.187 526.784 441.617 528.436 441.617C529.26 441.617 530.088 441.511 530.894 441.293C533.33 440.641 535.4 439.053 536.662 436.869L556.126 403.149C557.388 400.971 557.73 398.379 557.08 395.941C556.426 393.507 554.834 391.435 552.654 390.177L522.666 372.863C525.626 363.123 527.47 352.897 528.026 342.327L562.152 336.305C564.634 335.869 566.834 334.467 568.276 332.402C569.728 330.34 570.288 327.784 569.852 325.304L563.098 286.958ZM400.003 386.237C371.155 386.237 347.769 362.853 347.769 334.005C347.769 305.156 371.155 281.772 400.003 281.772C428.851 281.772 452.237 305.156 452.237 334.005C452.237 362.853 428.851 386.237 400.003 386.237Z" fill="url(#paint0_linear_405_32)" stroke="url(#paint1_linear_405_32)" stroke-width="2.00002"/>
<path d="M733.373 49.9424H66.6325C29.8902 49.9424 0 79.8346 0 116.577V551.124C0 587.866 29.8902 617.759 66.6325 617.759H281.458L240.684 707.669C236.474 716.955 237.266 727.743 242.79 736.312C248.314 744.882 257.81 750.058 268.004 750.058H531.998C531.998 750.058 532.026 750.058 532.038 750.058C548.608 750.058 562.038 736.628 562.038 720.057C562.038 715.071 560.828 710.361 558.666 706.225L518.542 617.759H733.368C770.11 617.759 800 587.866 800 551.124V116.577C800.006 79.8346 770.116 49.9424 733.373 49.9424ZM740.006 551.126C740.006 554.784 737.03 557.758 733.373 557.758H66.6325C62.9765 557.758 60.0005 554.784 60.0005 551.126V116.577C60.0005 112.919 62.9765 109.943 66.6325 109.943H733.372C737.028 109.943 740.004 112.919 740.004 116.577L740.006 551.126Z" fill="url(#paint2_linear_405_32)" stroke="url(#paint3_linear_405_32)" stroke-width="2.00002"/>
</g>
<defs>
<linearGradient id="paint0_linear_405_32" x1="231.914" y1="301.929" x2="569.585" y2="306.08" gradientUnits="userSpaceOnUse">
<stop stop-color="#F16BFA"/>
<stop offset="1" stop-color="#E58F51"/>
</linearGradient>
<linearGradient id="paint1_linear_405_32" x1="399.999" y1="166.437" x2="399.999" y2="501.564" gradientUnits="userSpaceOnUse">
<stop stop-color="#F16BFA"/>
<stop offset="1" stop-color="#E58F51"/>
</linearGradient>
<linearGradient id="paint2_linear_405_32" x1="4.5" y1="333" x2="799" y2="344" gradientUnits="userSpaceOnUse">
<stop stop-color="#F16BFA"/>
<stop offset="1" stop-color="#E58F51"/>
</linearGradient>
<linearGradient id="paint3_linear_405_32" x1="400" y1="49.9424" x2="400" y2="750.058" gradientUnits="userSpaceOnUse">
<stop stop-color="#F16BFA"/>
<stop offset="1" stop-color="#E58F51"/>
</linearGradient>
<clipPath id="clip0_405_32">
<rect width="800" height="800" fill="white"/>
</clipPath>
</defs>
</svg>
