<svg id="visual" viewBox="0 0 900 600" width="900" height="600" xmlns="http://www.w3.org/2000/svg" xmlns:xlink="http://www.w3.org/1999/xlink" version="1.1"><rect x="0" y="0" width="900" height="600" fill="#ffffff"></rect><defs><linearGradient id="grad1_0" x1="33.3%" y1="100%" x2="100%" y2="0%"><stop offset="20%" stop-color="#6c45d5" stop-opacity="1"></stop><stop offset="80%" stop-color="#6c45d5" stop-opacity="1"></stop></linearGradient></defs><defs><linearGradient id="grad1_1" x1="33.3%" y1="100%" x2="100%" y2="0%"><stop offset="20%" stop-color="#6c45d5" stop-opacity="1"></stop><stop offset="80%" stop-color="#bca0ec" stop-opacity="1"></stop></linearGradient></defs><defs><linearGradient id="grad1_2" x1="33.3%" y1="100%" x2="100%" y2="0%"><stop offset="20%" stop-color="#ffffff" stop-opacity="1"></stop><stop offset="80%" stop-color="#bca0ec" stop-opacity="1"></stop></linearGradient></defs><defs><linearGradient id="grad2_0" x1="0%" y1="100%" x2="66.7%" y2="0%"><stop offset="20%" stop-color="#6c45d5" stop-opacity="1"></stop><stop offset="80%" stop-color="#6c45d5" stop-opacity="1"></stop></linearGradient></defs><defs><linearGradient id="grad2_1" x1="0%" y1="100%" x2="66.7%" y2="0%"><stop offset="20%" stop-color="#bca0ec" stop-opacity="1"></stop><stop offset="80%" stop-color="#6c45d5" stop-opacity="1"></stop></linearGradient></defs><defs><linearGradient id="grad2_2" x1="0%" y1="100%" x2="66.7%" y2="0%"><stop offset="20%" stop-color="#bca0ec" stop-opacity="1"></stop><stop offset="80%" stop-color="#ffffff" stop-opacity="1"></stop></linearGradient></defs><g transform="translate(900, 600)"><path d="M-297.5 0C-298.5 -33 -299.6 -66 -282.9 -91.9C-266.2 -117.9 -231.6 -136.8 -202.3 -146.9C-172.9 -157.1 -148.7 -158.5 -133.4 -183.6C-118.2 -208.8 -111.9 -257.6 -91.2 -280.6C-70.4 -303.5 -35.2 -300.5 0 -297.5L0 0Z" fill="#dfcff6"></path><path d="M-198.3 0C-199 -22 -199.8 -44 -188.6 -61.3C-177.4 -78.6 -154.4 -91.2 -134.8 -98C-115.3 -104.7 -99.1 -105.7 -89 -122.4C-78.8 -139.2 -74.6 -171.8 -60.8 -187C-46.9 -202.3 -23.5 -200.3 0 -198.3L0 0Z" fill="#9772e1"></path><path d="M-99.2 0C-99.5 -11 -99.9 -22 -94.3 -30.6C-88.7 -39.3 -77.2 -45.6 -67.4 -49C-57.6 -52.4 -49.6 -52.8 -44.5 -61.2C-39.4 -69.6 -37.3 -85.9 -30.4 -93.5C-23.5 -101.2 -11.7 -100.2 0 -99.2L0 0Z" fill="#6c45d5"></path></g><g transform="translate(0, 0)"><path d="M297.5 0C254.6 20.4 211.7 40.8 199.7 64.9C187.8 89 206.7 116.9 210.3 152.8C214 188.8 202.2 232.8 174.8 240.6C147.4 248.5 104.4 220.1 72.6 223.5C40.9 226.9 20.4 262.2 0 297.5L0 0Z" fill="#dfcff6"></path><path d="M198.3 0C169.7 13.6 141.1 27.2 133.1 43.3C125.2 59.3 137.8 77.9 140.2 101.9C142.6 125.9 134.8 155.2 116.6 160.4C98.3 165.6 69.6 146.7 48.4 149C27.2 151.3 13.6 174.8 0 198.3L0 0Z" fill="#9772e1"></path><path d="M99.2 0C84.9 6.8 70.6 13.6 66.6 21.6C62.6 29.7 68.9 39 70.1 50.9C71.3 62.9 67.4 77.6 58.3 80.2C49.1 82.8 34.8 73.4 24.2 74.5C13.6 75.6 6.8 87.4 0 99.2L0 0Z" fill="#6c45d5"></path></g></svg>