<svg id="visual" viewBox="0 0 900 600" width="900" height="600" xmlns="http://www.w3.org/2000/svg" xmlns:xlink="http://www.w3.org/1999/xlink" version="1.1"><rect x="0" y="0" width="900" height="600" fill="#ffffff"></rect><defs><linearGradient id="grad1_0" x1="33.3%" y1="0%" x2="100%" y2="100%"><stop offset="20%" stop-color="#3cbbfa" stop-opacity="1"></stop><stop offset="80%" stop-color="#3cbbfa" stop-opacity="1"></stop></linearGradient></defs><defs><linearGradient id="grad1_1" x1="33.3%" y1="0%" x2="100%" y2="100%"><stop offset="20%" stop-color="#3cbbfa" stop-opacity="1"></stop><stop offset="80%" stop-color="#b0dcfd" stop-opacity="1"></stop></linearGradient></defs><defs><linearGradient id="grad1_2" x1="33.3%" y1="0%" x2="100%" y2="100%"><stop offset="20%" stop-color="#ffffff" stop-opacity="1"></stop><stop offset="80%" stop-color="#b0dcfd" stop-opacity="1"></stop></linearGradient></defs><defs><linearGradient id="grad2_0" x1="0%" y1="0%" x2="66.7%" y2="100%"><stop offset="20%" stop-color="#3cbbfa" stop-opacity="1"></stop><stop offset="80%" stop-color="#3cbbfa" stop-opacity="1"></stop></linearGradient></defs><defs><linearGradient id="grad2_1" x1="0%" y1="0%" x2="66.7%" y2="100%"><stop offset="20%" stop-color="#b0dcfd" stop-opacity="1"></stop><stop offset="80%" stop-color="#3cbbfa" stop-opacity="1"></stop></linearGradient></defs><defs><linearGradient id="grad2_2" x1="0%" y1="0%" x2="66.7%" y2="100%"><stop offset="20%" stop-color="#b0dcfd" stop-opacity="1"></stop><stop offset="80%" stop-color="#ffffff" stop-opacity="1"></stop></linearGradient></defs><g transform="translate(900, 0)"><path d="M0 297.5C-36.8 303 -73.6 308.5 -91.9 282.9C-110.2 257.3 -110 200.6 -125.8 173.1C-141.5 145.7 -173.2 147.5 -183.6 133.4C-194.1 119.4 -183.3 89.5 -198.8 64.6C-214.2 39.7 -255.8 19.9 -297.5 0L0 0Z" fill="#d9eefe"></path><path d="M0 198.3C-24.5 202 -49.1 205.7 -61.3 188.6C-73.5 171.5 -73.4 133.7 -83.9 115.4C-94.4 97.1 -115.5 98.3 -122.4 89C-129.4 79.6 -122.2 59.6 -132.5 43.1C-142.8 26.5 -170.6 13.2 -198.3 0L0 0Z" fill="#81ccfc"></path><path d="M0 99.2C-12.3 101 -24.5 102.8 -30.6 94.3C-36.7 85.8 -36.7 66.9 -41.9 57.7C-47.2 48.6 -57.7 49.2 -61.2 44.5C-64.7 39.8 -61.1 29.8 -66.3 21.5C-71.4 13.2 -85.3 6.6 -99.2 0L0 0Z" fill="#3cbbfa"></path></g><g transform="translate(0, 600)"><path d="M0 -297.5C22.9 -269.5 45.9 -241.5 76.9 -236.8C108 -232.1 147.3 -250.7 174.8 -240.6C202.4 -230.6 218.2 -191.9 216.8 -157.5C215.4 -123.1 196.8 -92.9 207.3 -67.4C217.9 -41.8 257.7 -20.9 297.5 0L0 0Z" fill="#d9eefe"></path><path d="M0 -198.3C15.3 -179.7 30.6 -161 51.3 -157.9C72 -154.7 98.2 -167.1 116.6 -160.4C134.9 -153.7 145.5 -128 144.5 -105C143.6 -82.1 131.2 -61.9 138.2 -44.9C145.3 -27.9 171.8 -13.9 198.3 0L0 0Z" fill="#81ccfc"></path><path d="M0 -99.2C7.6 -89.8 15.3 -80.5 25.6 -78.9C36 -77.4 49.1 -83.6 58.3 -80.2C67.5 -76.9 72.7 -64 72.3 -52.5C71.8 -41 65.6 -31 69.1 -22.5C72.6 -13.9 85.9 -7 99.2 0L0 0Z" fill="#3cbbfa"></path></g></svg>