<svg id="visual" viewBox="0 0 900 600" width="900" height="600" xmlns="http://www.w3.org/2000/svg" xmlns:xlink="http://www.w3.org/1999/xlink" version="1.1"><rect x="0" y="0" width="900" height="600" fill="#ffffff"></rect><defs><linearGradient id="grad1_0" x1="33.3%" y1="100%" x2="100%" y2="0%"><stop offset="20%" stop-color="#c03cfa" stop-opacity="1"></stop><stop offset="80%" stop-color="#c03cfa" stop-opacity="1"></stop></linearGradient></defs><defs><linearGradient id="grad1_1" x1="33.3%" y1="100%" x2="100%" y2="0%"><stop offset="20%" stop-color="#c03cfa" stop-opacity="1"></stop><stop offset="80%" stop-color="#e6a5fe" stop-opacity="1"></stop></linearGradient></defs><defs><linearGradient id="grad1_2" x1="33.3%" y1="100%" x2="100%" y2="0%"><stop offset="20%" stop-color="#ffffff" stop-opacity="1"></stop><stop offset="80%" stop-color="#e6a5fe" stop-opacity="1"></stop></linearGradient></defs><defs><linearGradient id="grad2_0" x1="0%" y1="100%" x2="66.7%" y2="0%"><stop offset="20%" stop-color="#c03cfa" stop-opacity="1"></stop><stop offset="80%" stop-color="#c03cfa" stop-opacity="1"></stop></linearGradient></defs><defs><linearGradient id="grad2_1" x1="0%" y1="100%" x2="66.7%" y2="0%"><stop offset="20%" stop-color="#e6a5fe" stop-opacity="1"></stop><stop offset="80%" stop-color="#c03cfa" stop-opacity="1"></stop></linearGradient></defs><defs><linearGradient id="grad2_2" x1="0%" y1="100%" x2="66.7%" y2="0%"><stop offset="20%" stop-color="#e6a5fe" stop-opacity="1"></stop><stop offset="80%" stop-color="#ffffff" stop-opacity="1"></stop></linearGradient></defs><g transform="translate(900, 600)"><path d="M-297.5 0C-303 -36.8 -308.5 -73.6 -282.9 -91.9C-257.3 -110.2 -200.6 -110 -173.1 -125.8C-145.7 -141.5 -147.5 -173.2 -133.4 -183.6C-119.4 -194.1 -89.5 -183.3 -64.6 -198.8C-39.7 -214.2 -19.9 -255.8 0 -297.5L0 0Z" fill="#f4d2ff"></path><path d="M-198.3 0C-202 -24.5 -205.7 -49.1 -188.6 -61.3C-171.5 -73.5 -133.7 -73.4 -115.4 -83.9C-97.1 -94.4 -98.3 -115.5 -89 -122.4C-79.6 -129.4 -59.6 -122.2 -43.1 -132.5C-26.5 -142.8 -13.2 -170.6 0 -198.3L0 0Z" fill="#d576fd"></path><path d="M-99.2 0C-101 -12.3 -102.8 -24.5 -94.3 -30.6C-85.8 -36.7 -66.9 -36.7 -57.7 -41.9C-48.6 -47.2 -49.2 -57.7 -44.5 -61.2C-39.8 -64.7 -29.8 -61.1 -21.5 -66.3C-13.2 -71.4 -6.6 -85.3 0 -99.2L0 0Z" fill="#c03cfa"></path></g><g transform="translate(0, 0)"><path d="M297.5 0C269.5 22.9 241.5 45.9 236.8 76.9C232.1 108 250.7 147.3 240.6 174.8C230.6 202.4 191.9 218.2 157.5 216.8C123.1 215.4 92.9 196.8 67.4 207.3C41.8 217.9 20.9 257.7 0 297.5L0 0Z" fill="#f4d2ff"></path><path d="M198.3 0C179.7 15.3 161 30.6 157.9 51.3C154.7 72 167.1 98.2 160.4 116.6C153.7 134.9 128 145.5 105 144.5C82.1 143.6 61.9 131.2 44.9 138.2C27.9 145.3 13.9 171.8 0 198.3L0 0Z" fill="#d576fd"></path><path d="M99.2 0C89.8 7.6 80.5 15.3 78.9 25.6C77.4 36 83.6 49.1 80.2 58.3C76.9 67.5 64 72.7 52.5 72.3C41 71.8 31 65.6 22.5 69.1C13.9 72.6 7 85.9 0 99.2L0 0Z" fill="#c03cfa"></path></g></svg>