<svg id="visual" viewBox="0 0 900 600" width="900" height="600" xmlns="http://www.w3.org/2000/svg" xmlns:xlink="http://www.w3.org/1999/xlink" version="1.1"><rect x="0" y="0" width="900" height="600" fill="#ffffff"></rect><defs><linearGradient id="grad1_0" x1="33.3%" y1="0%" x2="100%" y2="100%"><stop offset="20%" stop-color="#d54575" stop-opacity="1"></stop><stop offset="80%" stop-color="#d54575" stop-opacity="1"></stop></linearGradient></defs><defs><linearGradient id="grad1_1" x1="33.3%" y1="0%" x2="100%" y2="100%"><stop offset="20%" stop-color="#d54575" stop-opacity="1"></stop><stop offset="80%" stop-color="#f1a6b7" stop-opacity="1"></stop></linearGradient></defs><defs><linearGradient id="grad1_2" x1="33.3%" y1="0%" x2="100%" y2="100%"><stop offset="20%" stop-color="#ffffff" stop-opacity="1"></stop><stop offset="80%" stop-color="#f1a6b7" stop-opacity="1"></stop></linearGradient></defs><defs><linearGradient id="grad2_0" x1="0%" y1="0%" x2="66.7%" y2="100%"><stop offset="20%" stop-color="#d54575" stop-opacity="1"></stop><stop offset="80%" stop-color="#d54575" stop-opacity="1"></stop></linearGradient></defs><defs><linearGradient id="grad2_1" x1="0%" y1="0%" x2="66.7%" y2="100%"><stop offset="20%" stop-color="#f1a6b7" stop-opacity="1"></stop><stop offset="80%" stop-color="#d54575" stop-opacity="1"></stop></linearGradient></defs><defs><linearGradient id="grad2_2" x1="0%" y1="0%" x2="66.7%" y2="100%"><stop offset="20%" stop-color="#f1a6b7" stop-opacity="1"></stop><stop offset="80%" stop-color="#ffffff" stop-opacity="1"></stop></linearGradient></defs><g transform="translate(900, 0)"><path d="M0 297.5C-33 298.5 -66 299.6 -91.9 282.9C-117.9 266.2 -136.8 231.6 -146.9 202.3C-157.1 172.9 -158.5 148.7 -183.6 133.4C-208.8 118.2 -257.6 111.9 -280.6 91.2C-303.5 70.4 -300.5 35.2 -297.5 0L0 0Z" fill="#fad3db"></path><path d="M0 198.3C-22 199 -44 199.8 -61.3 188.6C-78.6 177.4 -91.2 154.4 -98 134.8C-104.7 115.3 -105.7 99.1 -122.4 89C-139.2 78.8 -171.8 74.6 -187 60.8C-202.3 46.9 -200.3 23.5 -198.3 0L0 0Z" fill="#e57995"></path><path d="M0 99.2C-11 99.5 -22 99.9 -30.6 94.3C-39.3 88.7 -45.6 77.2 -49 67.4C-52.4 57.6 -52.8 49.6 -61.2 44.5C-69.6 39.4 -85.9 37.3 -93.5 30.4C-101.2 23.5 -100.2 11.7 -99.2 0L0 0Z" fill="#d54575"></path></g><g transform="translate(0, 600)"><path d="M0 -297.5C20.4 -254.6 40.8 -211.7 64.9 -199.7C89 -187.8 116.9 -206.7 152.8 -210.3C188.8 -214 232.8 -202.2 240.6 -174.8C248.5 -147.4 220.1 -104.4 223.5 -72.6C226.9 -40.9 262.2 -20.4 297.5 0L0 0Z" fill="#fad3db"></path><path d="M0 -198.3C13.6 -169.7 27.2 -141.1 43.3 -133.1C59.3 -125.2 77.9 -137.8 101.9 -140.2C125.9 -142.6 155.2 -134.8 160.4 -116.6C165.6 -98.3 146.7 -69.6 149 -48.4C151.3 -27.2 174.8 -13.6 198.3 0L0 0Z" fill="#e57995"></path><path d="M0 -99.2C6.8 -84.9 13.6 -70.6 21.6 -66.6C29.7 -62.6 39 -68.9 50.9 -70.1C62.9 -71.3 77.6 -67.4 80.2 -58.3C82.8 -49.1 73.4 -34.8 74.5 -24.2C75.6 -13.6 87.4 -6.8 99.2 0L0 0Z" fill="#d54575"></path></g></svg>