<svg width="39" height="39" viewBox="0 0 39 39" fill="none" xmlns="http://www.w3.org/2000/svg">
<path d="M30.1968 38.8497C27.9788 38.8497 25.7618 38.0057 24.0738 36.3177L19.4268 31.6717L14.7798 36.3187C11.4058 39.6937 5.91176 39.6957 2.53376 36.3187C-0.842243 32.9417 -0.84225 27.4478 2.53275 24.0718L7.17975 19.4247L2.53275 14.7788C-0.84425 11.4028 -0.84425 5.90875 2.53275 2.53275C5.90975 -0.84425 11.4018 -0.84425 14.7788 2.53275L19.4258 7.17975L24.0728 2.53275C27.4498 -0.84425 32.9418 -0.84425 36.3188 2.53275C39.6948 5.90975 39.6948 11.4038 36.3188 14.7788L31.6718 19.4247L36.3188 24.0707L36.3197 24.0718C39.6947 27.4478 39.6947 32.9427 36.3197 36.3187C34.6327 38.0047 32.4148 38.8497 30.1968 38.8497ZM19.4268 25.6357C20.0668 25.6357 20.7057 25.8797 21.1947 26.3677L27.6087 32.7817C29.0367 34.2087 31.3568 34.2087 32.7848 32.7817C34.2108 31.3547 34.2108 29.0327 32.7848 27.6057L26.3698 21.1917C25.9008 20.7227 25.6378 20.0867 25.6378 19.4237C25.6378 18.7607 25.9018 18.1247 26.3698 17.6557L32.7848 11.2417C34.2118 9.81573 34.2108 7.49375 32.7838 6.06675C31.3578 4.63975 29.0367 4.63975 27.6087 6.06675L21.1947 12.4807C20.2177 13.4577 18.6358 13.4567 17.6598 12.4807L11.2448 6.06675C9.81676 4.63875 7.49676 4.63975 6.06876 6.06675C4.64176 7.49375 4.64176 9.81574 6.06876 11.2427L12.4828 17.6567C13.4598 18.6327 13.4598 20.2157 12.4828 21.1917L6.06876 27.6057C4.64276 29.0327 4.64274 31.3547 6.06974 32.7827C7.49674 34.2097 9.81776 34.2087 11.2448 32.7827L17.6598 26.3677C18.1478 25.8797 18.7878 25.6357 19.4268 25.6357Z" fill="url(#paint0_linear_449_633)"/>
<defs>
<linearGradient id="paint0_linear_449_633" x1="19.4255" y1="0" x2="19.4255" y2="38.8507" gradientUnits="userSpaceOnUse">
<stop stop-color="#F16BFA"/>
<stop offset="1" stop-color="#E58F51"/>
</linearGradient>
</defs>
</svg>
