<svg width="690" height="600" viewBox="0 0 690 600" fill="none" xmlns="http://www.w3.org/2000/svg">
<path d="M626.538 0C488.077 0 381.923 107.692 381.923 246.154V576.923C381.923 589.231 392.692 600 405 600H666.538C678.846 600 689.615 589.231 689.615 576.923V315.385C689.615 303.077 678.846 292.308 666.538 292.308H474.231V246.154C474.231 169.231 549.615 92.3077 626.538 92.3077H666.538C678.846 92.3077 689.615 81.5385 689.615 69.2308V23.0769C689.615 10.7692 678.846 0 666.538 0H626.538Z" fill="url(#paint0_linear_447_6)"/>
<path d="M245 0C106.539 0 0.384766 107.692 0.384766 246.154V576.923C0.384766 589.231 11.154 600 23.4617 600H285C297.308 600 308.077 589.231 308.077 576.923V315.385C308.077 303.077 297.308 292.308 285 292.308H92.6925V246.154C92.6925 169.231 168.077 92.3077 245 92.3077H285C297.308 92.3077 308.077 81.5385 308.077 69.2308V23.0769C308.077 10.7692 297.308 0 285 0H245Z" fill="url(#paint1_linear_447_6)"/>
<defs>
<linearGradient id="paint0_linear_447_6" x1="535.867" y1="1.50326e-09" x2="534.882" y2="599.999" gradientUnits="userSpaceOnUse">
<stop stop-color="#F16BFA"/>
<stop offset="1" stop-color="#E58F51"/>
</linearGradient>
<linearGradient id="paint1_linear_447_6" x1="154.329" y1="1.50326e-09" x2="153.344" y2="599.999" gradientUnits="userSpaceOnUse">
<stop stop-color="#F16BFA"/>
<stop offset="1" stop-color="#E58F51"/>
</linearGradient>
</defs>
</svg>
