<svg width="208" height="208" viewBox="0 0 208 208" fill="none" xmlns="http://www.w3.org/2000/svg">
<path d="M103.52 207.05C46.44 207.05 0 160.61 0 103.52C0 46.43 46.44 0 103.52 0C160.6 0 207.05 46.44 207.05 103.52C207.05 160.6 160.61 207.05 103.52 207.05ZM103.52 2C47.54 2 2 47.54 2 103.52C2 159.5 47.54 205.05 103.52 205.05C159.5 205.05 205.05 159.51 205.05 103.52C205.05 47.54 159.5 2 103.52 2Z" fill="#0B315E"/>
<path d="M103.52 190.12C55.7699 190.12 16.9299 151.27 16.9299 103.53C16.9299 55.78 55.7799 16.94 103.52 16.94C151.27 16.94 190.11 55.79 190.11 103.53C190.12 151.27 151.27 190.12 103.52 190.12ZM103.52 23.78C59.5499 23.78 23.7799 59.55 23.7799 103.52C23.7799 147.49 59.5499 183.26 103.52 183.26C147.49 183.26 183.26 147.49 183.26 103.52C183.26 59.55 147.49 23.78 103.52 23.78Z" fill="#0B315E"/>
<path d="M103.52 173.18C65.1101 173.18 33.8601 141.93 33.8601 103.52C33.8601 65.11 65.1101 33.86 103.52 33.86C141.93 33.86 173.18 65.11 173.18 103.52C173.18 141.93 141.93 173.18 103.52 173.18ZM103.52 35.86C66.2101 35.86 35.8601 66.21 35.8601 103.52C35.8601 140.83 66.2101 171.18 103.52 171.18C140.83 171.18 171.18 140.83 171.18 103.52C171.18 66.21 140.83 35.86 103.52 35.86Z" fill="#0B315E"/>
<path d="M103.52 156.25C74.4501 156.25 50.79 132.6 50.79 103.52C50.79 74.44 74.4401 50.79 103.52 50.79C132.6 50.79 156.25 74.44 156.25 103.52C156.25 132.6 132.6 156.25 103.52 156.25ZM103.52 52.8C75.5501 52.8 52.79 75.56 52.79 103.53C52.79 131.5 75.5501 154.26 103.52 154.26C131.49 154.26 154.25 131.5 154.25 103.53C154.25 75.56 131.5 52.8 103.52 52.8Z" fill="#0B315E"/>
<path d="M103.52 139.32C83.78 139.32 67.73 123.26 67.73 103.52C67.73 83.78 83.79 67.73 103.52 67.73C123.26 67.73 139.32 83.79 139.32 103.52C139.32 123.26 123.26 139.32 103.52 139.32ZM103.52 69.73C84.89 69.73 69.73 84.89 69.73 103.52C69.73 122.15 84.89 137.32 103.52 137.32C122.15 137.32 137.32 122.16 137.32 103.52C137.32 84.88 122.16 69.73 103.52 69.73Z" fill="#0B315E"/>
<path d="M103.52 122.39C93.1199 122.39 84.6599 113.93 84.6599 103.53C84.6599 93.13 93.1199 84.67 103.52 84.67C113.92 84.67 122.38 93.13 122.38 103.53C122.39 113.92 113.92 122.39 103.52 122.39ZM103.52 86.66C94.2199 86.66 86.6599 94.22 86.6599 103.52C86.6599 112.82 94.2199 120.38 103.52 120.38C112.82 120.38 120.38 112.82 120.38 103.52C120.39 94.23 112.82 86.66 103.52 86.66Z" fill="#0B315E"/>
</svg>
