<svg id="visual" viewBox="0 0 900 450" width="900" height="450" xmlns="http://www.w3.org/2000/svg" xmlns:xlink="http://www.w3.org/1999/xlink" version="1.1"><rect x="0" y="0" width="900" height="450" fill="#ffffff"></rect><defs><linearGradient id="grad1_0" x1="50%" y1="0%" x2="100%" y2="100%"><stop offset="10%" stop-color="#b118b1" stop-opacity="1"></stop><stop offset="90%" stop-color="#b118b1" stop-opacity="1"></stop></linearGradient></defs><defs><linearGradient id="grad1_1" x1="50%" y1="0%" x2="100%" y2="100%"><stop offset="10%" stop-color="#b118b1" stop-opacity="1"></stop><stop offset="90%" stop-color="#c863c5" stop-opacity="1"></stop></linearGradient></defs><defs><linearGradient id="grad1_2" x1="50%" y1="0%" x2="100%" y2="100%"><stop offset="10%" stop-color="#dd98d8" stop-opacity="1"></stop><stop offset="90%" stop-color="#c863c5" stop-opacity="1"></stop></linearGradient></defs><defs><linearGradient id="grad1_3" x1="50%" y1="0%" x2="100%" y2="100%"><stop offset="10%" stop-color="#dd98d8" stop-opacity="1"></stop><stop offset="90%" stop-color="#efccec" stop-opacity="1"></stop></linearGradient></defs><defs><linearGradient id="grad1_4" x1="50%" y1="0%" x2="100%" y2="100%"><stop offset="10%" stop-color="#ffffff" stop-opacity="1"></stop><stop offset="90%" stop-color="#efccec" stop-opacity="1"></stop></linearGradient></defs><defs><linearGradient id="grad2_0" x1="0%" y1="0%" x2="50%" y2="100%"><stop offset="10%" stop-color="#b118b1" stop-opacity="1"></stop><stop offset="90%" stop-color="#b118b1" stop-opacity="1"></stop></linearGradient></defs><defs><linearGradient id="grad2_1" x1="0%" y1="0%" x2="50%" y2="100%"><stop offset="10%" stop-color="#c863c5" stop-opacity="1"></stop><stop offset="90%" stop-color="#b118b1" stop-opacity="1"></stop></linearGradient></defs><defs><linearGradient id="grad2_2" x1="0%" y1="0%" x2="50%" y2="100%"><stop offset="10%" stop-color="#c863c5" stop-opacity="1"></stop><stop offset="90%" stop-color="#dd98d8" stop-opacity="1"></stop></linearGradient></defs><defs><linearGradient id="grad2_3" x1="0%" y1="0%" x2="50%" y2="100%"><stop offset="10%" stop-color="#efccec" stop-opacity="1"></stop><stop offset="90%" stop-color="#dd98d8" stop-opacity="1"></stop></linearGradient></defs><defs><linearGradient id="grad2_4" x1="0%" y1="0%" x2="50%" y2="100%"><stop offset="10%" stop-color="#efccec" stop-opacity="1"></stop><stop offset="90%" stop-color="#ffffff" stop-opacity="1"></stop></linearGradient></defs><g transform="translate(900, 0)"><path d="M0 382.5C-41.7 381.2 -83.3 380 -118.2 363.8C-153.1 347.6 -181.1 316.4 -210.4 289.6C-239.7 262.9 -270.3 240.5 -290.4 211C-310.6 181.5 -320.2 144.8 -333.8 108.5C-347.4 72.1 -365 36.1 -382.5 0L0 0Z" fill="#f8e5f5"></path><path d="M0 306C-33.3 305 -66.7 304 -94.6 291C-122.4 278.1 -144.9 253.1 -168.3 231.7C-191.8 210.3 -216.3 192.4 -232.3 168.8C-248.4 145.2 -256.2 115.9 -267.1 86.8C-277.9 57.7 -292 28.8 -306 0L0 0Z" fill="#e7b2e2"></path><path d="M0 229.5C-25 228.7 -50 228 -70.9 218.3C-91.8 208.5 -108.7 189.8 -126.3 173.8C-143.8 157.7 -162.2 144.3 -174.3 126.6C-186.3 108.9 -192.1 86.9 -200.3 65.1C-208.5 43.3 -219 21.6 -229.5 0L0 0Z" fill="#d37ecf"></path><path d="M0 153C-16.7 152.5 -33.3 152 -47.3 145.5C-61.2 139 -72.4 126.6 -84.2 115.9C-95.9 105.1 -108.1 96.2 -116.2 84.4C-124.2 72.6 -128.1 57.9 -133.5 43.4C-139 28.8 -146 14.4 -153 0L0 0Z" fill="#bd44bb"></path><path d="M0 76.5C-8.3 76.2 -16.7 76 -23.6 72.8C-30.6 69.5 -36.2 63.3 -42.1 57.9C-47.9 52.6 -54.1 48.1 -58.1 42.2C-62.1 36.3 -64 29 -66.8 21.7C-69.5 14.4 -73 7.2 -76.5 0L0 0Z" fill="#b118b1"></path></g><g transform="translate(0, 450)"><path d="M0 -382.5C36.1 -367.2 72.3 -352 111.2 -342.4C150.2 -332.8 192 -328.9 224.8 -309.4C257.6 -290 281.5 -255 304.2 -221C326.9 -187 348.5 -154.1 361.4 -117.4C374.3 -80.8 378.4 -40.4 382.5 0L0 0Z" fill="#f8e5f5"></path><path d="M0 -306C28.9 -293.8 57.8 -281.6 89 -273.9C120.2 -266.2 153.6 -263.1 179.9 -247.6C206.1 -232 225.2 -204 243.4 -176.8C261.5 -149.6 278.8 -123.3 289.1 -93.9C299.4 -64.6 302.7 -32.3 306 0L0 0Z" fill="#e7b2e2"></path><path d="M0 -229.5C21.7 -220.3 43.4 -211.2 66.7 -205.4C90.1 -199.7 115.2 -197.3 134.9 -185.7C154.6 -174 168.9 -153 182.5 -132.6C196.1 -112.2 209.1 -92.5 216.8 -70.5C224.6 -48.5 227 -24.2 229.5 0L0 0Z" fill="#d37ecf"></path><path d="M0 -153C14.5 -146.9 28.9 -140.8 44.5 -137C60.1 -133.1 76.8 -131.6 89.9 -123.8C103.1 -116 112.6 -102 121.7 -88.4C130.8 -74.8 139.4 -61.6 144.6 -47C149.7 -32.3 151.4 -16.2 153 0L0 0Z" fill="#bd44bb"></path><path d="M0 -76.5C7.2 -73.4 14.5 -70.4 22.2 -68.5C30 -66.6 38.4 -65.8 45 -61.9C51.5 -58 56.3 -51 60.8 -44.2C65.4 -37.4 69.7 -30.8 72.3 -23.5C74.9 -16.2 75.7 -8.1 76.5 0L0 0Z" fill="#b118b1"></path></g></svg>