<svg width="451" height="301" viewBox="0 0 451 301" fill="none" xmlns="http://www.w3.org/2000/svg">
<mask id="mask0_436_22" style="mask-type:luminance" maskUnits="userSpaceOnUse" x="0" y="0" width="451" height="301">
<path d="M447.319 300.023H4.31885C2.38585 300.023 0.818848 298.456 0.818848 296.523V3.52295C0.818848 1.58995 2.38585 0.0229492 4.31885 0.0229492H447.319C449.252 0.0229492 450.819 1.58995 450.819 3.52295V296.523C450.819 298.456 449.253 300.023 447.319 300.023Z" fill="white"/>
</mask>
<g mask="url(#mask0_436_22)">
<path d="M437.007 200.192C475.287 200.192 506.319 169.16 506.319 130.88C506.319 92.5999 475.287 61.5679 437.007 61.5679C398.727 61.5679 367.695 92.5999 367.695 130.88C367.695 169.16 398.727 200.192 437.007 200.192Z" fill="url(#paint0_linear_436_22)"/>
<path d="M306.989 352.904C338.833 352.904 364.648 327.089 364.648 295.245C364.648 263.401 338.833 237.586 306.989 237.586C275.145 237.586 249.33 263.401 249.33 295.245C249.33 327.089 275.145 352.904 306.989 352.904Z" fill="url(#paint1_linear_436_22)"/>
<path d="M332.77 223.517C374.501 223.517 408.331 189.687 408.331 147.956C408.331 106.225 374.501 72.3948 332.77 72.3948C291.039 72.3948 257.209 106.225 257.209 147.956C257.209 189.687 291.039 223.517 332.77 223.517Z" fill="url(#paint2_linear_436_22)"/>
<path d="M123.013 87.7188C158.072 87.7188 186.494 59.2974 186.494 24.2378C186.494 -10.8218 158.072 -39.2432 123.013 -39.2432C87.9532 -39.2432 59.5317 -10.8218 59.5317 24.2378C59.5317 59.2974 87.9532 87.7188 123.013 87.7188Z" fill="url(#paint3_linear_436_22)"/>
<path d="M340.672 65.2517C352.779 65.2517 362.594 55.4369 362.594 43.3297C362.594 31.2225 352.779 21.4077 340.672 21.4077C328.565 21.4077 318.75 31.2225 318.75 43.3297C318.75 55.4369 328.565 65.2517 340.672 65.2517Z" fill="url(#paint4_linear_436_22)"/>
<path d="M439.727 41.3658C455.192 41.3658 467.729 28.8289 467.729 13.3638C467.729 -2.10126 455.192 -14.6382 439.727 -14.6382C424.262 -14.6382 411.725 -2.10126 411.725 13.3638C411.725 28.8289 424.262 41.3658 439.727 41.3658Z" fill="url(#paint5_linear_436_22)"/>
<path d="M412.425 52.5629C416.994 52.5629 420.698 48.8589 420.698 44.2898C420.698 39.7208 416.994 36.0168 412.425 36.0168C407.856 36.0168 404.152 39.7208 404.152 44.2898C404.152 48.8589 407.856 52.5629 412.425 52.5629Z" fill="url(#paint6_linear_436_22)"/>
<path d="M51.5969 100.074C57.8261 100.074 62.8759 95.0241 62.8759 88.7949C62.8759 82.5656 57.8261 77.5159 51.5969 77.5159C45.3677 77.5159 40.3179 82.5656 40.3179 88.7949C40.3179 95.0241 45.3677 100.074 51.5969 100.074Z" fill="url(#paint7_linear_436_22)"/>
<path d="M316.463 39.7228C336.488 39.7228 352.721 23.4895 352.721 3.46478C352.721 -16.56 336.488 -32.7932 316.463 -32.7932C296.438 -32.7932 280.205 -16.56 280.205 3.46478C280.205 23.4895 296.438 39.7228 316.463 39.7228Z" fill="url(#paint8_linear_436_22)"/>
<path d="M250.262 209.045C267.178 209.045 280.891 195.332 280.891 178.416C280.891 161.5 267.178 147.787 250.262 147.787C233.346 147.787 219.633 161.5 219.633 178.416C219.633 195.332 233.346 209.045 250.262 209.045Z" fill="url(#paint9_linear_436_22)"/>
<path d="M123.579 311.995C144.339 311.995 161.169 295.165 161.169 274.405C161.169 253.645 144.339 236.815 123.579 236.815C102.818 236.815 85.9888 253.645 85.9888 274.405C85.9888 295.165 102.818 311.995 123.579 311.995Z" fill="url(#paint10_linear_436_22)"/>
<path d="M407.426 271.871C420.496 271.871 431.091 261.276 431.091 248.206C431.091 235.136 420.496 224.541 407.426 224.541C394.356 224.541 383.761 235.136 383.761 248.206C383.761 261.276 394.356 271.871 407.426 271.871Z" fill="url(#paint11_linear_436_22)"/>
<path d="M244.652 117.231C253.622 117.231 260.893 109.959 260.893 100.99C260.893 92.0201 253.622 84.7488 244.652 84.7488C235.682 84.7488 228.411 92.0201 228.411 100.99C228.411 109.959 235.682 117.231 244.652 117.231Z" fill="url(#paint12_linear_436_22)"/>
<path d="M199.765 150.824C204.51 150.824 208.357 146.977 208.357 142.232C208.357 137.487 204.51 133.64 199.765 133.64C195.02 133.64 191.173 137.487 191.173 142.232C191.173 146.977 195.02 150.824 199.765 150.824Z" fill="url(#paint13_linear_436_22)"/>
<path d="M219.186 243.37C219.186 245.321 217.604 246.903 215.653 246.903C213.702 246.903 212.12 245.321 212.12 243.37C212.12 241.419 213.702 239.837 215.653 239.837C217.604 239.837 219.186 241.419 219.186 243.37Z" fill="url(#paint14_linear_436_22)"/>
<path d="M9.31698 241.985C9.31698 243.936 7.73498 245.518 5.78398 245.518C3.83298 245.518 2.25098 243.936 2.25098 241.985C2.25098 240.034 3.83298 238.452 5.78398 238.452C7.73498 238.452 9.31698 240.034 9.31698 241.985Z" fill="url(#paint15_linear_436_22)"/>
<path d="M147.952 101.775C149.903 101.775 151.485 100.193 151.485 98.2417C151.485 96.2905 149.903 94.7087 147.952 94.7087C146.001 94.7087 144.419 96.2905 144.419 98.2417C144.419 100.193 146.001 101.775 147.952 101.775Z" fill="url(#paint16_linear_436_22)"/>
<path d="M381.443 284.805C383.394 284.805 384.976 283.223 384.976 281.272C384.976 279.321 383.394 277.739 381.443 277.739C379.492 277.739 377.91 279.321 377.91 281.272C377.91 283.223 379.492 284.805 381.443 284.805Z" fill="url(#paint17_linear_436_22)"/>
<path d="M397.611 216.332C399.562 216.332 401.144 214.75 401.144 212.799C401.144 210.848 399.562 209.266 397.611 209.266C395.66 209.266 394.078 210.848 394.078 212.799C394.078 214.75 395.66 216.332 397.611 216.332Z" fill="url(#paint18_linear_436_22)"/>
<path d="M266.157 20.0528C268.108 20.0528 269.69 18.471 269.69 16.5198C269.69 14.5686 268.108 12.9868 266.157 12.9868C264.206 12.9868 262.624 14.5686 262.624 16.5198C262.624 18.471 264.206 20.0528 266.157 20.0528Z" fill="url(#paint19_linear_436_22)"/>
<path d="M186.006 88.7949C201.499 88.7949 214.058 76.2356 214.058 60.7429C214.058 45.2502 201.499 32.6909 186.006 32.6909C170.513 32.6909 157.954 45.2502 157.954 60.7429C157.954 76.2356 170.513 88.7949 186.006 88.7949Z" fill="url(#paint20_linear_436_22)"/>
<path d="M19.0249 103.253C37.9186 103.253 53.2349 87.9364 53.2349 69.0428C53.2349 50.1491 37.9186 34.8328 19.0249 34.8328C0.131283 34.8328 -15.1851 50.1491 -15.1851 69.0428C-15.1851 87.9364 0.131283 103.253 19.0249 103.253Z" fill="url(#paint21_linear_436_22)"/>
<path d="M41.7139 373.524C76.7735 373.524 105.195 345.102 105.195 310.043C105.195 274.983 76.7735 246.562 41.7139 246.562C6.65432 246.562 -21.7671 274.983 -21.7671 310.043C-21.7671 345.102 6.65432 373.524 41.7139 373.524Z" fill="url(#paint22_linear_436_22)"/>
</g>
<mask id="mask1_436_22" style="mask-type:luminance" maskUnits="userSpaceOnUse" x="0" y="0" width="451" height="301">
<path d="M447.319 300.023H4.31885C2.38585 300.023 0.818848 298.456 0.818848 296.523V3.52295C0.818848 1.58995 2.38585 0.0229492 4.31885 0.0229492H447.319C449.252 0.0229492 450.819 1.58995 450.819 3.52295V296.523C450.819 298.456 449.253 300.023 447.319 300.023Z" fill="white"/>
</mask>
<g mask="url(#mask1_436_22)">
<path d="M304.895 76.7019C304.895 80.1809 302.074 83.0019 298.595 83.0019C295.116 83.0019 292.295 80.1809 292.295 76.7019C292.295 73.2229 295.115 70.4019 298.595 70.4019C302.075 70.4019 304.895 73.2219 304.895 76.7019Z" fill="url(#paint23_linear_436_22)" stroke="white" stroke-miterlimit="10"/>
<path d="M308.419 231.033C316.622 222.829 316.622 209.528 308.419 201.325C300.215 193.121 286.914 193.121 278.71 201.325C270.507 209.528 270.507 222.829 278.71 231.033C286.914 239.236 300.215 239.236 308.419 231.033Z" fill="url(#paint24_linear_436_22)" stroke="white" stroke-miterlimit="10"/>
<path d="M390.775 83.5479C390.775 87.4149 387.64 90.5499 383.773 90.5499C379.906 90.5499 376.771 87.4149 376.771 83.5479C376.771 79.6809 379.906 76.5459 383.773 76.5459C387.64 76.5459 390.775 79.6809 390.775 83.5479Z" fill="url(#paint25_linear_436_22)" stroke="white" stroke-miterlimit="10"/>
<path d="M355.227 7.67796C358.931 7.67796 361.935 4.67469 361.935 0.969963C361.935 -2.73476 358.931 -5.73804 355.227 -5.73804C351.522 -5.73804 348.519 -2.73476 348.519 0.969963C348.519 4.67469 351.522 7.67796 355.227 7.67796Z" fill="url(#paint26_linear_436_22)" stroke="white" stroke-miterlimit="10"/>
<path d="M4.80411 73.1268C9.0354 68.8955 9.0354 62.0352 4.80411 57.8039C0.572824 53.5726 -6.28746 53.5726 -10.5187 57.8039C-14.75 62.0352 -14.75 68.8955 -10.5187 73.1268C-6.28745 77.3581 0.572817 77.358 4.80411 73.1268Z" fill="url(#paint27_linear_436_22)" stroke="white" stroke-miterlimit="10"/>
<path d="M92.0825 83.009C92.0825 86.144 89.5415 88.685 86.4065 88.685C83.2715 88.685 80.7305 86.144 80.7305 83.009C80.7305 79.874 83.2715 77.333 86.4065 77.333C89.5415 77.333 92.0825 79.874 92.0825 83.009Z" fill="url(#paint28_linear_436_22)" stroke="white" stroke-miterlimit="10"/>
<path d="M168.696 315.159C179.204 310.742 184.142 298.643 179.725 288.134C175.308 277.626 163.209 272.688 152.7 277.105C142.192 281.522 137.254 293.621 141.671 304.129C146.088 314.638 158.187 319.576 168.696 315.159Z" fill="url(#paint29_linear_436_22)" stroke="white" stroke-miterlimit="10"/>
<path d="M211.272 210.969C211.272 213.249 209.424 215.097 207.144 215.097C204.864 215.097 203.016 213.249 203.016 210.969C203.016 208.689 204.864 206.841 207.144 206.841C209.424 206.841 211.272 208.689 211.272 210.969Z" fill="url(#paint30_linear_436_22)" stroke="white" stroke-miterlimit="10"/>
<path d="M450.126 232.038C460.632 226.927 465.005 214.266 459.893 203.76C454.782 193.255 442.121 188.882 431.615 193.993C421.109 199.105 416.737 211.765 421.848 222.271C426.96 232.777 439.62 237.15 450.126 232.038Z" fill="url(#paint31_linear_436_22)" stroke="white" stroke-miterlimit="10"/>
<path d="M269.622 87.5771C278.843 87.5771 286.318 80.102 286.318 70.8811C286.318 61.6601 278.843 54.1851 269.622 54.1851C260.401 54.1851 252.926 61.6601 252.926 70.8811C252.926 80.102 260.401 87.5771 269.622 87.5771Z" fill="url(#paint32_linear_436_22)" stroke="white" stroke-miterlimit="10"/>
</g>
<mask id="mask2_436_22" style="mask-type:luminance" maskUnits="userSpaceOnUse" x="0" y="0" width="451" height="301">
<path d="M447.319 300.023H4.31885C2.38585 300.023 0.818848 298.456 0.818848 296.523V3.52295C0.818848 1.58995 2.38585 0.0229492 4.31885 0.0229492H447.319C449.252 0.0229492 450.819 1.58995 450.819 3.52295V296.523C450.819 298.456 449.253 300.023 447.319 300.023Z" fill="white"/>
</mask>
<g mask="url(#mask2_436_22)">
<path d="M230.841 56.408L209.954 77.295" stroke="white" stroke-width="0.5" stroke-miterlimit="10" stroke-linecap="round"/>
<path d="M50.158 291.951L29.271 312.838" stroke="white" stroke-width="0.5" stroke-miterlimit="10" stroke-linecap="round"/>
<path d="M34.5559 -13.55L13.6689 7.33695" stroke="white" stroke-width="0.5" stroke-miterlimit="10" stroke-linecap="round"/>
<path d="M295.767 115.798L274.88 136.684" stroke="white" stroke-width="0.5" stroke-miterlimit="10" stroke-linecap="round"/>
<path d="M201.65 162.604L180.763 183.491" stroke="white" stroke-width="0.5" stroke-miterlimit="10" stroke-linecap="round"/>
<path d="M136.725 269.806L115.838 290.693" stroke="white" stroke-width="0.5" stroke-miterlimit="10" stroke-linecap="round"/>
<path d="M122.129 277.859L101.242 298.746" stroke="white" stroke-width="0.5" stroke-miterlimit="10" stroke-linecap="round"/>
<path d="M275.131 125.863L254.245 146.75" stroke="white" stroke-width="0.5" stroke-miterlimit="10" stroke-linecap="round"/>
<path d="M377.804 124.354L356.917 145.24" stroke="white" stroke-width="0.5" stroke-miterlimit="10" stroke-linecap="round"/>
<path d="M313.885 -7.51001L292.999 13.377" stroke="white" stroke-width="0.5" stroke-miterlimit="10" stroke-linecap="round"/>
<path d="M458.835 77.0439L437.948 97.9299" stroke="white" stroke-width="0.5" stroke-miterlimit="10" stroke-linecap="round"/>
<path d="M393.909 188.776L373.023 209.662" stroke="white" stroke-width="0.5" stroke-miterlimit="10" stroke-linecap="round"/>
</g>
<defs>
<linearGradient id="paint0_linear_436_22" x1="407.132" y1="173.055" x2="473.361" y2="79.5552" gradientUnits="userSpaceOnUse">
<stop stop-color="#E50057" stop-opacity="0"/>
<stop offset="1" stop-color="#F16BFA"/>
</linearGradient>
<linearGradient id="paint1_linear_436_22" x1="282.137" y1="330.329" x2="337.231" y2="252.549" gradientUnits="userSpaceOnUse">
<stop stop-color="#E50057" stop-opacity="0"/>
<stop offset="1" stop-color="#F16BFA"/>
</linearGradient>
<linearGradient id="paint2_linear_436_22" x1="300.202" y1="193.933" x2="372.402" y2="92.0038" gradientUnits="userSpaceOnUse">
<stop stop-color="#E50057" stop-opacity="0"/>
<stop offset="1" stop-color="#F16BFA"/>
</linearGradient>
<linearGradient id="paint3_linear_436_22" x1="95.6515" y1="62.8646" x2="156.309" y2="-22.7691" gradientUnits="userSpaceOnUse">
<stop stop-color="#E50057" stop-opacity="0"/>
<stop offset="1" stop-color="#F16BFA"/>
</linearGradient>
<linearGradient id="paint4_linear_436_22" x1="331.223" y1="56.6688" x2="352.17" y2="27.0967" gradientUnits="userSpaceOnUse">
<stop stop-color="#E50057" stop-opacity="0"/>
<stop offset="1" stop-color="#F16BFA"/>
</linearGradient>
<linearGradient id="paint5_linear_436_22" x1="427.658" y1="30.4024" x2="454.414" y2="-7.37133" gradientUnits="userSpaceOnUse">
<stop stop-color="#E50057" stop-opacity="0"/>
<stop offset="1" stop-color="#F16BFA"/>
</linearGradient>
<linearGradient id="paint6_linear_436_22" x1="408.859" y1="49.3238" x2="416.764" y2="38.1638" gradientUnits="userSpaceOnUse">
<stop stop-color="#E50057" stop-opacity="0"/>
<stop offset="1" stop-color="#F16BFA"/>
</linearGradient>
<linearGradient id="paint7_linear_436_22" x1="46.7355" y1="95.6579" x2="57.5127" y2="80.4429" gradientUnits="userSpaceOnUse">
<stop stop-color="#E50057" stop-opacity="0"/>
<stop offset="1" stop-color="#F16BFA"/>
</linearGradient>
<linearGradient id="paint8_linear_436_22" x1="300.835" y1="25.527" x2="335.48" y2="-23.3838" gradientUnits="userSpaceOnUse">
<stop stop-color="#E50057" stop-opacity="0"/>
<stop offset="1" stop-color="#F16BFA"/>
</linearGradient>
<linearGradient id="paint9_linear_436_22" x1="237.06" y1="197.053" x2="266.327" y2="155.735" gradientUnits="userSpaceOnUse">
<stop stop-color="#E50057" stop-opacity="0"/>
<stop offset="1" stop-color="#F16BFA"/>
</linearGradient>
<linearGradient id="paint10_linear_436_22" x1="107.377" y1="297.278" x2="143.295" y2="246.57" gradientUnits="userSpaceOnUse">
<stop stop-color="#E50057" stop-opacity="0"/>
<stop offset="1" stop-color="#F16BFA"/>
</linearGradient>
<linearGradient id="paint11_linear_436_22" x1="397.226" y1="262.605" x2="419.838" y2="230.682" gradientUnits="userSpaceOnUse">
<stop stop-color="#E50057" stop-opacity="0"/>
<stop offset="1" stop-color="#F16BFA"/>
</linearGradient>
<linearGradient id="paint12_linear_436_22" x1="237.652" y1="110.872" x2="253.171" y2="88.9635" gradientUnits="userSpaceOnUse">
<stop stop-color="#E50057" stop-opacity="0"/>
<stop offset="1" stop-color="#F16BFA"/>
</linearGradient>
<linearGradient id="paint13_linear_436_22" x1="196.062" y1="147.46" x2="204.271" y2="135.87" gradientUnits="userSpaceOnUse">
<stop stop-color="#E50057" stop-opacity="0"/>
<stop offset="1" stop-color="#F16BFA"/>
</linearGradient>
<linearGradient id="paint14_linear_436_22" x1="214.13" y1="245.52" x2="217.506" y2="240.754" gradientUnits="userSpaceOnUse">
<stop stop-color="#E50057" stop-opacity="0"/>
<stop offset="1" stop-color="#F16BFA"/>
</linearGradient>
<linearGradient id="paint15_linear_436_22" x1="4.2612" y1="244.135" x2="7.63704" y2="239.369" gradientUnits="userSpaceOnUse">
<stop stop-color="#E50057" stop-opacity="0"/>
<stop offset="1" stop-color="#F16BFA"/>
</linearGradient>
<linearGradient id="paint16_linear_436_22" x1="146.429" y1="100.391" x2="149.805" y2="95.6256" gradientUnits="userSpaceOnUse">
<stop stop-color="#E50057" stop-opacity="0"/>
<stop offset="1" stop-color="#F16BFA"/>
</linearGradient>
<linearGradient id="paint17_linear_436_22" x1="379.92" y1="283.422" x2="383.296" y2="278.656" gradientUnits="userSpaceOnUse">
<stop stop-color="#E50057" stop-opacity="0"/>
<stop offset="1" stop-color="#F16BFA"/>
</linearGradient>
<linearGradient id="paint18_linear_436_22" x1="396.088" y1="214.949" x2="399.464" y2="210.183" gradientUnits="userSpaceOnUse">
<stop stop-color="#E50057" stop-opacity="0"/>
<stop offset="1" stop-color="#F16BFA"/>
</linearGradient>
<linearGradient id="paint19_linear_436_22" x1="264.634" y1="18.6696" x2="268.01" y2="13.9037" gradientUnits="userSpaceOnUse">
<stop stop-color="#E50057" stop-opacity="0"/>
<stop offset="1" stop-color="#F16BFA"/>
</linearGradient>
<linearGradient id="paint20_linear_436_22" x1="173.915" y1="77.8119" x2="200.719" y2="39.9707" gradientUnits="userSpaceOnUse">
<stop stop-color="#E50057" stop-opacity="0"/>
<stop offset="1" stop-color="#F16BFA"/>
</linearGradient>
<linearGradient id="paint21_linear_436_22" x1="4.27991" y1="89.8588" x2="36.9681" y2="43.7107" gradientUnits="userSpaceOnUse">
<stop stop-color="#E50057" stop-opacity="0"/>
<stop offset="1" stop-color="#F16BFA"/>
</linearGradient>
<linearGradient id="paint22_linear_436_22" x1="14.3526" y1="348.67" x2="75.0097" y2="263.036" gradientUnits="userSpaceOnUse">
<stop stop-color="#E50057" stop-opacity="0"/>
<stop offset="1" stop-color="#F16BFA"/>
</linearGradient>
<linearGradient id="paint23_linear_436_22" x1="295.88" y1="80.5353" x2="301.899" y2="72.0368" gradientUnits="userSpaceOnUse">
<stop stop-color="#E50057" stop-opacity="0"/>
<stop offset="1" stop-color="#F16BFA"/>
</linearGradient>
<linearGradient id="paint24_linear_436_22" x1="296.201" y1="231.619" x2="290.356" y2="197.389" gradientUnits="userSpaceOnUse">
<stop stop-color="#E50057" stop-opacity="0"/>
<stop offset="1" stop-color="#F16BFA"/>
</linearGradient>
<linearGradient id="paint25_linear_436_22" x1="380.756" y1="87.8085" x2="387.446" y2="78.363" gradientUnits="userSpaceOnUse">
<stop stop-color="#E50057" stop-opacity="0"/>
<stop offset="1" stop-color="#F16BFA"/>
</linearGradient>
<linearGradient id="paint26_linear_436_22" x1="352.335" y1="5.05163" x2="358.745" y2="-3.99722" gradientUnits="userSpaceOnUse">
<stop stop-color="#E50057" stop-opacity="0"/>
<stop offset="1" stop-color="#F16BFA"/>
</linearGradient>
<linearGradient id="paint27_linear_436_22" x1="-1.49771" y1="73.4293" x2="-4.51209" y2="55.7737" gradientUnits="userSpaceOnUse">
<stop stop-color="#E50057" stop-opacity="0"/>
<stop offset="1" stop-color="#F16BFA"/>
</linearGradient>
<linearGradient id="paint28_linear_436_22" x1="83.96" y1="86.4627" x2="89.3835" y2="78.806" gradientUnits="userSpaceOnUse">
<stop stop-color="#E50057" stop-opacity="0"/>
<stop offset="1" stop-color="#F16BFA"/>
</linearGradient>
<linearGradient id="paint29_linear_436_22" x1="157.363" y1="311.156" x2="164.756" y2="277.848" gradientUnits="userSpaceOnUse">
<stop stop-color="#E50057" stop-opacity="0"/>
<stop offset="1" stop-color="#F16BFA"/>
</linearGradient>
<linearGradient id="paint30_linear_436_22" x1="205.364" y1="213.481" x2="209.309" y2="207.912" gradientUnits="userSpaceOnUse">
<stop stop-color="#E50057" stop-opacity="0"/>
<stop offset="1" stop-color="#F16BFA"/>
</linearGradient>
<linearGradient id="paint31_linear_436_22" x1="438.303" y1="228.58" x2="443.995" y2="194.075" gradientUnits="userSpaceOnUse">
<stop stop-color="#E50057" stop-opacity="0"/>
<stop offset="1" stop-color="#F16BFA"/>
</linearGradient>
<linearGradient id="paint32_linear_436_22" x1="262.426" y1="81.0402" x2="278.379" y2="58.5179" gradientUnits="userSpaceOnUse">
<stop stop-color="#E50057" stop-opacity="0"/>
<stop offset="1" stop-color="#F16BFA"/>
</linearGradient>
</defs>
</svg>
