<svg xmlns="http://www.w3.org/2000/svg" version="1.1" xmlns:xlink="http://www.w3.org/1999/xlink" xmlns:svgjs="http://svgjs.dev/svgjs" width="1440" height="250" preserveAspectRatio="none" viewBox="0 0 1440 250"><g mask="url(&quot;#SvgjsMask1017&quot;)" fill="none"><path d="M39 250L289 0L505 0L255 250z" fill="url(&quot;#SvgjsLinearGradient1018&quot;)"></path><path d="M260.6 250L510.6 0L762.6 0L512.6 250z" fill="url(&quot;#SvgjsLinearGradient1018&quot;)"></path><path d="M507.20000000000005 250L757.2 0L821.7 0L571.7 250z" fill="url(&quot;#SvgjsLinearGradient1018&quot;)"></path><path d="M730.8000000000001 250L980.8000000000001 0L1148.8000000000002 0L898.8000000000001 250z" fill="url(&quot;#SvgjsLinearGradient1018&quot;)"></path><path d="M1403 250L1153 0L805 0L1055 250z" fill="url(&quot;#SvgjsLinearGradient1019&quot;)"></path><path d="M1167.4 250L917.4000000000001 0L791.4000000000001 0L1041.4 250z" fill="url(&quot;#SvgjsLinearGradient1019&quot;)"></path><path d="M959.8 250L709.8 0L496.79999999999995 0L746.8 250z" fill="url(&quot;#SvgjsLinearGradient1019&quot;)"></path><path d="M701.1999999999999 250L451.19999999999993 0L320.69999999999993 0L570.6999999999999 250z" fill="url(&quot;#SvgjsLinearGradient1019&quot;)"></path><path d="M1266.8122280531593 250L1440 76.81222805315934L1440 250z" fill="url(&quot;#SvgjsLinearGradient1018&quot;)"></path><path d="M0 250L173.18777194684066 250L 0 76.81222805315934z" fill="url(&quot;#SvgjsLinearGradient1019&quot;)"></path></g><defs><mask id="SvgjsMask1017"><rect width="1440" height="250" fill="#ffffff"></rect></mask><linearGradient x1="0%" y1="100%" x2="100%" y2="0%" id="SvgjsLinearGradient1018"><stop stop-color="rgba(241, 107, 250, 1)" offset="0"></stop><stop stop-opacity="0" stop-color="rgba(241, 107, 250, 1)" offset="0.66"></stop></linearGradient><linearGradient x1="100%" y1="100%" x2="0%" y2="0%" id="SvgjsLinearGradient1019"><stop stop-color="rgba(241, 107, 250, 1)" offset="0"></stop><stop stop-opacity="0" stop-color="rgba(241, 107, 250, 1)" offset="0.66"></stop></linearGradient></defs></svg>