<svg width="6139" height="6038" viewBox="0 0 6139 6038" fill="none" xmlns="http://www.w3.org/2000/svg">
<path d="M692.127 6.33113C693.064 14.3107 786.591 816.019 974.548 1769.11C1084.84 2328.3 1205.54 2829.43 1333.37 3258.46C1492.54 3793.03 1663.02 4215.95 1840 4515.62C1852.18 4536.26 1864.23 4556.23 1876.08 4575.45C1900.18 4614.64 1923.57 4650.92 1946.19 4684.32C1961.05 4650.89 1975.97 4614.9 1990.9 4576.48C1979.04 4557.23 1967.06 4537.33 1954.88 4516.69C1943.28 4497.04 1931.75 4476.95 1920.24 4456.24C1755.61 4161.19 1596.99 3759.08 1448.25 3259.53C1320.42 2830.47 1199.72 2329.37 1089.43 1770.15C901.439 817.086 807.913 15.3445 807.008 7.33262L692.127 6.29883V6.33113Z" fill="#E58F51"/>
<path d="M461.204 4.19922C462.141 12.2111 555.667 813.952 743.625 1766.98C853.918 2326.23 974.678 2827.3 1102.45 3256.36C1261.62 3790.9 1432.13 4213.85 1609.11 4513.52C1672.59 4620.91 1731.09 4709.23 1785.01 4778.85C1808.37 4809.02 1830.85 4835.68 1852.53 4858.81C1868.49 4835.64 1884.32 4809.09 1900.12 4779.46C1877.89 4750.74 1854.89 4718.89 1831.11 4683.81C1797.19 4633.89 1761.72 4577.49 1724.54 4514.59C1547.56 4214.91 1377.08 3792 1217.85 3257.46C1090.08 2828.4 969.347 2327.3 859.054 1768.08C671.13 814.954 577.571 13.2126 576.699 5.26532L461.237 4.19922H461.204Z" fill="#E58F51"/>
<path d="M230.311 2.10156C231.248 10.0812 324.774 811.79 512.731 1764.89C623.024 2324.14 743.784 2825.2 871.555 3254.26C1030.73 3788.8 1201.24 4211.72 1378.21 4511.39C1498.36 4714.82 1600.9 4849.89 1687.87 4918.67C1709.83 4936.09 1730.83 4949.27 1750.86 4958.25C1768.47 4949.46 1785.79 4936.47 1802.97 4919.48C1782.01 4902.88 1760.2 4882.43 1737.46 4858.1C1665.67 4781.57 1584.74 4666.62 1493.64 4512.42C1316.67 4212.75 1146.19 3789.8 987.017 3255.26C859.182 2826.21 738.486 2325.11 628.193 1765.92C440.203 812.856 346.677 11.1473 345.773 3.16766L230.311 2.10156Z" fill="#E58F51"/>
<path d="M0.000865129 0C0.937743 7.97961 94.4641 809.721 282.421 1762.78C392.714 2322 513.442 2823.1 641.245 3252.16C800.45 3786.7 970.929 4209.65 1147.9 4509.32C1326.39 4811.42 1465.96 4962.77 1573.37 4970.3C1575.83 4970.46 1578.28 4970.56 1580.71 4970.59L1695.59 4971.62C1693.16 4971.62 1690.71 4971.49 1688.25 4971.33C1580.84 4963.77 1441.27 4812.45 1262.78 4510.35C1085.81 4210.68 915.331 3787.73 756.126 3253.19C628.323 2824.14 507.595 2323.04 397.302 1763.82C209.345 810.754 115.786 9.01341 114.882 1.0338L0.000865129 0Z" fill="#E58F51"/>
<path d="M2273.64 4976.92L2387.68 4977.95C2393.47 4977.98 2399.18 4977.66 2404.77 4976.85C2594.93 4949.46 2748.06 4432.82 2960.05 3717.79C3107.46 3220.63 3290.93 2601.84 3549.44 1924.31C3586.89 1826.23 3626.59 1741.27 3668.3 1670.03C3684.19 1642.89 3700.35 1617.76 3716.72 1594.63C3694.92 1571.34 3673.24 1549.95 3651.72 1530.47C3634.86 1549.46 3618.26 1570.56 3601.88 1593.59C3542.27 1677.46 3486.22 1787.88 3434.6 1923.25C3176.05 2600.8 2992.62 3219.56 2845.17 3716.72C2647.52 4383.58 2500.95 4877.87 2327.88 4963.71H2327.85C2315.32 4969.88 2302.72 4973.98 2289.89 4975.79C2284.63 4976.56 2279.17 4976.95 2273.67 4976.95L2273.64 4976.92Z" fill="#EA7F9C"/>
<path d="M2042.88 4974.79L2157.37 4975.85C2163.16 4975.89 2168.87 4975.5 2174.46 4974.69C2187.38 4972.82 2200.05 4968.71 2212.68 4962.48C2230.22 4953.76 2247.47 4940.83 2264.56 4923.97C2415.92 4774.43 2552.15 4314.64 2729.74 3715.66C2877.15 3218.43 3060.59 2599.71 3319.13 1922.12C3385.07 1749.41 3458.11 1617.31 3536.55 1529.08C3541.72 1523.3 3546.89 1517.68 3552.09 1512.22C3563.88 1499.94 3575.81 1488.57 3587.92 1478.13C3567.02 1462.72 3546.21 1449.25 3525.63 1437.65C3507.67 1448.8 3490.03 1461.88 3472.72 1476.84C3460.54 1487.31 3448.49 1498.78 3436.63 1511.12C3352.34 1598.99 3273.97 1736.87 3203.67 1921.05C2945.12 2598.58 2761.69 3217.37 2614.28 3714.53C2456.3 4247.45 2330.99 4670.14 2198.66 4862.27C2182.34 4885.95 2165.93 4906.14 2149.33 4922.58C2132.17 4939.57 2114.83 4952.56 2097.22 4961.38C2084.62 4967.65 2071.86 4971.72 2058.97 4973.59C2053.64 4974.37 2048.27 4974.69 2042.81 4974.69L2042.88 4974.79Z" fill="#EA7F9C"/>
<path d="M1811.83 4972.69L1926.45 4973.72C1932.23 4973.82 1937.95 4973.43 1943.54 4972.62C1956.46 4970.75 1969.19 4966.65 1981.79 4960.41H1981.82C1999.43 4951.62 2016.71 4938.6 2033.87 4921.61C2050.57 4905.07 2067.04 4884.81 2083.46 4860.94C2099.29 4837.91 2115.05 4811.48 2130.78 4782.02C2246.18 4565.73 2359.87 4182.29 2498.82 3713.56C2646.23 3216.4 2829.69 2597.64 3088.21 1920.08C3158.51 1735.94 3236.88 1598.02 3321.17 1510.15C3350.02 1480.1 3379.77 1455.55 3410.46 1436.56C3428.26 1425.44 3446.42 1416.23 3464.8 1408.9C3444.87 1401.18 3425.1 1395.37 3405.55 1391.42C3386.65 1394.95 3367.98 1400.4 3349.63 1407.71C3299.46 1427.67 3251.42 1461.56 3205.74 1509.12C3121.45 1596.96 3043.08 1734.87 2972.78 1919.02C2714.23 2596.57 2530.8 3215.33 2383.39 3712.55C2262.92 4118.9 2161.47 4461.18 2061.42 4685.94C2046.17 4720.31 2030.93 4751.87 2015.65 4780.53C1999.85 4810.22 1983.99 4836.71 1968.03 4859.87C1951.68 4883.72 1935.17 4904 1918.5 4920.58C1901.35 4937.57 1884 4950.56 1866.36 4959.34C1853.76 4965.61 1841.06 4969.68 1828.14 4971.56C1822.81 4972.33 1817.35 4972.72 1811.86 4972.72L1811.83 4972.69Z" fill="#EA7F9C"/>
<path d="M1582.23 4970.55L1695.52 4971.62C1701.31 4971.65 1707.03 4971.27 1712.61 4970.52C1725.54 4968.65 1738.27 4964.55 1750.87 4958.25C1768.47 4949.46 1785.79 4936.47 1802.98 4919.48C1819.68 4902.94 1836.15 4882.62 1852.56 4858.78C1868.52 4835.61 1884.35 4809.06 1900.15 4779.43C1915.53 4750.65 1930.88 4718.86 1946.19 4684.32C1961.05 4650.89 1975.97 4614.9 1990.9 4576.48C2076.74 4356.38 2165.51 4057.13 2267.92 3711.46C2415.34 3214.3 2598.77 2595.51 2857.32 1917.98C2927.55 1733.8 3005.99 1595.92 3090.28 1508.05C3169.3 1425.67 3255.46 1384.38 3347.6 1385.25L3232.72 1384.22C3140.61 1383.38 3054.42 1424.63 2975.4 1506.98C2891.11 1594.86 2812.74 1732.77 2742.44 1916.92C2483.89 2594.47 2300.46 3213.23 2153.04 3710.39C2068.01 3997.17 1992.45 4252.03 1920.21 4456.24C1905.35 4498.14 1890.65 4537.98 1876.05 4575.45C1860.96 4614.09 1846.01 4650.24 1831.11 4683.77C1815.74 4718.31 1800.39 4750.07 1785.01 4778.85C1769.22 4808.51 1753.42 4835 1737.43 4858.13C1721.01 4881.94 1704.54 4902.23 1687.84 4918.7C1670.68 4935.66 1653.33 4948.65 1635.73 4957.37C1623.19 4963.54 1610.56 4967.65 1597.73 4969.46C1592.63 4970.17 1587.43 4970.55 1582.2 4970.55H1582.23Z" fill="#EA7F9C"/>
<path d="M3982.41 1396.59C4087.02 1417.56 4197.6 1492.22 4311.67 1619.15C4424.91 1745.11 4545.34 1926.45 4669.79 2158.15C4877.74 2545.34 5101.24 3080.16 5334.19 3747.77C5730.17 4882.55 6020.44 6024.74 6023.32 6036.17L6138.2 6037.24C6135.35 6025.84 5845.02 4883.62 5449.08 3748.8C5216.12 3081.26 4992.59 2546.43 4784.67 2159.18C4660.26 1927.51 4539.79 1746.15 4426.55 1620.22C4297.91 1477.07 4173.76 1400.37 4057.52 1392.2C4051.54 1391.81 4045.63 1391.55 4039.75 1391.52C4020.37 1391.36 4001.24 1393.01 3982.41 1396.59Z" fill="#F16BFA"/>
<path d="M3751.94 1394.56C3771.48 1398.47 3791.25 1404.31 3811.19 1412.04C3831.15 1419.69 3851.34 1429.29 3871.66 1440.69C3939.6 1478.85 4009.51 1537.77 4080.75 1617.08C4194.02 1742.98 4314.48 1924.38 4438.9 2156.05C4646.82 2543.27 4870.31 3078.1 5103.27 3745.67C5499.25 4880.49 5789.52 6022.7 5792.43 6034.11L5907.86 6035.17C5905.01 6023.77 5614.68 4881.52 5218.7 3746.73C4985.77 3079.13 4762.25 2544.3 4554.33 2157.11C4429.91 1925.44 4309.45 1744.08 4196.21 1618.12C4103.43 1514.96 4013.04 1446.28 3926.23 1412.97C3906.43 1405.35 3886.75 1399.57 3867.34 1395.62C3853.83 1392.91 3840.46 1391.07 3827.18 1390.13C3821.2 1389.71 3815.29 1389.49 3809.41 1389.45C3789.99 1389.29 3770.8 1390.97 3751.91 1394.56H3751.94Z" fill="#F16BFA"/>
<path d="M3520.98 1392.46C3540.49 1396.37 3560.27 1402.21 3580.2 1409.94C3600.29 1417.66 3620.61 1427.28 3641.06 1438.78C3661.67 1450.38 3682.42 1463.89 3703.38 1479.26C3724.35 1494.67 3745.51 1512.02 3766.8 1531.25C3794.26 1555.99 3821.95 1583.94 3849.89 1614.98C3963.12 1740.94 4083.56 1922.31 4208 2153.98C4415.93 2541.17 4639.42 3075.99 4872.38 3743.6C5268.35 4878.39 5558.63 6020.63 5561.53 6032.04L5676.96 6033.07C5674.12 6021.67 5383.78 4879.45 4987.81 3744.67C4754.88 3077.06 4531.36 2542.23 4323.43 2155.04C4199.02 1923.31 4078.55 1742.01 3965.32 1616.05C3915.6 1560.77 3866.59 1515.38 3818.46 1480.07C3797.62 1464.73 3776.97 1451.35 3756.53 1439.85C3736.04 1428.32 3715.75 1418.69 3695.69 1410.97C3675.76 1403.25 3655.99 1397.43 3636.44 1393.49C3622.94 1390.78 3609.56 1388.94 3596.29 1388C3590.31 1387.61 3584.4 1387.42 3578.52 1387.32C3559.04 1387.16 3539.88 1388.84 3520.98 1392.49V1392.46Z" fill="#F16BFA"/>
<path d="M3232.75 1384.19C3238.66 1384.22 3244.6 1384.45 3250.55 1384.83C3263.76 1385.77 3277.01 1387.55 3290.41 1390.29C3309.93 1394.2 3329.7 1400.02 3349.63 1407.68C3369.72 1415.4 3390.01 1425.02 3410.46 1436.52C3431.04 1448.06 3451.81 1461.53 3472.75 1476.91C3493.84 1492.41 3515.13 1509.83 3536.55 1529.11C3558.2 1548.66 3579.97 1570.14 3601.91 1593.56C3607.79 1599.86 3613.67 1606.29 3619.58 1612.85C3635.67 1630.78 3651.95 1649.81 3668.3 1669.97C3767.22 1791.44 3871.02 1953.1 3977.73 2151.85C4185.65 2539.04 4409.14 3073.86 4642.1 3741.47C5038.08 4876.25 5328.35 6018.44 5331.26 6029.87L5446.1 6030.94C5443.26 6019.54 5152.96 4877.32 4756.98 3742.5C4524.02 3074.96 4300.53 2540.13 4092.61 2152.88C3968.13 1921.21 3847.69 1739.85 3734.46 1613.89C3728.55 1607.33 3722.67 1600.9 3716.76 1594.6C3694.95 1571.31 3673.27 1549.92 3651.76 1530.44C3630.34 1511.09 3609.05 1493.64 3587.95 1478.17C3567.05 1462.76 3546.24 1449.29 3525.67 1437.69C3505.22 1426.19 3484.96 1416.56 3464.83 1408.84C3444.9 1401.12 3425.13 1395.3 3405.58 1391.36C3392.08 1388.65 3378.71 1386.81 3365.43 1385.87C3359.52 1385.48 3353.57 1385.22 3347.66 1385.19L3232.78 1384.16L3232.75 1384.19Z" fill="#F16BFA"/>
</svg>
