<svg width="374" height="228" viewBox="0 0 374 228" fill="none" xmlns="http://www.w3.org/2000/svg">
<path d="M232.16 158.652C232.16 146.811 241.758 137.213 253.599 137.212L294.13 137.212C307.324 137.212 318.02 126.516 318.019 113.322C318.019 100.129 307.323 89.4328 294.129 89.433L227.769 89.4327C216.267 89.4327 206.942 80.1079 206.942 68.606C206.942 57.104 216.267 47.7791 227.769 47.7791L330.167 47.7794C343.361 47.7792 354.057 37.0832 354.057 23.8895C354.057 10.6958 343.361 -0.000169875 330.167 2.02385e-09L23.8895 0.000255721C10.6958 0.000425597 -0.000169875 10.6964 2.02272e-09 23.8901C0.000169879 37.0838 10.6962 47.7798 23.8899 47.7797L113.323 47.7791C124.825 47.7791 134.15 57.1039 134.15 68.6058C134.15 80.1078 124.825 89.4327 113.323 89.4327L100.154 89.433C86.9599 89.4332 76.2639 100.129 76.2641 113.323C76.2643 126.517 86.9602 137.213 100.154 137.212L164.575 137.213C176.415 137.213 186.014 146.811 186.014 158.652C186.014 170.492 176.416 180.091 164.575 180.092L43.1872 180.092C29.9935 180.092 19.2975 190.788 19.2976 203.982C19.2978 217.175 29.9938 227.871 43.1875 227.871L349.465 227.871C362.659 227.871 373.355 217.175 373.355 203.981C373.354 190.787 362.658 180.091 349.465 180.092L253.6 180.091C241.759 180.092 232.161 170.492 232.16 158.652Z" fill="#F16BFA"/>
</svg>
