<svg width="333" height="310" viewBox="0 0 333 310" fill="none" xmlns="http://www.w3.org/2000/svg">
<path d="M107.471 90.6205C109.103 89.2575 111.433 88.3035 114.437 87.9555C116.596 87.7055 118.643 87.8255 120.575 88.2255" stroke="#F4C95E" stroke-width="5.2958" stroke-miterlimit="10" stroke-linecap="round"/>
<path d="M60.3368 54.2854C71.0508 51.2574 82.2168 50.7414 92.7698 52.5254C103.331 54.2964 113.295 58.3574 121.839 64.1844C130.398 69.9984 137.492 77.5814 142.68 86.0204C147.895 94.4644 151.202 103.696 152.978 112.917C153.798 117.177 151.01 121.296 146.749 122.117C142.978 122.843 139.319 120.742 137.958 117.296L137.883 117.101C135.04 109.915 131.127 103.404 126.244 98.0784C121.376 92.7444 115.561 88.6154 109.316 85.9424C103.076 83.2594 96.4188 82.0264 89.9968 82.2214C83.5718 82.4064 77.4068 84.0194 72.0678 86.7784C63.5278 91.1914 53.0268 87.8444 48.6148 79.3044C44.2018 70.7644 47.5488 60.2634 56.0878 55.8514C57.1188 55.3184 58.1788 54.8984 59.2518 54.5874L60.3368 54.2854Z" fill="white"/>
<mask id="mask0_31_508" style="mask-type:luminance" maskUnits="userSpaceOnUse" x="46" y="51" width="108" height="72">
<path d="M60.3368 54.2854C71.0508 51.2574 82.2168 50.7414 92.7698 52.5254C103.331 54.2964 113.295 58.3574 121.839 64.1844C130.398 69.9984 137.492 77.5814 142.68 86.0204C147.895 94.4644 151.202 103.696 152.978 112.917C153.798 117.177 151.01 121.296 146.749 122.117C142.978 122.843 139.319 120.742 137.958 117.296L137.883 117.101C135.04 109.915 131.127 103.404 126.244 98.0784C121.376 92.7444 115.561 88.6154 109.316 85.9424C103.076 83.2594 96.4188 82.0264 89.9968 82.2214C83.5718 82.4064 77.4068 84.0194 72.0678 86.7784C63.5278 91.1914 53.0268 87.8444 48.6148 79.3044C44.2018 70.7644 47.5488 60.2634 56.0878 55.8514C57.1188 55.3184 58.1788 54.8984 59.2518 54.5874L60.3368 54.2854Z" fill="white"/>
</mask>
<g mask="url(#mask0_31_508)">
<path d="M92.7726 46.2764C108.294 43.6414 117.148 83.6544 87.9976 89.7194" stroke="#F36744" stroke-width="7" stroke-miterlimit="10"/>
</g>
<path d="M60.9997 64.3194C53.0627 61.5354 41.1127 66.0784 34.2387 75.6794C27.3637 85.2804 34.8997 108.553 43.4997 102.044C52.1007 95.5364 53.4837 84.5644 59.5817 84.5554C64.7897 84.5474 63.9127 91.9794 62.7327 94.4824C60.5117 99.1964 68.2697 103.137 71.1047 92.8204C73.9417 82.5044 77.7867 70.2064 60.9997 64.3194Z" fill="#8B5DE6"/>
<mask id="mask1_31_508" style="mask-type:luminance" maskUnits="userSpaceOnUse" x="31" y="63" width="43" height="41">
<path d="M60.9997 64.3194C53.0627 61.5354 41.1127 66.0784 34.2387 75.6794C27.3637 85.2804 34.8997 108.553 43.4997 102.044C52.1007 95.5364 53.4837 84.5644 59.5817 84.5554C64.7897 84.5474 63.9127 91.9794 62.7327 94.4824C60.5117 99.1964 68.2697 103.137 71.1047 92.8204C73.9417 82.5044 77.7867 70.2064 60.9997 64.3194Z" fill="white"/>
</mask>
<g mask="url(#mask1_31_508)">
<path opacity="0.1" d="M45.0735 81.7625C38.0435 88.6045 30.7095 103.933 41.3275 105.687" stroke="black" stroke-width="2.1183" stroke-miterlimit="10" stroke-linecap="round"/>
</g>
<mask id="mask2_31_508" style="mask-type:luminance" maskUnits="userSpaceOnUse" x="31" y="63" width="43" height="41">
<path d="M60.9997 64.3194C53.0627 61.5354 41.1127 66.0784 34.2387 75.6794C27.3637 85.2804 34.8997 108.553 43.4997 102.044C52.1007 95.5364 53.4837 84.5644 59.5817 84.5554C64.7897 84.5474 63.9127 91.9794 62.7327 94.4824C60.5117 99.1964 68.2697 103.137 71.1047 92.8204C73.9417 82.5044 77.7867 70.2064 60.9997 64.3194Z" fill="white"/>
</mask>
<g mask="url(#mask2_31_508)">
<path opacity="0.1" d="M39.8847 78.0084C32.1757 82.5494 26.6897 92.7494 30.2347 96.9884" stroke="black" stroke-width="2.1183" stroke-miterlimit="10" stroke-linecap="round"/>
</g>
<path d="M110.195 105.423C123.888 107.155 132.948 123.064 132.948 123.064" stroke="#F36744" stroke-width="5.2958" stroke-miterlimit="10" stroke-linecap="round"/>
<path d="M119.409 144.053C81.2937 116.446 44.4657 111.548 19.8827 132.896C-3.88732 153.538 6.06468 185.355 8.96568 198.55C13.4537 218.962 -5.02232 222.187 1.35268 226.116C7.72768 230.048 24.9967 232.483 36.5377 219.948C48.0797 207.415 38.8707 190.005 35.8847 182.005C32.8987 174.005 29.0137 145.898 56.9897 145.795C84.9657 145.691 116.281 169.106 116.281 169.106L119.409 144.053Z" fill="white"/>
<mask id="mask3_31_508" style="mask-type:luminance" maskUnits="userSpaceOnUse" x="0" y="119" width="120" height="111">
<path d="M119.409 144.053C81.2937 116.446 44.4657 111.548 19.8827 132.896C-3.88732 153.538 6.06468 185.355 8.96568 198.55C13.4537 218.962 -5.02232 222.187 1.35268 226.116C7.72768 230.048 24.9967 232.483 36.5377 219.948C48.0797 207.415 38.8707 190.005 35.8847 182.005C32.8987 174.005 29.0137 145.898 56.9897 145.795C84.9657 145.691 116.281 169.106 116.281 169.106L119.409 144.053Z" fill="white"/>
</mask>
<g mask="url(#mask3_31_508)">
<path d="M-4.05029 177.326C7.61071 192.711 35.9887 188.875 43.4777 174.4" stroke="#F36744" stroke-width="10" stroke-miterlimit="10"/>
</g>
<path d="M42.6918 115.85C25.4228 116.477 8.6768 130.015 11.8348 140.266C14.9918 150.517 32.2388 143.265 48.2268 135.876C58.3088 131.217 58.1598 115.289 42.6918 115.85Z" fill="#F2F2F2"/>
<path d="M122.592 134.525C115.021 131.669 105.14 134.376 101.51 151.202C97.8815 168.028 114.232 177.937 118.74 172.152C123.249 166.365 122.592 134.525 122.592 134.525Z" fill="#8B5DE6"/>
<path d="M210.554 14.5784C216.708 4.41845 228.233 -1.20556 240.025 0.218444C251.824 1.64244 267.743 5.06344 284.988 12.9834C297.473 18.7184 308.45 25.3074 317.428 31.4354C333.097 42.1294 337.339 63.4184 327.066 79.3664C315.385 97.5004 298.921 121.494 282.243 140.632C268.269 156.666 255.704 176.472 246.102 193.42C235 213.02 209.598 219.074 190.834 206.613L121.947 160.869L210.554 14.5784Z" fill="#8B5DE6"/>
<mask id="mask4_31_508" style="mask-type:luminance" maskUnits="userSpaceOnUse" x="121" y="0" width="212" height="214">
<path d="M210.554 14.5784C216.708 4.41845 228.233 -1.20556 240.025 0.218444C251.824 1.64244 267.743 5.06344 284.988 12.9834C297.473 18.7184 308.45 25.3074 317.428 31.4354C333.097 42.1294 337.339 63.4184 327.066 79.3664C315.385 97.5004 298.921 121.494 282.243 140.632C268.269 156.666 255.704 176.472 246.102 193.42C235 213.02 209.598 219.074 190.834 206.613L121.947 160.869L210.554 14.5784Z" fill="white"/>
</mask>
<g mask="url(#mask4_31_508)">
<path opacity="0.1" d="M186.59 24.2904C192.52 14.5004 203.623 9.08244 214.986 10.4544C226.354 11.8264 241.694 15.1224 258.309 22.7534C270.34 28.2784 280.915 34.6274 289.567 40.5324C304.665 50.8364 308.753 71.3494 298.853 86.7154C287.598 104.187 271.734 127.307 255.664 145.746C242.2 161.196 230.093 180.28 220.842 196.608C210.144 215.495 185.67 221.329 167.589 209.321L101.214 165.245L186.59 24.2904Z" fill="black"/>
</g>
<path d="M186.003 101.026C149.648 94.2134 102.724 128.78 110.411 165.781C118.098 202.782 166.579 224.667 208.331 195.171C250.083 165.675 226.122 108.544 186.003 101.026Z" fill="white"/>
<mask id="mask5_31_508" style="mask-type:luminance" maskUnits="userSpaceOnUse" x="109" y="100" width="122" height="109">
<path d="M186.003 101.026C149.648 94.2134 102.724 128.78 110.411 165.781C118.098 202.782 166.579 224.667 208.331 195.171C250.083 165.675 226.122 108.544 186.003 101.026Z" fill="white"/>
</mask>
<g mask="url(#mask5_31_508)">
<path opacity="0.05" d="M142.889 97.4405C143.103 112.993 159.655 121.453 174.214 125.238C188.773 129.022 210.303 125.603 214.473 152.939C218.642 180.275 201.328 203.432 201.328 203.432C175.563 223.125 248.951 196.285 251.373 170.968C253.795 145.649 253.283 95.3425 222.066 88.9065C190.851 82.4685 142.889 97.4405 142.889 97.4405Z" fill="black"/>
</g>
<path d="M197.03 10.8545C195.742 10.1985 194.38 9.83646 193.016 9.73346L193.017 9.73146L151.435 4.95746L141.654 58.0035L181.289 62.4915C182.235 62.7115 183.185 62.8105 184.123 62.8005L184.251 62.8155L184.253 62.7995C189.616 62.6825 194.529 58.9745 195.769 53.3565L202.563 22.5815C203.603 17.8675 201.328 13.0475 197.03 10.8545Z" fill="#E6E6E6"/>
<path d="M155.927 6.10547C160.226 8.29847 162.501 13.1185 161.461 17.8315L154.668 48.6075C153.072 55.8375 145.397 59.9335 138.502 57.2355L131.255 54.3995C124.236 51.6515 121.431 43.2095 125.411 36.8075L142.11 9.95147C145.017 5.27447 151.022 3.60347 155.927 6.10547Z" fill="white"/>
<path d="M146.321 14.5284C147.041 12.3014 149.43 11.0795 151.657 11.7995C153.885 12.5195 155.106 14.9084 154.386 17.1354L146.321 14.5284Z" fill="#254E5F"/>
<path d="M134.446 45.1875C133.93 42.9835 135.298 40.7795 137.502 40.2635C139.705 39.7475 141.91 41.1155 142.425 43.3195C142.941 45.5235 141.573 47.7275 139.37 48.2425C137.165 48.7595 134.961 47.3905 134.446 45.1875Z" fill="#F4C95E"/>
<path d="M139.671 33.1785C139.155 30.9745 140.524 28.7705 142.727 28.2545C144.931 27.7385 147.135 29.1065 147.65 31.3105C148.166 33.5135 146.798 35.7185 144.594 36.2335C142.391 36.7495 140.186 35.3825 139.671 33.1785Z" fill="#CCCCCC"/>
<path d="M137.26 17.7495L159.848 25.1345" stroke="#E6E6E6" stroke-width="2.1183" stroke-miterlimit="10"/>
<path d="M159.848 25.1345L201.382 27.9285" stroke="#CCCCCC" stroke-width="2.1183" stroke-miterlimit="10"/>
<path d="M214.747 6.44847C180.724 5.08347 147.322 38.3775 137.404 65.4025C127.485 92.4285 139.703 102.066 159.4 111.546C179.095 121.026 208.438 131.778 248.369 115.793C288.3 99.8075 286.137 65.1935 272.654 39.7225C259.815 15.4665 238.301 7.39347 214.747 6.44847Z" fill="#312C79"/>
<mask id="mask6_31_508" style="mask-type:luminance" maskUnits="userSpaceOnUse" x="133" y="6" width="149" height="118">
<path d="M214.747 6.44847C180.724 5.08347 147.322 38.3775 137.404 65.4025C127.485 92.4285 139.703 102.066 159.4 111.546C179.095 121.026 208.438 131.778 248.369 115.793C288.3 99.8075 286.137 65.1935 272.654 39.7225C259.815 15.4665 238.301 7.39347 214.747 6.44847Z" fill="white"/>
</mask>
<g mask="url(#mask6_31_508)">
<path d="M174.521 13.8405C224.709 5.14651 248.841 17.9355 255.976 52.5215C267.115 106.521 217.413 131.965 217.413 131.965C217.413 131.965 263.867 130.477 279.502 112.254C295.137 94.0315 293.48 44.2025 277.998 26.3595C262.518 8.5165 218.847 -7.3655 198.315 0.1015C177.784 7.5665 174.521 13.8405 174.521 13.8405Z" fill="white"/>
</g>
<path d="M292.95 55.9665C291.66 55.3145 290.297 54.9555 288.934 54.8565L288.933 54.8555L247.338 50.2025L237.712 103.276L277.359 107.648C278.307 107.866 279.255 107.962 280.194 107.949L280.322 107.963L280.325 107.947C285.688 107.815 290.589 104.093 291.813 98.4715L298.516 67.6765C299.543 62.9605 297.254 58.1465 292.95 55.9665Z" fill="#E6E6E6"/>
<path d="M251.833 51.3365C256.139 53.5165 258.427 58.3305 257.401 63.0465L250.697 93.8415C249.122 101.076 241.459 105.195 234.556 102.516L227.3 99.7015C220.274 96.9745 217.445 88.5395 221.405 82.1265L238.026 55.2215C240.921 50.5365 246.921 48.8485 251.833 51.3365Z" fill="white"/>
<path d="M242.252 59.7874C242.966 57.5584 245.351 56.3294 247.581 57.0424C249.81 57.7564 251.038 60.1424 250.325 62.3714L242.252 59.7874Z" fill="#254E5F"/>
<path d="M230.466 90.4804C229.943 88.2784 231.305 86.0704 233.508 85.5484C235.709 85.0264 237.917 86.3884 238.439 88.5904C238.961 90.7924 237.601 93.0004 235.399 93.5224C233.197 94.0444 230.989 92.6824 230.466 90.4804Z" fill="#F4C95E"/>
<path d="M235.656 78.4574C235.134 76.2554 236.496 74.0464 238.698 73.5244C240.899 73.0024 243.108 74.3634 243.631 76.5664C244.152 78.7684 242.791 80.9764 240.589 81.4984C238.387 82.0204 236.178 80.6594 235.656 78.4574Z" fill="#CCCCCC"/>
<path d="M233.201 63.0344L255.81 70.3544" stroke="#E6E6E6" stroke-width="2.1183" stroke-miterlimit="10"/>
<path d="M255.81 70.3545L297.351 73.0285" stroke="#CCCCCC" stroke-width="2.1183" stroke-miterlimit="10"/>
<path d="M199.612 25.8885C194.581 26.6205 189.577 29.6015 185.185 33.1115C180.767 36.6655 176.79 40.8825 173.313 45.4225C169.848 49.9715 166.854 54.8605 164.557 59.9025C162.265 64.9255 160.706 70.1875 160.415 74.9925C160.153 79.3055 156.446 82.5894 152.133 82.3274C147.82 82.0664 144.536 78.3585 144.797 74.0465C144.818 73.7025 144.861 73.3645 144.924 73.0345L144.963 72.8465C146.415 65.5565 149.373 59.2765 152.862 53.5905C156.383 47.9135 160.507 42.8095 165.064 38.1785C169.637 33.5655 174.661 29.4215 180.244 25.9915C183.039 24.2865 185.984 22.7675 189.132 21.5815C192.282 20.4135 195.68 19.5875 199.278 19.5425C201.033 19.5195 202.474 20.9235 202.496 22.6795C202.518 24.2925 201.332 25.6405 199.777 25.8655L199.612 25.8885Z" fill="white"/>
<path d="M168.561 180.292C147.726 183.931 133.628 213.21 166.609 213.024C199.59 212.837 203.362 174.216 168.561 180.292Z" fill="#8B5DE6"/>
<path d="M157.914 193.495C136.09 213.042 126.686 250.005 152.685 273.954C178.686 297.905 202.377 286.118 216.99 295.714C231.602 305.312 236.343 312.896 240.933 307.091C245.524 301.284 246.362 283.657 237.423 270.187C233.47 264.23 222.76 258.789 206.733 259.324C190.706 259.859 174.742 260.025 167.005 244.072C158.483 226.5 175.7 210.238 181.629 203.23C190.847 192.335 174.075 179.021 157.914 193.495Z" fill="white"/>
<mask id="mask7_31_508" style="mask-type:luminance" maskUnits="userSpaceOnUse" x="136" y="187" width="109" height="123">
<path d="M157.914 193.495C136.09 213.042 126.686 250.005 152.685 273.954C178.686 297.905 202.377 286.118 216.99 295.714C231.602 305.312 236.343 312.896 240.933 307.091C245.524 301.284 246.362 283.657 237.423 270.187C233.47 264.23 222.76 258.789 206.733 259.324C190.706 259.859 174.742 260.025 167.005 244.072C158.483 226.5 175.7 210.238 181.629 203.23C190.847 192.335 174.075 179.021 157.914 193.495Z" fill="white"/>
</mask>
<g mask="url(#mask7_31_508)">
<path d="M190.011 296.397C203.915 293.827 209.431 269.658 197.195 254.781" stroke="#F36744" stroke-width="10" stroke-miterlimit="10"/>
</g>
<path d="M140.14 257.788C136.787 265.134 156.436 291.311 171.295 285.966C186.154 280.62 175.26 262.159 166.861 254.353C157.086 245.269 144.226 248.837 140.14 257.788Z" fill="#F2F2F2"/>
<path d="M148.095 257.353C144.601 258.896 148.453 266.38 152.536 265.371C155.696 264.589 153.409 255.007 148.095 257.353Z" fill="#CCCCCC"/>
<path d="M159.656 255.613C154.741 256.691 159.426 263.82 162.508 263.049C165.591 262.275 163.559 254.757 159.656 255.613Z" fill="#CCCCCC"/>
<path d="M47.8488 119.015C50.3218 122.785 41.3058 124.673 39.4248 121.366C37.5428 118.06 46.1258 116.389 47.8488 119.015Z" fill="#CCCCCC"/>
<path d="M40.2528 129.021C38.3638 131.435 46.0398 134.961 48.6718 131.518C51.3038 128.076 42.6968 125.897 40.2528 129.021Z" fill="#CCCCCC"/>
<path d="M124.63 130.437C115.918 132.175 116.922 145.693 128.531 142.436C140.142 139.179 134.323 128.504 124.63 130.437Z" fill="#D65D3E"/>
<path d="M124.676 129.431C118.449 130.73 120.222 138.696 127.167 137.782C132.435 137.089 133.64 127.562 124.676 129.431Z" fill="#FFA054"/>
<path d="M131.863 115.132C123.152 116.869 124.155 130.388 135.764 127.131C147.374 123.874 141.556 113.199 131.863 115.132Z" fill="#B5831F"/>
<path d="M131.764 113.618C125.536 114.918 127.311 122.883 134.256 121.97C139.523 121.277 140.728 111.749 131.764 113.618Z" fill="#D1A033"/>
<path d="M160.312 119.559C152.723 121.359 131.788 138.382 131.788 138.382C131.788 138.382 133.032 143.675 133.887 145.75C135.904 150.643 152.343 162.351 159.169 160.731C165.996 159.112 175.575 140.712 175.465 135.889C175.286 128.01 160.312 119.559 160.312 119.559Z" fill="#CCCCCC"/>
<path d="M148.079 115.32C136.266 118.122 129.979 133.996 131.788 138.383C133.597 142.77 148.336 153.267 154.457 151.816C160.578 150.364 169.167 133.866 169.068 129.542C168.907 122.476 152.232 114.335 148.079 115.32Z" fill="#F2F2F2"/>
<path d="M171.729 154.763C163.286 157.523 165.887 170.827 177.028 166.214C188.168 161.601 181.124 151.692 171.729 154.763Z" fill="#D65D3E"/>
<path d="M171.874 152.82C165.845 154.85 168.784 163.521 175.571 161.789C180.719 160.475 180.552 149.899 171.874 152.82Z" fill="#FFA054"/>
<path d="M179.345 135.623C170.902 138.383 173.503 151.686 184.644 147.074C195.785 142.461 188.74 132.552 179.345 135.623Z" fill="#B5831F"/>
<path d="M179.982 133.639C173.951 135.669 177.542 144.001 184.42 141.404C189.39 139.529 188.658 130.718 179.982 133.639Z" fill="#D1A033"/>
<path d="M174.772 156.591C192.18 151.967 206.82 169.166 219.021 195.357C234.912 229.464 278.778 200.234 247.649 179.132" stroke="#F36744" stroke-width="5.2958" stroke-miterlimit="10" stroke-linecap="round"/>
<path d="M125.96 132.856C93.7106 130.555 86.9946 108.989 104.054 105.637C106.187 105.218 108.238 105.177 110.194 105.424" stroke="#F36744" stroke-width="5.2958" stroke-miterlimit="10" stroke-linecap="round"/>
<path d="M132.275 116.507C105.868 112.516 99.7218 97.0974 107.471 90.6204" stroke="#F4C95E" stroke-width="5.2958" stroke-miterlimit="10" stroke-linecap="round"/>
<path d="M141.039 265.171C137.828 268.585 143.243 273.788 146.058 272.372C148.872 270.956 143.704 262.339 141.039 265.171Z" fill="#CCCCCC"/>
<path d="M215.368 128.915C201.859 133.42 203.118 154.305 222.679 153.669C244.155 152.971 234.871 122.41 215.368 128.915Z" fill="#8B5DE6"/>
<path d="M291.354 180.523C290.296 174.056 287.78 167.706 283.918 162.124C280.066 156.54 274.881 151.742 268.761 148.344C262.647 144.934 255.601 142.947 248.207 142.705C240.812 142.442 233.114 143.944 225.677 146.868L225.479 146.945C221.171 148.639 216.308 146.52 214.615 142.213C213.091 138.336 214.657 134.008 218.126 131.947C226.658 126.865 236.419 123.097 246.899 121.731C257.349 120.333 268.416 121.415 278.729 125.082C289.053 128.719 298.589 134.862 306.38 142.847C314.185 150.821 320.256 160.645 323.997 171.406L324.266 172.179C327.356 181.068 322.654 190.779 313.764 193.868C304.874 196.958 295.163 192.255 292.074 183.366C291.758 182.454 291.511 181.443 291.354 180.523Z" fill="white"/>
<mask id="mask8_31_508" style="mask-type:luminance" maskUnits="userSpaceOnUse" x="214" y="121" width="112" height="74">
<path d="M291.354 180.523C290.296 174.056 287.78 167.706 283.918 162.124C280.066 156.54 274.881 151.742 268.761 148.344C262.647 144.934 255.601 142.947 248.207 142.705C240.812 142.442 233.114 143.944 225.677 146.868L225.479 146.945C221.171 148.639 216.308 146.52 214.615 142.213C213.091 138.336 214.657 134.008 218.126 131.947C226.658 126.865 236.419 123.097 246.899 121.731C257.349 120.333 268.416 121.415 278.729 125.082C289.053 128.719 298.589 134.862 306.38 142.847C314.185 150.821 320.256 160.645 323.997 171.406L324.266 172.179C327.356 181.068 322.654 190.779 313.764 193.868C304.874 196.958 295.163 192.255 292.074 183.366C291.758 182.454 291.511 181.443 291.354 180.523Z" fill="white"/>
</mask>
<g mask="url(#mask8_31_508)">
<path d="M270.977 159.875C261.902 145.26 273.377 115.486 303.317 125.456" stroke="#F36744" stroke-width="7" stroke-miterlimit="10"/>
</g>
<mask id="mask9_31_508" style="mask-type:luminance" maskUnits="userSpaceOnUse" x="214" y="121" width="112" height="74">
<path d="M291.354 180.523C290.296 174.056 287.78 167.706 283.918 162.124C280.066 156.54 274.881 151.742 268.761 148.344C262.647 144.934 255.601 142.947 248.207 142.705C240.812 142.442 233.114 143.944 225.677 146.868L225.479 146.945C221.171 148.639 216.308 146.52 214.615 142.213C213.091 138.336 214.657 134.008 218.126 131.947C226.658 126.865 236.419 123.097 246.899 121.731C257.349 120.333 268.416 121.415 278.729 125.082C289.053 128.719 298.589 134.862 306.38 142.847C314.185 150.821 320.256 160.645 323.997 171.406L324.266 172.179C327.356 181.068 322.654 190.779 313.764 193.868C304.874 196.958 295.163 192.255 292.074 183.366C291.758 182.454 291.511 181.443 291.354 180.523Z" fill="white"/>
</mask>
<g mask="url(#mask9_31_508)">
<path d="M239.873 124.158C241.065 129.186 237.957 134.228 232.929 135.42C227.902 136.612 222.859 133.504 221.666 128.476C220.474 123.449 223.584 118.406 228.611 117.214C233.639 116.021 238.681 119.13 239.873 124.158Z" fill="#254E5F"/>
</g>
<path d="M313.167 180.029C321.449 181.498 329.632 191.318 330.912 203.058C332.19 214.798 314.205 231.378 309.904 221.488C305.604 211.597 309.782 201.357 304.472 198.357C299.939 195.794 296.675 205.011 296.197 207.736C295.718 210.461 287.785 210.287 290.376 199.906C292.968 189.525 295.653 176.921 313.167 180.029Z" fill="#8B5DE6"/>
<mask id="mask10_31_508" style="mask-type:luminance" maskUnits="userSpaceOnUse" x="289" y="179" width="42" height="46">
<path d="M313.167 180.029C321.449 181.498 329.632 191.318 330.912 203.058C332.19 214.798 314.205 231.378 309.904 221.488C305.604 211.597 309.782 201.357 304.472 198.357C299.939 195.794 296.675 205.011 296.197 207.736C295.718 210.461 287.785 210.287 290.376 199.906C292.968 189.525 295.653 176.921 313.167 180.029Z" fill="white"/>
</mask>
<g mask="url(#mask10_31_508)">
<path opacity="0.1" d="M317.438 203.402C320.631 209.177 323.621 224.84 318.509 229.297" stroke="black" stroke-width="2.1183" stroke-miterlimit="10" stroke-linecap="round"/>
</g>
<mask id="mask11_31_508" style="mask-type:luminance" maskUnits="userSpaceOnUse" x="289" y="179" width="42" height="46">
<path d="M313.167 180.029C321.449 181.498 329.632 191.318 330.912 203.058C332.19 214.798 314.205 231.378 309.904 221.488C305.604 211.597 309.782 201.357 304.472 198.357C299.939 195.794 296.675 205.011 296.197 207.736C295.718 210.461 287.785 210.287 290.376 199.906C292.968 189.525 295.653 176.921 313.167 180.029Z" fill="white"/>
</mask>
<g mask="url(#mask11_31_508)">
<path opacity="0.1" d="M325.268 201.183C329.252 207.277 326.71 217.976 324.75 223.48" stroke="black" stroke-width="2.1183" stroke-miterlimit="10" stroke-linecap="round"/>
</g>
<path d="M184.054 137.056C201.778 133.844 215.118 152.601 225.18 179.687C238.282 214.96 284.816 189.015 255.481 165.483" stroke="#F4C95E" stroke-width="5.2958" stroke-miterlimit="10" stroke-linecap="round"/>
<path d="M142.963 136.738L139.697 134.535C138.782 133.917 138.54 132.674 139.158 131.759L146.034 121.568C146.651 120.652 147.895 120.41 148.81 121.028L152.076 123.231C152.991 123.849 153.233 125.092 152.615 126.007L145.739 136.198C145.122 137.114 143.879 137.355 142.963 136.738Z" fill="#254E5F"/>
<path d="M160.506 132.793C159.675 134.023 158.005 134.347 156.775 133.518C155.545 132.687 155.22 131.018 156.05 129.787C156.88 128.557 158.55 128.232 159.781 129.062C161.011 129.892 161.335 131.562 160.506 132.793Z" fill="#254E5F"/>
<path d="M155.059 140.971C154.229 142.202 152.558 142.526 151.328 141.696C150.098 140.866 149.773 139.195 150.603 137.966C151.433 136.736 153.103 136.411 154.334 137.241C155.564 138.07 155.888 139.74 155.059 140.971Z" fill="#8B5DE6"/>
</svg>
