<svg width="398" height="229" viewBox="0 0 398 229" fill="none" xmlns="http://www.w3.org/2000/svg">
<path d="M366.642 13.504V194.414C366.642 201.872 360.596 207.918 353.138 207.918H44.826C37.368 207.918 31.322 201.872 31.322 194.414V13.504C31.322 6.04601 37.368 0 44.826 0H353.138C360.596 0 366.642 6.04601 366.642 13.504Z" fill="#01305A"/>
<path d="M351.747 22.701V185.216C351.747 189.999 347.872 193.876 343.09 193.876H54.877C52.857 193.876 51 193.183 49.525 192.023C49.135 191.716 48.77 191.373 48.437 191.003C47.055 189.473 46.217 187.44 46.217 185.216V22.701C46.217 17.918 50.097 14.041 54.877 14.041H343.09C344.69 14.041 346.185 14.473 347.47 15.231C348.677 15.941 349.7 16.936 350.44 18.124C351.27 19.451 351.747 21.021 351.747 22.701Z" fill="white"/>
<path d="M100.43 106.94V95.33L128.69 56H147.14L119.69 95.33L111.23 92.81H160.46V106.94H100.43ZM133.73 119V106.94L134.27 92.81V82.1H151.1V119H133.73ZM191.888 120.26C186.488 120.26 181.688 118.97 177.488 116.39C173.348 113.81 170.078 110.09 167.678 105.23C165.278 100.37 164.078 94.46 164.078 87.5C164.078 80.54 165.278 74.63 167.678 69.77C170.078 64.91 173.348 61.19 177.488 58.61C181.688 56.03 186.488 54.74 191.888 54.74C197.228 54.74 201.968 56.03 206.108 58.61C210.308 61.19 213.608 64.91 216.008 69.77C218.408 74.63 219.608 80.54 219.608 87.5C219.608 94.46 218.408 100.37 216.008 105.23C213.608 110.09 210.308 113.81 206.108 116.39C201.968 118.97 197.228 120.26 191.888 120.26ZM191.888 105.68C193.808 105.68 195.488 105.08 196.928 103.88C198.428 102.68 199.598 100.76 200.438 98.12C201.278 95.42 201.698 91.88 201.698 87.5C201.698 83.06 201.278 79.52 200.438 76.88C199.598 74.24 198.428 72.32 196.928 71.12C195.488 69.92 193.808 69.32 191.888 69.32C189.968 69.32 188.258 69.92 186.758 71.12C185.318 72.32 184.148 74.24 183.248 76.88C182.408 79.52 181.988 83.06 181.988 87.5C181.988 91.88 182.408 95.42 183.248 98.12C184.148 100.76 185.318 102.68 186.758 103.88C188.258 105.08 189.968 105.68 191.888 105.68ZM225.059 106.94V95.33L253.319 56H271.769L244.319 95.33L235.859 92.81H285.089V106.94H225.059ZM258.359 119V106.94L258.899 92.81V82.1H275.729V119H258.359Z" fill="url(#paint0_linear_8_1679)"/>
<path d="M132.96 153V143.403H137.347C138.224 143.403 138.978 143.545 139.609 143.828C140.249 144.111 140.742 144.523 141.09 145.062C141.437 145.592 141.611 146.223 141.611 146.954C141.611 147.676 141.437 148.302 141.09 148.832C140.742 149.362 140.249 149.774 139.609 150.066C138.978 150.349 138.224 150.491 137.347 150.491H134.468L135.674 149.312V153H132.96ZM135.674 149.6L134.468 148.352H137.182C137.749 148.352 138.169 148.229 138.444 147.982C138.727 147.735 138.869 147.393 138.869 146.954C138.869 146.506 138.727 146.159 138.444 145.912C138.169 145.665 137.749 145.542 137.182 145.542H134.468L135.674 144.294V149.6ZM141.3 153L145.537 143.403H148.21L152.46 153H149.636L146.318 144.733H147.388L144.07 153H141.3ZM143.617 151.135L144.317 149.134H149.005L149.705 151.135H143.617ZM157.894 153.192C157.136 153.192 156.432 153.073 155.783 152.835C155.134 152.589 154.572 152.241 154.097 151.794C153.631 151.346 153.265 150.82 153 150.217C152.735 149.605 152.602 148.933 152.602 148.202C152.602 147.47 152.735 146.803 153 146.2C153.265 145.588 153.635 145.057 154.11 144.61C154.586 144.162 155.148 143.819 155.797 143.581C156.455 143.335 157.172 143.211 157.949 143.211C158.854 143.211 159.663 143.362 160.376 143.664C161.089 143.965 161.678 144.399 162.144 144.966L160.417 146.529C160.088 146.173 159.731 145.907 159.348 145.734C158.973 145.551 158.552 145.46 158.086 145.46C157.675 145.46 157.3 145.524 156.962 145.652C156.624 145.78 156.336 145.967 156.098 146.214C155.861 146.451 155.673 146.739 155.536 147.077C155.408 147.406 155.344 147.781 155.344 148.202C155.344 148.604 155.408 148.974 155.536 149.312C155.673 149.65 155.861 149.943 156.098 150.189C156.336 150.427 156.619 150.614 156.948 150.752C157.287 150.88 157.657 150.944 158.059 150.944C158.461 150.944 158.854 150.88 159.238 150.752C159.622 150.614 160.01 150.386 160.403 150.066L161.925 151.972C161.377 152.365 160.741 152.666 160.019 152.877C159.297 153.087 158.589 153.192 157.894 153.192ZM159.526 151.615V147.996H161.925V151.972L159.526 151.615ZM166.141 147.118H170.597V149.148H166.141V147.118ZM166.333 150.902H171.351V153H163.646V143.403H171.173V145.501H166.333V150.902ZM176.847 153V143.403H179.082L184.374 149.792H183.318V143.403H185.978V153H183.743L178.451 146.611H179.507V153H176.847ZM192.732 153.192C191.964 153.192 191.256 153.069 190.607 152.822C189.958 152.575 189.392 152.228 188.907 151.78C188.432 151.323 188.062 150.793 187.797 150.189C187.532 149.586 187.399 148.924 187.399 148.202C187.399 147.48 187.532 146.817 187.797 146.214C188.062 145.61 188.432 145.085 188.907 144.637C189.392 144.18 189.958 143.828 190.607 143.581C191.256 143.335 191.964 143.211 192.732 143.211C193.509 143.211 194.217 143.335 194.857 143.581C195.506 143.828 196.068 144.18 196.543 144.637C197.019 145.085 197.389 145.61 197.654 146.214C197.928 146.817 198.065 147.48 198.065 148.202C198.065 148.924 197.928 149.591 197.654 150.203C197.389 150.806 197.019 151.332 196.543 151.78C196.068 152.228 195.506 152.575 194.857 152.822C194.217 153.069 193.509 153.192 192.732 153.192ZM192.732 150.944C193.098 150.944 193.436 150.88 193.747 150.752C194.067 150.624 194.341 150.441 194.569 150.203C194.807 149.956 194.99 149.664 195.118 149.326C195.255 148.988 195.323 148.613 195.323 148.202C195.323 147.781 195.255 147.406 195.118 147.077C194.99 146.739 194.807 146.451 194.569 146.214C194.341 145.967 194.067 145.78 193.747 145.652C193.436 145.524 193.098 145.46 192.732 145.46C192.367 145.46 192.024 145.524 191.704 145.652C191.393 145.78 191.119 145.967 190.881 146.214C190.653 146.451 190.47 146.739 190.333 147.077C190.205 147.406 190.141 147.781 190.141 148.202C190.141 148.613 190.205 148.988 190.333 149.326C190.47 149.664 190.653 149.956 190.881 150.203C191.119 150.441 191.393 150.624 191.704 150.752C192.024 150.88 192.367 150.944 192.732 150.944ZM201.396 153V145.556H198.448V143.403H207.044V145.556H204.11V153H201.396ZM214.568 147.612H218.996V149.71H214.568V147.612ZM214.76 153H212.045V143.403H219.572V145.501H214.76V153ZM225.601 153.192C224.833 153.192 224.125 153.069 223.476 152.822C222.827 152.575 222.26 152.228 221.776 151.78C221.301 151.323 220.93 150.793 220.665 150.189C220.4 149.586 220.268 148.924 220.268 148.202C220.268 147.48 220.4 146.817 220.665 146.214C220.93 145.61 221.301 145.085 221.776 144.637C222.26 144.18 222.827 143.828 223.476 143.581C224.125 143.335 224.833 143.211 225.601 143.211C226.378 143.211 227.086 143.335 227.726 143.581C228.375 143.828 228.937 144.18 229.412 144.637C229.887 145.085 230.258 145.61 230.523 146.214C230.797 146.817 230.934 147.48 230.934 148.202C230.934 148.924 230.797 149.591 230.523 150.203C230.258 150.806 229.887 151.332 229.412 151.78C228.937 152.228 228.375 152.575 227.726 152.822C227.086 153.069 226.378 153.192 225.601 153.192ZM225.601 150.944C225.966 150.944 226.305 150.88 226.615 150.752C226.935 150.624 227.209 150.441 227.438 150.203C227.676 149.956 227.858 149.664 227.986 149.326C228.123 148.988 228.192 148.613 228.192 148.202C228.192 147.781 228.123 147.406 227.986 147.077C227.858 146.739 227.676 146.451 227.438 146.214C227.209 145.967 226.935 145.78 226.615 145.652C226.305 145.524 225.966 145.46 225.601 145.46C225.235 145.46 224.893 145.524 224.573 145.652C224.262 145.78 223.988 145.967 223.75 146.214C223.522 146.451 223.339 146.739 223.202 147.077C223.074 147.406 223.01 147.781 223.01 148.202C223.01 148.613 223.074 148.988 223.202 149.326C223.339 149.664 223.522 149.956 223.75 150.203C223.988 150.441 224.262 150.624 224.573 150.752C224.893 150.88 225.235 150.944 225.601 150.944ZM236.784 153.192C235.367 153.192 234.261 152.803 233.466 152.027C232.671 151.25 232.273 150.148 232.273 148.723V143.403H234.988V148.64C234.988 149.463 235.148 150.052 235.468 150.409C235.797 150.765 236.245 150.944 236.811 150.944C237.378 150.944 237.821 150.765 238.141 150.409C238.461 150.052 238.621 149.463 238.621 148.64V143.403H241.295V148.723C241.295 150.148 240.897 151.25 240.102 152.027C239.307 152.803 238.201 153.192 236.784 153.192ZM243.133 153V143.403H245.368L250.66 149.792H249.604V143.403H252.264V153H250.029L244.738 146.611H245.793V153H243.133ZM254.179 153V143.403H258.717C259.777 143.403 260.709 143.6 261.514 143.993C262.318 144.386 262.944 144.939 263.392 145.652C263.849 146.364 264.077 147.214 264.077 148.202C264.077 149.18 263.849 150.03 263.392 150.752C262.944 151.465 262.318 152.017 261.514 152.41C260.709 152.803 259.777 153 258.717 153H254.179ZM256.893 150.834H258.607C259.156 150.834 259.631 150.733 260.033 150.532C260.444 150.322 260.764 150.02 260.993 149.627C261.221 149.225 261.335 148.75 261.335 148.202C261.335 147.644 261.221 147.169 260.993 146.776C260.764 146.383 260.444 146.086 260.033 145.885C259.631 145.674 259.156 145.569 258.607 145.569H256.893V150.834Z" fill="url(#paint1_linear_8_1679)"/>
<path d="M397.965 200.688V201.844C397.965 207.599 396.119 212.921 392.986 217.249C388.208 223.859 380.431 228.16 371.65 228.16H26.315C17.534 228.16 9.757 223.86 4.979 217.249C1.845 212.921 0 207.599 0 201.844V200.688H397.965Z" fill="#01305A"/>
<path d="M154.379 200.688V200.952C154.379 203.036 155.774 204.725 157.496 204.725H238.739C240.46 204.725 241.855 203.036 241.855 200.952V200.688H154.379Z" fill="#01305A"/>
<path opacity="0.2" d="M351.746 22.701V32.289H46.218V22.701C46.218 20.856 46.793 19.148 47.78 17.746C49.342 15.506 51.939 14.041 54.878 14.041H343.09C346.03 14.041 348.627 15.506 350.185 17.746C351.171 19.148 351.746 20.855 351.746 22.701Z" fill="#01305A"/>
<path d="M277.939 26.056H115.899C115.484 26.056 115.144 25.716 115.144 25.301V21.962C115.144 21.547 115.483 21.208 115.898 21.208H277.939C278.354 21.208 278.693 21.548 278.693 21.963V25.302C278.694 25.717 278.354 26.056 277.939 26.056Z" fill="white"/>
<path d="M76.0899 23.632V25.429C76.0899 25.944 75.5319 26.266 75.0859 26.009L73.5299 25.111L71.9739 24.213C71.5279 23.955 71.5279 23.311 71.9739 23.053L73.5299 22.155L75.0859 21.257C75.5319 20.999 76.0899 21.321 76.0899 21.837V23.632Z" fill="#01305A"/>
<path d="M84.187 23.632V25.429C84.187 25.944 84.745 26.266 85.191 26.009L86.747 25.111L88.303 24.213C88.749 23.955 88.749 23.311 88.303 23.053L86.747 22.155L85.191 21.257C84.745 20.999 84.187 21.321 84.187 21.837V23.632Z" fill="#01305A"/>
<path opacity="0.2" d="M350.185 17.746H47.78C49.342 15.506 51.939 14.041 54.878 14.041H343.09C346.03 14.041 348.627 15.506 350.185 17.746Z" fill="#01305A"/>
<path opacity="0.1" d="M289.201 179.995H104.637C101.028 179.995 98.103 177.07 98.103 173.461C98.103 169.852 101.028 166.927 104.637 166.927H289.201C292.81 166.927 295.735 169.852 295.735 173.461C295.735 177.07 292.81 179.995 289.201 179.995Z" fill="#01305A"/>
<defs>
<linearGradient id="paint0_linear_8_1679" x1="329" y1="83.252" x2="98.1344" y2="92.2108" gradientUnits="userSpaceOnUse">
<stop stop-color="#D46FD7"/>
<stop offset="1" stop-color="#FFA47A"/>
</linearGradient>
<linearGradient id="paint1_linear_8_1679" x1="271" y1="149.017" x2="134.28" y2="167.163" gradientUnits="userSpaceOnUse">
<stop stop-color="#D46FD7"/>
<stop offset="1" stop-color="#FFA47A"/>
</linearGradient>
</defs>
</svg>
