<svg width="201" height="116" viewBox="0 0 201 116" fill="none" xmlns="http://www.w3.org/2000/svg">
<path d="M0.000173004 57.2602C0.077173 25.5592 25.8372 -0.076827 57.5382 0.000173004L116.604 0.143171L165.111 0.260168C171.451 0.275168 176.578 5.42817 176.563 11.7682C176.548 18.1082 171.395 23.2352 165.055 23.2202L116.548 23.1032C110.208 23.0882 105.056 28.2152 105.04 34.5552C105.025 40.8952 110.152 46.0472 116.492 46.0632L130.182 46.0962C136.522 46.1112 141.649 51.2632 141.634 57.6042C141.619 63.9442 136.467 69.0712 130.126 69.0562L116.436 69.0232C110.096 69.0082 104.944 74.1352 104.928 80.4752C104.913 86.8152 110.04 91.9672 116.38 91.9832L157.735 92.0832C164.075 92.0982 169.202 97.2502 169.187 103.59C169.172 109.93 164.02 115.057 157.679 115.042L116.324 114.942L57.2582 114.799C25.5592 114.721 -0.076827 88.9602 0.000173004 57.2602ZM188.736 115.116C194.956 115.131 200.01 110.101 200.025 103.882C200.04 97.6622 195.01 92.6082 188.791 92.5932C182.572 92.5782 177.517 97.6082 177.502 103.827C177.487 110.047 182.517 115.101 188.736 115.116ZM175.352 46.2042L159.943 46.1672C153.603 46.1522 148.451 51.2792 148.435 57.6192C148.42 63.9592 153.547 69.1112 159.887 69.1272L175.296 69.1642C181.636 69.1792 186.788 64.0522 186.804 57.7122C186.819 51.3722 181.692 46.2192 175.352 46.2042Z" fill="#F16BFA"/>
</svg>
