<svg width="478" height="683" viewBox="0 0 478 683" fill="none" xmlns="http://www.w3.org/2000/svg">
<path d="M30.6668 1.73317C27.7334 2.79983 23.4668 4.53317 21.2001 5.73317C14.9334 8.93317 5.20009 20.5332 2.80009 27.5998C-0.266575 36.3998 0.133425 48.9332 3.46676 58.2665C6.13343 65.4665 10.5334 70.2665 75.3334 135.333C113.333 173.467 145.067 206 145.867 207.6C146.667 209.2 147.333 216.267 147.333 223.2V236L141.867 242.933C134.667 252.533 125.333 271.733 121.867 284.667C117.733 299.733 117.6 330.667 121.733 345.467C132.8 386.133 163.733 418.533 202.667 430.533C207.867 432.133 215.333 434.133 219.467 435.067L226.933 436.667L210.267 513.733L193.467 590.667H160.4H127.333L128 587.6C130.667 575.6 152.667 444 152.667 439.867C152.667 434.133 149.2 430.667 143.2 430.667C134.533 430.667 135.2 428.4 120 516.533L106 597.733L94.6668 623.333C85.4668 644.133 83.3334 650.267 83.3334 655.6C83.3334 664.4 87.8668 672.933 95.0668 678L100.933 682L135.067 682.4C154 682.667 171.867 682.533 174.8 682C182.933 680.8 191.6 674.533 195.6 667.067C198.133 662.267 204 637.067 218.667 568.933C229.6 518.533 238.933 477.333 239.333 477.333C239.733 477.333 249.067 518.533 259.867 568.933C281.867 670.933 281.867 670.8 293.333 678L299.733 682H338.8H377.733L383.6 678C390.8 672.933 395.333 664.4 395.333 655.6C395.333 650.267 393.2 644.133 384 623.333L372.8 597.733L354.667 493.067L336.533 388.267L341.467 380.533C348.267 369.867 353.333 358.133 356.933 345.067C361.2 329.467 361.2 300.267 356.933 284.667C353.467 271.867 344.133 252.667 336.667 242.933C331.333 236 331.333 235.867 331.333 224C331.333 217.467 332 210.533 332.8 208.4C333.467 206.4 365.2 173.467 403.2 135.333C468.133 70.1332 472.533 65.5998 475.2 58.2665C478.533 48.9332 478.933 36.3998 475.867 27.4665C472.933 18.9332 462.533 7.8665 453.733 3.8665C443.6 -0.666833 428 -0.666833 418.8 3.8665C410.933 7.73317 396 21.4665 394.267 26.3998C392.8 30.7998 394.133 35.0665 398.267 37.8665C403.2 41.3332 405.467 40.3998 415.333 31.4665C420.4 26.6665 426.8 22.1332 429.467 21.3332C443.6 16.6665 458 26.9332 458 41.5998C458 45.1998 457.2 49.7332 456.133 51.7332C455.067 53.7332 433.2 76.2665 407.467 102L360.667 148.667L345.067 132.933L329.333 117.333L354.4 92.2665C375.867 70.7998 379.333 66.7998 379.333 63.1998C379.333 58.1332 374.533 53.3332 369.333 53.3332C366.133 53.3332 359.2 59.5998 324.8 93.7332C282 136.133 278.8 138.667 260.667 144.8C250.533 148.267 228.133 148.267 218 144.8C199.067 138.4 198.4 137.867 130.667 70.5332C78.6668 18.7998 65.3334 6.2665 60.0001 3.8665C52.0001 0.266501 38.1334 -0.666833 30.6668 1.73317ZM51.8668 22.6665C55.3334 24.2665 73.8668 41.8665 103.333 71.3332L149.333 117.333L133.6 132.933L118 148.667L71.2001 102C45.4668 76.2665 23.6001 53.7332 22.5334 51.7332C20.1334 47.1998 20.1334 36.9332 22.5334 32.2665C28.4001 21.0665 40.5334 17.0665 51.8668 22.6665ZM174 141.733C192.667 159.333 212.933 167.2 239.333 167.2C265.867 167.2 286 159.333 304.933 141.467L315.467 131.6L331.067 147.067L346.533 162.533L332.533 176.933C317.733 192.267 313.067 199.867 311.733 210.667L311.067 216.933L300.667 210.667C281.2 199.067 252.667 192.133 231.733 194C220.4 195.067 215.333 198.133 215.333 204C215.333 206 216.533 209.067 217.867 210.8C220.267 213.867 221.333 214 237.6 214.133C250 214.4 257.467 215.067 264.8 217.067C311.6 229.6 343.067 272.667 340.267 320.667C338.8 346.267 329.467 367.2 311.333 385.467C291.333 405.733 271.6 414.667 244.267 415.733C226.267 416.4 216.533 414.933 202.133 409.2C173.467 397.733 151.333 373.467 141.867 342.667C139.2 334.267 138.667 329.867 138.667 314.667C138.8 297.867 139.067 295.867 143.067 284C150.8 261.867 164.667 243.333 182.933 230.933C193.733 223.6 195.467 218.667 189.333 212.667C185.067 208.267 181.2 208.533 173.733 213.2L167.733 217.067L166.933 210.667C165.6 199.867 160.933 192.4 146.133 176.933L132.133 162.533L147.467 147.2C155.733 138.933 162.8 132 163.067 132C163.467 132 168.267 136.4 174 141.733ZM335.333 498.667C343.333 546 350.267 586 350.667 587.6L351.333 590.667H318.267H285.2L268.4 513.733C259.2 471.333 251.867 436.533 252 436.267C252.133 436.133 255.733 435.333 260.133 434.533C278 431.467 298.667 422.533 312 412.133C318.4 407.2 318.667 407.067 319.6 409.867C320.133 411.333 327.2 451.333 335.333 498.667ZM188.667 611.867C188.667 612.533 186.533 622.933 184 634.933C177.467 664.933 180.933 662.667 140.533 662.667C120.933 662.667 107.467 662.133 105.867 661.333C101.867 659.067 102.8 654.4 110.8 636.133C114.933 626.933 119.2 617.333 120.133 614.933L122 610.667H155.333C174.933 610.667 188.667 611.2 188.667 611.867ZM366 632C375.867 653.867 376.933 659.067 372.8 661.333C371.2 662.133 357.733 662.667 338.133 662.667C297.733 662.667 301.2 664.933 294.667 634.933C292.133 622.933 290 612.533 290 611.867C290 611.067 303.067 610.8 323.467 610.933L356.8 611.333L366 632Z" fill="url(#paint0_linear_111_68)"/>
<path d="M281.334 259.6C271.2 261.866 268.534 263.733 247.6 284.533L226 305.866L214.934 295.066C201.734 282 197.334 279.6 186.667 279.466C164 279.333 149.867 301.866 160 322.133C164.4 331.066 204.267 370.8 212.667 374.533C220.534 378.133 231.467 378.133 239.334 374.533C246.4 371.333 305.467 313.466 310.8 304.533C321.867 285.866 310.267 262.666 288.667 259.6C286.134 259.333 282.8 259.2 281.334 259.6ZM288.267 280C293.334 281.866 296 286.533 294.8 291.6C294.134 294.133 283.467 305.733 262.8 326.266C222.667 366.4 228.4 365.6 198.4 335.6C180.134 317.2 176.667 313.2 176.667 309.866C176.667 302 184 296.8 190.4 300.133C192 300.933 199.334 307.6 206.8 314.8C219.6 327.466 220.534 328 226 328C231.734 328 232.134 327.6 255.2 304.8C274.4 285.866 281.467 279.466 284.134 278.666C284.267 278.666 286.134 279.333 288.267 280Z" fill="url(#paint1_linear_111_68)"/>
<path d="M214.667 3.19994C200.534 7.73327 189.6 17.1999 183.867 29.7333C180.267 37.4666 180 39.1999 179.6 58.7999C179.067 82.1333 180.667 92 186.934 102.667C196 118.133 212.134 129.2 229.867 132.267C259.867 137.333 289.867 117.867 297.334 88.1333C299.067 81.6 299.467 74.9333 299.067 58.7999C298.667 39.5999 298.4 37.4666 295.067 30.3999C290.134 19.8666 282 11.4666 271.467 6.26661C262.8 1.99994 262.534 1.99994 241.334 1.73327C226.667 1.4666 218.4 1.99994 214.667 3.19994ZM261.2 23.1999C268 25.9999 274.934 32.9333 277.334 39.1999C279.2 43.9999 279.467 48.7999 279.067 64.7999C278.667 82.2666 278.267 85.3333 275.6 90.2666C270.934 99.0666 265.2 104.933 256.934 108.933C250.667 112 247.6 112.667 239.334 112.667C223.067 112.667 210.934 105.2 203.067 90.2666C200.4 85.3333 200 82.2666 199.6 64.7999C199.2 48.7999 199.467 43.9999 201.334 39.1999C203.6 33.0666 210.534 26.1333 217.2 23.1999C222.934 20.6666 255.2 20.6666 261.2 23.1999Z" fill="url(#paint2_linear_111_68)"/>
<defs>
<linearGradient id="paint0_linear_111_68" x1="239.333" y1="682.533" x2="239.333" y2="0.404297" gradientUnits="userSpaceOnUse">
<stop stop-color="#F169FA"/>
<stop offset="1" stop-color="#E58F51"/>
</linearGradient>
<linearGradient id="paint1_linear_111_68" x1="235.863" y1="377.233" x2="235.863" y2="259.347" gradientUnits="userSpaceOnUse">
<stop stop-color="#F169FA"/>
<stop offset="1" stop-color="#E58F51"/>
</linearGradient>
<linearGradient id="paint2_linear_111_68" x1="239.357" y1="133.068" x2="239.357" y2="1.66599" gradientUnits="userSpaceOnUse">
<stop stop-color="#F169FA"/>
<stop offset="1" stop-color="#E58F51"/>
</linearGradient>
</defs>
</svg>
