<svg width="683" height="682" viewBox="0 0 683 682" fill="none" xmlns="http://www.w3.org/2000/svg">
<path d="M123.867 3.73341L119.333 7.86674L119.733 28.9334L120.133 50.1334L103.6 61.8667C83.8666 75.6001 81.2 80.0001 86 89.3334C88.1333 93.4667 91.4666 94.9334 114 101.867C126.267 105.6 128.667 106.8 129.467 109.467C130.133 111.2 132.667 119.867 135.333 128.533C140.933 146.4 144 150.667 151.6 150.667C154.133 150.667 157.333 150 158.667 149.333C160 148.533 166.4 140.667 172.667 131.6L184.267 115.333H205.6H226.8L230.8 110.933C237.467 103.6 236.4 100.133 222.4 81.4667L210.133 65.0667L216.4 46.1334C219.867 35.7334 222.667 25.8667 222.667 24.1334C222.667 20.0001 214.533 12.0001 210.133 12.0001C208.267 12.0001 199.2 14.6667 189.733 18.0001C180.4 21.3334 171.867 24.0001 170.8 24.0001C169.733 24.0001 162 18.8001 153.6 12.5334C135.2 -1.33326 130.933 -2.53326 123.867 3.73341ZM154.933 46.9334C163.333 53.4667 166.267 53.8667 177.867 50.1334C186.8 47.3334 188.133 47.2001 187.333 49.0667C183.333 59.3334 181.333 67.3334 182.133 69.7334C182.667 71.3334 185.333 76.0001 188.133 80.0001L193.333 87.3334L183.6 88.0001C172 88.9334 168.8 90.6667 162.533 99.8667C160.133 103.6 157.733 106.667 157.2 106.667C156.8 106.667 155.2 102.533 153.6 97.4667C152 92.5334 149.6 87.3334 148.133 86.1334C146.8 84.9334 141.6 82.5334 136.667 80.9334L127.6 77.8667L135.467 71.8667C145.2 64.4001 146.667 61.7334 146.667 50.2667C146.667 40.2667 146.4 40.4001 154.933 46.9334Z" fill="url(#paint0_linear_111_54)"/>
<path d="M577.333 28.6665C563.067 32.6665 551.867 42.1332 544.4 56.2665C540.933 62.7999 540.667 64.5332 540.667 77.9999C540.667 91.8665 540.933 93.0665 544.933 100.8C550.267 111.067 561.6 121.467 571.733 125.467C577.467 127.867 582 128.533 590.667 128.533C599.333 128.533 603.867 127.867 609.6 125.467C620.4 121.333 630.8 111.333 636.267 100.267C640.4 91.9999 640.667 90.3999 640.667 77.9999C640.667 65.5999 640.4 63.9999 636.267 55.7332C625.467 33.8665 600.267 22.2665 577.333 28.6665ZM600.8 55.8665C603.867 57.1999 608 60.6665 610.133 63.4665C613.6 67.8665 614 69.5999 614 77.9999C614 86.3999 613.6 88.1332 610.133 92.5332C605.733 98.3999 597.467 102.667 590.667 102.667C583.867 102.667 575.6 98.3999 571.2 92.5332C567.733 88.1332 567.333 86.3999 567.333 77.9999C567.333 69.5999 567.733 67.8665 571.2 63.4665C575.6 57.5999 583.867 53.3332 590.667 53.3332C593.2 53.3332 597.867 54.5332 600.8 55.8665Z" fill="url(#paint1_linear_111_54)"/>
<path d="M393.733 79.1999C390.267 82.2666 390 83.3332 389.333 94.9332L388.667 107.333L376.267 108C364.667 108.667 363.6 108.933 360.533 112.4C354.933 118.933 356.933 128.933 364.667 132.667C367.467 133.867 372.8 134.667 379.2 134.667H389.333V146.533C389.333 157.467 389.6 158.533 392.8 161.867C395.6 164.533 397.733 165.333 402 165.333C412 165.333 416 158.667 416 141.6V134.667H425.2C436.667 134.667 442.267 132.8 444.667 127.867C447.867 121.867 447.2 116.267 442.8 111.867C439.067 108.133 438.267 108 427.467 108H416V99.5999C416 95.0666 415.333 89.0666 414.667 86.3999C411.867 76.5332 401.2 72.7999 393.733 79.1999Z" fill="url(#paint2_linear_111_54)"/>
<path d="M213.733 143.2C210.667 145.867 210 147.467 210 152.4C210 157.467 210.8 159.2 215.333 164.133C229.2 179.067 240 197.2 246 214.933C251.467 231.6 254.933 259.867 252.533 268.933C251.733 271.867 251.467 271.733 240.133 266C233.6 262.8 222.267 258 214.667 255.333C170 239.867 136.933 245.6 120.133 271.733C117.333 276.267 100.267 328 58.4 459.333C6.53329 622.4 0.666626 641.6 0.666626 649.333C0.799959 668.533 14.2666 682 33.3333 682C40.5333 682 48.1333 680 78.6666 670.267C133.067 652.8 157.333 645.067 286.533 604C351.333 583.467 406.933 565.067 410 563.2C431.067 550.933 439.733 525.733 434 493.067C431.6 478.933 424.267 457.867 416.533 442.533L410.667 430.8L415.467 429.867C422.933 428.533 444.533 430.533 458.133 434C479.733 439.467 499.467 450.267 517.2 466.133C523.6 471.867 525.2 472.667 530.4 472.667C538 472.667 542.667 467.867 542.667 459.867C542.667 455.467 541.733 453.467 536.667 448.133C529.333 440.4 513.333 428.667 500 421.467C488.133 415.067 466 407.6 452 405.333C440.4 403.333 416.533 402.933 403.867 404.4L395.067 405.333L389.333 397.2C384.533 390.267 369.333 371.467 355.467 355.2L351.467 350.667L381.067 320.8C410.267 291.467 410.667 291.067 410.667 285.467C410.667 277.467 405.2 272 397.2 272C391.6 272 391.2 272.4 361.867 301.467L332.133 331.067L327.6 327.2C325.067 325.067 317.6 318.8 311.067 313.2C304.533 307.733 294.267 299.6 288.267 295.333L277.333 287.467L278.267 278.8C279.733 266.267 279.333 242.267 277.467 231.333C272.133 200.4 257.2 169.867 236.8 148.667C229.333 140.667 228.133 140 223.067 140C219.067 140 216.4 140.933 213.733 143.2ZM187.6 275.467C193.067 276.533 202 279.067 207.2 280.933C217.467 284.533 242.4 296.533 244.933 299.067C246.267 300.4 245.6 302.933 242 311.2C236 324.933 230.267 334.267 221.333 344.933C210.533 357.867 208.933 360.667 209.867 365.867C211.067 372.267 216.267 376.667 222.933 376.667C227.867 376.667 229.067 375.867 236.667 367.733C247.467 356.4 257.6 341.333 264.533 326.4L270 314.667L282.667 324.533C289.6 329.867 299.2 337.867 304 342.4L312.667 350.4L285.867 377.6C265.867 397.733 258.8 405.733 258.133 408.933C256.133 417.733 264.933 426.533 273.733 424.533C276.933 423.867 284.933 416.8 305.067 396.8L332.267 370L340.267 378.667C344.8 383.467 352.8 393.067 358.133 400L368 412.667L356.267 418.133C341.333 425.067 326.267 435.2 314.933 446C306.8 453.6 306 454.8 306 459.733C306 466.4 310.4 471.6 316.8 472.8C322 473.733 324.8 472.133 337.733 461.333C348.4 452.4 357.733 446.667 371.467 440.667C379.733 437.067 382.267 436.4 383.6 437.733C386.667 440.8 398.533 466.267 402.533 478.133C412.8 508.933 411.067 530.4 397.467 539.333C376 553.6 323.733 537.333 274.267 501.067C267.867 496.267 264 494.4 260.667 494.267C251.2 494 244.533 503.467 248 512C251.733 521.067 296.267 548.8 326.667 560.933C329.733 562.133 329.6 562.4 323.333 564.4C275.733 579.733 34.4 656 33.2 656C30.9333 656 26.6666 652 26.6666 649.733C26.6666 648.4 100.267 415.067 118.267 359.333C120.267 353.067 120.533 352.933 121.733 356C133.867 386.4 161.6 430.933 170.667 434.667C179.2 438.133 188.667 431.467 188.4 422C188.267 418.667 186.4 414.8 181.6 408.4C168.4 390.4 154.133 365.067 146.933 346.667C137.733 322.933 135.6 300 141.467 288.533C148.667 274.667 163.333 270.4 187.6 275.467Z" fill="url(#paint3_linear_111_54)"/>
<path d="M208.4 456.267C204.4 458.267 200.933 465.867 202 470.533C202.933 474.8 207.2 479.2 211.733 480.667C216.4 482 223.733 478.933 226 474.667C232.4 462.267 220.8 450.267 208.4 456.267Z" fill="url(#paint4_linear_111_54)"/>
<path d="M492.667 171.733C489.733 173.867 476.8 186.4 463.867 199.467C438.8 224.933 437.2 227.333 440.8 235.733C442.933 240.933 449.333 244.133 455.333 243.067C458.267 242.533 466.267 235.467 485.067 216.8C499.333 202.8 511.733 189.6 512.933 187.467C517.067 179.6 511.733 170 502.533 168.533C498.933 167.867 496.933 168.533 492.667 171.733Z" fill="url(#paint5_linear_111_54)"/>
<path d="M561.733 257.067C556.533 261.067 555.733 266 556.267 288.667L556.667 309.867L539.333 322.267C529.867 329.067 520.933 335.867 519.733 337.467C516.133 341.733 516.667 350 520.533 354C523.2 356.667 546.533 365.067 561.733 368.8C563.733 369.2 565.733 370.267 566.267 370.933C566.667 371.733 570 381.733 573.467 393.2C580.667 416.133 583.2 420 591.2 420C597.6 420 601.2 416.533 614.8 397.2L626.933 380H650.667C673.467 380 674.667 379.867 678 376.933C680.267 375.067 681.733 372.133 682.267 368.533C682.933 363.333 682.4 362.4 668.933 344.4L654.8 325.467L662.133 303.733C667.067 288.933 669.067 280.8 668.533 278.4C667.6 273.733 660.8 268 656.267 268C654.267 268 644.133 271.067 633.6 274.667C623.067 278.4 613.6 281.333 612.4 281.333C611.333 281.333 606.133 278.133 600.8 274.267C576 255.6 574.533 254.667 569.467 254.667C566.8 254.667 563.333 255.733 561.733 257.067ZM594.133 302.533C598.933 306.133 604.4 309.467 606.4 310C608.667 310.4 614.4 309.2 621.867 306.667C628.533 304.533 634 302.667 634.133 302.667C634.267 302.667 632.533 308.267 630.4 315.067C627.733 322.933 626.533 328.667 627.067 330.8C627.6 332.667 630.933 338.133 634.667 343.067C638.267 347.867 641.333 352.267 641.333 352.667C641.333 353.067 636 353.333 629.333 353.333C622.8 353.333 616.133 354 614.4 354.8C612.667 355.467 608.133 360.667 604.267 366.133C600.267 371.467 596.8 376 596.533 376C596.267 376 594.533 371.067 592.667 364.933C590.8 358.8 588.133 352.533 586.667 351.067C585.2 349.467 578.933 346.533 572.667 344.533C566.4 342.4 561.333 340.4 561.333 340C561.333 339.6 565.6 336.4 570.8 332.8C582.267 324.933 584 321.467 584 306.667C584 300.8 584.267 296 584.667 296C585.067 296 589.333 298.933 594.133 302.533Z" fill="url(#paint6_linear_111_54)"/>
<path d="M572.4 501.867C569.333 504.533 568.667 506.133 568.667 511.333C568.667 516.533 569.333 518.133 572.4 520.8C580.933 528.133 594.667 522.267 594.667 511.333C594.667 500.4 580.933 494.533 572.4 501.867Z" fill="url(#paint7_linear_111_54)"/>
<path d="M616.133 531.2C610.933 534 609.467 538.4 609.333 550.266V561.333H597.733C588.667 561.333 585.333 561.866 583.2 563.733C576.267 569.2 575.867 578.266 582.133 584.133C585.067 586.933 587.067 587.333 597.467 587.733L609.333 588.266V599.6C609.333 610.266 609.6 611.066 613.2 614.8C618.4 619.866 626.133 620.133 631.6 615.466C635.067 612.4 635.333 611.466 635.733 600.133L636.267 588H646.4C658.8 588 664.267 585.333 666.667 578.133C667.867 574.266 667.733 572.666 666 568.933C663.2 562.8 659.2 561.333 646.667 561.333H636V549.866C636 538.666 635.867 538.266 631.467 533.866C626.533 528.933 621.733 528.133 616.133 531.2Z" fill="url(#paint8_linear_111_54)"/>
<defs>
<linearGradient id="paint0_linear_111_54" x1="159.349" y1="150.667" x2="159.349" y2="0.1073" gradientUnits="userSpaceOnUse">
<stop stop-color="#F169FA"/>
<stop offset="1" stop-color="#E58F51"/>
</linearGradient>
<linearGradient id="paint1_linear_111_54" x1="590.667" y1="128.533" x2="590.667" y2="26.9137" gradientUnits="userSpaceOnUse">
<stop stop-color="#F169FA"/>
<stop offset="1" stop-color="#E58F51"/>
</linearGradient>
<linearGradient id="paint2_linear_111_54" x1="402" y1="165.333" x2="402" y2="76.0289" gradientUnits="userSpaceOnUse">
<stop stop-color="#F169FA"/>
<stop offset="1" stop-color="#E58F51"/>
</linearGradient>
<linearGradient id="paint3_linear_111_54" x1="271.667" y1="682" x2="271.667" y2="140" gradientUnits="userSpaceOnUse">
<stop stop-color="#F169FA"/>
<stop offset="1" stop-color="#E58F51"/>
</linearGradient>
<linearGradient id="paint4_linear_111_54" x1="214.811" y1="480.982" x2="214.811" y2="454.673" gradientUnits="userSpaceOnUse">
<stop stop-color="#F169FA"/>
<stop offset="1" stop-color="#E58F51"/>
</linearGradient>
<linearGradient id="paint5_linear_111_54" x1="476.855" y1="243.271" x2="476.855" y2="168.299" gradientUnits="userSpaceOnUse">
<stop stop-color="#F169FA"/>
<stop offset="1" stop-color="#E58F51"/>
</linearGradient>
<linearGradient id="paint6_linear_111_54" x1="599.879" y1="420" x2="599.879" y2="254.667" gradientUnits="userSpaceOnUse">
<stop stop-color="#F169FA"/>
<stop offset="1" stop-color="#E58F51"/>
</linearGradient>
<linearGradient id="paint7_linear_111_54" x1="581.667" y1="524.057" x2="581.667" y2="498.61" gradientUnits="userSpaceOnUse">
<stop stop-color="#F169FA"/>
<stop offset="1" stop-color="#E58F51"/>
</linearGradient>
<linearGradient id="paint8_linear_111_54" x1="622.578" y1="618.792" x2="622.578" y2="529.392" gradientUnits="userSpaceOnUse">
<stop stop-color="#F169FA"/>
<stop offset="1" stop-color="#E58F51"/>
</linearGradient>
</defs>
</svg>
