<svg width="574" height="683" viewBox="0 0 574 683" fill="none" xmlns="http://www.w3.org/2000/svg">
<path d="M264.267 1.99988C236.8 7.19988 212.667 19.8665 193.2 39.3332C152.8 79.7332 142.667 141.6 168.133 192.4C175.467 206.933 182.933 217.2 195.6 229.467L207.333 240.933L200.933 243.333C190.133 247.467 171.2 257.333 159.467 265.067C148.267 272.4 128.267 288.533 122.267 295.067L119.2 298.267L98.2666 290.4C75.3333 281.733 69.8666 281.067 62.2666 286.4C54.4 292.133 54 294.533 54 336.4V374.4L46.5333 376.8C20.2666 385.067 0.666626 412 0.666626 440C0.666626 468 20.2666 494.933 46.5333 503.2L54 505.6V546.533C54 583.867 54.2666 587.733 56.5333 592C57.8666 594.533 60.8 597.733 62.9333 598.933C69.8666 603.067 283.6 682.667 287.467 682.667C291.2 682.667 500.133 605.067 510.133 599.867C513.467 598.267 516.267 595.333 518 592C520.533 587.067 520.667 584.267 520.667 546.133V505.6L528.133 503.2C560.267 493.2 580.267 457.067 572 424.667C566.133 401.733 550.4 384.4 528.8 377.2L520.667 374.4V336.533C520.667 301.067 520.533 298.267 518 293.333C514.933 287.467 507.333 282.667 500.933 282.667C498.667 282.667 487.6 286.133 476.267 290.533L455.467 298.267L452.4 295.067C435.467 276.933 398.667 252.8 373.733 243.333L367.467 241.067L379.2 229.467C401.067 207.867 413.6 184.533 418.667 155.333C430.533 87.3332 386.533 20.6665 318.667 3.86654C304.4 0.266545 278.133 -0.666789 264.267 1.99988ZM305.067 41.8665C333.333 47.3332 357.733 66.1332 370.533 92.2665C384 119.867 384 146.8 370.4 174.667C365.333 185.2 362.4 189.2 352.8 198.8C343.2 208.4 339.2 211.333 328.667 216.4C300.8 230 273.867 230 246 216.4C235.467 211.333 231.467 208.4 221.867 198.8C212.4 189.333 209.333 185.2 204.133 174.667C190.667 147.2 190.667 119.467 204.133 91.9999C209.333 81.4665 212.4 77.3332 221.867 67.8665C231.333 58.3999 235.467 55.3332 246 50.1332C265.467 40.5332 284.267 37.9999 305.067 41.8665ZM326.267 270.667C343.733 274.267 359.867 280.133 376.8 288.933C389.733 295.6 411.467 310.4 412.4 313.2C412.533 313.733 384.533 324.933 350 337.867L287.333 361.333L225.067 338C190.933 325.2 162.533 314.267 162.133 314C160.4 312.267 182.4 297.067 199.733 288C219.067 277.867 240.267 271.2 263.333 268C277.2 266.133 311.467 267.467 326.267 270.667ZM182.4 364.667L267.333 396.533V515.067C267.333 609.333 266.933 633.467 265.733 633.067C264.8 632.667 225.733 618.133 179.067 600.667L94 568.8V537.333V505.733L99.4666 504.133C106.8 501.867 115.733 492.8 118.4 484.667C121.733 475.067 121.733 404.933 118.4 395.333C115.733 387.2 106.8 378.133 99.4666 375.867L94 374.267V352.933C94 336.533 94.4 331.867 95.7333 332.267C96.5333 332.667 135.6 347.2 182.4 364.667ZM480.667 353.067V374.267L475.2 375.867C467.6 378.133 458.933 387.2 456.133 395.733C454.133 401.6 453.867 407.733 454.267 442.933L454.667 483.333L458.4 489.733C462.533 496.8 470.667 503.333 476.8 504.667L480.667 505.6V537.2V568.8L395.733 600.667C348.933 618.133 309.867 632.667 309.067 633.067C307.733 633.467 307.333 609.333 307.333 515.067V396.533L393.067 364.4C440.133 346.667 479.067 332.133 479.733 332.133C480.267 332 480.667 341.467 480.667 353.067ZM80.6666 440.133V467.067L69.6 466.4C60.9333 466 57.3333 465.2 53.4666 462.8C38.9333 453.733 36.6666 433.333 48.6666 421.333C54.8 415.2 59.4666 413.6 71.7333 413.467L80.6666 413.333V440.133ZM521.2 417.2C524 418.933 527.733 422.8 529.733 425.733C532.8 430.267 533.333 432.667 533.333 440C533.333 447.333 532.8 449.733 529.733 454.267C524.133 462.8 518.133 465.733 505.067 466.4L494 467.067V440V412.933L505.067 413.6C513.733 414 517.333 414.8 521.2 417.2Z" fill="url(#paint0_linear_111_65)"/>
<defs>
<linearGradient id="paint0_linear_111_65" x1="287.267" y1="682.667" x2="287.267" y2="0.467163" gradientUnits="userSpaceOnUse">
<stop stop-color="#F169FA"/>
<stop offset="1" stop-color="#E58F51"/>
</linearGradient>
</defs>
</svg>
