<svg width="679" height="629" viewBox="0 0 679 629" fill="none" xmlns="http://www.w3.org/2000/svg">
<path d="M389.333 1.66671C366.267 5.40004 359.333 8.86671 359.333 16.4667C359.333 21.2667 360.8 23.6667 364.8 25.8C368.4 27.5334 370 27.5334 382.4 24.7334C400.533 20.6 439.067 20.3334 456.533 24.0667C495.867 32.6 526 48.8667 553.333 76.2C574.933 97.8 588.267 119.4 598.667 149C601.2 156.6 604 163.533 604.8 164.467C607.2 167.4 613.867 168.067 617.467 165.667C623.6 161.667 623.867 157.8 619.333 143.8C596.267 72.6 537.2 19.6667 462.667 3.66671C445.2 -0.19996 407.067 -1.13329 389.333 1.66671Z" fill="url(#paint0_linear_110_7)"/>
<path d="M117.333 9.79998C98.4 14.0667 81.0667 23.4 66.6667 37.2667L58.8 45H49.2C28.5333 45 12 54.6 3.73333 71.4L0 79V297V515L4.4 523.933C9.2 533.667 15.8667 540.333 25.8667 545.267L32 548.333L114.133 549L196.4 549.667L179.2 579C161.2 609.933 160 613.267 164 621C168.4 629.533 157.6 629 339.333 629C521.6 629 510.267 629.533 514.8 620.733C516.133 618.2 516.667 614.733 516.267 611.8C515.867 609 508.8 595.267 498.933 578.333L482.267 549.667L564.4 549L646.667 548.333L652.8 545.267C662.8 540.333 669.467 533.667 674.267 523.933L678.667 515V297V79L674.933 71.4C669.6 60.4667 658.933 51.1333 647.733 47.6667C640.267 45.4 635.333 45 613.867 45C587.2 45 583.333 45.6667 580.8 51.2667C578.533 56.2 579.067 59.5333 582.667 63C585.867 66.3333 586 66.3333 612 66.3333C644.667 66.3333 649.867 67.9333 655.467 80.3333C657.867 85.4 658 94.2 658 277.933V470.333H339.333H20.6667V277.933C20.6667 93.6667 20.8 85.4 23.2 80.2C24.5333 77.2667 27.3333 73.5333 29.3333 71.9333C33.2 68.8667 42.8 65.4 44 66.6C44.4 67 43.2 71.8 41.3333 77.4C24.8 127 46.9333 180.867 93.2 203.533C109.733 211.667 118.4 213.533 139.333 213.667C154.533 213.667 158.8 213.133 167.333 210.6C201.333 199.933 226 176.2 237.6 143C241.067 133 241.333 131 241.333 111C241.2 89.4 240.267 84.3333 233.467 68.6C232.4 66.4667 235.733 66.3333 293.2 66.3333H354.133L357.333 63C362.533 57.9333 360.933 49.4 354.4 46.4667C352.267 45.4 330.667 45 284.8 45H218.267L214.267 40.4667C203.333 27.9333 182.933 15.6667 165.333 10.8667C153.733 7.79998 128.933 7.26665 117.333 9.79998ZM154.8 30.4667C165.333 32.3333 185.067 42.0667 193.6 49.6667C202.533 57.5333 212.933 73 216.8 84.6C219.467 92.3333 220 96.2 220 111C220 131.8 217.467 141 207.067 156.333C198.4 169.4 189.333 177.267 174.667 184.333C160.933 191 152.533 193 138.8 193C118.667 193 99.2 185.267 84.1333 171.533C73.2 161.4 66.5333 151.267 61.4667 137C58 127 57.4667 123.933 57.4667 111C57.4667 98.0667 58 95 61.4667 85C66.4 71 73.0667 60.7333 83.4667 51.1333C102.8 33.1333 128.4 25.6667 154.8 30.4667ZM657.867 502.2C657.333 511.667 656.933 513.267 653.2 517.933C650.933 520.733 647.067 524.067 644.533 525.267C640.267 527.533 622.933 527.667 339.333 527.667C55.7333 527.667 38.4 527.533 34.1333 525.267C31.6 524.067 27.7333 520.733 25.4667 517.933C21.7333 513.267 21.3333 511.667 20.8 502.2L20.4 491.667H339.333H658.267L657.867 502.2ZM474.133 578.067L490.933 607L415.2 607.4C373.467 607.533 305.2 607.533 263.467 607.4L187.733 607L204.533 578.067L221.333 549.133H339.333H457.333L474.133 578.067Z" fill="url(#paint1_linear_110_7)"/>
<path d="M153.467 98.2001L125.333 126.2L111.067 112.2C98.6667 100.067 96.2667 98.3334 92.4 98.3334C86.2667 98.3334 82 102.867 82 109.267C82 113.667 83.6 115.533 101.467 132.867C119.2 150.2 121.2 151.667 125.733 151.667C130.4 151.667 132.4 149.8 163.6 118.6C192.4 89.8001 196.667 85.0001 196.667 81.4001C196.667 75.1334 192.133 70.3334 186.267 70.3334C181.867 70.3334 179.6 72.2001 153.467 98.2001Z" fill="url(#paint2_linear_110_7)"/>
<path d="M409.333 52.4667C384.4 55.4 376.4 58.0667 373.867 63.8C372.533 67.2667 372.667 68.6 374.4 72.3334C377.2 78.3334 380.667 79 393.467 76.2C410.133 72.6 436.533 73.1334 453.333 77.5334C499.067 89.4 535.467 123.667 549.333 167.667C553.2 180.067 560.4 184.067 568 178.067C571.333 175.4 571.6 174.6 570.933 168.333C570.133 160.2 562.667 141.533 555.2 128.733C530.933 87.1334 486.533 58.7334 437.333 53C425.733 51.6667 417.6 51.5334 409.333 52.4667Z" fill="url(#paint3_linear_110_7)"/>
<path d="M401.067 106.733C388.4 109.4 384.4 114.467 387.867 123C390.267 128.733 394 129.8 405.067 127.8C424.133 124.467 440.8 126.867 458 135.4C476.267 144.333 493.6 165 499.467 184.733C502.4 194.6 510.933 197.533 517.6 190.867C520.667 187.8 520.933 186.733 520.133 181.267C519.067 172.867 508.933 152.733 501.067 143C488.4 127.4 467.2 113.533 448 108.333C437.333 105.4 411.6 104.6 401.067 106.733Z" fill="url(#paint4_linear_110_7)"/>
<path d="M290.667 136.867C251.6 147.533 223.067 178.333 216.4 217C214.933 225.4 214.4 226.467 211.333 227.267C204.133 229 188.667 237.533 180.8 244.067C158.667 262.733 147.6 288.467 148.933 318.2C150 341.267 158.933 361 175.467 377.267C190.267 391.8 208.4 400.067 230.267 402.333C246.533 404.067 432.267 404.067 448.533 402.333C471.067 399.933 487.733 392.2 503.333 377C513.2 367.267 520 356.6 525.467 342.067C528.933 333 529.2 330.867 529.2 313C529.2 294.6 529.067 293.133 525.067 282.867C519.867 269 512.933 258.333 503.2 248.733C495.867 241.533 480.8 231.667 474.267 229.667C471.733 228.867 471.333 228.2 472 224.467C472.533 222.067 472.133 216.333 471.333 211.533C467.067 187.933 449.333 169.133 426.133 163.667C417.867 161.667 402.667 162.6 394.667 165.4L389.333 167.267L381.6 160.2C371.733 151 358.8 143.4 345.333 138.867C330.8 133.933 304.8 133 290.667 136.867ZM340.267 159.667C352 163.8 363.6 171.667 373.867 182.467C383.733 193 385.333 193.4 395.733 188.2C418.4 176.6 444.4 188.867 450 213.667C451.067 218.6 451.067 222.467 449.867 229.267C447.733 241.133 449.333 243.667 461.2 247.667C483.733 255.133 502.133 274.867 507.2 297C509.2 305.533 508.933 321.8 506.667 330.2C500.533 353.267 483.067 371.533 460 378.733C450.667 381.667 450.533 381.667 339.333 381.667C228.133 381.667 228 381.667 218.667 378.733C164.4 361.667 152.533 291.267 198.133 257.667C205.467 252.333 215.2 247.933 226.933 245C233.867 243.267 236.667 238.733 236.667 229.4C236.667 225.8 237.6 219.267 238.667 215C246.133 186.6 266.8 165.667 295.333 157.667C306 154.733 329.333 155.8 340.267 159.667Z" fill="url(#paint5_linear_110_7)"/>
<defs>
<linearGradient id="paint0_linear_110_7" x1="491.533" y1="174.032" x2="490.259" y2="2.28168" gradientUnits="userSpaceOnUse">
<stop stop-color="#F169FA"/>
<stop offset="1" stop-color="#E58F51"/>
</linearGradient>
<linearGradient id="paint1_linear_110_7" x1="341" y1="654.663" x2="334.18" y2="16.5327" gradientUnits="userSpaceOnUse">
<stop stop-color="#F169FA"/>
<stop offset="1" stop-color="#E58F51"/>
</linearGradient>
<linearGradient id="paint2_linear_110_7" x1="139.615" y1="155.028" x2="138.922" y2="71.4225" gradientUnits="userSpaceOnUse">
<stop stop-color="#F169FA"/>
<stop offset="1" stop-color="#E58F51"/>
</linearGradient>
<linearGradient id="paint3_linear_110_7" x1="472.585" y1="186.141" x2="471.578" y2="53.5901" gradientUnits="userSpaceOnUse">
<stop stop-color="#F169FA"/>
<stop offset="1" stop-color="#E58F51"/>
</linearGradient>
<linearGradient id="paint4_linear_110_7" x1="453.925" y1="198.135" x2="453.215" y2="106.718" gradientUnits="userSpaceOnUse">
<stop stop-color="#F169FA"/>
<stop offset="1" stop-color="#E58F51"/>
</linearGradient>
<linearGradient id="paint5_linear_110_7" x1="339.947" y1="414.757" x2="337.66" y2="138.079" gradientUnits="userSpaceOnUse">
<stop stop-color="#F169FA"/>
<stop offset="1" stop-color="#E58F51"/>
</linearGradient>
</defs>
</svg>
