<svg width="683" height="683" viewBox="0 0 683 683" fill="none" xmlns="http://www.w3.org/2000/svg">
<path d="M122.4 2.80003C114.667 6.80003 112 13.3334 112 27.8667V39.7334L85.0667 40.2667C61.6 40.8 56.9334 41.3334 50.1334 43.7334C28.1334 51.8667 12.6667 67.0667 4.13338 89.0667L0.666713 98L0.266713 307.333C4.68435e-05 458.533 0.266713 518.8 1.33338 524.533C5.86671 547.867 24.4 566.8 47.7334 571.867C52.8 572.933 98.6667 573.333 207.067 573.333H359.333L365.2 586C376.667 610.933 394.8 633.333 416.533 649.467C429.333 659.067 455.333 672.133 469.333 676C509.6 687.067 550.133 683.867 586.133 666.8C605.2 657.733 618.8 648.133 633.467 633.467C690.533 576.4 698.667 489.467 653.333 421.867C644.4 408.667 622.4 386.667 609.733 378.267L600.133 371.867L599.733 234.933L599.333 98L595.867 89.0667C587.333 67.0667 571.867 51.8667 549.867 43.7334C543.067 41.3334 538.4 40.8 515.067 40.2667L488 39.7334V27.8667C488 18.5334 487.467 14.8 485.333 10.6667C482.267 4.6667 474.667 2.9511e-05 468 2.9511e-05C461.333 2.9511e-05 453.733 4.6667 450.667 10.6667C448.533 14.8 448 18.5334 448 28V40H412H376V28C376 13.0667 373.333 6.80003 365.333 2.6667C358.667 -0.666637 353.333 -0.666637 346.667 2.6667C338.667 6.80003 336 13.0667 336 28V40H300H264V28C264 18.5334 263.467 14.8 261.333 10.6667C258.267 4.6667 250.667 2.9511e-05 244 2.9511e-05C237.333 2.9511e-05 229.733 4.6667 226.667 10.6667C224.533 14.8 224 18.5334 224 28V40H188H152V28C152 13.0667 149.333 6.80003 141.333 2.6667C134.8 -0.666637 128.8 -0.666637 122.4 2.80003ZM112 92C112 101.467 112.533 105.2 114.667 109.333C117.733 115.333 125.333 120 132 120C138.667 120 146.267 115.333 149.333 109.333C151.467 105.2 152 101.467 152 92V80H188H224V92C224 101.467 224.533 105.2 226.667 109.333C229.733 115.333 237.333 120 244 120C250.667 120 258.267 115.333 261.333 109.333C263.467 105.2 264 101.467 264 92V80H300H336V92C336 106.933 338.667 113.2 346.667 117.333C353.333 120.667 358.667 120.667 365.333 117.333C373.333 113.2 376 106.933 376 92V80H412H448V92C448 106.933 450.667 113.2 458.667 117.333C465.333 120.667 470.667 120.667 477.333 117.333C485.333 113.2 488 106.933 488 92V80H509.733C535.6 80 541.6 81.4667 550 90C559.2 99.0667 560 103.467 560 140.933V173.333H300H40V140.933C40 103.333 40.8 99.0667 50 90C58.4 81.4667 63.6 80.2667 89.7334 80.1334L112 80V92ZM560 284.133V354.933L556.4 354.133C554.267 353.733 546.933 352.4 540 351.333C499.867 344.933 457.6 354.8 421.867 378.667C408.4 387.733 387.733 408.4 378.667 421.867C358.8 451.6 348.267 487.467 349.467 521.2L350 533.333H202.933C58.1334 533.333 55.8667 533.333 50.6667 530.667C47.2 528.933 44.4 526.133 42.6667 522.667C40 517.467 40 515.2 40 365.333V213.333H300H560V284.133ZM547.067 393.2C591.867 404.933 626.533 439.733 638.933 485.333C643.333 501.6 643.333 530.4 638.933 546.667C626.533 592.267 592.4 626.533 547.067 638.933C531.467 643.2 501.067 643.2 485.333 638.933C439.733 626.533 405.467 592.533 393.067 547.067C388.933 532.133 388.933 499.867 393.067 484.933C406.4 436.4 444.667 400.8 494 391.2C507.067 388.667 533.6 389.6 547.067 393.2Z" fill="url(#paint0_linear_111_81)"/>
<path d="M213.2 267.067C200.667 275.467 201.467 292.8 214.8 300.667C218.8 303.067 221.733 303.333 240.667 303.333C259.6 303.333 262.533 303.067 266.533 300.667C279.867 292.8 280.667 275.467 268.133 267.067C263.867 264.133 262.267 264 240.667 264C219.067 264 217.467 264.133 213.2 267.067Z" fill="url(#paint1_linear_111_81)"/>
<path d="M331.867 267.067C319.333 275.467 320.133 292.8 333.467 300.667C337.467 303.067 340.4 303.333 359.333 303.333C378.267 303.333 381.2 303.067 385.2 300.667C398.533 292.8 399.333 275.467 386.8 267.067C382.533 264.133 380.933 264 359.333 264C337.733 264 336.133 264.133 331.867 267.067Z" fill="url(#paint2_linear_111_81)"/>
<path d="M450.533 267.067C438 275.467 438.8 292.8 452.133 300.667C456.133 303.067 459.067 303.333 478 303.333C496.933 303.333 499.867 303.067 503.867 300.667C517.2 292.8 518 275.467 505.467 267.067C501.2 264.133 499.6 264 478 264C456.4 264 454.8 264.133 450.533 267.067Z" fill="url(#paint3_linear_111_81)"/>
<path d="M95.7334 356.133C90 359.067 85.3334 366.933 85.3334 373.333C85.3334 380 90 387.6 96 390.667C100.533 392.933 103.867 393.333 122 393.333C146.4 393.333 151.333 391.733 156 382.667C159.333 376 159.333 370.667 156 364C151.333 354.8 146.4 353.333 121.733 353.333C103.467 353.467 100 353.733 95.7334 356.133Z" fill="url(#paint4_linear_111_81)"/>
<path d="M214.4 356.133C208.667 359.067 204 366.933 204 373.333C204 380 208.667 387.6 214.667 390.667C219.2 392.933 222.533 393.333 240.667 393.333C258.8 393.333 262.133 392.933 266.667 390.667C272.667 387.6 277.333 380 277.333 373.333C277.333 366.667 272.667 359.067 266.667 356C262.133 353.6 258.933 353.333 240.4 353.333C222.133 353.467 218.667 353.733 214.4 356.133Z" fill="url(#paint5_linear_111_81)"/>
<path d="M333.067 356.133C327.333 359.067 322.667 366.933 322.667 373.333C322.667 380 327.333 387.6 333.333 390.667C337.867 392.933 341.2 393.333 359.333 393.333C377.467 393.333 380.8 392.933 385.333 390.667C391.333 387.6 396 380 396 373.333C396 366.667 391.333 359.067 385.333 356C380.8 353.6 377.6 353.333 359.067 353.333C340.8 353.467 337.333 353.733 333.067 356.133Z" fill="url(#paint6_linear_111_81)"/>
<path d="M94.5334 447.067C82.0001 455.467 82.8001 472.8 96.1334 480.667C100.133 483.067 103.067 483.333 122 483.333C140.933 483.333 143.867 483.067 147.867 480.667C161.2 472.8 162 455.467 149.467 447.067C145.2 444.133 143.6 444 122 444C100.4 444 98.8001 444.133 94.5334 447.067Z" fill="url(#paint7_linear_111_81)"/>
<path d="M213.2 447.067C200.667 455.467 201.467 472.8 214.8 480.667C218.8 483.067 221.733 483.333 240.667 483.333C259.6 483.333 262.533 483.067 266.533 480.667C279.867 472.8 280.667 455.467 268.133 447.067C263.867 444.133 262.267 444 240.667 444C219.067 444 217.467 444.133 213.2 447.067Z" fill="url(#paint8_linear_111_81)"/>
<path d="M506.4 432.133C503.333 433.733 500.267 436.8 498.667 440C496.133 444.933 496 447.733 496 482.667C496 517.6 496.133 520.4 498.667 525.333C500.4 528.8 503.2 531.6 506.667 533.333C511.6 535.867 514.4 536 549.333 536C584.267 536 587.067 535.867 592 533.333C598 530.267 602.667 522.667 602.667 516C602.667 509.333 598 501.733 592 498.667C587.333 496.267 584.133 496 561.333 496H536V470.667C536 447.867 535.733 444.667 533.333 440C528.4 430.267 516.4 426.8 506.4 432.133Z" fill="url(#paint9_linear_111_81)"/>
<defs>
<linearGradient id="paint0_linear_111_81" x1="341.343" y1="682.462" x2="341.343" y2="6.10352e-05" gradientUnits="userSpaceOnUse">
<stop stop-color="#F169FA"/>
<stop offset="1" stop-color="#E58F51"/>
</linearGradient>
<linearGradient id="paint1_linear_111_81" x1="240.667" y1="303.333" x2="240.667" y2="264" gradientUnits="userSpaceOnUse">
<stop stop-color="#F169FA"/>
<stop offset="1" stop-color="#E58F51"/>
</linearGradient>
<linearGradient id="paint2_linear_111_81" x1="359.333" y1="303.333" x2="359.333" y2="264" gradientUnits="userSpaceOnUse">
<stop stop-color="#F169FA"/>
<stop offset="1" stop-color="#E58F51"/>
</linearGradient>
<linearGradient id="paint3_linear_111_81" x1="478" y1="303.333" x2="478" y2="264" gradientUnits="userSpaceOnUse">
<stop stop-color="#F169FA"/>
<stop offset="1" stop-color="#E58F51"/>
</linearGradient>
<linearGradient id="paint4_linear_111_81" x1="121.917" y1="393.333" x2="121.917" y2="353.333" gradientUnits="userSpaceOnUse">
<stop stop-color="#F169FA"/>
<stop offset="1" stop-color="#E58F51"/>
</linearGradient>
<linearGradient id="paint5_linear_111_81" x1="240.667" y1="393.333" x2="240.667" y2="353.333" gradientUnits="userSpaceOnUse">
<stop stop-color="#F169FA"/>
<stop offset="1" stop-color="#E58F51"/>
</linearGradient>
<linearGradient id="paint6_linear_111_81" x1="359.333" y1="393.333" x2="359.333" y2="353.333" gradientUnits="userSpaceOnUse">
<stop stop-color="#F169FA"/>
<stop offset="1" stop-color="#E58F51"/>
</linearGradient>
<linearGradient id="paint7_linear_111_81" x1="122" y1="483.333" x2="122" y2="444" gradientUnits="userSpaceOnUse">
<stop stop-color="#F169FA"/>
<stop offset="1" stop-color="#E58F51"/>
</linearGradient>
<linearGradient id="paint8_linear_111_81" x1="240.667" y1="483.333" x2="240.667" y2="444" gradientUnits="userSpaceOnUse">
<stop stop-color="#F169FA"/>
<stop offset="1" stop-color="#E58F51"/>
</linearGradient>
<linearGradient id="paint9_linear_111_81" x1="549.333" y1="536" x2="549.333" y2="429.634" gradientUnits="userSpaceOnUse">
<stop stop-color="#F169FA"/>
<stop offset="1" stop-color="#E58F51"/>
</linearGradient>
</defs>
</svg>
