<svg width="679" height="682" viewBox="0 0 679 682" fill="none" xmlns="http://www.w3.org/2000/svg">
<path d="M329.2 4.5336L324.667 9.06693V42.5336C324.667 79.0669 325.2 82.0003 332 85.0669C338.4 88.0003 344.4 86.5336 348.933 80.8003C351.067 78.2669 351.333 74.2669 351.333 44.4003C351.333 8.13359 350.933 5.20026 344.533 1.86693C338.533 -1.19974 334.133 -0.399736 329.2 4.5336Z" fill="url(#paint0_linear_111_73)"/>
<path d="M111.2 7.86699C108.133 10.9337 107.333 12.9337 107.333 17.467C107.333 23.2003 107.6 23.467 135.067 50.9337L162.8 78.667H168.933C175.6 78.667 181.2 74.5337 182.267 68.9337C183.6 61.7337 180.8 58.0003 153.6 30.9337C126.8 4.40032 126.267 4.00032 120.8 4.00032C116.267 4.00032 114.267 4.80032 111.2 7.86699Z" fill="url(#paint1_linear_111_73)"/>
<path d="M546.533 7.86699C543.733 10.0003 530.667 22.4003 517.733 35.6003C494.8 58.8003 494 59.867 494 65.067C494 68.9337 494.933 71.6003 497.467 74.5337C500.4 78.0003 501.867 78.667 507.067 78.667H513.2L540.933 50.9337C568.4 23.467 568.667 23.2003 568.667 17.467C568.667 12.9337 567.867 10.9337 564.8 7.86699C559.6 2.66699 553.467 2.66699 546.533 7.86699Z" fill="url(#paint2_linear_111_73)"/>
<path d="M285.067 111.2C282.133 112.133 277.733 114.267 275.6 115.867C271.867 118.4 270.933 118.533 264.667 117.2C243.733 112.667 220.267 125.867 212.667 146.4C210.4 152.4 209.867 156.267 210.267 164.933L210.667 175.733L206 177.2C198.8 179.333 188.8 186.4 184.4 192.533C176.8 202.933 174.8 208.933 174.8 222.267V234.4L167.733 237.333C158.133 241.333 148.667 250.133 144 259.6C140.4 266.533 140 268.667 140 280C140 291.067 140.4 293.467 143.6 299.467L147.067 306.4L141.6 308.8C133.2 312.533 122.8 323.733 119.2 332.933C114.8 344.4 115.067 358.133 119.867 368.667C121.867 373.067 125.333 378.667 127.733 381.067L131.867 385.333L110 407.467C90.8 426.533 87.6 429.333 84.6667 428.8C69.4667 425.467 66.9333 425.2 59.6 426.8C47.3333 429.333 42.2667 432.667 23.8667 451.2C2.4 472.8 0 476.934 0 494C0 511.6 2.53333 516 26.4 539.6C44.9333 558.134 45.7333 558.667 51.2 558.667C58.8 558.667 64.6667 553.2 64.6667 546C64.6667 541.467 63.2 539.467 46.1333 522C19.6 494.934 19.6 494 43.8667 469.6L60.1333 453.334H66.9333C72.9333 453.334 74.6667 454 80.2667 458.534C83.7333 461.334 118.267 495.467 157.067 534.267C210.133 587.467 227.733 606 228.667 609.334C231.067 617.867 228.667 622.134 211.733 638.934C194.533 655.867 190.267 658.134 181.6 654.534C179.333 653.6 169.2 644.8 159.2 635.067C142.533 618.8 140.533 617.334 136 617.334C128.8 617.334 123.333 623.2 123.333 630.934C123.333 636.534 123.733 637.067 143.067 656.134C166.667 679.467 170.667 681.867 187.333 681.867C204.4 682 211.333 678.134 232.267 657.067C252.267 636.8 256 630.134 255.867 614.667C255.867 607.734 254.933 602.4 252.933 597.334L250 590L275.6 564.4C292.4 547.467 302.8 538.134 305.6 537.2C308.533 536.267 320.667 536 341.6 536.534L373.333 537.334L400.4 564.4L427.467 591.467L425.2 597.334C423.867 600.8 422.933 607.467 422.8 613.334C422.667 629.067 426.933 636.667 448.267 657.467C469.2 678 473.867 680.534 490 680.667C510.8 680.667 504.667 685.6 593.067 597.467C682.267 508.534 678.667 512.934 678.667 492.667C678.667 481.6 678.267 480 674.133 472.4C670.933 466.4 664.8 459.334 652.667 447.6C638.533 433.6 634.533 430.533 627.867 428C618.133 424.4 603.867 424.133 595.467 427.467L589.733 429.733L567.6 407.6L545.6 385.6L550.667 378.667C553.333 374.933 556.8 368.133 558.267 363.6C565.067 342.133 554.133 317.867 533.333 308.133C530 306.533 526.4 305.333 525.2 305.333C523.733 305.333 523.333 304.533 524.133 302.4C525.733 297.2 524.8 281.867 522.533 275.867C517.467 262.933 505.733 251.333 494 247.867L489.333 246.4V233.6C489.333 222.133 488.933 219.733 485.6 213.067C480.933 203.733 469.733 193.2 461.067 190L454.533 187.733L454.667 175.467C454.667 165.067 454.133 162.267 451.2 155.867C443.067 138.533 430 130.133 408 128C400.667 127.333 375.733 123.2 352.667 118.667C306.4 109.733 293.6 108.4 285.067 111.2ZM336.667 142.933C353.2 146 366.933 148.667 367.333 148.933C367.6 149.2 360.133 157.2 350.667 166.667L333.467 183.867L328.133 180.933C319.733 176.4 300.533 156.533 296.267 148C294.267 144 292.667 139.467 292.667 138.133C292.667 135.867 293.467 135.733 299.733 136.4C303.467 136.933 320.133 139.733 336.667 142.933ZM264.667 145.333C265.733 145.867 267.733 149.2 268.933 152.667C276.533 173.2 302 198.8 325.2 209.333C332.933 212.8 334 213.867 335.2 218.267C338 228.4 331.067 240.267 321.333 242.133C310 244.267 309.067 243.6 273.6 208.267C255.333 190.133 239.6 173.733 238.533 171.733C235.867 166.533 236.133 157.467 239.333 152.267C244.267 144.267 256.533 140.933 264.667 145.333ZM414.933 156.133C420.667 158.267 425.867 164 427.467 169.6C429.867 178.8 427.6 182.933 410 200.667C394.4 216.533 394 217.067 394 222.933C394 230.933 398.933 236 407.067 236C412.267 236 413.467 235.2 423.067 226C433.733 215.867 438.133 213.333 444.4 213.333C449.733 213.333 458.133 218.8 460.8 224C466.533 234.8 462.8 243.2 444.533 260.667C438.4 266.533 432.267 272.8 431.067 274.667C425.067 283.333 431.333 294.667 442 294.667C447.067 294.667 448.4 293.867 458.533 284.133C465.733 277.2 470.933 273.333 473.867 272.667C482.933 270.667 491.867 274.8 496 282.667C498.4 287.2 498.667 296.267 496.533 300.4C495.733 302 488.533 310 480.533 318.133C466.8 332.133 466 333.2 466 338.4C466 345.867 470.133 350.533 477.6 351.6C483.067 352.267 483.467 352.133 492.267 343.733C506.4 330.133 513.333 327.867 523.467 333.6C530.533 337.6 534.533 345.867 533.333 353.6C532.4 358.667 530.133 361.467 513.2 378.8C494.933 397.333 494 398.533 494 403.6C494 412.267 502.133 418.933 510.4 416.8C512.133 416.4 516.4 413.6 519.867 410.533L526.267 404.933L547.733 426.4L569.333 448L507.6 509.6L446 571.334L424 549.334L401.867 527.2L414 515.2C426.8 502.4 428 499.734 424.133 492.134C421.867 488 416.933 485.334 411.067 485.334C407.867 485.334 405.067 487.2 397.467 494.667C381.867 509.734 374 511.734 339.2 509.467C315.867 508 302.533 509.067 292.933 513.334C288.267 515.334 279.6 523.2 259.067 543.6L231.467 571.067L170.133 510C136.267 476.4 108.667 448.267 108.667 447.467C108.667 446.667 118.267 436.4 129.867 424.8L151.067 403.6L157.6 406.4C170.933 412.133 185.333 411.333 198.533 404.267C210.267 397.867 219.867 384.133 221.6 370.933C222.533 364 223.6 362.667 228.933 362.667C235.467 362.667 247.067 357.333 253.867 351.2C261.733 344.133 267.2 333.6 268.533 323.733L269.333 316.667L276.4 315.867C286.267 314.533 296.8 309.067 303.867 301.2C310 294.4 315.333 282.8 315.333 276.267C315.333 270.933 316.667 269.867 324 268.8C338.8 266.933 352.133 256.4 359.067 241.6C363.867 231.2 364 216 359.333 205.6L356.267 198.4L375.467 179.2C398.8 155.867 404.8 152.267 414.933 156.133ZM225.733 202.533C230.4 204 275.867 246.4 284.133 257.2C294.8 271.067 286.267 289.333 269.333 289.333C266.667 289.333 263.2 288.667 261.6 287.867C260 287.067 246.267 274 230.933 258.8C200.933 228.933 199.2 226.533 201.867 216.267C203.467 210.4 209.2 204.4 214.8 202.667C220 201.2 220.667 201.2 225.733 202.533ZM191.333 261.333C197.333 262.933 240 305.333 241.333 311.067C242.667 316.4 241.333 324.533 238.533 328.4C232.133 337.067 219.467 338.667 210.533 332.133C202.667 326.4 170.667 293.333 168.133 288.4C163.467 279.067 167.333 267.6 176.933 262.8C183.467 259.6 184.8 259.467 191.333 261.333ZM169.467 332C174.4 334 191.333 350.4 193.467 355.6C200 370.933 186.267 386.8 170.267 382.4C163.467 380.533 145.467 362.533 143.6 355.733C139.467 340.4 154.533 326.4 169.467 332ZM634.8 468.267C651.867 485.467 653.6 488.267 652 497.067C651.2 501.334 642.267 510.934 576.933 576.267C536.133 617.2 500.8 651.6 498.533 652.667C493.467 655.067 487.733 655.2 483.733 652.934C482 652 474.133 644.667 466 636.8C450.667 621.467 448 617.067 449.6 608.8C450.133 605.6 465.6 589.334 523.867 530.8C564.267 490.267 599.2 455.867 601.333 454.534C603.867 452.934 607.733 452 612 452H618.533L634.8 468.267Z" fill="url(#paint3_linear_111_73)"/>
<path d="M448.4 444.667C440.8 448.934 439.6 459.067 445.867 465.467C455.333 474.8 471.467 465.2 467.333 452.667C466.533 450.267 464.8 447.334 463.467 446.134C460 442.934 452.667 442.267 448.4 444.667Z" fill="url(#paint4_linear_111_73)"/>
<path d="M86.5334 574.534C84.9334 575.2 82.4 577.467 80.6667 579.6C76.8 584.534 77.6 592.667 82.6667 596.934C90.9334 604.134 104.667 598.134 104.667 587.467C104.667 578.667 94.2667 571.334 86.5334 574.534Z" fill="url(#paint5_linear_111_73)"/>
<defs>
<linearGradient id="paint0_linear_111_73" x1="338" y1="86.5386" x2="338" y2="0.0590897" gradientUnits="userSpaceOnUse">
<stop stop-color="#F169FA"/>
<stop offset="1" stop-color="#E58F51"/>
</linearGradient>
<linearGradient id="paint1_linear_111_73" x1="144.933" y1="78.667" x2="144.933" y2="4.00032" gradientUnits="userSpaceOnUse">
<stop stop-color="#F169FA"/>
<stop offset="1" stop-color="#E58F51"/>
</linearGradient>
<linearGradient id="paint2_linear_111_73" x1="531.333" y1="78.667" x2="531.333" y2="3.96699" gradientUnits="userSpaceOnUse">
<stop stop-color="#F169FA"/>
<stop offset="1" stop-color="#E58F51"/>
</linearGradient>
<linearGradient id="paint3_linear_111_73" x1="339.343" y1="681.87" x2="339.343" y2="109.89" gradientUnits="userSpaceOnUse">
<stop stop-color="#F169FA"/>
<stop offset="1" stop-color="#E58F51"/>
</linearGradient>
<linearGradient id="paint4_linear_111_73" x1="454.919" y1="469.205" x2="454.919" y2="443.225" gradientUnits="userSpaceOnUse">
<stop stop-color="#F169FA"/>
<stop offset="1" stop-color="#E58F51"/>
</linearGradient>
<linearGradient id="paint5_linear_111_73" x1="91.4507" y1="600.08" x2="91.4507" y2="573.769" gradientUnits="userSpaceOnUse">
<stop stop-color="#F169FA"/>
<stop offset="1" stop-color="#E58F51"/>
</linearGradient>
</defs>
</svg>
