<svg xmlns="http://www.w3.org/2000/svg" version="1.1" xmlns:xlink="http://www.w3.org/1999/xlink" xmlns:svgjs="http://svgjs.dev/svgjs" viewBox="0 0 800 800"><defs><linearGradient x1="50%" y1="0%" x2="50%" y2="100%" id="vvvortex-grad"><stop stop-color="rgb(241, 107, 250)" stop-opacity="1" offset="0%"></stop><stop stop-color="rgb(229, 143, 81)" stop-opacity="1" offset="100%"></stop></linearGradient></defs><g stroke="url(#vvvortex-grad)" fill="none" stroke-linecap="round"><circle r="363" cx="400" cy="400" stroke-width="11" stroke-dasharray="53 11" stroke-dashoffset="25" transform="rotate(331, 400, 400)" opacity="0.05"></circle><circle r="346.5" cx="400" cy="400" stroke-width="11" stroke-dasharray="41 50" stroke-dashoffset="25" transform="rotate(83, 400, 400)" opacity="0.10"></circle><circle r="330" cx="400" cy="400" stroke-width="10" stroke-dasharray="17 29" stroke-dashoffset="25" transform="rotate(195, 400, 400)" opacity="0.14"></circle><circle r="313.5" cx="400" cy="400" stroke-width="10" stroke-dasharray="42 22" stroke-dashoffset="25" transform="rotate(203, 400, 400)" opacity="0.19"></circle><circle r="297" cx="400" cy="400" stroke-width="10" stroke-dasharray="45 29" stroke-dashoffset="25" transform="rotate(56, 400, 400)" opacity="0.23"></circle><circle r="280.5" cx="400" cy="400" stroke-width="10" stroke-dasharray="33 29" stroke-dashoffset="25" transform="rotate(235, 400, 400)" opacity="0.28"></circle><circle r="264" cx="400" cy="400" stroke-width="9" stroke-dasharray="36 33" stroke-dashoffset="25" transform="rotate(228, 400, 400)" opacity="0.32"></circle><circle r="247.5" cx="400" cy="400" stroke-width="9" stroke-dasharray="20 23" stroke-dashoffset="25" transform="rotate(135, 400, 400)" opacity="0.37"></circle><circle r="231" cx="400" cy="400" stroke-width="9" stroke-dasharray="31 45" stroke-dashoffset="25" transform="rotate(61, 400, 400)" opacity="0.41"></circle><circle r="214.5" cx="400" cy="400" stroke-width="8" stroke-dasharray="42 14" stroke-dashoffset="25" transform="rotate(120, 400, 400)" opacity="0.46"></circle><circle r="198" cx="400" cy="400" stroke-width="8" stroke-dasharray="18 25" stroke-dashoffset="25" transform="rotate(132, 400, 400)" opacity="0.50"></circle><circle r="181.5" cx="400" cy="400" stroke-width="8" stroke-dasharray="38 37" stroke-dashoffset="25" transform="rotate(0, 400, 400)" opacity="0.55"></circle><circle r="165" cx="400" cy="400" stroke-width="8" stroke-dasharray="25 37" stroke-dashoffset="25" transform="rotate(72, 400, 400)" opacity="0.59"></circle><circle r="148.5" cx="400" cy="400" stroke-width="7" stroke-dasharray="11 23" stroke-dashoffset="25" transform="rotate(60, 400, 400)" opacity="0.64"></circle><circle r="132" cx="400" cy="400" stroke-width="7" stroke-dasharray="44 35" stroke-dashoffset="25" transform="rotate(20, 400, 400)" opacity="0.68"></circle><circle r="115.5" cx="400" cy="400" stroke-width="7" stroke-dasharray="50 38" stroke-dashoffset="25" transform="rotate(303, 400, 400)" opacity="0.73"></circle><circle r="99" cx="400" cy="400" stroke-width="6" stroke-dasharray="34 41" stroke-dashoffset="25" transform="rotate(226, 400, 400)" opacity="0.77"></circle><circle r="82.5" cx="400" cy="400" stroke-width="6" stroke-dasharray="50 45" stroke-dashoffset="25" transform="rotate(126, 400, 400)" opacity="0.82"></circle><circle r="66" cx="400" cy="400" stroke-width="6" stroke-dasharray="28 42" stroke-dashoffset="25" transform="rotate(60, 400, 400)" opacity="0.86"></circle><circle r="49.5" cx="400" cy="400" stroke-width="6" stroke-dasharray="14 23" stroke-dashoffset="25" transform="rotate(25, 400, 400)" opacity="0.91"></circle><circle r="33" cx="400" cy="400" stroke-width="5" stroke-dasharray="25 21" stroke-dashoffset="25" transform="rotate(219, 400, 400)" opacity="0.95"></circle><circle r="16.5" cx="400" cy="400" stroke-width="5" stroke-dasharray="39 24" stroke-dashoffset="25" transform="rotate(64, 400, 400)" opacity="1.00"></circle></g></svg>