<svg xmlns="http://www.w3.org/2000/svg" version="1.1" xmlns:xlink="http://www.w3.org/1999/xlink" xmlns:svgjs="http://svgjs.dev/svgjs" width="1440" height="500" preserveAspectRatio="none" viewBox="0 0 1440 500"><g mask="url(&quot;#SvgjsMask1058&quot;)" fill="none"><path d="M-43.83 348L-43.83 348" stroke="rgba(241, 107, 250, 1)" stroke-width="1.5"></path><path d="M-43.83 348L37.84 375.94" stroke="rgba(241, 107, 250, 1)" stroke-width="1.5"></path><path d="M-43.83 348L-78.03 519.2" stroke="rgba(241, 107, 250, 1)" stroke-width="1.5"></path><path d="M-43.83 348L47.17 553.91" stroke="rgba(241, 107, 250, 1)" stroke-width="1.5"></path><path d="M-43.83 348L197.56 390.07" stroke="rgba(241, 107, 250, 1)" stroke-width="1.5"></path><path d="M-43.83 348L236.46 492.36" stroke="rgba(241, 107, 250, 1)" stroke-width="1.5"></path><path d="M-43.83 348L63.6 682.57" stroke="rgba(241, 107, 250, 1)" stroke-width="1.5"></path><path d="M-78.03 519.2L-78.03 519.2" stroke="rgba(241, 107, 250, 1)" stroke-width="1.5"></path><path d="M-78.03 519.2L47.17 553.91" stroke="rgba(241, 107, 250, 1)" stroke-width="1.5"></path><path d="M-78.03 519.2L-50.12 700.06" stroke="rgba(241, 107, 250, 1)" stroke-width="1.5"></path><path d="M-50.12 700.06L-50.12 700.06" stroke="rgba(241, 107, 250, 1)" stroke-width="1.5"></path><path d="M-50.12 700.06L63.6 682.57" stroke="rgba(241, 107, 250, 1)" stroke-width="1.5"></path><path d="M-50.12 700.06L47.17 553.91" stroke="rgba(241, 107, 250, 1)" stroke-width="1.5"></path><path d="M-50.12 700.06L205.61 671.82" stroke="rgba(241, 107, 250, 1)" stroke-width="1.5"></path><path d="M37.84 375.94L37.84 375.94" stroke="rgba(241, 107, 250, 1)" stroke-width="1.5"></path><path d="M37.84 375.94L197.56 390.07" stroke="rgba(241, 107, 250, 1)" stroke-width="1.5"></path><path d="M37.84 375.94L47.17 553.91" stroke="rgba(241, 107, 250, 1)" stroke-width="1.5"></path><path d="M37.84 375.94L-78.03 519.2" stroke="rgba(241, 107, 250, 1)" stroke-width="1.5"></path><path d="M37.84 375.94L236.46 492.36" stroke="rgba(241, 107, 250, 1)" stroke-width="1.5"></path><path d="M47.17 553.91L47.17 553.91" stroke="rgba(241, 107, 250, 1)" stroke-width="1.5"></path><path d="M47.17 553.91L63.6 682.57" stroke="rgba(241, 107, 250, 1)" stroke-width="1.5"></path><path d="M63.6 682.57L63.6 682.57" stroke="rgba(241, 107, 250, 1)" stroke-width="1.5"></path><path d="M63.6 682.57L205.61 671.82" stroke="rgba(241, 107, 250, 1)" stroke-width="1.5"></path><path d="M197.56 390.07L197.56 390.07" stroke="rgba(241, 107, 250, 1)" stroke-width="1.5"></path><path d="M197.56 390.07L236.46 492.36" stroke="rgba(241, 107, 250, 1)" stroke-width="1.5"></path><path d="M197.56 390.07L396.15 373.08" stroke="rgba(241, 107, 250, 1)" stroke-width="1.5"></path><path d="M197.56 390.07L47.17 553.91" stroke="rgba(241, 107, 250, 1)" stroke-width="1.5"></path><path d="M236.46 492.36L236.46 492.36" stroke="rgba(241, 107, 250, 1)" stroke-width="1.5"></path><path d="M236.46 492.36L205.61 671.82" stroke="rgba(241, 107, 250, 1)" stroke-width="1.5"></path><path d="M236.46 492.36L47.17 553.91" stroke="rgba(241, 107, 250, 1)" stroke-width="1.5"></path><path d="M205.61 671.82L205.61 671.82" stroke="rgba(241, 107, 250, 1)" stroke-width="1.5"></path><path d="M205.61 671.82L375.81 670.06" stroke="rgba(241, 107, 250, 1)" stroke-width="1.5"></path><path d="M205.61 671.82L47.17 553.91" stroke="rgba(241, 107, 250, 1)" stroke-width="1.5"></path><path d="M396.15 373.08L396.15 373.08" stroke="rgba(241, 107, 250, 1)" stroke-width="1.5"></path><path d="M396.15 373.08L505.99 390" stroke="rgba(241, 107, 250, 1)" stroke-width="1.5"></path><path d="M396.15 373.08L510.29 500.99" stroke="rgba(241, 107, 250, 1)" stroke-width="1.5"></path><path d="M396.15 373.08L236.46 492.36" stroke="rgba(241, 107, 250, 1)" stroke-width="1.5"></path><path d="M396.15 373.08L678.24 378.33" stroke="rgba(241, 107, 250, 1)" stroke-width="1.5"></path><path d="M375.81 670.06L375.81 670.06" stroke="rgba(241, 107, 250, 1)" stroke-width="1.5"></path><path d="M375.81 670.06L544.02 645.91" stroke="rgba(241, 107, 250, 1)" stroke-width="1.5"></path><path d="M375.81 670.06L510.29 500.99" stroke="rgba(241, 107, 250, 1)" stroke-width="1.5"></path><path d="M375.81 670.06L236.46 492.36" stroke="rgba(241, 107, 250, 1)" stroke-width="1.5"></path><path d="M505.99 390L505.99 390" stroke="rgba(241, 107, 250, 1)" stroke-width="1.5"></path><path d="M505.99 390L510.29 500.99" stroke="rgba(241, 107, 250, 1)" stroke-width="1.5"></path><path d="M505.99 390L678.24 378.33" stroke="rgba(241, 107, 250, 1)" stroke-width="1.5"></path><path d="M505.99 390L653.42 500.79" stroke="rgba(241, 107, 250, 1)" stroke-width="1.5"></path><path d="M505.99 390L661.25 200.07" stroke="rgba(241, 107, 250, 1)" stroke-width="1.5"></path><path d="M505.99 390L544.02 645.91" stroke="rgba(241, 107, 250, 1)" stroke-width="1.5"></path><path d="M510.29 500.99L510.29 500.99" stroke="rgba(241, 107, 250, 1)" stroke-width="1.5"></path><path d="M510.29 500.99L653.42 500.79" stroke="rgba(241, 107, 250, 1)" stroke-width="1.5"></path><path d="M544.02 645.91L544.02 645.91" stroke="rgba(241, 107, 250, 1)" stroke-width="1.5"></path><path d="M544.02 645.91L510.29 500.99" stroke="rgba(241, 107, 250, 1)" stroke-width="1.5"></path><path d="M544.02 645.91L693.29 690.82" stroke="rgba(241, 107, 250, 1)" stroke-width="1.5"></path><path d="M661.25 200.07L661.25 200.07" stroke="rgba(241, 107, 250, 1)" stroke-width="1.5"></path><path d="M661.25 200.07L836.73 193.82" stroke="rgba(241, 107, 250, 1)" stroke-width="1.5"></path><path d="M661.25 200.07L678.24 378.33" stroke="rgba(241, 107, 250, 1)" stroke-width="1.5"></path><path d="M678.24 378.33L678.24 378.33" stroke="rgba(241, 107, 250, 1)" stroke-width="1.5"></path><path d="M678.24 378.33L653.42 500.79" stroke="rgba(241, 107, 250, 1)" stroke-width="1.5"></path><path d="M678.24 378.33L833.39 384.76" stroke="rgba(241, 107, 250, 1)" stroke-width="1.5"></path><path d="M678.24 378.33L800.11 514.39" stroke="rgba(241, 107, 250, 1)" stroke-width="1.5"></path><path d="M653.42 500.79L653.42 500.79" stroke="rgba(241, 107, 250, 1)" stroke-width="1.5"></path><path d="M653.42 500.79L800.11 514.39" stroke="rgba(241, 107, 250, 1)" stroke-width="1.5"></path><path d="M693.29 690.82L693.29 690.82" stroke="rgba(241, 107, 250, 1)" stroke-width="1.5"></path><path d="M693.29 690.82L653.42 500.79" stroke="rgba(241, 107, 250, 1)" stroke-width="1.5"></path><path d="M693.29 690.82L800.11 514.39" stroke="rgba(241, 107, 250, 1)" stroke-width="1.5"></path><path d="M693.29 690.82L510.29 500.99" stroke="rgba(241, 107, 250, 1)" stroke-width="1.5"></path><path d="M693.29 690.82L971.67 702.58" stroke="rgba(241, 107, 250, 1)" stroke-width="1.5"></path><path d="M693.29 690.82L948.22 533.28" stroke="rgba(241, 107, 250, 1)" stroke-width="1.5"></path><path d="M857.6 89.24L857.6 89.24" stroke="rgba(241, 107, 250, 1)" stroke-width="1.5"></path><path d="M857.6 89.24L836.73 193.82" stroke="rgba(241, 107, 250, 1)" stroke-width="1.5"></path><path d="M857.6 89.24L982.58 112.25" stroke="rgba(241, 107, 250, 1)" stroke-width="1.5"></path><path d="M857.6 89.24L939.54 210.26" stroke="rgba(241, 107, 250, 1)" stroke-width="1.5"></path><path d="M857.6 89.24L992.63 -66.56" stroke="rgba(241, 107, 250, 1)" stroke-width="1.5"></path><path d="M836.73 193.82L836.73 193.82" stroke="rgba(241, 107, 250, 1)" stroke-width="1.5"></path><path d="M836.73 193.82L939.54 210.26" stroke="rgba(241, 107, 250, 1)" stroke-width="1.5"></path><path d="M836.73 193.82L982.58 112.25" stroke="rgba(241, 107, 250, 1)" stroke-width="1.5"></path><path d="M836.73 193.82L833.39 384.76" stroke="rgba(241, 107, 250, 1)" stroke-width="1.5"></path><path d="M836.73 193.82L678.24 378.33" stroke="rgba(241, 107, 250, 1)" stroke-width="1.5"></path><path d="M833.39 384.76L833.39 384.76" stroke="rgba(241, 107, 250, 1)" stroke-width="1.5"></path><path d="M833.39 384.76L800.11 514.39" stroke="rgba(241, 107, 250, 1)" stroke-width="1.5"></path><path d="M800.11 514.39L800.11 514.39" stroke="rgba(241, 107, 250, 1)" stroke-width="1.5"></path><path d="M800.11 514.39L948.22 533.28" stroke="rgba(241, 107, 250, 1)" stroke-width="1.5"></path><path d="M992.63 -66.56L992.63 -66.56" stroke="rgba(241, 107, 250, 1)" stroke-width="1.5"></path><path d="M992.63 -66.56L1160.64 -39.64" stroke="rgba(241, 107, 250, 1)" stroke-width="1.5"></path><path d="M992.63 -66.56L982.58 112.25" stroke="rgba(241, 107, 250, 1)" stroke-width="1.5"></path><path d="M992.63 -66.56L1133.11 79.56" stroke="rgba(241, 107, 250, 1)" stroke-width="1.5"></path><path d="M982.58 112.25L982.58 112.25" stroke="rgba(241, 107, 250, 1)" stroke-width="1.5"></path><path d="M982.58 112.25L939.54 210.26" stroke="rgba(241, 107, 250, 1)" stroke-width="1.5"></path><path d="M982.58 112.25L1133.11 79.56" stroke="rgba(241, 107, 250, 1)" stroke-width="1.5"></path><path d="M939.54 210.26L939.54 210.26" stroke="rgba(241, 107, 250, 1)" stroke-width="1.5"></path><path d="M939.54 210.26L1097.18 261.85" stroke="rgba(241, 107, 250, 1)" stroke-width="1.5"></path><path d="M939.54 210.26L1008.28 383.48" stroke="rgba(241, 107, 250, 1)" stroke-width="1.5"></path><path d="M1008.28 383.48L1008.28 383.48" stroke="rgba(241, 107, 250, 1)" stroke-width="1.5"></path><path d="M1008.28 383.48L1094.47 382.36" stroke="rgba(241, 107, 250, 1)" stroke-width="1.5"></path><path d="M948.22 533.28L948.22 533.28" stroke="rgba(241, 107, 250, 1)" stroke-width="1.5"></path><path d="M948.22 533.28L1090.86 514.11" stroke="rgba(241, 107, 250, 1)" stroke-width="1.5"></path><path d="M948.22 533.28L1008.28 383.48" stroke="rgba(241, 107, 250, 1)" stroke-width="1.5"></path><path d="M948.22 533.28L971.67 702.58" stroke="rgba(241, 107, 250, 1)" stroke-width="1.5"></path><path d="M971.67 702.58L971.67 702.58" stroke="rgba(241, 107, 250, 1)" stroke-width="1.5"></path><path d="M971.67 702.58L1134.84 685.17" stroke="rgba(241, 107, 250, 1)" stroke-width="1.5"></path><path d="M971.67 702.58L1090.86 514.11" stroke="rgba(241, 107, 250, 1)" stroke-width="1.5"></path><path d="M971.67 702.58L800.11 514.39" stroke="rgba(241, 107, 250, 1)" stroke-width="1.5"></path><path d="M971.67 702.58L1239.47 659.01" stroke="rgba(241, 107, 250, 1)" stroke-width="1.5"></path><path d="M1160.64 -39.64L1160.64 -39.64" stroke="rgba(241, 107, 250, 1)" stroke-width="1.5"></path><path d="M1160.64 -39.64L1133.11 79.56" stroke="rgba(241, 107, 250, 1)" stroke-width="1.5"></path><path d="M1160.64 -39.64L1252.79 56.27" stroke="rgba(241, 107, 250, 1)" stroke-width="1.5"></path><path d="M1133.11 79.56L1133.11 79.56" stroke="rgba(241, 107, 250, 1)" stroke-width="1.5"></path><path d="M1133.11 79.56L1252.79 56.27" stroke="rgba(241, 107, 250, 1)" stroke-width="1.5"></path><path d="M1097.18 261.85L1097.18 261.85" stroke="rgba(241, 107, 250, 1)" stroke-width="1.5"></path><path d="M1097.18 261.85L1094.47 382.36" stroke="rgba(241, 107, 250, 1)" stroke-width="1.5"></path><path d="M1097.18 261.85L1008.28 383.48" stroke="rgba(241, 107, 250, 1)" stroke-width="1.5"></path><path d="M1097.18 261.85L1269.16 255.9" stroke="rgba(241, 107, 250, 1)" stroke-width="1.5"></path><path d="M1097.18 261.85L1133.11 79.56" stroke="rgba(241, 107, 250, 1)" stroke-width="1.5"></path><path d="M1097.18 261.85L982.58 112.25" stroke="rgba(241, 107, 250, 1)" stroke-width="1.5"></path><path d="M1094.47 382.36L1094.47 382.36" stroke="rgba(241, 107, 250, 1)" stroke-width="1.5"></path><path d="M1094.47 382.36L1090.86 514.11" stroke="rgba(241, 107, 250, 1)" stroke-width="1.5"></path><path d="M1094.47 382.36L1296.78 339.78" stroke="rgba(241, 107, 250, 1)" stroke-width="1.5"></path><path d="M1090.86 514.11L1090.86 514.11" stroke="rgba(241, 107, 250, 1)" stroke-width="1.5"></path><path d="M1090.86 514.11L1008.28 383.48" stroke="rgba(241, 107, 250, 1)" stroke-width="1.5"></path><path d="M1134.84 685.17L1134.84 685.17" stroke="rgba(241, 107, 250, 1)" stroke-width="1.5"></path><path d="M1134.84 685.17L1239.47 659.01" stroke="rgba(241, 107, 250, 1)" stroke-width="1.5"></path><path d="M1302.25 -74.91L1302.25 -74.91" stroke="rgba(241, 107, 250, 1)" stroke-width="1.5"></path><path d="M1302.25 -74.91L1414.48 -38.73" stroke="rgba(241, 107, 250, 1)" stroke-width="1.5"></path><path d="M1302.25 -74.91L1252.79 56.27" stroke="rgba(241, 107, 250, 1)" stroke-width="1.5"></path><path d="M1302.25 -74.91L1160.64 -39.64" stroke="rgba(241, 107, 250, 1)" stroke-width="1.5"></path><path d="M1302.25 -74.91L1425.92 65.3" stroke="rgba(241, 107, 250, 1)" stroke-width="1.5"></path><path d="M1302.25 -74.91L1133.11 79.56" stroke="rgba(241, 107, 250, 1)" stroke-width="1.5"></path><path d="M1302.25 -74.91L1544.43 84.38" stroke="rgba(241, 107, 250, 1)" stroke-width="1.5"></path><path d="M1252.79 56.27L1252.79 56.27" stroke="rgba(241, 107, 250, 1)" stroke-width="1.5"></path><path d="M1252.79 56.27L1425.92 65.3" stroke="rgba(241, 107, 250, 1)" stroke-width="1.5"></path><path d="M1269.16 255.9L1269.16 255.9" stroke="rgba(241, 107, 250, 1)" stroke-width="1.5"></path><path d="M1269.16 255.9L1296.78 339.78" stroke="rgba(241, 107, 250, 1)" stroke-width="1.5"></path><path d="M1269.16 255.9L1437.32 261.22" stroke="rgba(241, 107, 250, 1)" stroke-width="1.5"></path><path d="M1296.78 339.78L1296.78 339.78" stroke="rgba(241, 107, 250, 1)" stroke-width="1.5"></path><path d="M1296.78 339.78L1441.11 407.56" stroke="rgba(241, 107, 250, 1)" stroke-width="1.5"></path><path d="M1296.78 339.78L1437.32 261.22" stroke="rgba(241, 107, 250, 1)" stroke-width="1.5"></path><path d="M1296.78 339.78L1283.72 550.44" stroke="rgba(241, 107, 250, 1)" stroke-width="1.5"></path><path d="M1296.78 339.78L1097.18 261.85" stroke="rgba(241, 107, 250, 1)" stroke-width="1.5"></path><path d="M1283.72 550.44L1283.72 550.44" stroke="rgba(241, 107, 250, 1)" stroke-width="1.5"></path><path d="M1283.72 550.44L1239.47 659.01" stroke="rgba(241, 107, 250, 1)" stroke-width="1.5"></path><path d="M1283.72 550.44L1449.11 525.23" stroke="rgba(241, 107, 250, 1)" stroke-width="1.5"></path><path d="M1239.47 659.01L1239.47 659.01" stroke="rgba(241, 107, 250, 1)" stroke-width="1.5"></path><path d="M1414.48 -38.73L1414.48 -38.73" stroke="rgba(241, 107, 250, 1)" stroke-width="1.5"></path><path d="M1414.48 -38.73L1425.92 65.3" stroke="rgba(241, 107, 250, 1)" stroke-width="1.5"></path><path d="M1414.48 -38.73L1544.43 84.38" stroke="rgba(241, 107, 250, 1)" stroke-width="1.5"></path><path d="M1414.48 -38.73L1252.79 56.27" stroke="rgba(241, 107, 250, 1)" stroke-width="1.5"></path><path d="M1414.48 -38.73L1602.46 -102.95" stroke="rgba(241, 107, 250, 1)" stroke-width="1.5"></path><path d="M1425.92 65.3L1425.92 65.3" stroke="rgba(241, 107, 250, 1)" stroke-width="1.5"></path><path d="M1425.92 65.3L1544.43 84.38" stroke="rgba(241, 107, 250, 1)" stroke-width="1.5"></path><path d="M1437.32 261.22L1437.32 261.22" stroke="rgba(241, 107, 250, 1)" stroke-width="1.5"></path><path d="M1437.32 261.22L1441.11 407.56" stroke="rgba(241, 107, 250, 1)" stroke-width="1.5"></path><path d="M1437.32 261.22L1589.76 240.43" stroke="rgba(241, 107, 250, 1)" stroke-width="1.5"></path><path d="M1441.11 407.56L1441.11 407.56" stroke="rgba(241, 107, 250, 1)" stroke-width="1.5"></path><path d="M1441.11 407.56L1449.11 525.23" stroke="rgba(241, 107, 250, 1)" stroke-width="1.5"></path><path d="M1441.11 407.56L1550.26 502.77" stroke="rgba(241, 107, 250, 1)" stroke-width="1.5"></path><path d="M1441.11 407.56L1583.31 363.68" stroke="rgba(241, 107, 250, 1)" stroke-width="1.5"></path><path d="M1441.11 407.56L1283.72 550.44" stroke="rgba(241, 107, 250, 1)" stroke-width="1.5"></path><path d="M1449.11 525.23L1449.11 525.23" stroke="rgba(241, 107, 250, 1)" stroke-width="1.5"></path><path d="M1449.11 525.23L1550.26 502.77" stroke="rgba(241, 107, 250, 1)" stroke-width="1.5"></path><path d="M1449.11 525.23L1451.23 643.86" stroke="rgba(241, 107, 250, 1)" stroke-width="1.5"></path><path d="M1451.23 643.86L1451.23 643.86" stroke="rgba(241, 107, 250, 1)" stroke-width="1.5"></path><path d="M1451.23 643.86L1586.88 687.51" stroke="rgba(241, 107, 250, 1)" stroke-width="1.5"></path><path d="M1451.23 643.86L1550.26 502.77" stroke="rgba(241, 107, 250, 1)" stroke-width="1.5"></path><path d="M1451.23 643.86L1283.72 550.44" stroke="rgba(241, 107, 250, 1)" stroke-width="1.5"></path><path d="M1451.23 643.86L1239.47 659.01" stroke="rgba(241, 107, 250, 1)" stroke-width="1.5"></path><path d="M1451.23 643.86L1441.11 407.56" stroke="rgba(241, 107, 250, 1)" stroke-width="1.5"></path><path d="M1602.46 -102.95L1602.46 -102.95" stroke="rgba(241, 107, 250, 1)" stroke-width="1.5"></path><path d="M1602.46 -102.95L1544.43 84.38" stroke="rgba(241, 107, 250, 1)" stroke-width="1.5"></path><path d="M1602.46 -102.95L1425.92 65.3" stroke="rgba(241, 107, 250, 1)" stroke-width="1.5"></path><path d="M1544.43 84.38L1544.43 84.38" stroke="rgba(241, 107, 250, 1)" stroke-width="1.5"></path><path d="M1544.43 84.38L1589.76 240.43" stroke="rgba(241, 107, 250, 1)" stroke-width="1.5"></path><path d="M1589.76 240.43L1589.76 240.43" stroke="rgba(241, 107, 250, 1)" stroke-width="1.5"></path><path d="M1589.76 240.43L1583.31 363.68" stroke="rgba(241, 107, 250, 1)" stroke-width="1.5"></path><path d="M1589.76 240.43L1441.11 407.56" stroke="rgba(241, 107, 250, 1)" stroke-width="1.5"></path><path d="M1583.31 363.68L1583.31 363.68" stroke="rgba(241, 107, 250, 1)" stroke-width="1.5"></path><path d="M1583.31 363.68L1550.26 502.77" stroke="rgba(241, 107, 250, 1)" stroke-width="1.5"></path><path d="M1583.31 363.68L1437.32 261.22" stroke="rgba(241, 107, 250, 1)" stroke-width="1.5"></path><path d="M1583.31 363.68L1449.11 525.23" stroke="rgba(241, 107, 250, 1)" stroke-width="1.5"></path><path d="M1583.31 363.68L1544.43 84.38" stroke="rgba(241, 107, 250, 1)" stroke-width="1.5"></path><path d="M1550.26 502.77L1550.26 502.77" stroke="rgba(241, 107, 250, 1)" stroke-width="1.5"></path><path d="M1586.88 687.51L1586.88 687.51" stroke="rgba(241, 107, 250, 1)" stroke-width="1.5"></path><path d="M1586.88 687.51L1550.26 502.77" stroke="rgba(241, 107, 250, 1)" stroke-width="1.5"></path><circle r="5" cx="-43.83" cy="348" fill="rgba(241, 107, 250, 1)"></circle><circle r="5" cx="-78.03" cy="519.2" fill="rgba(241, 107, 250, 1)"></circle><circle r="5" cx="-50.12" cy="700.06" fill="rgba(241, 107, 250, 1)"></circle><circle r="5" cx="37.84" cy="375.94" fill="rgba(241, 107, 250, 1)"></circle><circle r="5" cx="47.17" cy="553.91" fill="rgba(241, 107, 250, 1)"></circle><circle r="5" cx="63.6" cy="682.57" fill="rgba(241, 107, 250, 1)"></circle><circle r="5" cx="197.56" cy="390.07" fill="rgba(241, 107, 250, 1)"></circle><circle r="5" cx="236.46" cy="492.36" fill="rgba(241, 107, 250, 1)"></circle><circle r="5" cx="205.61" cy="671.82" fill="rgba(241, 107, 250, 1)"></circle><circle r="5" cx="396.15" cy="373.08" fill="rgba(241, 107, 250, 1)"></circle><circle r="5" cx="375.81" cy="670.06" fill="rgba(241, 107, 250, 1)"></circle><circle r="5" cx="505.99" cy="390" fill="rgba(241, 107, 250, 1)"></circle><circle r="5" cx="510.29" cy="500.99" fill="rgba(241, 107, 250, 1)"></circle><circle r="5" cx="544.02" cy="645.91" fill="rgba(241, 107, 250, 1)"></circle><circle r="5" cx="661.25" cy="200.07" fill="rgba(241, 107, 250, 1)"></circle><circle r="5" cx="678.24" cy="378.33" fill="rgba(241, 107, 250, 1)"></circle><circle r="5" cx="653.42" cy="500.79" fill="rgba(241, 107, 250, 1)"></circle><circle r="5" cx="693.29" cy="690.82" fill="rgba(241, 107, 250, 1)"></circle><circle r="5" cx="857.6" cy="89.24" fill="rgba(241, 107, 250, 1)"></circle><circle r="5" cx="836.73" cy="193.82" fill="rgba(241, 107, 250, 1)"></circle><circle r="5" cx="833.39" cy="384.76" fill="rgba(241, 107, 250, 1)"></circle><circle r="5" cx="800.11" cy="514.39" fill="rgba(241, 107, 250, 1)"></circle><circle r="5" cx="992.63" cy="-66.56" fill="rgba(241, 107, 250, 1)"></circle><circle r="5" cx="982.58" cy="112.25" fill="rgba(241, 107, 250, 1)"></circle><circle r="5" cx="939.54" cy="210.26" fill="rgba(241, 107, 250, 1)"></circle><circle r="5" cx="1008.28" cy="383.48" fill="rgba(241, 107, 250, 1)"></circle><circle r="5" cx="948.22" cy="533.28" fill="rgba(241, 107, 250, 1)"></circle><circle r="5" cx="971.67" cy="702.58" fill="rgba(241, 107, 250, 1)"></circle><circle r="5" cx="1160.64" cy="-39.64" fill="rgba(241, 107, 250, 1)"></circle><circle r="5" cx="1133.11" cy="79.56" fill="rgba(241, 107, 250, 1)"></circle><circle r="5" cx="1097.18" cy="261.85" fill="rgba(241, 107, 250, 1)"></circle><circle r="5" cx="1094.47" cy="382.36" fill="rgba(241, 107, 250, 1)"></circle><circle r="5" cx="1090.86" cy="514.11" fill="rgba(241, 107, 250, 1)"></circle><circle r="5" cx="1134.84" cy="685.17" fill="rgba(241, 107, 250, 1)"></circle><circle r="5" cx="1302.25" cy="-74.91" fill="rgba(241, 107, 250, 1)"></circle><circle r="5" cx="1252.79" cy="56.27" fill="rgba(241, 107, 250, 1)"></circle><circle r="5" cx="1269.16" cy="255.9" fill="rgba(241, 107, 250, 1)"></circle><circle r="5" cx="1296.78" cy="339.78" fill="rgba(241, 107, 250, 1)"></circle><circle r="5" cx="1283.72" cy="550.44" fill="rgba(241, 107, 250, 1)"></circle><circle r="5" cx="1239.47" cy="659.01" fill="rgba(241, 107, 250, 1)"></circle><circle r="5" cx="1414.48" cy="-38.73" fill="rgba(241, 107, 250, 1)"></circle><circle r="5" cx="1425.92" cy="65.3" fill="rgba(241, 107, 250, 1)"></circle><circle r="5" cx="1437.32" cy="261.22" fill="rgba(241, 107, 250, 1)"></circle><circle r="5" cx="1441.11" cy="407.56" fill="rgba(241, 107, 250, 1)"></circle><circle r="5" cx="1449.11" cy="525.23" fill="rgba(241, 107, 250, 1)"></circle><circle r="5" cx="1451.23" cy="643.86" fill="rgba(241, 107, 250, 1)"></circle><circle r="5" cx="1602.46" cy="-102.95" fill="rgba(241, 107, 250, 1)"></circle><circle r="5" cx="1544.43" cy="84.38" fill="rgba(241, 107, 250, 1)"></circle><circle r="5" cx="1589.76" cy="240.43" fill="rgba(241, 107, 250, 1)"></circle><circle r="5" cx="1583.31" cy="363.68" fill="rgba(241, 107, 250, 1)"></circle><circle r="5" cx="1550.26" cy="502.77" fill="rgba(241, 107, 250, 1)"></circle><circle r="5" cx="1586.88" cy="687.51" fill="rgba(241, 107, 250, 1)"></circle><path d="M54.26 547.2L54.26 547.2" stroke="hsl(296.20000000000005, 93.5%, 91%)" stroke-width="1.5"></path><path d="M54.26 547.2L-81.88 516.63" stroke="hsl(296.20000000000005, 93.5%, 91%)" stroke-width="1.5"></path><path d="M54.26 547.2L189.81 489.31" stroke="hsl(296.20000000000005, 93.5%, 91%)" stroke-width="1.5"></path><path d="M54.26 547.2L99.96 404.21" stroke="hsl(296.20000000000005, 93.5%, 91%)" stroke-width="1.5"></path><path d="M54.26 547.2L62.07 711.17" stroke="hsl(296.20000000000005, 93.5%, 91%)" stroke-width="1.5"></path><path d="M54.26 547.2L-104.28 656.14" stroke="hsl(296.20000000000005, 93.5%, 91%)" stroke-width="1.5"></path><path d="M534.43 671.8L534.43 671.8" stroke="hsl(296.20000000000005, 93.5%, 91%)" stroke-width="1.5"></path><path d="M534.43 671.8L542.57 562.37" stroke="hsl(296.20000000000005, 93.5%, 91%)" stroke-width="1.5"></path><path d="M534.43 671.8L681.31 667.31" stroke="hsl(296.20000000000005, 93.5%, 91%)" stroke-width="1.5"></path><path d="M534.43 671.8L343.52 653.99" stroke="hsl(296.20000000000005, 93.5%, 91%)" stroke-width="1.5"></path><path d="M534.43 671.8L652.88 515.02" stroke="hsl(296.20000000000005, 93.5%, 91%)" stroke-width="1.5"></path><path d="M534.43 671.8L394.66 502.48" stroke="hsl(296.20000000000005, 93.5%, 91%)" stroke-width="1.5"></path><path d="M793.72 391.37L793.72 391.37" stroke="hsl(296.20000000000005, 93.5%, 91%)" stroke-width="1.5"></path><path d="M793.72 391.37L688.91 353.91" stroke="hsl(296.20000000000005, 93.5%, 91%)" stroke-width="1.5"></path><path d="M793.72 391.37L833.73 541.97" stroke="hsl(296.20000000000005, 93.5%, 91%)" stroke-width="1.5"></path><path d="M793.72 391.37L652.88 515.02" stroke="hsl(296.20000000000005, 93.5%, 91%)" stroke-width="1.5"></path><path d="M793.72 391.37L1002.72 373.4" stroke="hsl(296.20000000000005, 93.5%, 91%)" stroke-width="1.5"></path><path d="M793.72 391.37L1012.07 538.11" stroke="hsl(296.20000000000005, 93.5%, 91%)" stroke-width="1.5"></path><path d="M1149.75 246.28L1149.75 246.28" stroke="hsl(296.20000000000005, 93.5%, 91%)" stroke-width="1.5"></path><path d="M1149.75 246.28L1158.47 350.96" stroke="hsl(296.20000000000005, 93.5%, 91%)" stroke-width="1.5"></path><path d="M1149.75 246.28L1296.02 232.76" stroke="hsl(296.20000000000005, 93.5%, 91%)" stroke-width="1.5"></path><path d="M1149.75 246.28L1161.47 79.91" stroke="hsl(296.20000000000005, 93.5%, 91%)" stroke-width="1.5"></path><path d="M1149.75 246.28L1002.72 373.4" stroke="hsl(296.20000000000005, 93.5%, 91%)" stroke-width="1.5"></path><path d="M1149.75 246.28L1299.6 98.29" stroke="hsl(296.20000000000005, 93.5%, 91%)" stroke-width="1.5"></path><path d="M1444.59 -74.97L1444.59 -74.97" stroke="hsl(296.20000000000005, 93.5%, 91%)" stroke-width="1.5"></path><path d="M1444.59 -74.97L1583.43 -56.51" stroke="hsl(296.20000000000005, 93.5%, 91%)" stroke-width="1.5"></path><path d="M1444.59 -74.97L1456.78 72.44" stroke="hsl(296.20000000000005, 93.5%, 91%)" stroke-width="1.5"></path><path d="M1444.59 -74.97L1551.99 89.93" stroke="hsl(296.20000000000005, 93.5%, 91%)" stroke-width="1.5"></path><path d="M1444.59 -74.97L1248.37 -103.73" stroke="hsl(296.20000000000005, 93.5%, 91%)" stroke-width="1.5"></path><path d="M1444.59 -74.97L1299.6 98.29" stroke="hsl(296.20000000000005, 93.5%, 91%)" stroke-width="1.5"></path><path d="M1444.59 -74.97L1387.94 220.52" stroke="hsl(296.20000000000005, 93.5%, 91%)" stroke-width="1.5"></path><path d="M1456.78 72.44L1456.78 72.44" stroke="hsl(296.20000000000005, 93.5%, 91%)" stroke-width="1.5"></path><path d="M1456.78 72.44L1551.99 89.93" stroke="hsl(296.20000000000005, 93.5%, 91%)" stroke-width="1.5"></path><path d="M1456.78 72.44L1299.6 98.29" stroke="hsl(296.20000000000005, 93.5%, 91%)" stroke-width="1.5"></path><path d="M1456.78 72.44L1387.94 220.52" stroke="hsl(296.20000000000005, 93.5%, 91%)" stroke-width="1.5"></path><path d="M1456.78 72.44L1583.43 -56.51" stroke="hsl(296.20000000000005, 93.5%, 91%)" stroke-width="1.5"></path><path d="M1390.99 379.07L1390.99 379.07" stroke="hsl(296.20000000000005, 93.5%, 91%)" stroke-width="1.5"></path><path d="M1390.99 379.07L1387.94 220.52" stroke="hsl(296.20000000000005, 93.5%, 91%)" stroke-width="1.5"></path><path d="M1390.99 379.07L1449.97 532.02" stroke="hsl(296.20000000000005, 93.5%, 91%)" stroke-width="1.5"></path><path d="M1390.99 379.07L1296.02 232.76" stroke="hsl(296.20000000000005, 93.5%, 91%)" stroke-width="1.5"></path><path d="M1551.99 89.93L1551.99 89.93" stroke="hsl(296.20000000000005, 93.5%, 91%)" stroke-width="1.5"></path><path d="M1551.99 89.93L1583.43 -56.51" stroke="hsl(296.20000000000005, 93.5%, 91%)" stroke-width="1.5"></path><path d="M1551.99 89.93L1611.71 251.27" stroke="hsl(296.20000000000005, 93.5%, 91%)" stroke-width="1.5"></path><path d="M1611.71 251.27L1611.71 251.27" stroke="hsl(296.20000000000005, 93.5%, 91%)" stroke-width="1.5"></path><path d="M1611.71 251.27L1387.94 220.52" stroke="hsl(296.20000000000005, 93.5%, 91%)" stroke-width="1.5"></path><path d="M-81.88 516.63L-81.88 516.63" stroke="hsl(296.20000000000005, 93.5%, 91%)" stroke-width="1.5"></path><path d="M-81.88 516.63L-104.28 656.14" stroke="hsl(296.20000000000005, 93.5%, 91%)" stroke-width="1.5"></path><path d="M-104.28 656.14L-104.28 656.14" stroke="hsl(296.20000000000005, 93.5%, 91%)" stroke-width="1.5"></path><path d="M-104.28 656.14L62.07 711.17" stroke="hsl(296.20000000000005, 93.5%, 91%)" stroke-width="1.5"></path><path d="M-104.28 656.14L189.3 690.35" stroke="hsl(296.20000000000005, 93.5%, 91%)" stroke-width="1.5"></path><path d="M-104.28 656.14L99.96 404.21" stroke="hsl(296.20000000000005, 93.5%, 91%)" stroke-width="1.5"></path><path d="M99.96 404.21L99.96 404.21" stroke="hsl(296.20000000000005, 93.5%, 91%)" stroke-width="1.5"></path><path d="M99.96 404.21L189.81 489.31" stroke="hsl(296.20000000000005, 93.5%, 91%)" stroke-width="1.5"></path><path d="M99.96 404.21L-81.88 516.63" stroke="hsl(296.20000000000005, 93.5%, 91%)" stroke-width="1.5"></path><path d="M99.96 404.21L189.3 690.35" stroke="hsl(296.20000000000005, 93.5%, 91%)" stroke-width="1.5"></path><path d="M62.07 711.17L62.07 711.17" stroke="hsl(296.20000000000005, 93.5%, 91%)" stroke-width="1.5"></path><path d="M62.07 711.17L189.3 690.35" stroke="hsl(296.20000000000005, 93.5%, 91%)" stroke-width="1.5"></path><path d="M189.81 489.31L189.81 489.31" stroke="hsl(296.20000000000005, 93.5%, 91%)" stroke-width="1.5"></path><path d="M189.81 489.31L189.3 690.35" stroke="hsl(296.20000000000005, 93.5%, 91%)" stroke-width="1.5"></path><path d="M189.81 489.31L394.66 502.48" stroke="hsl(296.20000000000005, 93.5%, 91%)" stroke-width="1.5"></path><path d="M189.81 489.31L343.52 653.99" stroke="hsl(296.20000000000005, 93.5%, 91%)" stroke-width="1.5"></path><path d="M189.3 690.35L189.3 690.35" stroke="hsl(296.20000000000005, 93.5%, 91%)" stroke-width="1.5"></path><path d="M189.3 690.35L343.52 653.99" stroke="hsl(296.20000000000005, 93.5%, 91%)" stroke-width="1.5"></path><path d="M189.3 690.35L54.26 547.2" stroke="hsl(296.20000000000005, 93.5%, 91%)" stroke-width="1.5"></path><path d="M189.3 690.35L394.66 502.48" stroke="hsl(296.20000000000005, 93.5%, 91%)" stroke-width="1.5"></path><path d="M394.66 502.48L394.66 502.48" stroke="hsl(296.20000000000005, 93.5%, 91%)" stroke-width="1.5"></path><path d="M394.66 502.48L497.08 409.32" stroke="hsl(296.20000000000005, 93.5%, 91%)" stroke-width="1.5"></path><path d="M394.66 502.48L542.57 562.37" stroke="hsl(296.20000000000005, 93.5%, 91%)" stroke-width="1.5"></path><path d="M343.52 653.99L343.52 653.99" stroke="hsl(296.20000000000005, 93.5%, 91%)" stroke-width="1.5"></path><path d="M343.52 653.99L394.66 502.48" stroke="hsl(296.20000000000005, 93.5%, 91%)" stroke-width="1.5"></path><path d="M343.52 653.99L542.57 562.37" stroke="hsl(296.20000000000005, 93.5%, 91%)" stroke-width="1.5"></path><path d="M497.08 409.32L497.08 409.32" stroke="hsl(296.20000000000005, 93.5%, 91%)" stroke-width="1.5"></path><path d="M497.08 409.32L542.57 562.37" stroke="hsl(296.20000000000005, 93.5%, 91%)" stroke-width="1.5"></path><path d="M542.57 562.37L542.57 562.37" stroke="hsl(296.20000000000005, 93.5%, 91%)" stroke-width="1.5"></path><path d="M542.57 562.37L652.88 515.02" stroke="hsl(296.20000000000005, 93.5%, 91%)" stroke-width="1.5"></path><path d="M688.91 353.91L688.91 353.91" stroke="hsl(296.20000000000005, 93.5%, 91%)" stroke-width="1.5"></path><path d="M688.91 353.91L652.88 515.02" stroke="hsl(296.20000000000005, 93.5%, 91%)" stroke-width="1.5"></path><path d="M688.91 353.91L497.08 409.32" stroke="hsl(296.20000000000005, 93.5%, 91%)" stroke-width="1.5"></path><path d="M688.91 353.91L833.73 541.97" stroke="hsl(296.20000000000005, 93.5%, 91%)" stroke-width="1.5"></path><path d="M688.91 353.91L542.57 562.37" stroke="hsl(296.20000000000005, 93.5%, 91%)" stroke-width="1.5"></path><path d="M652.88 515.02L652.88 515.02" stroke="hsl(296.20000000000005, 93.5%, 91%)" stroke-width="1.5"></path><path d="M652.88 515.02L681.31 667.31" stroke="hsl(296.20000000000005, 93.5%, 91%)" stroke-width="1.5"></path><path d="M652.88 515.02L833.73 541.97" stroke="hsl(296.20000000000005, 93.5%, 91%)" stroke-width="1.5"></path><path d="M652.88 515.02L497.08 409.32" stroke="hsl(296.20000000000005, 93.5%, 91%)" stroke-width="1.5"></path><path d="M681.31 667.31L681.31 667.31" stroke="hsl(296.20000000000005, 93.5%, 91%)" stroke-width="1.5"></path><path d="M833.73 541.97L833.73 541.97" stroke="hsl(296.20000000000005, 93.5%, 91%)" stroke-width="1.5"></path><path d="M833.73 541.97L1012.07 538.11" stroke="hsl(296.20000000000005, 93.5%, 91%)" stroke-width="1.5"></path><path d="M1002.72 373.4L1002.72 373.4" stroke="hsl(296.20000000000005, 93.5%, 91%)" stroke-width="1.5"></path><path d="M1002.72 373.4L1158.47 350.96" stroke="hsl(296.20000000000005, 93.5%, 91%)" stroke-width="1.5"></path><path d="M1002.72 373.4L1012.07 538.11" stroke="hsl(296.20000000000005, 93.5%, 91%)" stroke-width="1.5"></path><path d="M1012.07 538.11L1012.07 538.11" stroke="hsl(296.20000000000005, 93.5%, 91%)" stroke-width="1.5"></path><path d="M1012.07 538.11L987.84 674.6" stroke="hsl(296.20000000000005, 93.5%, 91%)" stroke-width="1.5"></path><path d="M1012.07 538.11L1162.47 530.48" stroke="hsl(296.20000000000005, 93.5%, 91%)" stroke-width="1.5"></path><path d="M987.84 674.6L987.84 674.6" stroke="hsl(296.20000000000005, 93.5%, 91%)" stroke-width="1.5"></path><path d="M987.84 674.6L1154.06 665.93" stroke="hsl(296.20000000000005, 93.5%, 91%)" stroke-width="1.5"></path><path d="M1161.47 79.91L1161.47 79.91" stroke="hsl(296.20000000000005, 93.5%, 91%)" stroke-width="1.5"></path><path d="M1161.47 79.91L1299.6 98.29" stroke="hsl(296.20000000000005, 93.5%, 91%)" stroke-width="1.5"></path><path d="M1158.47 350.96L1158.47 350.96" stroke="hsl(296.20000000000005, 93.5%, 91%)" stroke-width="1.5"></path><path d="M1162.47 530.48L1162.47 530.48" stroke="hsl(296.20000000000005, 93.5%, 91%)" stroke-width="1.5"></path><path d="M1162.47 530.48L1154.06 665.93" stroke="hsl(296.20000000000005, 93.5%, 91%)" stroke-width="1.5"></path><path d="M1162.47 530.48L1298.45 555.22" stroke="hsl(296.20000000000005, 93.5%, 91%)" stroke-width="1.5"></path><path d="M1162.47 530.48L1158.47 350.96" stroke="hsl(296.20000000000005, 93.5%, 91%)" stroke-width="1.5"></path><path d="M1162.47 530.48L1300.22 678.81" stroke="hsl(296.20000000000005, 93.5%, 91%)" stroke-width="1.5"></path><path d="M1162.47 530.48L1002.72 373.4" stroke="hsl(296.20000000000005, 93.5%, 91%)" stroke-width="1.5"></path><path d="M1154.06 665.93L1154.06 665.93" stroke="hsl(296.20000000000005, 93.5%, 91%)" stroke-width="1.5"></path><path d="M1154.06 665.93L1300.22 678.81" stroke="hsl(296.20000000000005, 93.5%, 91%)" stroke-width="1.5"></path><path d="M1154.06 665.93L1298.45 555.22" stroke="hsl(296.20000000000005, 93.5%, 91%)" stroke-width="1.5"></path><path d="M1248.37 -103.73L1248.37 -103.73" stroke="hsl(296.20000000000005, 93.5%, 91%)" stroke-width="1.5"></path><path d="M1248.37 -103.73L1161.47 79.91" stroke="hsl(296.20000000000005, 93.5%, 91%)" stroke-width="1.5"></path><path d="M1248.37 -103.73L1299.6 98.29" stroke="hsl(296.20000000000005, 93.5%, 91%)" stroke-width="1.5"></path><path d="M1248.37 -103.73L1456.78 72.44" stroke="hsl(296.20000000000005, 93.5%, 91%)" stroke-width="1.5"></path><path d="M1248.37 -103.73L1583.43 -56.51" stroke="hsl(296.20000000000005, 93.5%, 91%)" stroke-width="1.5"></path><path d="M1248.37 -103.73L1296.02 232.76" stroke="hsl(296.20000000000005, 93.5%, 91%)" stroke-width="1.5"></path><path d="M1299.6 98.29L1299.6 98.29" stroke="hsl(296.20000000000005, 93.5%, 91%)" stroke-width="1.5"></path><path d="M1299.6 98.29L1296.02 232.76" stroke="hsl(296.20000000000005, 93.5%, 91%)" stroke-width="1.5"></path><path d="M1296.02 232.76L1296.02 232.76" stroke="hsl(296.20000000000005, 93.5%, 91%)" stroke-width="1.5"></path><path d="M1296.02 232.76L1387.94 220.52" stroke="hsl(296.20000000000005, 93.5%, 91%)" stroke-width="1.5"></path><path d="M1296.02 232.76L1158.47 350.96" stroke="hsl(296.20000000000005, 93.5%, 91%)" stroke-width="1.5"></path><path d="M1296.02 232.76L1161.47 79.91" stroke="hsl(296.20000000000005, 93.5%, 91%)" stroke-width="1.5"></path><path d="M1298.45 555.22L1298.45 555.22" stroke="hsl(296.20000000000005, 93.5%, 91%)" stroke-width="1.5"></path><path d="M1298.45 555.22L1300.22 678.81" stroke="hsl(296.20000000000005, 93.5%, 91%)" stroke-width="1.5"></path><path d="M1300.22 678.81L1300.22 678.81" stroke="hsl(296.20000000000005, 93.5%, 91%)" stroke-width="1.5"></path><path d="M1300.22 678.81L1421.2 673.53" stroke="hsl(296.20000000000005, 93.5%, 91%)" stroke-width="1.5"></path><path d="M1387.94 220.52L1387.94 220.52" stroke="hsl(296.20000000000005, 93.5%, 91%)" stroke-width="1.5"></path><path d="M1449.97 532.02L1449.97 532.02" stroke="hsl(296.20000000000005, 93.5%, 91%)" stroke-width="1.5"></path><path d="M1449.97 532.02L1538.69 544.51" stroke="hsl(296.20000000000005, 93.5%, 91%)" stroke-width="1.5"></path><path d="M1449.97 532.02L1421.2 673.53" stroke="hsl(296.20000000000005, 93.5%, 91%)" stroke-width="1.5"></path><path d="M1449.97 532.02L1298.45 555.22" stroke="hsl(296.20000000000005, 93.5%, 91%)" stroke-width="1.5"></path><path d="M1421.2 673.53L1421.2 673.53" stroke="hsl(296.20000000000005, 93.5%, 91%)" stroke-width="1.5"></path><path d="M1583.43 -56.51L1583.43 -56.51" stroke="hsl(296.20000000000005, 93.5%, 91%)" stroke-width="1.5"></path><path d="M1538.69 544.51L1538.69 544.51" stroke="hsl(296.20000000000005, 93.5%, 91%)" stroke-width="1.5"></path><path d="M1538.69 544.51L1421.2 673.53" stroke="hsl(296.20000000000005, 93.5%, 91%)" stroke-width="1.5"></path><circle r="25" cx="54.26" cy="547.2" fill="url(&quot;#SvgjsRadialGradient1059&quot;)"></circle><circle r="25" cx="534.43" cy="671.8" fill="url(&quot;#SvgjsRadialGradient1059&quot;)"></circle><circle r="25" cx="793.72" cy="391.37" fill="url(&quot;#SvgjsRadialGradient1059&quot;)"></circle><circle r="25" cx="1149.75" cy="246.28" fill="url(&quot;#SvgjsRadialGradient1059&quot;)"></circle><circle r="25" cx="1444.59" cy="-74.97" fill="url(&quot;#SvgjsRadialGradient1059&quot;)"></circle><circle r="25" cx="1456.78" cy="72.44" fill="url(&quot;#SvgjsRadialGradient1059&quot;)"></circle><circle r="25" cx="1390.99" cy="379.07" fill="url(&quot;#SvgjsRadialGradient1059&quot;)"></circle><circle r="25" cx="1551.99" cy="89.93" fill="url(&quot;#SvgjsRadialGradient1059&quot;)"></circle><circle r="25" cx="1611.71" cy="251.27" fill="url(&quot;#SvgjsRadialGradient1059&quot;)"></circle><circle r="5" cx="-81.88" cy="516.63" fill="#f8b5fd"></circle><circle r="5" cx="-104.28" cy="656.14" fill="#f8b5fd"></circle><circle r="5" cx="99.96" cy="404.21" fill="#f8b5fd"></circle><circle r="5" cx="62.07" cy="711.17" fill="#f8b5fd"></circle><circle r="5" cx="189.81" cy="489.31" fill="#f8b5fd"></circle><circle r="5" cx="189.3" cy="690.35" fill="#f8b5fd"></circle><circle r="5" cx="394.66" cy="502.48" fill="#f8b5fd"></circle><circle r="5" cx="343.52" cy="653.99" fill="#f8b5fd"></circle><circle r="5" cx="497.08" cy="409.32" fill="#f8b5fd"></circle><circle r="5" cx="542.57" cy="562.37" fill="#f8b5fd"></circle><circle r="5" cx="688.91" cy="353.91" fill="#f8b5fd"></circle><circle r="5" cx="652.88" cy="515.02" fill="#f8b5fd"></circle><circle r="5" cx="681.31" cy="667.31" fill="#f8b5fd"></circle><circle r="5" cx="833.73" cy="541.97" fill="#f8b5fd"></circle><circle r="5" cx="1002.72" cy="373.4" fill="#f8b5fd"></circle><circle r="5" cx="1012.07" cy="538.11" fill="#f8b5fd"></circle><circle r="5" cx="987.84" cy="674.6" fill="#f8b5fd"></circle><circle r="5" cx="1161.47" cy="79.91" fill="#f8b5fd"></circle><circle r="5" cx="1158.47" cy="350.96" fill="#f8b5fd"></circle><circle r="5" cx="1162.47" cy="530.48" fill="#f8b5fd"></circle><circle r="5" cx="1154.06" cy="665.93" fill="#f8b5fd"></circle><circle r="5" cx="1248.37" cy="-103.73" fill="#f8b5fd"></circle><circle r="5" cx="1299.6" cy="98.29" fill="#f8b5fd"></circle><circle r="5" cx="1296.02" cy="232.76" fill="#f8b5fd"></circle><circle r="5" cx="1298.45" cy="555.22" fill="#f8b5fd"></circle><circle r="5" cx="1300.22" cy="678.81" fill="#f8b5fd"></circle><circle r="5" cx="1387.94" cy="220.52" fill="#f8b5fd"></circle><circle r="5" cx="1449.97" cy="532.02" fill="#f8b5fd"></circle><circle r="5" cx="1421.2" cy="673.53" fill="#f8b5fd"></circle><circle r="5" cx="1583.43" cy="-56.51" fill="#f8b5fd"></circle><circle r="5" cx="1538.69" cy="544.51" fill="#f8b5fd"></circle></g><defs><mask id="SvgjsMask1058"><rect width="1440" height="500" fill="#ffffff"></rect></mask><radialGradient id="SvgjsRadialGradient1059"><stop stop-color="#ffffff" offset="0.1"></stop><stop stop-color="rgba(241, 107, 250, 1)" offset="0.2"></stop><stop stop-color="rgba(241, 107, 250, 0)" offset="1"></stop></radialGradient></defs></svg>