<svg width="202" height="202" viewBox="0 0 202 202" fill="none" xmlns="http://www.w3.org/2000/svg">
<path d="M101 0.600098C45.8801 0.600098 0.600098 45.8801 0.600098 100.992C0.600098 156.112 45.8801 201.392 101 201.392C154.24 201.392 197.896 159.04 200.84 106.496C201.208 104.684 201.396 102.841 201.4 100.992C201.397 99.1354 201.21 97.2836 200.84 95.4641C197.88 42.9201 154.224 0.600098 101 0.600098ZM101 56.6001C125.856 56.6001 145.4 76.1361 145.4 100.992C145.4 125.848 125.856 145.392 101 145.392C76.1441 145.392 56.6001 125.848 56.6001 100.992C56.6001 76.1361 76.1441 56.6001 101 56.6001Z" fill="#F16BFA"/>
</svg>
