<svg width="80" height="16" viewBox="0 0 80 16" fill="none" xmlns="http://www.w3.org/2000/svg">
<path d="M56.248 15.7349C54.615 15.7349 53.078 15.0969 51.923 13.9429L50.155 12.1759C48.819 10.8399 46.494 10.8369 45.158 12.1759L43.39 13.9429C41.078 16.2519 37.049 16.2489 34.742 13.9429L32.974 12.1759C31.638 10.8399 29.313 10.8369 27.976 12.1759L26.208 13.9429C23.897 16.2519 19.867 16.2489 17.56 13.9429L15.792 12.1759C14.456 10.8399 12.13 10.8369 10.794 12.1759L9.02598 13.9429C6.71598 16.2519 2.686 16.2489 0.378 13.9429C-0.126 13.4389 -0.126 12.6219 0.378 12.1179C0.882 11.6139 1.69898 11.6139 2.20298 12.1179C3.53598 13.4509 5.86199 13.4509 7.19999 12.1179L8.968 10.3509C11.277 8.03993 15.307 8.03993 17.616 10.3509L19.384 12.1179C20.718 13.4509 23.043 13.4509 24.382 12.1179L26.15 10.3509C28.458 8.03993 32.489 8.03993 34.798 10.3509L36.566 12.1179C37.901 13.4509 40.225 13.4509 41.563 12.1179L43.331 10.3509C45.64 8.03993 49.668 8.03993 51.979 10.3509L53.747 12.1179C55.082 13.4509 57.407 13.4509 58.744 12.1179C59.248 11.6139 60.065 11.6139 60.569 12.1179C61.073 12.6219 61.073 13.4389 60.569 13.9429C59.417 15.0969 57.88 15.7349 56.248 15.7349Z" fill="#F16BFA"/>
<path d="M74.4912 7.118C72.8572 7.118 71.3212 6.47998 70.1662 5.32598L68.3982 3.55898C67.0622 2.22298 64.7372 2.21998 63.4012 3.55898L61.6332 5.32598C59.3212 7.63498 55.2921 7.63298 52.9851 5.32598L51.2171 3.55898C49.8811 2.22298 47.5562 2.21998 46.2192 3.55898L44.4512 5.32598C42.1392 7.63498 38.1102 7.63298 35.8032 5.32598L34.0352 3.55898C32.6992 2.22298 30.3731 2.21998 29.0371 3.55898L27.2691 5.32598C24.9591 7.63498 20.9292 7.63298 18.6212 5.32598C18.1172 4.82198 18.1172 4.005 18.6212 3.501C19.1252 2.997 19.9422 2.997 20.4462 3.501C21.7802 4.834 24.1052 4.834 25.4442 3.501L27.2122 1.734C29.5212 -0.578 33.5511 -0.578 35.8601 1.734L37.6282 3.501C38.9622 4.834 41.2872 4.834 42.6262 3.501L44.3941 1.734C46.7021 -0.578 50.7332 -0.578 53.0422 1.734L54.8102 3.501C56.1452 4.834 58.4692 4.834 59.8072 3.501L61.5752 1.734C63.8842 -0.578 67.9122 -0.578 70.2232 1.734L71.9912 3.501C73.3262 4.834 75.6512 4.834 76.9882 3.501C77.4922 2.997 78.3091 2.997 78.8131 3.501C79.3171 4.005 79.3171 4.82198 78.8131 5.32598C77.6591 6.48098 76.1232 7.118 74.4912 7.118Z" fill="#F16BFA"/>
</svg>
