<svg xmlns="http://www.w3.org/2000/svg" version="1.1" xmlns:xlink="http://www.w3.org/1999/xlink" xmlns:svgjs="http://svgjs.dev/svgjs" width="1440" height="560" preserveAspectRatio="none" viewBox="0 0 1440 560"><g mask="url(&quot;#SvgjsMask1064&quot;)" fill="none"><path d="M1512 560L0 560 L0 425.91Q59.88 365.8, 120 425.68Q189.98 375.66, 240 445.64Q281.13 366.76, 360 407.89Q402.6 378.49, 432 421.09Q459.23 328.32, 552 355.55Q619.68 303.24, 672 370.92Q743.31 322.24, 792 393.55Q807.2 336.75, 864 351.96Q938.82 306.78, 984 381.6Q1014.09 339.69, 1056 369.78Q1135.27 329.05, 1176 408.32Q1207.87 320.19, 1296 352.06Q1339.06 323.12, 1368 366.17Q1418.29 344.46, 1440 394.75Q1490.4 373.15, 1512 423.56z" fill="rgba(111, 63, 249, 0.24)"></path><path d="M1464 560L0 560 L0 516.04Q-12.79 431.25, 72 418.45Q181.25 407.7, 192 516.95Q205.19 458.14, 264 471.34Q339.86 427.2, 384 503.06Q395.34 442.4, 456 453.75Q521.8 399.55, 576 465.35Q617.28 386.63, 696 427.91Q739.35 399.26, 768 442.61Q825.08 427.69, 840 484.77Q909.47 434.24, 960 503.7Q987.26 410.97, 1080 438.23Q1160.1 398.33, 1200 478.43Q1226.49 432.93, 1272 459.42Q1292.46 407.88, 1344 428.35Q1430.8 395.14, 1464 481.94z" fill="rgba(111, 63, 249, 0.63)"></path><path d="M1512 560L0 560 L0 523.1Q49.4 500.5, 72 549.91Q120.68 526.59, 144 575.27Q174.62 485.88, 264 516.5Q308.71 489.21, 336 533.92Q383.36 509.28, 408 556.64Q443.25 471.89, 528 507.15Q607.61 466.76, 648 546.37Q697.9 476.27, 768 526.17Q845.61 483.78, 888 561.39Q961.26 514.65, 1008 587.92Q1036.03 543.95, 1080 571.99Q1101.88 473.87, 1200 495.74Q1243.13 466.87, 1272 510Q1359.97 477.98, 1392 565.95Q1435.5 489.45, 1512 532.95z" fill="rgba(111, 63, 249, 1)"></path></g><defs><mask id="SvgjsMask1064"><rect width="1440" height="560" fill="#ffffff"></rect></mask></defs></svg>