<svg width="23" height="84" viewBox="0 0 23 84" fill="none" xmlns="http://www.w3.org/2000/svg">
<path d="M16.7679 10.166L21.4819 5.45203L16.0299 0L11.3159 4.71402L6.60288 0L1.15088 5.45203L5.86388 10.166L1.15088 14.88L6.60288 20.331L11.3159 15.618L16.0299 20.331L21.4819 14.88L16.7679 10.166Z" fill="#F16BFA"/>
<path d="M16.03 53.2701L11.316 48.556L6.602 53.2701L0 46.668L4.713 41.954L0 37.2401L6.602 30.639L11.316 35.3531L16.03 30.639L22.632 37.2401L17.918 41.954L22.632 46.668L16.03 53.2701ZM11.316 46.256L16.03 50.97L20.332 46.668L15.618 41.954L20.332 37.2401L16.03 32.9391L11.316 37.652L6.602 32.9391L2.3 37.2401L7.013 41.954L2.3 46.668L6.602 50.97L11.316 46.256Z" fill="#F16BFA"/>
<path d="M16.7679 73.742L21.4819 69.028L16.0299 63.576L11.3159 68.29L6.60288 63.576L1.15088 69.028L5.86388 73.742L1.15088 78.4561L6.60288 83.907L11.3159 79.194L16.0299 83.907L21.4819 78.4561L16.7679 73.742Z" fill="#F16BFA"/>
</svg>
