<svg viewBox="0 0 546 364" fill="none" xmlns="http://www.w3.org/2000/svg">
<mask id="mask0_421_47" style="mask-type:luminance" maskUnits="userSpaceOnUse" x="0" y="0" width="546" height="364">
<path d="M542.204 363.803H3.5C1.567 363.803 0 362.236 0 360.303V3.5C0 1.567 1.567 0 3.5 0H542.204C544.137 0 545.704 1.567 545.704 3.5V360.303C545.704 362.236 544.137 363.803 542.204 363.803Z" fill="white"/>
</mask>
<g mask="url(#mask0_421_47)">
<path d="M520.915 321.552L539.651 350.433L555.295 319.766L520.915 321.552Z" fill="#F16BFA"/>
<path d="M-6.33899 237.111L-1.03399 263.289L18.984 245.606L-6.33899 237.111Z" fill="#F16BFA"/>
<path d="M127.685 62.4431L146.421 91.3251L162.065 60.6581L127.685 62.4431Z" fill="#F16BFA"/>
<path d="M513.465 96.6142L531.748 94.5802L520.846 79.7642L513.465 96.6142Z" fill="#F16BFA"/>
<path d="M281.977 256.988L300.26 254.955L289.358 240.139L281.977 256.988Z" fill="#F16BFA"/>
<path d="M136.643 289.386L154.926 287.353L144.024 272.536L136.643 289.386Z" fill="#F16BFA"/>
<path d="M447.456 236.5L434.089 241.149L444.799 250.401L447.456 236.5Z" fill="#F16BFA"/>
<path d="M420.404 354.76L407.037 359.41L417.747 368.661L420.404 354.76Z" fill="#F16BFA"/>
<path d="M454.345 5.09304L450.324 -8.47595L440.583 1.79005L454.345 5.09304Z" fill="#F16BFA"/>
<path d="M178.65 -2.54993L165.283 2.10007L175.993 11.3511L178.65 -2.54993Z" fill="#F16BFA"/>
<path d="M5.05596 16.927L-8.31104 21.576L2.39896 30.827L5.05596 16.927Z" fill="#F16BFA"/>
<path d="M306.971 96.457L293.604 101.107L304.314 110.358L306.971 96.457Z" fill="#F16BFA"/>
<path d="M234.309 356.165L220.941 360.814L231.651 370.066L234.309 356.165Z" fill="#F16BFA"/>
</g>
<mask id="mask1_421_47" style="mask-type:luminance" maskUnits="userSpaceOnUse" x="0" y="0" width="546" height="364">
<path d="M542.204 363.803H3.5C1.567 363.803 0 362.236 0 360.303V3.5C0 1.567 1.567 0 3.5 0H542.204C544.137 0 545.704 1.567 545.704 3.5V360.303C545.704 362.236 544.137 363.803 542.204 363.803Z" fill="white"/>
</mask>
<g mask="url(#mask1_421_47)">
<path d="M423.933 323.409C411.829 323.409 402.016 313.596 402.016 301.492" stroke="#E58F51" stroke-width="4.7602" stroke-miterlimit="10"/>
<path d="M246.32 268.346C240.841 279.14 227.65 283.448 216.856 277.969" stroke="#E58F51" stroke-width="4.7602" stroke-miterlimit="10"/>
<path d="M419.271 111.58C423.134 117.704 421.3 125.799 415.177 129.662" stroke="#E58F51" stroke-width="2.8472" stroke-miterlimit="10"/>
<path d="M33.4991 341.968C36.2991 354.768 28.1921 367.414 15.3921 370.214" stroke="#E58F51" stroke-width="5.1527" stroke-miterlimit="10"/>
<path d="M500.067 349.608C503.929 355.732 502.096 363.827 495.973 367.69" stroke="#E58F51" stroke-width="2.8472" stroke-miterlimit="10"/>
<path d="M529.415 145.035C540.769 145.091 549.928 154.34 549.873 165.694" stroke="#E58F51" stroke-width="4.4651" stroke-miterlimit="10"/>
<path d="M329.679 -14.5439C329.634 -0.595945 318.291 10.6751 304.343 10.6301" stroke="#E58F51" stroke-width="5.4852" stroke-miterlimit="10"/>
<path d="M94.2791 -4.47899C107.142 -9.87299 121.942 -3.81799 127.336 9.04501" stroke="#E58F51" stroke-width="5.4852" stroke-miterlimit="10"/>
<path d="M295.174 162.8C287.957 163.374 281.641 157.989 281.066 150.771" stroke="#E58F51" stroke-width="2.8472" stroke-miterlimit="10"/>
<path d="M174.795 363.484C167.578 364.058 161.262 358.673 160.688 351.455" stroke="#E58F51" stroke-width="2.8472" stroke-miterlimit="10"/>
<path d="M7.63303 201.269C0.416026 201.843 -5.89998 196.458 -6.47498 189.24" stroke="#E58F51" stroke-width="2.8472" stroke-miterlimit="10"/>
</g>
<mask id="mask2_421_47" style="mask-type:luminance" maskUnits="userSpaceOnUse" x="0" y="0" width="546" height="364">
<path d="M542.204 363.803H3.5C1.567 363.803 0 362.236 0 360.303V3.5C0 1.567 1.567 0 3.5 0H542.204C544.137 0 545.704 1.567 545.704 3.5V360.303C545.704 362.236 544.137 363.803 542.204 363.803Z" fill="white"/>
</mask>
<g mask="url(#mask2_421_47)">
<path d="M495.155 239.182C496.21 240.039 496.371 241.59 495.513 242.645C494.656 243.7 493.105 243.861 492.05 243.003C490.995 242.146 490.835 240.595 491.692 239.54C492.549 238.485 494.1 238.325 495.155 239.182Z" fill="white"/>
<path d="M504.129 228.139C505.184 228.997 505.344 230.547 504.487 231.602C503.63 232.657 502.079 232.817 501.024 231.96C499.969 231.103 499.809 229.552 500.666 228.497C501.523 227.442 503.074 227.281 504.129 228.139Z" fill="white"/>
<path d="M513.103 217.095C514.158 217.952 514.318 219.503 513.461 220.558C512.604 221.613 511.053 221.773 509.998 220.916C508.943 220.059 508.783 218.508 509.64 217.453C510.497 216.398 512.048 216.238 513.103 217.095Z" fill="white"/>
<path d="M522.077 206.052C523.132 206.909 523.293 208.46 522.435 209.515C521.578 210.57 520.027 210.73 518.972 209.873C517.917 209.015 517.756 207.465 518.614 206.41C519.471 205.355 521.022 205.195 522.077 206.052Z" fill="white"/>
<path d="M531.051 195.009C532.106 195.866 532.266 197.417 531.409 198.472C530.552 199.527 529.001 199.687 527.946 198.83C526.891 197.973 526.731 196.422 527.588 195.367C528.445 194.311 529.996 194.151 531.051 195.009Z" fill="white"/>
<path d="M506.119 248.092C507.174 248.949 507.334 250.5 506.477 251.555C505.62 252.61 504.069 252.77 503.014 251.913C501.959 251.056 501.798 249.505 502.656 248.45C503.513 247.395 505.064 247.234 506.119 248.092Z" fill="white"/>
<path d="M515.093 237.048C516.148 237.905 516.308 239.456 515.451 240.511C514.594 241.566 513.043 241.726 511.988 240.869C510.933 240.012 510.773 238.461 511.63 237.406C512.487 236.351 514.038 236.191 515.093 237.048Z" fill="white"/>
<path d="M524.067 226.005C525.122 226.862 525.282 228.413 524.425 229.468C523.568 230.523 522.017 230.683 520.962 229.826C519.907 228.969 519.747 227.418 520.604 226.363C521.461 225.308 523.012 225.148 524.067 226.005Z" fill="white"/>
<path d="M533.041 214.962C534.096 215.819 534.256 217.37 533.399 218.425C532.542 219.48 530.991 219.64 529.936 218.783C528.881 217.926 528.721 216.375 529.578 215.32C530.436 214.264 531.986 214.104 533.041 214.962Z" fill="white"/>
<path d="M542.015 203.918C543.07 204.776 543.23 206.326 542.373 207.381C541.516 208.436 539.965 208.596 538.91 207.739C537.855 206.882 537.695 205.331 538.552 204.276C539.41 203.221 540.96 203.061 542.015 203.918Z" fill="white"/>
<path d="M517.083 257.001C518.138 257.858 518.298 259.409 517.441 260.464C516.584 261.519 515.033 261.679 513.978 260.822C512.923 259.965 512.763 258.414 513.62 257.359C514.478 256.304 516.028 256.144 517.083 257.001Z" fill="white"/>
<path d="M526.057 245.958C527.112 246.815 527.272 248.366 526.415 249.421C525.558 250.476 524.007 250.636 522.952 249.779C521.897 248.922 521.737 247.371 522.594 246.316C523.452 245.261 525.002 245.101 526.057 245.958Z" fill="white"/>
<path d="M535.031 234.915C536.086 235.772 536.246 237.323 535.389 238.378C534.532 239.433 532.981 239.593 531.926 238.736C530.871 237.879 530.711 236.328 531.568 235.273C532.426 234.217 533.976 234.057 535.031 234.915Z" fill="white"/>
<path d="M544.005 223.871C545.06 224.728 545.22 226.279 544.363 227.334C543.506 228.389 541.955 228.549 540.9 227.692C539.845 226.835 539.685 225.284 540.542 224.229C541.4 223.174 542.95 223.014 544.005 223.871Z" fill="white"/>
<path d="M528.047 265.911C529.102 266.768 529.262 268.319 528.405 269.374C527.548 270.429 525.997 270.589 524.942 269.732C523.887 268.875 523.727 267.324 524.584 266.269C525.442 265.214 526.992 265.054 528.047 265.911Z" fill="white"/>
<path d="M537.021 254.868C538.076 255.725 538.236 257.276 537.379 258.331C536.522 259.386 534.971 259.546 533.916 258.689C532.861 257.832 532.701 256.281 533.558 255.226C534.416 254.17 535.966 254.01 537.021 254.868Z" fill="white"/>
<path d="M545.995 243.824C547.05 244.681 547.21 246.232 546.353 247.287C545.496 248.342 543.945 248.502 542.89 247.645C541.835 246.788 541.675 245.237 542.532 244.182C543.39 243.127 544.94 242.967 545.995 243.824Z" fill="white"/>
<path d="M539.011 274.821C540.066 275.678 540.226 277.229 539.369 278.284C538.512 279.339 536.961 279.499 535.906 278.642C534.851 277.785 534.691 276.234 535.548 275.179C536.406 274.123 537.956 273.963 539.011 274.821Z" fill="white"/>
<path d="M547.985 263.777C549.04 264.634 549.2 266.185 548.343 267.24C547.486 268.295 545.935 268.455 544.88 267.598C543.825 266.741 543.665 265.19 544.522 264.135C545.38 263.08 546.93 262.92 547.985 263.777Z" fill="white"/>
<path d="M216.032 9.13108C217.087 9.98808 217.247 11.5391 216.39 12.5941C215.533 13.6491 213.982 13.8091 212.927 12.9521C211.872 12.0951 211.712 10.5441 212.569 9.48908C213.426 8.43308 214.977 8.27308 216.032 9.13108Z" fill="white"/>
<path d="M225.006 -1.91299C226.061 -1.05599 226.221 0.495006 225.364 1.55001C224.507 2.60501 222.956 2.76501 221.901 1.90801C220.846 1.05101 220.686 -0.499994 221.543 -1.55499C222.4 -2.60999 223.951 -2.76999 225.006 -1.91299Z" fill="white"/>
<path d="M226.996 18.04C228.051 18.897 228.211 20.448 227.354 21.503C226.497 22.558 224.946 22.718 223.891 21.861C222.836 21.004 222.676 19.453 223.533 18.398C224.391 17.343 225.941 17.183 226.996 18.04Z" fill="white"/>
<path d="M235.97 6.99709C237.025 7.85409 237.185 9.4051 236.328 10.4601C235.471 11.5151 233.92 11.6751 232.865 10.8181C231.81 9.9611 231.65 8.41009 232.507 7.35509C233.365 6.30009 234.915 6.13909 235.97 6.99709Z" fill="white"/>
<path d="M244.944 -4.0469C245.999 -3.1899 246.159 -1.63891 245.302 -0.583905C244.445 0.471095 242.894 0.631096 241.839 -0.225904C240.784 -1.0839 240.624 -2.6339 241.481 -3.6889C242.339 -4.7439 243.889 -4.9039 244.944 -4.0469Z" fill="white"/>
<path d="M237.96 26.9501C239.015 27.8071 239.176 29.3581 238.318 30.4131C237.461 31.4681 235.91 31.6281 234.855 30.7711C233.8 29.9141 233.639 28.3631 234.497 27.3081C235.355 26.2531 236.905 26.0921 237.96 26.9501Z" fill="white"/>
<path d="M246.934 15.9061C247.989 16.7631 248.149 18.3141 247.292 19.3691C246.435 20.4241 244.884 20.5841 243.829 19.7271C242.774 18.8701 242.614 17.3191 243.471 16.2641C244.328 15.2091 245.879 15.0491 246.934 15.9061Z" fill="white"/>
<path d="M255.908 4.86301C256.963 5.72001 257.123 7.27101 256.266 8.32601C255.408 9.38101 253.858 9.54101 252.803 8.68401C251.748 7.82701 251.588 6.27601 252.445 5.22101C253.303 4.16601 254.853 4.00601 255.908 4.86301Z" fill="white"/>
<path d="M248.924 35.8591C249.979 36.7161 250.139 38.2671 249.282 39.3221C248.425 40.3771 246.874 40.5371 245.819 39.6801C244.764 38.8231 244.604 37.2721 245.461 36.2171C246.319 35.1621 247.869 35.0021 248.924 35.8591Z" fill="white"/>
<path d="M257.898 24.816C258.953 25.673 259.113 27.224 258.256 28.279C257.399 29.334 255.848 29.494 254.793 28.637C253.738 27.78 253.578 26.229 254.435 25.174C255.293 24.119 256.843 23.959 257.898 24.816Z" fill="white"/>
<path d="M266.872 13.773C267.927 14.63 268.087 16.1811 267.23 17.2361C266.373 18.2911 264.822 18.451 263.767 17.594C262.712 16.737 262.552 15.186 263.409 14.131C264.267 13.075 265.817 12.915 266.872 13.773Z" fill="white"/>
<path d="M275.846 2.7291C276.901 3.5861 277.061 5.13709 276.204 6.19209C275.347 7.24709 273.796 7.4071 272.741 6.5501C271.686 5.6931 271.526 4.1421 272.383 3.0871C273.241 2.0321 274.791 1.8721 275.846 2.7291Z" fill="white"/>
<path d="M259.888 44.769C260.943 45.626 261.103 47.177 260.246 48.232C259.389 49.287 257.838 49.447 256.783 48.59C255.728 47.733 255.568 46.182 256.425 45.127C257.283 44.072 258.833 43.912 259.888 44.769Z" fill="white"/>
<path d="M268.862 33.7261C269.917 34.5831 270.077 36.1341 269.22 37.1891C268.363 38.2441 266.812 38.4041 265.757 37.5471C264.702 36.6891 264.542 35.1391 265.399 34.0841C266.256 33.0291 267.807 32.8681 268.862 33.7261Z" fill="white"/>
<path d="M277.836 22.6821C278.891 23.5391 279.051 25.0901 278.194 26.1451C277.337 27.2001 275.786 27.3601 274.731 26.5031C273.676 25.6461 273.516 24.0951 274.373 23.0401C275.231 21.9851 276.781 21.8251 277.836 22.6821Z" fill="white"/>
<path d="M286.81 11.6391C287.865 12.4971 288.025 14.0471 287.168 15.1021C286.311 16.1571 284.76 16.3171 283.705 15.4601C282.65 14.6031 282.49 13.0521 283.347 11.9971C284.205 10.9421 285.755 10.7811 286.81 11.6391Z" fill="white"/>
<path d="M295.785 0.595064C296.84 1.45206 297 3.00306 296.143 4.05806C295.286 5.11306 293.735 5.27307 292.68 4.41607C291.625 3.55907 291.465 2.00807 292.322 0.953065C293.179 -0.101935 294.729 -0.261936 295.785 0.595064Z" fill="white"/>
<path d="M369.213 128.84C368.108 129.632 366.57 129.377 365.778 128.272C364.986 127.167 365.241 125.629 366.346 124.837C367.451 124.045 368.989 124.3 369.781 125.405C370.573 126.511 370.318 128.048 369.213 128.84Z" fill="white"/>
<path d="M377.498 140.409C376.393 141.201 374.855 140.946 374.063 139.841C373.271 138.736 373.526 137.198 374.631 136.406C375.736 135.614 377.274 135.869 378.066 136.974C378.858 138.08 378.603 139.618 377.498 140.409Z" fill="white"/>
<path d="M385.783 151.978C384.678 152.77 383.14 152.515 382.348 151.41C381.556 150.305 381.811 148.767 382.916 147.975C384.021 147.183 385.559 147.438 386.351 148.543C387.143 149.649 386.889 151.187 385.783 151.978Z" fill="white"/>
<path d="M394.068 163.548C392.963 164.34 391.425 164.085 390.633 162.98C389.841 161.875 390.096 160.337 391.201 159.545C392.306 158.753 393.844 159.008 394.636 160.113C395.428 161.218 395.174 162.756 394.068 163.548Z" fill="white"/>
<path d="M402.354 175.117C401.249 175.909 399.711 175.654 398.919 174.549C398.127 173.444 398.382 171.906 399.487 171.114C400.592 170.322 402.13 170.577 402.922 171.682C403.713 172.788 403.459 174.325 402.354 175.117Z" fill="white"/>
<path d="M357.727 137.066C356.622 137.858 355.084 137.603 354.292 136.498C353.5 135.393 353.755 133.855 354.86 133.063C355.965 132.271 357.503 132.526 358.295 133.631C359.086 134.736 358.832 136.274 357.727 137.066Z" fill="white"/>
<path d="M366.012 148.635C364.907 149.427 363.369 149.172 362.577 148.067C361.785 146.962 362.04 145.424 363.145 144.632C364.25 143.84 365.788 144.095 366.58 145.2C367.372 146.306 367.117 147.843 366.012 148.635Z" fill="white"/>
<path d="M374.297 160.204C373.192 160.996 371.654 160.741 370.862 159.636C370.07 158.531 370.325 156.993 371.43 156.201C372.535 155.409 374.073 155.664 374.865 156.769C375.657 157.875 375.403 159.413 374.297 160.204Z" fill="white"/>
<path d="M382.582 171.773C381.477 172.565 379.939 172.31 379.147 171.205C378.355 170.1 378.61 168.562 379.715 167.77C380.82 166.978 382.358 167.233 383.15 168.338C383.942 169.444 383.688 170.982 382.582 171.773Z" fill="white"/>
<path d="M390.867 183.343C389.762 184.135 388.224 183.88 387.432 182.775C386.64 181.67 386.895 180.132 388 179.34C389.105 178.548 390.643 178.803 391.435 179.908C392.227 181.013 391.973 182.551 390.867 183.343Z" fill="white"/>
<path d="M346.241 145.291C345.136 146.083 343.598 145.828 342.806 144.723C342.014 143.618 342.269 142.08 343.374 141.288C344.479 140.496 346.017 140.751 346.809 141.856C347.6 142.962 347.346 144.5 346.241 145.291Z" fill="white"/>
<path d="M354.526 156.861C353.421 157.653 351.883 157.398 351.091 156.293C350.299 155.188 350.554 153.65 351.659 152.858C352.764 152.066 354.302 152.321 355.094 153.426C355.886 154.531 355.631 156.069 354.526 156.861Z" fill="white"/>
<path d="M362.811 168.43C361.706 169.222 360.168 168.967 359.376 167.862C358.584 166.757 358.839 165.219 359.944 164.427C361.049 163.635 362.587 163.89 363.379 164.995C364.171 166.1 363.916 167.638 362.811 168.43Z" fill="white"/>
<path d="M371.096 179.999C369.991 180.791 368.453 180.536 367.661 179.431C366.869 178.326 367.124 176.788 368.229 175.996C369.334 175.204 370.872 175.459 371.664 176.564C372.456 177.67 372.202 179.207 371.096 179.999Z" fill="white"/>
<path d="M379.381 191.568C378.276 192.36 376.738 192.105 375.946 191C375.154 189.895 375.409 188.357 376.514 187.565C377.619 186.773 379.157 187.028 379.949 188.133C380.741 189.239 380.487 190.777 379.381 191.568Z" fill="white"/>
<path d="M334.755 153.517C333.65 154.309 332.112 154.054 331.32 152.949C330.528 151.844 330.783 150.306 331.888 149.514C332.993 148.722 334.531 148.977 335.323 150.082C336.114 151.188 335.86 152.725 334.755 153.517Z" fill="white"/>
<path d="M343.04 165.086C341.935 165.878 340.397 165.623 339.605 164.518C338.813 163.413 339.068 161.875 340.173 161.083C341.278 160.291 342.816 160.546 343.608 161.651C344.399 162.757 344.145 164.295 343.04 165.086Z" fill="white"/>
<path d="M351.325 176.655C350.22 177.447 348.682 177.192 347.89 176.087C347.098 174.982 347.353 173.444 348.458 172.652C349.563 171.86 351.101 172.115 351.893 173.22C352.685 174.326 352.43 175.864 351.325 176.655Z" fill="white"/>
<path d="M359.61 188.225C358.505 189.017 356.967 188.762 356.175 187.657C355.383 186.552 355.638 185.014 356.743 184.222C357.848 183.43 359.386 183.685 360.178 184.79C360.97 185.895 360.715 187.433 359.61 188.225Z" fill="white"/>
<path d="M367.895 199.794C366.79 200.586 365.252 200.331 364.46 199.226C363.668 198.121 363.923 196.583 365.028 195.791C366.133 194.999 367.671 195.254 368.463 196.359C369.255 197.465 369.001 199.002 367.895 199.794Z" fill="white"/>
<path d="M323.268 161.743C322.163 162.535 320.625 162.28 319.833 161.175C319.041 160.07 319.296 158.532 320.401 157.74C321.506 156.948 323.044 157.203 323.836 158.308C324.628 159.413 324.374 160.951 323.268 161.743Z" fill="white"/>
<path d="M331.554 173.312C330.449 174.104 328.911 173.849 328.119 172.744C327.327 171.639 327.582 170.101 328.687 169.309C329.792 168.517 331.33 168.772 332.122 169.877C332.913 170.982 332.659 172.52 331.554 173.312Z" fill="white"/>
<path d="M339.839 184.881C338.734 185.673 337.196 185.418 336.404 184.313C335.612 183.208 335.867 181.67 336.972 180.878C338.077 180.086 339.615 180.341 340.407 181.446C341.199 182.552 340.944 184.09 339.839 184.881Z" fill="white"/>
<path d="M348.124 196.45C347.019 197.242 345.481 196.987 344.689 195.882C343.897 194.777 344.152 193.239 345.257 192.447C346.362 191.655 347.9 191.91 348.692 193.015C349.484 194.121 349.229 195.659 348.124 196.45Z" fill="white"/>
<path d="M356.409 208.019C355.304 208.811 353.766 208.556 352.974 207.451C352.182 206.346 352.437 204.808 353.542 204.016C354.647 203.224 356.185 203.479 356.977 204.584C357.769 205.689 357.515 207.228 356.409 208.019Z" fill="white"/>
<path d="M545.695 10.42C544.59 11.212 543.052 10.957 542.26 9.85202C541.468 8.74702 541.723 7.20902 542.828 6.41702C543.933 5.62502 545.471 5.88002 546.263 6.98502C547.055 8.09102 546.801 9.62902 545.695 10.42Z" fill="white"/>
<path d="M525.924 7.077C524.819 7.869 523.281 7.614 522.489 6.509C521.697 5.404 521.952 3.866 523.057 3.074C524.162 2.282 525.7 2.53701 526.492 3.64201C527.284 4.74701 527.029 6.285 525.924 7.077Z" fill="white"/>
<path d="M534.209 18.6461C533.104 19.4381 531.566 19.1831 530.774 18.0781C529.982 16.9731 530.237 15.4351 531.342 14.6431C532.447 13.8511 533.985 14.1061 534.777 15.2111C535.569 16.3161 535.315 17.8541 534.209 18.6461Z" fill="white"/>
<path d="M542.494 30.2151C541.389 31.0071 539.851 30.7521 539.059 29.6471C538.267 28.5421 538.522 27.0041 539.627 26.2121C540.732 25.4201 542.27 25.6751 543.062 26.7801C543.854 27.8861 543.6 29.4241 542.494 30.2151Z" fill="white"/>
<path d="M506.153 3.73301C505.048 4.52501 503.51 4.27002 502.718 3.16502C501.926 2.06002 502.181 0.52201 503.286 -0.26999C504.391 -1.06199 505.929 -0.806989 506.721 0.298011C507.512 1.40401 507.258 2.94101 506.153 3.73301Z" fill="white"/>
<path d="M514.438 15.3021C513.333 16.0941 511.795 15.8391 511.003 14.7341C510.211 13.6291 510.466 12.0911 511.571 11.2991C512.676 10.5071 514.214 10.7621 515.006 11.8671C515.798 12.9731 515.543 14.5111 514.438 15.3021Z" fill="white"/>
<path d="M522.723 26.872C521.618 27.664 520.08 27.4091 519.288 26.3041C518.496 25.1991 518.751 23.661 519.856 22.869C520.961 22.077 522.499 22.332 523.291 23.437C524.083 24.542 523.828 26.08 522.723 26.872Z" fill="white"/>
<path d="M531.008 38.441C529.903 39.233 528.365 38.978 527.573 37.873C526.781 36.768 527.036 35.23 528.141 34.438C529.246 33.646 530.784 33.901 531.576 35.006C532.368 36.111 532.114 37.649 531.008 38.441Z" fill="white"/>
<path d="M539.293 50.0101C538.188 50.8021 536.65 50.5471 535.858 49.4421C535.066 48.3371 535.321 46.7991 536.426 46.0071C537.531 45.2151 539.069 45.4701 539.861 46.5751C540.653 47.6801 540.399 49.2181 539.293 50.0101Z" fill="white"/>
<path d="M102.977 313.597C101.872 314.389 100.334 314.134 99.542 313.029C98.75 311.924 99.005 310.386 100.11 309.594C101.215 308.802 102.753 309.057 103.545 310.162C104.337 311.268 104.083 312.806 102.977 313.597Z" fill="white"/>
<path d="M111.263 325.166C110.158 325.958 108.62 325.703 107.828 324.598C107.036 323.493 107.291 321.955 108.396 321.163C109.501 320.371 111.039 320.626 111.831 321.731C112.623 322.837 112.368 324.375 111.263 325.166Z" fill="white"/>
<path d="M119.548 336.735C118.443 337.527 116.905 337.272 116.113 336.167C115.321 335.062 115.576 333.524 116.681 332.732C117.786 331.94 119.324 332.195 120.116 333.3C120.908 334.406 120.653 335.944 119.548 336.735Z" fill="white"/>
<path d="M127.833 348.305C126.728 349.097 125.19 348.842 124.398 347.737C123.606 346.632 123.861 345.094 124.966 344.302C126.071 343.51 127.609 343.765 128.401 344.87C129.193 345.975 128.938 347.513 127.833 348.305Z" fill="white"/>
<path d="M136.118 359.874C135.013 360.666 133.475 360.411 132.683 359.306C131.891 358.201 132.146 356.663 133.251 355.871C134.356 355.079 135.894 355.334 136.686 356.439C137.478 357.545 137.224 359.082 136.118 359.874Z" fill="white"/>
<path d="M91.4911 321.823C90.3861 322.615 88.8481 322.36 88.0561 321.255C87.2641 320.15 87.5191 318.612 88.6241 317.82C89.7291 317.028 91.2671 317.283 92.0591 318.388C92.8511 319.493 92.5971 321.031 91.4911 321.823Z" fill="white"/>
<path d="M99.7771 333.392C98.6721 334.184 97.1341 333.929 96.3421 332.824C95.5501 331.719 95.8051 330.181 96.9101 329.389C98.0151 328.597 99.5531 328.852 100.345 329.957C101.136 331.063 100.882 332.6 99.7771 333.392Z" fill="white"/>
<path d="M108.062 344.961C106.957 345.753 105.419 345.498 104.627 344.393C103.835 343.288 104.09 341.75 105.195 340.958C106.3 340.166 107.838 340.421 108.63 341.526C109.422 342.631 109.167 344.17 108.062 344.961Z" fill="white"/>
<path d="M116.347 356.53C115.242 357.322 113.704 357.067 112.912 355.962C112.12 354.857 112.375 353.319 113.48 352.527C114.585 351.735 116.123 351.99 116.915 353.095C117.707 354.201 117.452 355.739 116.347 356.53Z" fill="white"/>
<path d="M124.632 368.1C123.527 368.892 121.989 368.637 121.197 367.532C120.405 366.427 120.66 364.889 121.765 364.097C122.87 363.305 124.408 363.56 125.2 364.665C125.992 365.77 125.737 367.308 124.632 368.1Z" fill="white"/>
<path d="M80.0051 330.048C78.9001 330.84 77.3621 330.585 76.5701 329.48C75.7781 328.375 76.0331 326.837 77.1381 326.045C78.2431 325.253 79.7811 325.508 80.5731 326.613C81.3651 327.719 81.1111 329.257 80.0051 330.048Z" fill="white"/>
<path d="M88.2911 341.618C87.1861 342.41 85.6481 342.155 84.8561 341.05C84.0641 339.945 84.3191 338.407 85.4241 337.615C86.5291 336.823 88.0671 337.078 88.8591 338.183C89.6501 339.288 89.3961 340.826 88.2911 341.618Z" fill="white"/>
<path d="M96.576 353.187C95.471 353.979 93.933 353.724 93.141 352.619C92.349 351.514 92.604 349.976 93.709 349.184C94.814 348.392 96.352 348.647 97.144 349.752C97.935 350.857 97.681 352.395 96.576 353.187Z" fill="white"/>
<path d="M104.861 364.756C103.756 365.548 102.218 365.293 101.426 364.188C100.634 363.083 100.889 361.545 101.994 360.753C103.099 359.961 104.637 360.216 105.429 361.321C106.221 362.427 105.966 363.965 104.861 364.756Z" fill="white"/>
<path d="M68.519 338.274C67.414 339.066 65.876 338.811 65.084 337.706C64.292 336.601 64.547 335.063 65.652 334.271C66.757 333.479 68.295 333.734 69.087 334.839C69.879 335.945 69.625 337.482 68.519 338.274Z" fill="white"/>
<path d="M76.804 349.843C75.699 350.635 74.1611 350.38 73.3691 349.275C72.5771 348.17 72.832 346.632 73.937 345.84C75.042 345.048 76.58 345.303 77.372 346.408C78.164 347.513 77.91 349.052 76.804 349.843Z" fill="white"/>
<path d="M85.0901 361.413C83.9851 362.205 82.4471 361.95 81.6551 360.845C80.8631 359.74 81.1181 358.202 82.2231 357.41C83.3281 356.618 84.8661 356.873 85.6581 357.978C86.4491 359.083 86.1951 360.621 85.0901 361.413Z" fill="white"/>
<path d="M57.033 346.5C55.928 347.292 54.39 347.037 53.598 345.932C52.806 344.827 53.0611 343.289 54.1661 342.497C55.2711 341.705 56.8091 341.96 57.6011 343.065C58.3931 344.17 58.138 345.708 57.033 346.5Z" fill="white"/>
<path d="M65.3181 358.069C64.2131 358.861 62.6751 358.606 61.8831 357.501C61.0911 356.396 61.3461 354.858 62.4511 354.066C63.5561 353.274 65.0941 353.529 65.8861 354.634C66.6781 355.739 66.4241 357.277 65.3181 358.069Z" fill="white"/>
<path d="M4.67296 70.3941C5.47696 71.4911 5.23896 73.0311 4.14196 73.8351C3.04496 74.6381 1.50496 74.4011 0.700962 73.3041C-0.103038 72.2071 0.13496 70.6671 1.23196 69.8631C2.32896 69.0591 3.86996 69.2971 4.67296 70.3941Z" fill="white"/>
<path d="M16.152 61.984C16.955 63.081 16.718 64.621 15.621 65.425C14.524 66.228 12.984 65.991 12.18 64.894C11.377 63.797 11.614 62.257 12.711 61.453C13.808 60.649 15.349 60.887 16.152 61.984Z" fill="white"/>
<path d="M1.54406 90.2C2.34806 91.297 2.11005 92.837 1.01305 93.641C-0.0839499 94.444 -1.62394 94.207 -2.42794 93.11C-3.23194 92.013 -2.99395 90.473 -1.89695 89.669C-0.799946 88.865 0.740056 89.103 1.54406 90.2Z" fill="white"/>
<path d="M13.023 81.7901C13.827 82.8871 13.589 84.4271 12.492 85.2311C11.395 86.0341 9.85499 85.7971 9.05099 84.7001C8.24799 83.6031 8.48499 82.0631 9.58199 81.2591C10.679 80.4561 12.219 80.6931 13.023 81.7901Z" fill="white"/>
<path d="M24.5021 73.3801C25.3051 74.4771 25.0681 76.0171 23.9711 76.8211C22.8741 77.6241 21.3341 77.3871 20.5301 76.2901C19.7261 75.1931 19.9641 73.6531 21.0611 72.8491C22.1581 72.0451 23.6981 72.2841 24.5021 73.3801Z" fill="white"/>
<path d="M9.89299 101.596C10.696 102.693 10.459 104.233 9.36199 105.037C8.26499 105.84 6.72499 105.603 5.92099 104.506C5.11799 103.409 5.35499 101.869 6.45199 101.065C7.54899 100.262 9.08899 100.5 9.89299 101.596Z" fill="white"/>
<path d="M21.372 93.187C22.176 94.284 21.938 95.824 20.841 96.628C19.744 97.431 18.204 97.194 17.4 96.097C16.597 95 16.834 93.46 17.931 92.656C19.028 91.852 20.568 92.09 21.372 93.187Z" fill="white"/>
<path d="M32.851 84.7771C33.654 85.8741 33.417 87.4141 32.32 88.2181C31.223 89.0211 29.683 88.7841 28.879 87.6871C28.076 86.5901 28.313 85.0501 29.41 84.2461C30.507 83.4421 32.047 83.6801 32.851 84.7771Z" fill="white"/>
<path d="M6.76298 121.403C7.56598 122.5 7.32898 124.04 6.23198 124.844C5.13498 125.648 3.59498 125.41 2.79098 124.313C1.98798 123.216 2.22499 121.676 3.32199 120.872C4.41899 120.068 5.95998 120.306 6.76298 121.403Z" fill="white"/>
<path d="M18.2421 112.993C19.0451 114.09 18.8081 115.63 17.7111 116.434C16.6141 117.238 15.0741 117 14.2701 115.903C13.4661 114.806 13.7041 113.266 14.8011 112.462C15.8981 111.659 17.4391 111.896 18.2421 112.993Z" fill="white"/>
<path d="M29.721 104.583C30.524 105.68 30.287 107.22 29.19 108.024C28.093 108.827 26.553 108.59 25.749 107.493C24.946 106.396 25.183 104.856 26.28 104.052C27.377 103.249 28.918 103.487 29.721 104.583Z" fill="white"/>
<path d="M41.2 96.1741C42.003 97.2711 41.766 98.8111 40.669 99.6151C39.572 100.418 38.032 100.181 37.228 99.0841C36.425 97.9871 36.662 96.4471 37.759 95.6431C38.856 94.8391 40.397 95.0771 41.2 96.1741Z" fill="white"/>
<path d="M3.63396 141.209C4.43696 142.306 4.19996 143.846 3.10296 144.65C2.00596 145.453 0.465956 145.216 -0.338044 144.119C-1.14104 143.022 -0.904046 141.482 0.192954 140.678C1.28995 139.875 2.82996 140.112 3.63396 141.209Z" fill="white"/>
<path d="M15.113 132.799C15.916 133.896 15.679 135.436 14.582 136.24C13.485 137.044 11.945 136.806 11.141 135.709C10.337 134.612 10.575 133.072 11.672 132.268C12.769 131.465 14.309 131.702 15.113 132.799Z" fill="white"/>
<path d="M26.592 124.39C27.395 125.487 27.158 127.027 26.061 127.831C24.964 128.634 23.424 128.397 22.62 127.3C21.817 126.203 22.054 124.663 23.151 123.859C24.248 123.055 25.788 123.293 26.592 124.39Z" fill="white"/>
<path d="M38.071 115.98C38.874 117.077 38.637 118.617 37.54 119.421C36.443 120.224 34.903 119.987 34.099 118.89C33.296 117.793 33.533 116.253 34.63 115.449C35.727 114.645 37.267 114.883 38.071 115.98Z" fill="white"/>
<path d="M49.55 107.57C50.353 108.667 50.116 110.207 49.019 111.011C47.922 111.814 46.382 111.577 45.578 110.48C44.775 109.383 45.012 107.843 46.109 107.039C47.206 106.236 48.746 106.473 49.55 107.57Z" fill="white"/>
<path d="M311.653 315.401C310.815 316.472 309.268 316.661 308.197 315.823C307.126 314.985 306.937 313.438 307.775 312.367C308.613 311.296 310.16 311.107 311.231 311.945C312.301 312.783 312.49 314.33 311.653 315.401Z" fill="white"/>
<path d="M322.861 324.168C322.023 325.239 320.476 325.428 319.405 324.59C318.334 323.752 318.145 322.205 318.983 321.134C319.821 320.063 321.368 319.874 322.439 320.712C323.509 321.55 323.698 323.097 322.861 324.168Z" fill="white"/>
<path d="M334.069 332.936C333.231 334.007 331.684 334.196 330.613 333.358C329.542 332.52 329.353 330.973 330.191 329.902C331.029 328.831 332.576 328.642 333.647 329.48C334.717 330.318 334.906 331.865 334.069 332.936Z" fill="white"/>
<path d="M345.277 341.703C344.439 342.774 342.892 342.963 341.821 342.125C340.75 341.287 340.561 339.74 341.399 338.669C342.237 337.598 343.784 337.409 344.855 338.247C345.925 339.085 346.115 340.633 345.277 341.703Z" fill="white"/>
<path d="M356.485 350.471C355.647 351.542 354.1 351.731 353.029 350.893C351.958 350.055 351.769 348.508 352.607 347.437C353.445 346.366 354.992 346.177 356.063 347.015C357.134 347.853 357.323 349.4 356.485 350.471Z" fill="white"/>
<path d="M302.948 326.528C302.11 327.599 300.563 327.788 299.492 326.95C298.421 326.112 298.232 324.565 299.07 323.494C299.908 322.423 301.455 322.234 302.526 323.072C303.597 323.91 303.786 325.458 302.948 326.528Z" fill="white"/>
<path d="M314.156 335.296C313.318 336.367 311.771 336.556 310.7 335.718C309.629 334.88 309.44 333.333 310.278 332.262C311.116 331.191 312.663 331.002 313.734 331.84C314.805 332.678 314.994 334.225 314.156 335.296Z" fill="white"/>
<path d="M325.364 344.064C324.526 345.135 322.979 345.324 321.908 344.486C320.837 343.648 320.648 342.101 321.486 341.03C322.324 339.959 323.871 339.77 324.942 340.608C326.013 341.445 326.202 342.993 325.364 344.064Z" fill="white"/>
<path d="M336.572 352.831C335.734 353.902 334.187 354.091 333.116 353.253C332.045 352.415 331.856 350.868 332.694 349.797C333.532 348.726 335.079 348.537 336.15 349.375C337.221 350.213 337.41 351.76 336.572 352.831Z" fill="white"/>
<path d="M347.781 361.599C346.943 362.67 345.396 362.859 344.325 362.021C343.254 361.183 343.065 359.636 343.903 358.565C344.741 357.494 346.288 357.305 347.359 358.143C348.429 358.98 348.618 360.528 347.781 361.599Z" fill="white"/>
<path d="M294.244 337.656C293.406 338.727 291.859 338.916 290.788 338.078C289.717 337.24 289.528 335.693 290.366 334.622C291.204 333.551 292.751 333.362 293.822 334.2C294.892 335.038 295.081 336.585 294.244 337.656Z" fill="white"/>
<path d="M305.452 346.424C304.614 347.495 303.067 347.684 301.996 346.846C300.925 346.008 300.736 344.461 301.574 343.39C302.412 342.319 303.959 342.13 305.03 342.968C306.1 343.806 306.289 345.353 305.452 346.424Z" fill="white"/>
<path d="M316.66 355.191C315.822 356.262 314.275 356.451 313.204 355.613C312.133 354.775 311.944 353.228 312.782 352.157C313.62 351.086 315.167 350.897 316.238 351.735C317.308 352.573 317.498 354.12 316.66 355.191Z" fill="white"/>
<path d="M327.868 363.959C327.03 365.03 325.483 365.219 324.412 364.381C323.341 363.543 323.152 361.996 323.99 360.925C324.828 359.854 326.375 359.665 327.446 360.503C328.517 361.341 328.706 362.888 327.868 363.959Z" fill="white"/>
<path d="M285.539 348.784C284.701 349.855 283.154 350.044 282.083 349.206C281.012 348.368 280.823 346.821 281.661 345.75C282.499 344.679 284.046 344.49 285.117 345.328C286.188 346.166 286.377 347.713 285.539 348.784Z" fill="white"/>
<path d="M296.747 357.551C295.909 358.622 294.362 358.811 293.291 357.973C292.22 357.135 292.031 355.588 292.869 354.517C293.707 353.446 295.254 353.257 296.325 354.095C297.396 354.933 297.585 356.48 296.747 357.551Z" fill="white"/>
<path d="M307.955 366.319C307.117 367.39 305.57 367.579 304.499 366.741C303.428 365.903 303.239 364.356 304.077 363.285C304.915 362.214 306.462 362.025 307.533 362.863C308.604 363.701 308.793 365.248 307.955 366.319Z" fill="white"/>
<path d="M276.835 359.911C275.997 360.982 274.45 361.171 273.379 360.333C272.308 359.495 272.119 357.948 272.957 356.877C273.795 355.806 275.342 355.617 276.413 356.455C277.483 357.293 277.672 358.841 276.835 359.911Z" fill="white"/>
</g>
<mask id="mask3_421_47" style="mask-type:luminance" maskUnits="userSpaceOnUse" x="0" y="0" width="546" height="364">
<path d="M542.204 363.303H3.5C1.84314 363.303 0.5 361.96 0.5 360.303V3.5C0.5 1.84315 1.84314 0.5 3.5 0.5H542.204C543.861 0.5 545.204 1.84315 545.204 3.5V360.303C545.204 361.96 543.861 363.303 542.204 363.303Z" fill="white" stroke="white"/>
</mask>
<g mask="url(#mask3_421_47)">
<path d="M490.043 303.018C490.043 306.619 487.124 309.538 483.523 309.538C479.922 309.538 477.003 306.619 477.003 303.018C477.003 299.417 479.922 296.498 483.523 296.498C487.124 296.498 490.043 299.417 490.043 303.018Z" stroke="white" stroke-width="0.6901" stroke-miterlimit="10"/>
<path d="M499.309 145.405C500.652 145.405 501.741 144.316 501.741 142.973C501.741 141.63 500.652 140.541 499.309 140.541C497.966 140.541 496.877 141.63 496.877 142.973C496.877 144.316 497.966 145.405 499.309 145.405Z" stroke="white" stroke-width="0.6901" stroke-miterlimit="10"/>
<path d="M370.016 85.728C370.016 89.22 367.185 92.051 363.693 92.051C360.201 92.051 357.37 89.22 357.37 85.728C357.37 82.236 360.201 79.405 363.693 79.405C367.185 79.405 370.016 82.236 370.016 85.728Z" stroke="white" stroke-width="0.6901" stroke-miterlimit="10"/>
<path d="M219.826 128.2C219.826 130.494 217.966 132.354 215.672 132.354C213.378 132.354 211.518 130.494 211.518 128.2C211.518 125.906 213.378 124.046 215.672 124.046C217.966 124.046 219.826 125.906 219.826 128.2Z" stroke="white" stroke-width="0.6901" stroke-miterlimit="10"/>
<path d="M195.638 49.593C197.098 49.593 198.282 48.4093 198.282 46.9491C198.282 45.4888 197.098 44.3051 195.638 44.3051C194.178 44.3051 192.994 45.4888 192.994 46.9491C192.994 48.4093 194.178 49.593 195.638 49.593Z" stroke="white" stroke-width="0.6901" stroke-miterlimit="10"/>
<path d="M96.1029 104.194C96.1029 105.863 94.7499 107.215 93.0819 107.215C91.4129 107.215 90.0609 105.862 90.0609 104.194C90.0609 102.526 91.4139 101.173 93.0819 101.173C94.7499 101.173 96.1029 102.526 96.1029 104.194Z" stroke="white" stroke-width="0.6901" stroke-miterlimit="10"/>
<path d="M6.85197 163.182C6.85197 166.311 4.31597 168.847 1.18697 168.847C-1.94203 168.847 -4.47803 166.311 -4.47803 163.182C-4.47803 160.053 -1.94203 157.517 1.18697 157.517C4.31597 157.517 6.85197 160.054 6.85197 163.182Z" stroke="white" stroke-width="0.6901" stroke-miterlimit="10"/>
<path d="M9.87098 331.327C9.87098 332.996 8.51798 334.348 6.84998 334.348C5.18198 334.348 3.82898 332.995 3.82898 331.327C3.82898 329.658 5.18198 328.306 6.84998 328.306C8.51798 328.306 9.87098 329.659 9.87098 331.327Z" stroke="white" stroke-width="0.6901" stroke-miterlimit="10"/>
<path d="M201.346 321.799C201.346 324.928 198.81 327.464 195.681 327.464C192.552 327.464 190.016 324.928 190.016 321.799C190.016 318.67 192.552 316.134 195.681 316.134C198.81 316.134 201.346 318.67 201.346 321.799Z" stroke="white" stroke-width="0.6901" stroke-miterlimit="10"/>
<path d="M58.401 297.627C58.401 299.921 56.541 301.781 54.247 301.781C51.953 301.781 50.093 299.921 50.093 297.627C50.093 295.333 51.953 293.473 54.247 293.473C56.541 293.473 58.401 295.333 58.401 297.627Z" stroke="white" stroke-width="0.6901" stroke-miterlimit="10"/>
<path d="M370.632 267.927C370.632 269.178 369.618 270.193 368.366 270.193C367.114 270.193 366.1 269.179 366.1 267.927C366.1 266.676 367.114 265.661 368.366 265.661C369.618 265.661 370.632 266.675 370.632 267.927Z" stroke="white" stroke-width="0.6901" stroke-miterlimit="10"/>
<path d="M481.428 86.9589C481.428 90.0879 478.892 92.6239 475.763 92.6239C472.634 92.6239 470.098 90.0879 470.098 86.9589C470.098 83.8299 472.634 81.2939 475.763 81.2939C478.892 81.2939 481.428 83.8309 481.428 86.9589Z" stroke="white" stroke-width="0.6901" stroke-miterlimit="10"/>
<path d="M454.47 194.553C454.47 197.682 451.934 200.218 448.805 200.218C445.676 200.218 443.14 197.682 443.14 194.553C443.14 191.424 445.676 188.888 448.805 188.888C451.934 188.888 454.47 191.424 454.47 194.553Z" stroke="white" stroke-width="0.6901" stroke-miterlimit="10"/>
<path d="M410.946 0.790001C410.946 3.919 408.41 6.455 405.281 6.455C402.152 6.455 399.616 3.919 399.616 0.790001C399.616 -2.339 402.152 -4.875 405.281 -4.875C408.41 -4.875 410.946 -2.339 410.946 0.790001Z" stroke="white" stroke-width="0.6901" stroke-miterlimit="10"/>
</g>
<mask id="mask4_421_47" style="mask-type:luminance" maskUnits="userSpaceOnUse" x="0" y="0" width="546" height="364">
<path d="M542.204 363.803H3.5C1.567 363.803 0 362.236 0 360.303V3.5C0 1.567 1.567 0 3.5 0H542.204C544.137 0 545.704 1.567 545.704 3.5V360.303C545.704 362.236 544.137 363.803 542.204 363.803Z" fill="white"/>
</mask>
<g mask="url(#mask4_421_47)">
<path d="M15.571 277.084L-16.158 308.813" stroke="white" stroke-miterlimit="10" stroke-linecap="round"/>
</g>
<mask id="mask5_421_47" style="mask-type:luminance" maskUnits="userSpaceOnUse" x="0" y="0" width="546" height="364">
<path d="M542.204 363.803H3.5C1.567 363.803 0 362.236 0 360.303V3.5C0 1.567 1.567 0 3.5 0H542.204C544.137 0 545.704 1.567 545.704 3.5V360.303C545.704 362.236 544.137 363.803 542.204 363.803Z" fill="white"/>
</mask>
<g mask="url(#mask5_421_47)">
<path d="M466.536 123.204L444.315 145.424" stroke="url(#paint0_linear_421_47)" stroke-width="0.7003" stroke-miterlimit="10" stroke-linecap="round"/>
<path d="M389.246 -14.064L357.517 17.665" stroke="url(#paint1_linear_421_47)" stroke-miterlimit="10" stroke-linecap="round"/>
<path d="M278.667 196.281L257.045 217.903" stroke="url(#paint2_linear_421_47)" stroke-width="0.6815" stroke-miterlimit="10" stroke-linecap="round"/>
<path d="M239.693 62.598L207.964 94.327" stroke="url(#paint3_linear_421_47)" stroke-miterlimit="10" stroke-linecap="round"/>
<path d="M57.0441 -19.51L25.3151 12.219" stroke="url(#paint4_linear_421_47)" stroke-miterlimit="10" stroke-linecap="round"/>
<path d="M220.422 66.787L188.693 98.516" stroke="url(#paint5_linear_421_47)" stroke-miterlimit="10" stroke-linecap="round"/>
<path d="M468.6 259.702L436.871 291.431" stroke="url(#paint6_linear_421_47)" stroke-miterlimit="10" stroke-linecap="round"/>
<path d="M396.141 349.108L364.412 380.837" stroke="url(#paint7_linear_421_47)" stroke-miterlimit="10" stroke-linecap="round"/>
<path d="M268.776 299.08L237.047 330.809" stroke="url(#paint8_linear_421_47)" stroke-miterlimit="10" stroke-linecap="round"/>
<path d="M285.533 288.607L253.804 320.336" stroke="url(#paint9_linear_421_47)" stroke-miterlimit="10" stroke-linecap="round"/>
<path d="M269.532 209.699L247.91 231.32" stroke="url(#paint10_linear_421_47)" stroke-width="0.6815" stroke-miterlimit="10" stroke-linecap="round"/>
<path d="M377.534 -10.791L355.912 10.831" stroke="url(#paint11_linear_421_47)" stroke-width="0.6815" stroke-miterlimit="10" stroke-linecap="round"/>
<path d="M57.8171 -11.891L36.1951 9.73001" stroke="url(#paint12_linear_421_47)" stroke-width="0.6815" stroke-miterlimit="10" stroke-linecap="round"/>
<path d="M27.301 273.314L-4.42798 305.043" stroke="url(#paint13_linear_421_47)" stroke-miterlimit="10" stroke-linecap="round"/>
<path d="M476.025 119.919L453.804 142.139" stroke="url(#paint14_linear_421_47)" stroke-width="0.7003" stroke-miterlimit="10" stroke-linecap="round"/>
<path d="M557.191 85.7439L534.97 107.964" stroke="url(#paint15_linear_421_47)" stroke-width="0.7003" stroke-miterlimit="10" stroke-linecap="round"/>
<path d="M481.552 255.637L449.823 287.367" stroke="url(#paint16_linear_421_47)" stroke-miterlimit="10" stroke-linecap="round"/>
</g>
<defs>
<linearGradient id="paint0_linear_421_47" x1="443.965" y1="134.314" x2="466.886" y2="134.314" gradientUnits="userSpaceOnUse">
<stop stop-color="white"/>
<stop offset="1" stop-color="white" stop-opacity="0"/>
</linearGradient>
<linearGradient id="paint1_linear_421_47" x1="357.017" y1="1.80074" x2="389.747" y2="1.80074" gradientUnits="userSpaceOnUse">
<stop stop-color="white"/>
<stop offset="1" stop-color="white" stop-opacity="0"/>
</linearGradient>
<linearGradient id="paint2_linear_421_47" x1="256.705" y1="207.092" x2="279.008" y2="207.092" gradientUnits="userSpaceOnUse">
<stop stop-color="white"/>
<stop offset="1" stop-color="white" stop-opacity="0"/>
</linearGradient>
<linearGradient id="paint3_linear_421_47" x1="207.463" y1="78.4627" x2="240.193" y2="78.4627" gradientUnits="userSpaceOnUse">
<stop stop-color="white"/>
<stop offset="1" stop-color="white" stop-opacity="0"/>
</linearGradient>
<linearGradient id="paint4_linear_421_47" x1="24.8152" y1="-3.64531" x2="57.5443" y2="-3.64531" gradientUnits="userSpaceOnUse">
<stop stop-color="white"/>
<stop offset="1" stop-color="white" stop-opacity="0"/>
</linearGradient>
<linearGradient id="paint5_linear_421_47" x1="188.193" y1="82.6519" x2="220.922" y2="82.6519" gradientUnits="userSpaceOnUse">
<stop stop-color="white"/>
<stop offset="1" stop-color="white" stop-opacity="0"/>
</linearGradient>
<linearGradient id="paint6_linear_421_47" x1="436.371" y1="275.566" x2="469.1" y2="275.566" gradientUnits="userSpaceOnUse">
<stop stop-color="white"/>
<stop offset="1" stop-color="white" stop-opacity="0"/>
</linearGradient>
<linearGradient id="paint7_linear_421_47" x1="363.912" y1="364.972" x2="396.641" y2="364.972" gradientUnits="userSpaceOnUse">
<stop stop-color="white"/>
<stop offset="1" stop-color="white" stop-opacity="0"/>
</linearGradient>
<linearGradient id="paint8_linear_421_47" x1="236.547" y1="314.945" x2="269.276" y2="314.945" gradientUnits="userSpaceOnUse">
<stop stop-color="white"/>
<stop offset="1" stop-color="white" stop-opacity="0"/>
</linearGradient>
<linearGradient id="paint9_linear_421_47" x1="253.304" y1="304.472" x2="286.033" y2="304.472" gradientUnits="userSpaceOnUse">
<stop stop-color="white"/>
<stop offset="1" stop-color="white" stop-opacity="0"/>
</linearGradient>
<linearGradient id="paint10_linear_421_47" x1="247.57" y1="220.51" x2="269.873" y2="220.51" gradientUnits="userSpaceOnUse">
<stop stop-color="white"/>
<stop offset="1" stop-color="white" stop-opacity="0"/>
</linearGradient>
<linearGradient id="paint11_linear_421_47" x1="355.571" y1="0.0202836" x2="377.874" y2="0.0202836" gradientUnits="userSpaceOnUse">
<stop stop-color="white"/>
<stop offset="1" stop-color="white" stop-opacity="0"/>
</linearGradient>
<linearGradient id="paint12_linear_421_47" x1="35.8542" y1="-1.08059" x2="58.1574" y2="-1.08059" gradientUnits="userSpaceOnUse">
<stop stop-color="white"/>
<stop offset="1" stop-color="white" stop-opacity="0"/>
</linearGradient>
<linearGradient id="paint13_linear_421_47" x1="-4.92808" y1="289.179" x2="27.801" y2="289.179" gradientUnits="userSpaceOnUse">
<stop stop-color="white"/>
<stop offset="1" stop-color="white" stop-opacity="0"/>
</linearGradient>
<linearGradient id="paint14_linear_421_47" x1="453.454" y1="131.029" x2="476.375" y2="131.029" gradientUnits="userSpaceOnUse">
<stop stop-color="white"/>
<stop offset="1" stop-color="white" stop-opacity="0"/>
</linearGradient>
<linearGradient id="paint15_linear_421_47" x1="534.62" y1="96.8539" x2="557.541" y2="96.8539" gradientUnits="userSpaceOnUse">
<stop stop-color="white"/>
<stop offset="1" stop-color="white" stop-opacity="0"/>
</linearGradient>
<linearGradient id="paint16_linear_421_47" x1="449.323" y1="271.502" x2="482.053" y2="271.502" gradientUnits="userSpaceOnUse">
<stop stop-color="white"/>
<stop offset="1" stop-color="white" stop-opacity="0"/>
</linearGradient>
</defs>
</svg>
