<svg width="61" height="62" viewBox="0 0 61 62" fill="none" xmlns="http://www.w3.org/2000/svg">
<path d="M33.4219 8.84226C33.4219 5.86885 37.0379 4.40339 39.108 6.53787L58.1821 26.2056C59.4383 27.5009 60.1408 29.2344 60.1408 31.0388V53.8041C60.1408 56.7775 56.5248 58.243 54.4547 56.1085L35.3806 36.4407C34.1244 35.1454 33.4219 33.4119 33.4219 31.6075V8.84226Z" fill="#E58F51"/>
<path d="M16.8633 8.19578C16.8633 5.22237 20.4793 3.75691 22.5494 5.89139L41.342 25.2689C42.7788 26.7503 43.5823 28.733 43.5823 30.7967V53.1576C43.5823 56.131 39.9662 57.5965 37.8961 55.462L18.822 35.7942C17.5658 34.4989 16.8633 32.7654 16.8633 30.9611V8.19578Z" fill="url(#paint0_linear_1244_35559)"/>
<path d="M0.859375 8.84226C0.859375 5.86885 4.47542 4.40339 6.54548 6.53787L25.6196 26.2056C26.8758 27.5009 27.5783 29.2344 27.5783 31.0388V53.8041C27.5783 56.7775 23.9623 58.243 21.8922 56.1085L2.8181 36.4407C1.56191 35.1454 0.859375 33.4119 0.859375 31.6075V8.84226Z" fill="#F05FFA"/>
<defs>
<linearGradient id="paint0_linear_1244_35559" x1="2.5" y1="31" x2="71" y2="31" gradientUnits="userSpaceOnUse">
<stop stop-color="#F169FA"/>
<stop offset="1" stop-color="#E58F51"/>
</linearGradient>
</defs>
</svg>
