<svg width="349" height="344" viewBox="0 0 349 344" fill="none" xmlns="http://www.w3.org/2000/svg">
<path d="M56.001 86.88C56.471 84.801 57.325 83.003 58.604 81.529C73.434 64.44 138.396 96.53 203.7 153.202C269.004 209.875 309.922 269.67 295.092 286.759C293.813 288.233 292.153 289.332 290.16 290.09L329.85 324.533C329.827 324.652 329.797 324.766 329.772 324.885C336.809 290.474 286.771 216.242 208.181 148.039C129.861 80.071 49.601 41.014 16.312 52.437L56.001 86.88Z" fill="url(#paint0_linear_11_745)"/>
<path opacity="0.1" d="M180.089 300.016C159.586 300.016 139.839 295.321 121.396 286.062C56.827 253.646 30.669 174.743 63.084 110.174C85.463 65.6 130.369 37.909 180.277 37.909C200.78 37.909 220.528 42.604 238.972 51.864C270.25 67.567 293.542 94.51 304.555 127.731C315.569 160.952 312.986 196.472 297.283 227.751C274.904 272.325 229.998 300.016 180.089 300.016Z" fill="white"/>
<path d="M180.184 288.312C246.099 288.312 299.534 234.877 299.534 168.962C299.534 103.047 246.099 49.612 180.184 49.612C114.269 49.612 60.834 103.047 60.834 168.962C60.834 234.877 114.269 288.312 180.184 288.312Z" fill="url(#paint1_linear_11_745)"/>
<mask id="mask0_11_745" style="mask-type:luminance" maskUnits="userSpaceOnUse" x="60" y="49" width="240" height="240">
<path d="M264.574 253.354C311.183 206.745 311.183 131.178 264.574 84.5689C217.966 37.9603 142.398 37.9603 95.7896 84.5689C49.181 131.178 49.181 206.745 95.7896 253.354C142.398 299.962 217.966 299.962 264.574 253.354Z" fill="white"/>
</mask>
<g mask="url(#mask0_11_745)">
<path opacity="0.2" d="M312.685 168.396C312.58 154.594 264.882 147.746 204.776 167.7C144.671 187.653 73.328 136.412 72.67 85.7791C72.67 85.7791 4.94 198.084 104.234 275.748C203.528 353.412 313.343 254.958 312.685 168.396Z" fill="white"/>
</g>
<path d="M185.508 275.229C182.934 275.229 182.93 279.229 185.508 279.229C188.081 279.229 188.086 275.229 185.508 275.229Z" fill="white"/>
<path d="M68.379 163.168C65.805 163.168 65.801 167.168 68.379 167.168C70.953 167.168 70.957 163.168 68.379 163.168Z" fill="white"/>
<path d="M144.4 75.1951C143.113 75.1951 143.111 77.1951 144.4 77.1951C145.687 77.1951 145.689 75.1951 144.4 75.1951Z" fill="white"/>
<path d="M190.013 66.748C188.726 66.748 188.724 68.748 190.013 68.748C191.299 68.748 191.302 66.748 190.013 66.748Z" fill="white"/>
<path d="M184.945 116.866C183.658 116.866 183.656 118.866 184.945 118.866C186.231 118.866 186.234 116.866 184.945 116.866Z" fill="white"/>
<path d="M228.868 103.351C227.581 103.351 227.579 105.351 228.868 105.351C230.155 105.351 230.157 103.351 228.868 103.351Z" fill="white"/>
<path d="M254.771 127.002C253.484 127.002 253.482 129.002 254.771 129.002C256.058 129.002 256.06 127.002 254.771 127.002Z" fill="white"/>
<path d="M272.791 145.585C271.504 145.585 271.502 147.585 272.791 147.585C274.078 147.585 274.08 145.585 272.791 145.585Z" fill="white"/>
<path d="M263.218 179.372C261.931 179.372 261.929 181.372 263.218 181.372C264.505 181.372 264.507 179.372 263.218 179.372Z" fill="white"/>
<path d="M276.733 206.402C275.446 206.402 275.444 208.402 276.733 208.402C278.02 208.402 278.022 206.402 276.733 206.402Z" fill="white"/>
<path d="M229.994 217.101C228.707 217.101 228.705 219.101 229.994 219.101C231.281 219.101 231.283 217.101 229.994 217.101Z" fill="white"/>
<path d="M216.479 178.246C215.192 178.246 215.19 180.246 216.479 180.246C217.766 180.246 217.768 178.246 216.479 178.246Z" fill="white"/>
<path d="M181.003 189.509C179.716 189.509 179.714 191.509 181.003 191.509C182.29 191.509 182.292 189.509 181.003 189.509Z" fill="white"/>
<path d="M171.43 150.653C170.143 150.653 170.141 152.653 171.43 152.653C172.717 152.653 172.719 150.653 171.43 150.653Z" fill="white"/>
<path d="M136.516 148.401C135.229 148.401 135.227 150.401 136.516 150.401C137.803 150.401 137.805 148.401 136.516 148.401Z" fill="white"/>
<path d="M125.817 110.109C124.53 110.109 124.528 112.109 125.817 112.109C127.104 112.109 127.106 110.109 125.817 110.109Z" fill="white"/>
<path d="M97.6611 117.429C96.3741 117.429 96.3721 119.429 97.6611 119.429C98.9481 119.429 98.9501 117.429 97.6611 117.429Z" fill="white"/>
<path d="M98.787 227.238C97.5 227.238 97.498 229.238 98.787 229.238C100.074 229.238 100.076 227.238 98.787 227.238Z" fill="white"/>
<path d="M135.953 215.412C134.666 215.412 134.664 217.412 135.953 217.412C137.24 217.412 137.242 215.412 135.953 215.412Z" fill="white"/>
<path d="M138.769 261.025C137.482 261.025 137.48 263.025 138.769 263.025C140.056 263.025 140.058 261.025 138.769 261.025Z" fill="white"/>
<path d="M108.924 256.52C107.637 256.52 107.635 258.52 108.924 258.52C110.21 258.52 110.212 256.52 108.924 256.52Z" fill="white"/>
<path d="M204.654 258.209C203.367 258.209 203.365 260.209 204.654 260.209C205.941 260.209 205.943 258.209 204.654 258.209Z" fill="white"/>
<path d="M236.751 257.083C235.464 257.083 235.462 259.083 236.751 259.083C238.038 259.083 238.04 257.083 236.751 257.083Z" fill="white"/>
<path d="M95.4091 199.082C94.1221 199.082 94.1201 201.082 95.4091 201.082C96.6961 201.082 96.6981 199.082 95.4091 199.082Z" fill="white"/>
<path d="M75.1359 144.459C73.8489 144.459 73.8469 146.459 75.1359 146.459C76.4229 146.459 76.4249 144.459 75.1359 144.459Z" fill="white"/>
<path d="M153.973 108.546C151.399 108.546 151.395 112.546 153.973 112.546C156.547 112.546 156.551 108.546 153.973 108.546Z" fill="white"/>
<path d="M169.177 218.917C166.603 218.917 166.599 222.917 169.177 222.917C171.751 222.917 171.755 218.917 169.177 218.917Z" fill="white"/>
<path d="M259.276 205.402C256.702 205.402 256.698 209.402 259.276 209.402C261.85 209.402 261.854 205.402 259.276 205.402Z" fill="white"/>
<path d="M227.742 79.826C225.168 79.826 225.164 83.826 227.742 83.826C230.315 83.826 230.32 79.826 227.742 79.826Z" fill="white"/>
<path d="M122.438 244.257C119.864 244.257 119.86 248.257 122.438 248.257C125.012 248.257 125.016 244.257 122.438 244.257Z" fill="white"/>
<g opacity="0.5">
<mask id="mask1_11_745" style="mask-type:luminance" maskUnits="userSpaceOnUse" x="60" y="49" width="240" height="240">
<path d="M264.574 253.354C311.183 206.745 311.183 131.178 264.574 84.5689C217.966 37.9603 142.398 37.9603 95.7896 84.5689C49.181 131.178 49.181 206.745 95.7896 253.354C142.398 299.962 217.966 299.962 264.574 253.354Z" fill="white"/>
</mask>
<g mask="url(#mask1_11_745)">
<path d="M198.831 290.734C196.463 289.041 194.018 287.438 191.807 285.539C189.1 283.213 187.03 280.469 185.418 277.289C181.995 270.537 180.722 262.934 177.777 255.984C174.875 249.134 170.297 243.047 163.031 240.558C159.969 239.509 156.533 239.244 153.388 240.089C149.945 241.014 147.242 243.275 145.166 246.105C143.23 248.744 141.933 251.769 140.292 254.585C139.807 255.417 138.673 257.938 137.595 258.14C137.086 258.235 136.39 257.62 135.969 257.362C135.048 256.795 134.148 256.186 133.283 255.535C127.288 251.024 123.566 244.957 120.679 238.153C117.908 231.622 114.287 224.632 106.617 223.21C103.16 222.569 99.4079 223.172 96.8889 225.808C93.9699 228.862 93.6659 233.248 94.1319 237.235C95.2349 246.664 97.8319 255.997 101.303 264.82C99.8529 265.229 98.7389 267.266 100.04 268.831C118.322 290.836 147.588 298.143 174.876 300.557C179.157 300.936 183.446 301.215 187.737 301.448C189.976 301.569 192.215 301.677 194.455 301.78C195.573 301.831 196.695 301.856 197.812 301.931C198.039 301.946 198.267 301.931 198.49 301.984C198.551 301.998 198.596 302.014 198.644 302.028C198.808 304.042 201.782 305.305 202.953 303.093C203.307 302.424 203.444 301.745 203.395 301.093C204.376 302.49 205.118 304.046 205.468 305.833C206.046 308.78 210.549 307.532 209.972 304.591C208.746 298.341 203.744 294.247 198.831 290.734Z" fill="#686DE0"/>
<path d="M105.796 201.883C109.365 199.534 113.562 195.601 118.1 197.905C122.196 199.985 124.483 205.045 126.081 209.095C127.34 212.287 128.571 215.49 129.815 218.688C130.916 221.516 131.85 224.568 133.711 227.008C137.028 231.358 142.71 231.826 147.235 229.065C152.128 226.079 154.248 220.655 153.702 215.061C153.056 208.452 149.609 202.83 147.006 196.87C145.737 193.965 144.701 190.849 144.671 187.651C144.646 184.94 145.241 182.286 145.806 179.65C146.938 174.371 148.361 168.24 145.183 163.363C142.044 158.545 136.062 157.02 130.609 157.638C124.331 158.349 118.525 161.119 112.125 160.97C106.698 160.844 101.367 159.144 96.8099 156.208C86.4869 149.556 83.3399 137.144 78.5249 126.611C73.7699 116.21 65.4549 105.59 52.8619 105.769C50.1359 105.808 47.5289 106.479 45.0979 107.7C43.7989 108.352 43.6869 109.629 44.2139 110.624C43.0389 119.828 43.2009 129.051 44.7629 138.214C45.1129 140.268 47.9069 140.314 48.9549 138.932C54.4299 137.202 60.2779 140.335 63.4859 144.833C67.5459 150.524 68.4459 157.623 69.7079 164.312C70.2489 167.177 71.1319 170.231 73.2789 172.33C75.9399 174.932 79.5989 175 83.0919 174.933C89.5029 174.811 95.9409 174.307 102.342 174.915C105.358 175.202 108.373 175.811 111.204 176.906C113.535 177.807 116.537 179.272 118.006 181.379C118.355 181.88 118.435 182.352 118.675 182.885C118.692 182.923 118.692 182.976 118.688 183.029C118.67 183.037 118.664 183.041 118.638 183.05C117.845 183.337 116.853 183.327 116.024 183.439C114.867 183.594 113.711 183.749 112.555 183.904L100.413 185.532C96.3449 186.077 92.2709 186.746 88.1819 187.107C84.3459 187.445 80.7949 187.061 77.2159 185.603C70.7389 182.964 65.0739 178.708 57.8579 178.272C50.4839 177.826 44.3919 182.542 43.0869 189.82C41.7669 197.186 44.3409 204.763 48.3079 210.923C48.4579 211.156 48.6329 211.334 48.8179 211.487C48.7029 212.314 48.6019 213.144 48.5309 213.976C48.2729 216.97 52.9449 216.953 53.2019 213.976C53.8919 205.987 57.9259 194.271 67.6219 194.132C72.0349 194.069 76.1029 196.367 79.8209 198.491C83.7729 200.749 87.7479 203.305 92.2039 204.448C97.0879 205.701 101.63 204.624 105.796 201.883Z" fill="#686DE0"/>
<path d="M266.689 262.34C263.285 260.307 259.412 260.174 255.573 259.798C252.034 259.451 249.038 258.254 246.035 256.388C243.049 254.533 240.255 252.36 237.124 250.742C233.606 248.925 229.805 248.084 225.978 247.201C220.639 245.969 211.235 242.937 212.976 235.575C214.751 228.069 223.88 225.9 229.901 223.076C242.63 217.106 251.775 205.336 256.803 192.447C262.61 177.559 263.257 160.514 261.261 144.797C260.346 137.587 258.406 130.074 253.279 124.64C248.999 120.104 242.375 117.601 236.182 118.618C233.218 119.105 229.992 120.628 228.18 123.102C225.836 126.303 227.933 129.845 230.627 131.995C233.322 134.145 236.184 135.881 238.316 138.674C240.445 141.464 241.544 144.688 241.453 148.203C241.346 152.313 239.894 156.29 238.771 160.201C237.564 164.405 236.891 168.67 236.345 173.002C235.42 180.336 234.617 187.988 230.345 194.26C228.541 196.908 226.046 199.091 223.047 200.27C219.464 201.679 215.55 201.96 211.818 202.793C205.359 204.234 197.708 209.047 191.064 205.844C184.091 202.482 187.847 193.492 190.305 188.402C192.073 184.741 193.844 181 194.221 176.898C194.587 172.917 193.043 169.554 191.278 166.107C189.798 163.216 188.755 160.256 190.445 157.208C192.021 154.365 194.981 152.637 198.211 152.486C203.745 152.228 212.447 156.382 210.055 163.139C209.208 165.532 207.28 167.268 204.777 167.699C202.575 168.078 202.79 170.913 204.219 171.968C208.352 175.019 213.007 177.866 218.208 178.466C223.345 179.058 227.935 176.474 230.462 172.025C235.193 163.695 233.562 153.012 228.61 145.183C223.222 136.665 214.063 131.509 204.347 129.502C194.539 127.477 183.083 127.62 173.969 132.166C165.57 136.356 159.04 146.587 162.863 156.021C163.878 158.525 165.565 160.589 166.877 162.926C168.03 164.981 168.518 167.216 168.475 169.563C168.385 174.529 166.321 179.316 164.853 183.99C163.3 188.933 162.332 193.907 163.05 199.09C163.742 204.083 165.742 208.895 168.678 212.987C170.218 215.133 171.962 217.09 173.926 218.855C175.898 220.628 177.947 222.287 179.279 224.623C181.724 228.91 181.997 234.148 182.751 238.92C184.313 248.801 187.298 258.997 194.45 266.342C200.52 272.576 208.94 276.074 214.621 282.71C215.869 284.168 216.932 285.852 217.638 287.64C217.844 288.163 218.183 288.607 218.604 288.916C217.375 289.118 216.703 290.684 217.004 291.78C217.373 293.123 218.623 293.59 219.877 293.411C238.368 290.773 255.676 280.74 267.16 266.01C268.076 264.835 268.105 263.186 266.689 262.34Z" fill="#686DE0"/>
<path d="M74.0529 96.486C74.6569 96.848 75.2599 97.21 75.8639 97.573C76.5849 98.005 77.3069 97.979 77.9149 97.69C78.3509 97.732 78.8249 97.622 79.3059 97.292C81.5569 95.752 84.3599 97.134 86.0069 98.963C88.3219 101.533 89.2439 105.172 90.7699 108.207C93.5419 113.72 99.7699 118.547 105.949 114.936C110.648 112.189 112.402 106.392 115.348 102.14C117.075 99.647 119.65 97.815 122.564 96.981C126.047 95.984 129.533 96.788 133.024 97.298C136.543 97.811 140.027 97.932 143.389 96.605C146.122 95.526 148.51 93.88 150.845 92.123C155.329 88.749 160.014 84.733 165.996 86.489C169.406 87.49 172.342 89.627 175.423 91.324C178.527 93.033 182.023 94.436 185.616 94.473C192.731 94.547 197.154 88.624 197.392 81.935C197.534 77.942 196.094 74.133 194.451 70.565C192.692 66.746 190.783 63.059 189.453 59.055C186.728 50.848 185.757 42.214 186.503 33.604C186.639 32.03 184.907 31.025 183.547 31.352C175.915 33.185 167.022 37.894 166.994 46.863C166.981 50.933 168.674 54.731 169.867 58.544C170.769 61.426 171.738 65.188 168.816 67.272C167.34 68.325 165.378 68.518 163.623 68.626C161.518 68.755 159.405 68.726 157.308 68.984C152.788 69.54 149.145 71.731 145.598 74.466C141.995 77.244 138.549 80.111 134.012 81.165C129.42 82.231 124.523 81.654 120.075 80.223C111.157 77.355 103.463 70.389 99.9199 61.689C99.8389 61.489 99.7339 61.305 99.6189 61.129C99.7519 60.594 99.6989 60.017 99.3799 59.471C98.7869 58.458 97.2169 57.896 96.1849 58.633C85.0339 66.593 77.5109 78.697 75.1949 92.117C73.1969 92.157 71.8929 95.189 74.0529 96.486Z" fill="#686DE0"/>
<path d="M303.794 125.374C301.488 116.771 298.607 108.325 295.234 100.082C292.244 92.7751 288.917 85.5871 284.825 78.8241C276.779 65.5241 265.754 54.3121 251.159 48.4401C243.033 45.1711 234.12 43.6561 225.369 44.0321C221.235 44.2101 216.643 44.5831 212.704 45.9471C212.243 46.1071 211.77 46.3111 211.301 46.5521C210.757 45.7741 210.139 45.0481 209.452 44.3951C207.273 42.3251 203.964 45.6221 206.149 47.6981C206.753 48.2721 207.26 48.9021 207.695 49.5731C206.63 51.1121 206.287 52.9561 207.504 54.8691C208.09 55.7901 208.997 56.0591 209.838 55.9151C210.377 59.7961 210.082 64.0041 210.368 67.5051C210.653 71.0021 211.236 74.7481 213.299 77.6881C216 81.5371 220.324 83.2591 224.952 83.2161C229.935 83.1691 234.747 81.5851 239.749 81.6821C244.079 81.7651 248.461 82.7671 252.212 84.9801C260.298 89.7501 261.492 98.9641 262.498 107.481C263.026 111.953 263.535 116.527 265.138 120.766C266.923 125.486 269.935 128.892 273.689 132.181C277.385 135.418 280.423 138.952 282.054 143.663C283.569 148.041 283.955 152.813 282.885 157.339C281.665 162.495 278.684 166.978 276.63 171.81C274.464 176.904 273.812 182.209 273.891 187.714C273.968 193.119 274.578 198.548 273.995 203.943C273.418 209.292 270.881 213.542 268.113 218.02C265.695 221.931 263.437 226.127 263.545 230.854C263.636 234.829 265.134 238.961 268.494 241.3C272.71 244.236 277.72 242.362 281.707 240.038C283.89 238.766 286.002 237.471 288.434 236.724C290.876 235.974 293.393 235.653 295.945 235.758C298.498 235.863 300.965 236.46 303.334 237.405C304.888 238.025 306.145 236.487 306.29 235.153C308.313 216.526 310.334 197.85 310.416 179.092C310.495 160.954 308.494 142.913 303.794 125.374Z" fill="#686DE0"/>
<path d="M156.08 105.168C151.501 105.147 147.157 108.256 143.46 110.627C141.14 112.115 138.891 113.711 136.699 115.384C132.09 117.04 127.885 119.516 125.046 123.804C123.205 126.585 121.215 131.659 124.732 133.99C127.913 136.098 132.697 134.235 135.803 132.91C139.896 131.164 143.831 128.992 147.804 126.992C151.597 125.083 155.788 123.431 159.244 120.934C162.363 118.681 164.675 115.171 163.993 111.184C163.348 107.399 159.731 105.185 156.08 105.168Z" fill="#686DE0"/>
<path d="M182.777 105.118C179.075 105.148 176.504 109.436 177.758 112.814C178.403 114.55 179.737 115.986 181.424 116.761C183.284 117.614 185.204 117.746 187.206 117.368C188.956 117.038 190.712 116.247 192.218 115.308C193.787 114.33 195.212 112.898 195.539 111.007C196.149 107.47 193.273 103.956 189.81 103.342C187.224 102.882 184.846 103.719 182.777 105.118Z" fill="#686DE0"/>
<path d="M231.853 109.955C233.425 109.022 234.548 107.647 235.219 105.962C236.431 102.918 235.392 98.999 232.524 97.278C229.86 95.679 225.801 96.286 223.965 98.867C223.451 99.111 222.951 99.38 222.495 99.72C220.822 100.965 219.66 102.72 219.515 104.838C219.236 108.896 223.507 111.2 227.033 111.226C228.697 111.237 230.419 110.806 231.853 109.955Z" fill="#686DE0"/>
</g>
</g>
<mask id="mask2_11_745" style="mask-type:luminance" maskUnits="userSpaceOnUse" x="60" y="49" width="240" height="240">
<path d="M264.574 253.354C311.183 206.745 311.183 131.178 264.574 84.5689C217.966 37.9603 142.398 37.9603 95.7896 84.5689C49.181 131.178 49.181 206.745 95.7896 253.354C142.398 299.962 217.966 299.962 264.574 253.354Z" fill="white"/>
</mask>
<g mask="url(#mask2_11_745)">
<path opacity="0.1" d="M137.112 40.406C137.112 40.406 87.7219 131.567 163.05 199.09C238.378 266.613 309.431 202.644 309.431 202.644C309.431 202.644 259.682 322.009 132.311 291.352C4.93988 260.694 48.9969 68.682 137.112 40.406Z" fill="black"/>
</g>
<mask id="mask3_11_745" style="mask-type:luminance" maskUnits="userSpaceOnUse" x="60" y="49" width="240" height="240">
<path d="M264.574 253.354C311.183 206.745 311.183 131.178 264.574 84.5689C217.966 37.9603 142.398 37.9603 95.7896 84.5689C49.181 131.178 49.181 206.745 95.7896 253.354C142.398 299.962 217.966 299.962 264.574 253.354Z" fill="white"/>
</mask>
<g mask="url(#mask3_11_745)">
<path opacity="0.1" d="M114.097 52.437C114.097 52.437 60.833 139.7 139.085 215.979C217.337 292.258 297.069 243.383 297.069 243.383C297.069 243.383 216.021 340.12 116.727 275.748C17.434 211.376 43.079 117.074 114.097 52.437Z" fill="black"/>
</g>
<path d="M290.161 290.09C269.048 298.122 209.669 266.871 149.997 215.085C90.324 163.299 51.023 108.914 56.001 86.88L16.312 52.437C12.214 53.843 8.82702 56.014 6.24502 58.99C-17.32 86.144 34.883 170.038 122.844 246.373C210.805 322.708 301.215 362.577 324.78 335.422C327.363 332.446 329.035 328.787 329.85 324.532L290.161 290.09Z" fill="url(#paint2_linear_11_745)"/>
<g opacity="0.3">
<path d="M229.127 78.392C226.939 71.999 220.443 68.335 214.446 66.168C205.933 63.091 196.755 61.68 187.711 61.981C180.488 62.221 171.895 63.038 165.761 67.384C161.238 69.345 157.521 72.731 157.233 78.188C156.817 86.049 166.378 90.023 172.462 92.253C179.901 94.98 187.904 96.18 195.737 97.142C203.763 98.128 212.635 98.571 220.211 95.251C226.552 92.471 231.549 85.466 229.127 78.392Z" fill="white"/>
<path d="M256.508 106.54C254.656 104.253 251.805 102.97 248.94 102.54C247.548 102.331 246.052 102.266 244.551 102.375C242.563 102.357 240.596 102.773 238.744 103.626C236.244 104.777 233.705 106.955 232.943 109.693C231.205 115.941 238.664 119.539 243.476 120.79C246.405 121.551 249.613 121.733 252.46 120.564C255.055 119.498 257.238 117.522 258.214 114.852C259.269 111.965 258.386 108.859 256.508 106.54Z" fill="white"/>
</g>
<path d="M295.798 256.933C295.155 256.933 295.153 257.933 295.798 257.933C296.441 257.933 296.442 256.933 295.798 256.933Z" fill="#30336B"/>
<path d="M309.876 280.021C309.232 280.021 309.231 281.021 309.876 281.021C310.519 281.021 310.52 280.021 309.876 280.021Z" fill="#30336B"/>
<path d="M298.613 302.546C297.97 302.546 297.968 303.546 298.613 303.546C299.257 303.546 299.258 302.546 298.613 302.546Z" fill="#30336B"/>
<path d="M304.808 327.323C304.164 327.323 304.163 328.323 304.808 328.323C305.451 328.323 305.452 327.323 304.808 327.323Z" fill="#30336B"/>
<path d="M252.438 317.187C251.795 317.187 251.793 318.187 252.438 318.187C253.081 318.187 253.082 317.187 252.438 317.187Z" fill="#30336B"/>
<path d="M245.117 300.856C244.474 300.856 244.472 301.856 245.117 301.856C245.761 301.856 245.762 300.856 245.117 300.856Z" fill="#30336B"/>
<path d="M223.156 304.798C222.512 304.798 222.511 305.798 223.156 305.798C223.799 305.798 223.8 304.798 223.156 304.798Z" fill="#30336B"/>
<path d="M202.32 264.254C201.676 264.254 201.675 265.254 202.32 265.254C202.964 265.254 202.965 264.254 202.32 264.254Z" fill="#30336B"/>
<path d="M154.455 246.797C153.812 246.797 153.81 247.797 154.455 247.797C155.098 247.797 155.099 246.797 154.455 246.797Z" fill="#30336B"/>
<path d="M153.892 231.593C153.249 231.593 153.247 232.593 153.892 232.593C154.535 232.593 154.536 231.593 153.892 231.593Z" fill="#30336B"/>
<path d="M117.746 225.706C117.726 225.644 117.691 225.59 117.643 225.545C117.598 225.496 117.544 225.462 117.482 225.442C117.422 225.411 117.358 225.396 117.289 225.399C117.16 225.405 117.026 225.447 116.935 225.545C116.845 225.643 116.789 225.763 116.789 225.899V226.462C116.786 226.531 116.801 226.595 116.832 226.655C116.852 226.717 116.887 226.771 116.935 226.816C116.98 226.865 117.034 226.899 117.096 226.919C117.156 226.95 117.22 226.965 117.289 226.962C117.418 226.956 117.552 226.914 117.643 226.816C117.733 226.718 117.789 226.598 117.789 226.462V225.899C117.792 225.83 117.777 225.765 117.746 225.706Z" fill="#30336B"/>
<path d="M94.2011 171.902C93.5581 171.902 93.5571 172.902 94.2011 172.902C94.8451 172.902 94.8461 171.902 94.2011 171.902Z" fill="#30336B"/>
<path d="M69.424 170.776C68.781 170.776 68.78 171.776 69.424 171.776C70.067 171.776 70.068 170.776 69.424 170.776Z" fill="#30336B"/>
<path d="M66.6081 146.562C65.9651 146.562 65.9641 147.562 66.6081 147.562C67.2521 147.562 67.2531 146.562 66.6081 146.562Z" fill="#30336B"/>
<path d="M32.2581 121.785C31.6151 121.785 31.6131 122.785 32.2581 122.785C32.9011 122.785 32.9031 121.785 32.2581 121.785Z" fill="#30336B"/>
<path d="M41.831 99.2601C41.187 99.2601 41.186 100.26 41.831 100.26C42.474 100.26 42.475 99.2601 41.831 99.2601Z" fill="#30336B"/>
<path d="M20.9962 72.793C20.3532 72.793 20.3512 73.793 20.9962 73.793C21.6392 73.793 21.6402 72.793 20.9962 72.793Z" fill="#30336B"/>
<path d="M35.0741 53.647C34.4311 53.647 34.4291 54.647 35.0741 54.647C35.7171 54.647 35.7181 53.647 35.0741 53.647Z" fill="#30336B"/>
<path d="M53.0941 62.0941C52.4511 62.0941 52.4491 63.0941 53.0941 63.0941C53.7371 63.0941 53.7381 62.0941 53.0941 62.0941Z" fill="#30336B"/>
<path d="M57.0351 75.046C56.3921 75.046 56.3911 76.046 57.0351 76.046C57.6791 76.046 57.6801 75.046 57.0351 75.046Z" fill="#30336B"/>
<path d="M80.1231 67.162C79.4801 67.162 79.4781 68.162 80.1231 68.162C80.7671 68.162 80.7681 67.162 80.1231 67.162Z" fill="#30336B"/>
<path d="M292.419 250.239C291.132 250.239 291.13 252.239 292.419 252.239C293.706 252.239 293.708 250.239 292.419 250.239Z" fill="#30336B"/>
<path d="M305.371 269.948C304.084 269.948 304.082 271.948 305.371 271.948C306.658 271.948 306.66 269.948 305.371 269.948Z" fill="#30336B"/>
<path d="M317.196 302.046C315.909 302.046 315.907 304.046 317.196 304.046C318.483 304.046 318.485 302.046 317.196 302.046Z" fill="#30336B"/>
<path d="M281.157 304.298C279.87 304.298 279.868 306.298 281.157 306.298C282.444 306.298 282.446 304.298 281.157 304.298Z" fill="#30336B"/>
<path d="M274.962 332.454C273.675 332.454 273.673 334.454 274.962 334.454C276.249 334.454 276.251 332.454 274.962 332.454Z" fill="#30336B"/>
<path d="M210.204 300.356C208.917 300.356 208.915 302.356 210.204 302.356C211.491 302.356 211.493 300.356 210.204 300.356Z" fill="#30336B"/>
<path d="M213.019 268.259C211.732 268.259 211.73 270.259 213.019 270.259C214.306 270.259 214.308 268.259 213.019 268.259Z" fill="#30336B"/>
<path d="M174.727 268.822C173.44 268.822 173.438 270.822 174.727 270.822C176.014 270.822 176.016 268.822 174.727 268.822Z" fill="#30336B"/>
<path d="M167.407 245.171C166.12 245.171 166.118 247.171 167.407 247.171C168.694 247.171 168.696 245.171 167.407 245.171Z" fill="#30336B"/>
<path d="M131.367 223.772C130.08 223.772 130.078 225.772 131.367 225.772C132.654 225.772 132.656 223.772 131.367 223.772Z" fill="#30336B"/>
<path d="M107.153 229.967C105.866 229.967 105.864 231.967 107.153 231.967C108.44 231.967 108.442 229.967 107.153 229.967Z" fill="#30336B"/>
<path d="M88.007 185.48C86.72 185.48 86.718 187.48 88.007 187.48C89.294 187.48 89.296 185.48 88.007 185.48Z" fill="#30336B"/>
<path d="M68.861 179.286C67.574 179.286 67.572 181.286 68.861 181.286C70.148 181.286 70.15 179.286 68.861 179.286Z" fill="#30336B"/>
<path d="M71.6762 145.499C70.3892 145.499 70.3872 147.499 71.6762 147.499C72.9632 147.499 72.9652 145.499 71.6762 145.499Z" fill="#30336B"/>
<path d="M39.579 135.363C38.292 135.363 38.29 137.363 39.579 137.363C40.866 137.363 40.868 135.363 39.579 135.363Z" fill="#30336B"/>
<path d="M46.3361 107.77C45.0491 107.77 45.0471 109.77 46.3361 109.77C47.6231 109.77 47.6251 107.77 46.3361 107.77Z" fill="#30336B"/>
<path d="M19.8691 89.187C18.5821 89.187 18.5801 91.187 19.8691 91.187C21.1561 91.187 21.1581 89.187 19.8691 89.187Z" fill="#30336B"/>
<path d="M37.3261 67.788C36.0391 67.788 36.0371 69.788 37.3261 69.788C38.6131 69.788 38.6151 67.788 37.3261 67.788Z" fill="#30336B"/>
<path d="M42.394 85.808C41.107 85.808 41.105 87.808 42.394 87.808C43.681 87.808 43.683 85.808 42.394 85.808Z" fill="#30336B"/>
<path d="M91.9492 71.73C90.6622 71.73 90.6602 73.73 91.9492 73.73C93.2362 73.73 93.2382 71.73 91.9492 71.73Z" fill="#30336B"/>
<path d="M309.831 261.08C309.784 260.885 309.695 260.715 309.562 260.57C309.456 260.407 309.316 260.278 309.141 260.184C308.806 260.007 308.403 259.92 308.029 260.025C308.055 259.877 308.061 259.73 308.028 259.582C308.019 259.382 307.96 259.197 307.85 259.024C307.644 258.704 307.336 258.422 306.954 258.335C306.569 258.247 306.141 258.268 305.798 258.486C305.205 258.864 304.772 259.433 304.585 260.114C304.532 260.307 304.515 260.512 304.492 260.71C304.482 260.798 304.477 260.885 304.481 260.973C304.495 261.253 304.528 261.555 304.632 261.82C304.703 262 304.777 262.207 304.886 262.376C304.995 262.544 305.12 262.711 305.26 262.854C305.565 263.165 305.893 263.329 306.288 263.487C306.552 263.592 306.849 263.625 307.129 263.639C307.208 263.643 307.286 263.64 307.365 263.632C307.569 263.611 307.783 263.591 307.983 263.537C308.27 263.46 308.564 263.339 308.806 263.163C308.968 263.045 309.161 262.912 309.298 262.754C309.436 262.595 309.578 262.424 309.679 262.237C309.868 261.885 309.938 261.469 309.831 261.08Z" fill="#30336B"/>
<path d="M292.738 300.393C292.667 300.139 292.538 299.918 292.352 299.731C291.777 299.252 291.202 298.774 290.627 298.295C290.491 298.149 290.33 298.045 290.144 297.985C289.965 297.891 289.773 297.848 289.566 297.856C289.36 297.848 289.167 297.891 288.988 297.985C288.802 298.046 288.641 298.149 288.505 298.295C288.243 298.581 288.048 298.956 288.066 299.356C288.084 299.489 288.102 299.622 288.119 299.755C288.19 300.009 288.319 300.23 288.505 300.417L289.555 301.77C289.691 301.916 289.852 302.02 290.038 302.08C290.217 302.174 290.409 302.217 290.616 302.209C290.678 302.211 290.736 302.2 290.796 302.193C290.952 302.26 291.115 302.298 291.291 302.292C291.497 302.3 291.69 302.257 291.869 302.163C292.055 302.103 292.216 301.999 292.352 301.853C292.614 301.567 292.809 301.192 292.791 300.792C292.774 300.659 292.756 300.526 292.738 300.393Z" fill="#30336B"/>
<path d="M262.72 296.548C262.516 295.916 261.955 295.449 261.274 295.447C261.085 295.446 260.897 295.441 260.709 295.428C260.642 295.423 260.575 295.417 260.508 295.41C260.521 295.414 260.534 295.416 260.545 295.42C260.531 295.414 260.51 295.414 260.495 295.408C260.488 295.407 260.481 295.407 260.474 295.406C260.314 295.39 260.346 295.383 260.416 295.39C260.276 295.359 260.118 295.346 259.989 295.318C259.82 295.281 259.653 295.238 259.486 295.19C259.32 295.142 259.155 295.088 258.993 295.029C258.985 295.026 258.968 295.017 258.957 295.012C259.144 294.534 259.331 294.057 259.518 293.579C259.748 292.991 259.369 292.171 258.829 291.885C258.264 291.586 257.462 291.61 257.011 292.119C256.261 292.968 255.511 293.817 254.761 294.666C254.242 295.254 254.139 296.216 254.761 296.787C255.088 297.087 255.557 297.243 256.003 297.207C255.989 297.704 256.104 298.205 256.326 298.646C256.465 298.921 256.67 299.187 256.906 299.385C257.367 299.773 257.806 299.893 258.395 299.794C258.535 299.771 258.674 299.739 258.812 299.706C259.957 299.433 261.076 298.926 262.032 298.24C262.557 297.865 262.937 297.218 262.72 296.548Z" fill="#30336B"/>
<path d="M260.507 295.41C260.474 295.4 260.444 295.394 260.415 295.391C260.442 295.397 260.47 295.401 260.494 295.409C260.499 295.41 260.503 295.41 260.507 295.41Z" fill="#30336B"/>
<path d="M204.575 292.253C204.424 291.127 203.683 290.274 202.627 289.895C201.908 289.637 201.117 289.702 200.37 289.744C200.067 289.761 199.77 289.749 199.469 289.744C199.417 289.731 199.365 289.717 199.314 289.703C199.242 289.658 199.171 289.615 199.103 289.563C198.248 288.903 196.71 289.788 196.846 290.858C197.008 292.139 197.171 293.421 197.334 294.702C197.174 295.035 197.074 295.397 197.079 295.765C197.105 297.651 199.204 299.004 200.95 298.597C202.703 298.188 203.607 296.408 204.158 294.868C204.459 294.026 204.696 293.154 204.575 292.253Z" fill="#30336B"/>
<path d="M143.238 250.23C143.242 250.232 143.241 250.231 143.245 250.232C143.238 250.228 143.232 250.223 143.225 250.219C143.217 250.212 143.21 250.207 143.202 250.201C143.192 250.196 143.182 250.193 143.171 250.188C143.168 250.186 143.165 250.185 143.162 250.183L143.164 250.185C143.153 250.181 143.144 250.175 143.132 250.172C143.161 250.188 143.202 250.212 143.22 250.221C143.227 250.226 143.24 250.233 143.248 250.238L143.246 250.235C143.244 250.234 143.241 250.233 143.238 250.23Z" fill="#30336B"/>
<path d="M148.131 250.082C147.819 249.796 147.488 249.691 147.07 249.643C146.915 249.625 146.757 249.645 146.599 249.656C146.593 249.653 146.589 249.651 146.583 249.648C146.568 249.635 146.552 249.622 146.538 249.609C146.518 249.59 146.5 249.57 146.481 249.551C146.674 249.37 146.831 249.136 146.938 248.858C147.215 248.14 146.798 247.351 146.161 246.995C145.897 246.582 145.453 246.297 144.921 246.308C143.758 246.333 142.649 246.702 141.701 247.324C141.673 247.334 141.643 247.335 141.615 247.346C140.471 247.79 139.686 248.707 139.642 249.97C139.62 250.6 140.121 251.275 140.743 251.416C141.405 251.567 142.075 251.312 142.437 250.727C142.484 250.651 142.535 250.578 142.582 250.503C142.583 250.501 142.583 250.501 142.584 250.499C142.692 250.374 142.802 250.251 142.922 250.136C142.946 250.136 142.97 250.135 142.994 250.136C143.038 250.146 143.082 250.156 143.126 250.169C143.128 250.17 143.13 250.171 143.132 250.172C143.111 250.16 143.096 250.152 143.068 250.136C143.068 250.136 143.069 250.136 143.071 250.136C143.101 250.152 143.132 250.168 143.162 250.183C143.102 250.139 143.144 250.156 143.203 250.201C143.266 250.231 143.293 250.252 143.245 250.232C143.256 250.239 143.266 250.246 143.277 250.253C143.278 250.255 143.279 250.256 143.28 250.258C143.269 250.251 143.258 250.244 143.248 250.238C143.278 250.269 143.309 250.31 143.341 250.349C143.358 250.375 143.375 250.401 143.39 250.428C143.425 250.486 143.46 250.586 143.504 250.651C143.559 250.815 143.602 250.983 143.635 251.153V251.155C143.635 251.239 143.654 251.334 143.658 251.412C143.668 251.607 143.669 251.802 143.662 251.997C143.662 252.008 143.66 252.019 143.66 252.031C143.658 252.036 143.655 252.04 143.654 252.045C143.471 252.578 143.503 253.104 143.585 253.649C143.678 254.267 144.434 254.777 145.031 254.75C145.639 254.723 146.373 254.31 146.477 253.649C146.521 253.367 146.561 253.085 146.591 252.803C146.612 252.779 146.632 252.755 146.641 252.746C146.655 252.732 146.672 252.716 146.689 252.702C146.708 252.691 146.727 252.68 146.745 252.668C146.845 252.668 146.946 252.651 147.048 252.642C147.055 252.643 147.061 252.643 147.068 252.643L147.067 252.639C147.2 252.625 147.333 252.62 147.466 252.589C148.193 252.42 148.635 251.65 148.54 250.943C148.501 250.628 148.372 250.303 148.131 250.082Z" fill="#30336B"/>
<path d="M112.887 191.388C112.975 190.799 112.712 190.217 112.176 189.86L108.708 187.547C108.054 187.111 107.019 187.398 106.656 188.085C106.252 188.85 106.504 189.659 107.194 190.137C107.32 190.224 107.445 190.314 107.57 190.402C107.488 190.487 107.395 190.56 107.337 190.672C106.373 192.503 106.715 194.687 107.934 196.204C107.796 196.285 107.658 196.367 107.52 196.449C106.529 197.035 106.571 198.444 107.52 199.039C110.479 200.896 113.726 197.776 113.942 194.832C114.034 193.603 113.56 192.414 112.887 191.388ZM110.486 193.859C110.579 193.824 110.664 193.77 110.755 193.728C110.78 193.792 110.807 193.858 110.815 193.882C110.862 194.028 110.891 194.178 110.934 194.324C110.94 194.346 110.944 194.354 110.949 194.368C110.949 194.376 110.948 194.377 110.948 194.387C110.948 194.496 110.946 194.612 110.951 194.721C110.952 194.739 110.953 194.745 110.954 194.758C110.953 194.762 110.953 194.762 110.952 194.766C110.943 194.803 110.933 194.839 110.925 194.876C110.922 194.875 110.918 194.873 110.915 194.872C110.838 194.83 110.76 194.792 110.685 194.745C110.596 194.689 110.394 194.485 110.637 194.725C110.56 194.649 110.474 194.582 110.397 194.505C110.32 194.427 110.253 194.342 110.178 194.262C110.421 194.519 110.206 194.29 110.155 194.211C110.106 194.135 110.062 194.055 110.018 193.975C110.178 193.952 110.336 193.917 110.486 193.859Z" fill="#30336B"/>
<path d="M52.5651 158.284C52.4561 158.235 52.3501 158.183 52.2481 158.12C52.2351 158.112 52.2101 158.095 52.1831 158.076C52.1761 158.07 52.1671 158.062 52.1631 158.058C52.0951 157.995 52.0351 157.926 51.9731 157.857C51.9411 157.804 51.9051 157.752 51.8751 157.698C51.8581 157.667 51.8401 157.626 51.8211 157.588C51.7921 157.496 51.7661 157.404 51.7401 157.311C51.7371 157.281 51.7351 157.251 51.7341 157.222C51.7311 157.087 51.7411 156.955 51.7581 156.822C51.8751 155.899 50.6981 155.057 49.8591 155.376C49.2241 155.618 48.5581 155.934 47.9711 156.343C47.0291 156.352 46.1321 156.709 45.3691 157.318C44.4601 158.043 43.8751 159.285 43.9941 160.454C44.1281 161.767 44.8071 162.914 45.9261 163.63C46.5191 164.009 47.3711 164.293 48.0711 164.133C48.5461 164.025 48.8051 163.645 49.1081 163.311C49.2951 163.105 49.4911 162.906 49.6941 162.715C49.9041 162.517 50.1251 162.333 50.3481 162.15C50.4191 162.11 50.5111 162.027 50.5621 161.991C50.6761 161.911 50.7911 161.832 50.9081 161.756C51.4341 161.414 51.9901 161.121 52.5661 160.873C53.5581 160.448 53.5371 158.717 52.5651 158.284Z" fill="#30336B"/>
<path d="M54.9772 117.506C54.8882 117.35 54.7772 117.213 54.6552 117.089C54.5562 116.853 54.4412 116.623 54.2932 116.42C53.9462 115.942 53.5772 115.552 53.0692 115.239C52.5532 114.921 51.9872 114.777 51.3902 114.734C51.0232 114.707 50.5822 114.92 50.3292 115.173C50.0692 115.433 49.8732 115.86 49.8902 116.234C49.9072 116.622 50.0352 117.024 50.3292 117.295C50.5072 117.458 50.7032 117.558 50.9122 117.629C50.7632 117.916 50.6662 118.231 50.6632 118.568C50.6572 119.212 50.9482 119.881 51.4412 120.303C52.0362 120.811 52.7962 121.069 53.5752 120.874C53.8722 120.8 54.1642 120.656 54.3822 120.438C54.6022 120.218 54.7102 119.95 54.8112 119.665C54.8822 119.466 54.9142 119.253 54.9392 119.042C55.2212 118.585 55.2652 118.011 54.9772 117.506Z" fill="#30336B"/>
<path d="M16.5131 103.383C15.8181 102.611 14.6241 102.176 13.5961 102.282C13.0151 102.342 12.4841 102.509 11.9781 102.732C11.5471 102.226 11.0211 101.799 10.4991 101.512C9.81209 101.133 8.83209 101.322 8.44709 102.05C8.07509 102.754 8.25109 103.698 8.98509 104.102C9.10609 104.169 9.21909 104.256 9.33909 104.326C9.35109 104.336 9.36309 104.346 9.37509 104.356C9.44909 104.421 9.52009 104.488 9.58909 104.558C9.59709 104.566 9.60409 104.574 9.61109 104.582C9.60609 104.598 9.59409 104.607 9.59009 104.623C9.58809 104.63 9.58809 104.638 9.58609 104.645C8.65109 105.06 8.04709 105.981 8.07909 107.019C8.10709 107.896 8.49709 108.822 9.16509 109.404C10.0651 110.189 11.1811 110.36 12.3311 110.122C13.3111 109.919 14.2171 109.355 15.0301 108.792C15.7941 108.263 16.6071 107.63 17.0001 106.759C17.5281 105.591 17.3821 104.348 16.5131 103.383Z" fill="#30336B"/>
<path d="M15.462 54.246C15.155 53.711 14.655 53.203 14.088 52.948C13.612 52.734 13.144 52.613 12.616 52.613C12.463 52.613 12.307 52.632 12.151 52.651C12.067 52.57 11.975 52.497 11.87 52.441C11.143 52.057 10.25 52.261 9.81798 52.979C9.64098 53.273 9.52598 53.59 9.45798 53.915C9.36098 53.993 9.26298 54.068 9.16898 54.151C8.89098 54.394 8.72998 54.853 8.72998 55.212C8.72998 55.58 8.89298 56.019 9.16898 56.273C9.43598 56.518 9.78198 56.697 10.152 56.706C10.435 57.077 10.756 57.402 11.142 57.684C11.29 57.792 11.448 57.885 11.616 57.961C11.887 58.084 12.168 58.212 12.464 58.265C13.123 58.384 13.749 58.362 14.371 58.1C14.509 58.042 14.648 57.988 14.776 57.909C15.081 57.721 15.272 57.51 15.476 57.219C15.646 56.976 15.774 56.68 15.827 56.388C15.959 55.64 15.843 54.909 15.462 54.246Z" fill="#30336B"/>
<path d="M67.1181 60.143C66.8951 59.749 66.5961 59.483 66.2381 59.222C66.0551 59.089 65.8371 59.011 65.6291 58.928C65.5831 58.91 65.5361 58.894 65.4871 58.882C65.3161 58.841 65.1351 58.822 64.9611 58.808C64.9161 58.804 64.8711 58.805 64.8261 58.809C64.6781 58.821 64.5181 58.842 64.3721 58.87C64.3481 58.875 64.3251 58.88 64.3021 58.887C63.9111 59.002 63.7061 59.155 63.3971 59.403C63.2881 59.504 63.2111 59.624 63.1501 59.752C63.1411 59.759 63.1321 59.766 63.1241 59.772C62.9381 59.959 62.8101 60.18 62.7381 60.434C62.7211 60.476 62.7071 60.52 62.6981 60.565C62.6821 60.646 62.6741 60.737 62.6631 60.813C62.6521 60.896 62.6341 60.989 62.6311 61.077C62.6251 61.288 62.6541 61.508 62.7181 61.709C62.7681 61.866 62.8391 62.022 62.9101 62.17C62.9291 62.209 62.9501 62.246 62.9741 62.282C63.0661 62.419 63.1711 62.551 63.2781 62.677C63.3071 62.711 63.3381 62.743 63.3711 62.773C63.4931 62.886 63.6321 62.984 63.7661 63.084C63.8031 63.111 63.8401 63.137 63.8791 63.16C63.9181 63.183 63.9591 63.205 64.0001 63.224C64.1531 63.295 64.3101 63.364 64.4691 63.42C64.6701 63.491 64.9091 63.509 65.1111 63.53C65.3221 63.552 65.5501 63.508 65.7511 63.473C65.9541 63.438 66.1571 63.341 66.3331 63.25C66.4231 63.203 66.5011 63.134 66.5791 63.073C66.6631 63.008 66.7561 62.946 66.8281 62.866C66.9391 62.743 67.0411 62.611 67.1321 62.472C67.2251 62.329 67.2821 62.158 67.3431 62.001C67.3581 61.963 67.3711 61.925 67.3791 61.885C67.3971 61.802 67.4051 61.711 67.4151 61.63C67.4261 61.546 67.4441 61.455 67.4471 61.367C67.4631 60.949 67.3221 60.504 67.1181 60.143Z" fill="#30336B"/>
<path d="M30.0061 94.881C28.0761 94.881 28.0721 97.881 30.0061 97.881C31.9361 97.881 31.9391 94.881 30.0061 94.881Z" fill="#30336B"/>
<defs>
<linearGradient id="paint0_linear_11_745" x1="3.98581" y1="10.032" x2="315.677" y2="276.35" gradientUnits="userSpaceOnUse">
<stop stop-color="#4834D4"/>
<stop offset="0.5" stop-color="#8D405B" stop-opacity="0"/>
<stop offset="1" stop-color="#EB4D4B"/>
</linearGradient>
<linearGradient id="paint1_linear_11_745" x1="72.7775" y1="273.579" x2="224.677" y2="125.624" gradientUnits="userSpaceOnUse">
<stop stop-color="#F0932B"/>
<stop offset="1" stop-color="#E056FD"/>
</linearGradient>
<linearGradient id="paint2_linear_11_745" x1="-37.1751" y1="58.2054" x2="274.516" y2="324.524" gradientUnits="userSpaceOnUse">
<stop stop-color="#4834D4"/>
<stop offset="0.5" stop-color="#8D405B" stop-opacity="0"/>
<stop offset="1" stop-color="#EB4D4B"/>
</linearGradient>
</defs>
</svg>
